<svg viewBox="0 0 366 178" fill="none" xmlns="http://www.w3.org/2000/svg">
<rect width="365" height="178" transform="translate(0.5)" fill="white"/>
<path d="M228.424 76.4486V146.28H75.7563V76.4486C75.7563 73.2646 78.4811 70.6866 81.8373 70.6866H222.342C225.702 70.6866 228.424 73.2646 228.424 76.4486Z" fill="#575DA9"/>
<path d="M88.4372 99.8025C84.1937 99.8025 80.7437 103.256 80.7437 107.499C80.7437 111.741 84.1937 115.195 88.4372 115.195C92.6806 115.195 96.1324 111.741 96.1324 107.499C96.1324 103.256 92.6806 99.8025 88.4372 99.8025ZM88.4372 115.809C83.8558 115.809 80.126 112.081 80.126 107.499C80.126 102.914 83.8558 99.1879 88.4372 99.1879C93.0202 99.1879 96.7483 102.914 96.7483 107.499C96.7483 112.081 93.0202 115.809 88.4372 115.809Z" fill="#003A71"/>
<path d="M93.6158 79.626C93.6158 80.2384 93.1193 80.7363 92.5033 80.7363C91.8908 80.7363 91.3925 80.2384 91.3925 79.626C91.3925 79.0114 91.8908 78.5149 92.5033 78.5149C93.1193 78.5149 93.6158 79.0114 93.6158 79.626Z" fill="#003A71"/>
<path d="M117.45 79.626C117.45 80.2384 116.952 80.7363 116.338 80.7363C115.725 80.7363 115.227 80.2384 115.227 79.626C115.227 79.0114 115.725 78.5149 116.338 78.5149C116.952 78.5149 117.45 79.0114 117.45 79.626Z" fill="#003A71"/>
<path d="M141.285 79.626C141.285 80.2384 140.787 80.7363 140.174 80.7363C139.558 80.7363 139.062 80.2384 139.062 79.626C139.062 79.0114 139.558 78.5149 140.174 78.5149C140.787 78.5149 141.285 79.0114 141.285 79.626Z" fill="#003A71"/>
<path d="M165.12 79.626C165.12 80.2384 164.622 80.7363 164.009 80.7363C163.395 80.7363 162.897 80.2384 162.897 79.626C162.897 79.0114 163.395 78.5149 164.009 78.5149C164.622 78.5149 165.12 79.0114 165.12 79.626Z" fill="#003A71"/>
<path d="M188.954 79.626C188.954 80.2384 188.458 80.7363 187.842 80.7363C187.229 80.7363 186.731 80.2384 186.731 79.626C186.731 79.0114 187.229 78.5149 187.842 78.5149C188.458 78.5149 188.954 79.0114 188.954 79.626Z" fill="#003A71"/>
<path d="M212.787 79.626C212.787 80.2384 212.291 80.7363 211.676 80.7363C211.064 80.7363 210.566 80.2384 210.566 79.626C210.566 79.0114 211.064 78.5149 211.676 78.5149C212.291 78.5149 212.787 79.0114 212.787 79.626Z" fill="#003A71"/>
<path d="M93.6158 95.2482C93.6158 95.8607 93.1193 96.3593 92.5033 96.3593C91.8908 96.3593 91.3925 95.8607 91.3925 95.2482C91.3925 94.6345 91.8908 94.1378 92.5033 94.1378C93.1193 94.1378 93.6158 94.6345 93.6158 95.2482Z" fill="#003A71"/>
<path d="M117.45 95.2482C117.45 95.8607 116.952 96.3593 116.338 96.3593C115.725 96.3593 115.227 95.8607 115.227 95.2482C115.227 94.6345 115.725 94.1378 116.338 94.1378C116.952 94.1378 117.45 94.6345 117.45 95.2482Z" fill="#003A71"/>
<path d="M141.285 95.2482C141.285 95.8607 140.787 96.3593 140.174 96.3593C139.558 96.3593 139.062 95.8607 139.062 95.2482C139.062 94.6345 139.558 94.1378 140.174 94.1378C140.787 94.1378 141.285 94.6345 141.285 95.2482Z" fill="#003A71"/>
<path d="M165.12 95.2482C165.12 95.8607 164.622 96.3593 164.009 96.3593C163.395 96.3593 162.897 95.8607 162.897 95.2482C162.897 94.6345 163.395 94.1378 164.009 94.1378C164.622 94.1378 165.12 94.6345 165.12 95.2482Z" fill="#003A71"/>
<path d="M188.954 95.2482C188.954 95.8607 188.458 96.3593 187.842 96.3593C187.229 96.3593 186.731 95.8607 186.731 95.2482C186.731 94.6345 187.229 94.1378 187.842 94.1378C188.458 94.1378 188.954 94.6345 188.954 95.2482Z" fill="#003A71"/>
<path d="M212.787 95.2482C212.787 95.8607 212.291 96.3593 211.676 96.3593C211.064 96.3593 210.566 95.8607 210.566 95.2482C210.566 94.6345 211.064 94.1378 211.676 94.1378C212.291 94.1378 212.787 94.6345 212.787 95.2482Z" fill="#003A71"/>
<path d="M117.45 110.869C117.45 111.485 116.952 111.982 116.338 111.982C115.725 111.982 115.227 111.485 115.227 110.869C115.227 110.257 115.725 109.758 116.338 109.758C116.952 109.758 117.45 110.257 117.45 110.869Z" fill="#003A71"/>
<path d="M141.285 110.869C141.285 111.485 140.787 111.982 140.174 111.982C139.558 111.982 139.062 111.485 139.062 110.869C139.062 110.257 139.558 109.758 140.174 109.758C140.787 109.758 141.285 110.257 141.285 110.869Z" fill="#003A71"/>
<path d="M165.12 110.869C165.12 111.485 164.622 111.982 164.009 111.982C163.395 111.982 162.897 111.485 162.897 110.869C162.897 110.257 163.395 109.758 164.009 109.758C164.622 109.758 165.12 110.257 165.12 110.869Z" fill="#003A71"/>
<path d="M188.954 110.869C188.954 111.485 188.458 111.982 187.842 111.982C187.229 111.982 186.731 111.485 186.731 110.869C186.731 110.257 187.229 109.758 187.842 109.758C188.458 109.758 188.954 110.257 188.954 110.869Z" fill="#003A71"/>
<path d="M212.787 110.869C212.787 111.485 212.291 111.982 211.676 111.982C211.064 111.982 210.566 111.485 210.566 110.869C210.566 110.257 211.064 109.758 211.676 109.758C212.291 109.758 212.787 110.257 212.787 110.869Z" fill="#003A71"/>
<path d="M218.329 99.8025C214.085 99.8025 210.634 103.256 210.634 107.499C210.634 111.741 214.085 115.195 218.329 115.195C222.572 115.195 226.024 111.741 226.024 107.499C226.024 103.256 222.572 99.8025 218.329 99.8025ZM218.329 115.809C213.746 115.809 210.018 112.081 210.018 107.499C210.018 102.914 213.746 99.1879 218.329 99.1879C222.912 99.1879 226.64 102.914 226.64 107.499C226.64 112.081 222.912 115.809 218.329 115.809Z" fill="#003A71"/>
<path d="M75.7563 99.4954V100.714C76.6401 101.181 77.2338 102.041 77.2338 103.024V145.609H75.7563V146.158H78.4658V103.024C78.4658 101.415 77.3397 100.041 75.7563 99.4954Z" fill="#003A71"/>
<path d="M62.9524 146.158H77.848V107.022C77.848 103.029 74.6129 99.792 70.6203 99.792H70.18C66.1874 99.792 62.9524 103.029 62.9524 107.022V146.158Z" fill="#575DA9"/>
<path d="M225.717 103.024V146.158H228.423V145.609H226.947V103.024C226.947 102.041 227.541 101.181 228.423 100.714V99.4954C226.842 100.041 225.717 101.415 225.717 103.024Z" fill="#003A71"/>
<path d="M241.229 146.158H226.331V107.022C226.331 103.029 229.568 99.792 233.559 99.792H234.001C237.994 99.792 241.229 103.029 241.229 107.022V146.158Z" fill="#575DA9"/>
<path d="M225.103 127.072C225.103 128.398 224.025 129.476 222.701 129.476H175.485H128.391H81.1769C79.8511 129.476 78.7711 128.398 78.7711 127.072V118.705C78.7711 117.38 79.8511 116.302 81.1769 116.302H128.391H175.485H222.701C224.025 116.302 225.103 117.38 225.103 118.705V127.072ZM222.701 115.686H81.1769C79.5116 115.686 78.1568 117.04 78.1568 118.705V127.072C78.1568 128.737 79.5116 130.09 81.1769 130.09H128.391H175.485H222.701C224.366 130.09 225.721 128.737 225.721 127.072V118.705C225.721 117.04 224.366 115.686 222.701 115.686Z" fill="#003A71"/>
<path d="M92.1142 146.281H68.7556V163.099H71.2177V148.745H92.1142V146.281Z" fill="#F04F0A"/>
<path d="M212.067 146.281H235.426V163.099H232.964V148.745H212.067V146.281Z" fill="#F04F0A"/>
<path d="M150.77 101.999C151.493 101.701 152.208 101.362 152.922 100.954C153.324 100.724 153.73 100.473 154.007 100.101C154.275 99.7411 154.403 99.296 154.52 98.8621C154.696 98.2309 154.87 97.5996 155.046 96.9685C155.208 96.3793 155.341 95.6628 154.914 95.2243C154.619 94.9223 154.155 94.873 153.732 94.851C152.976 94.8117 152.21 94.7996 151.478 94.6118C149.069 93.9979 147.903 90.5406 146.629 88.6431C142.959 83.1785 139.287 77.7132 135.618 72.2477C133.969 69.791 132.329 67.3715 130.532 65.0355C129.14 63.2253 127.418 60.9884 125.089 60.3912C122.443 59.7122 118.727 61.1591 116.903 63.058C116.08 63.9145 115.686 64.9894 115.541 66.1533C115.213 68.7773 115.457 71.5519 115.904 74.166C115.86 74.236 115.85 74.3179 115.892 74.4112C115.923 74.4779 115.952 74.5445 115.983 74.6112C115.986 74.6266 115.988 74.6438 115.991 74.6591C116.005 74.7291 116.037 74.7885 116.089 74.8398C119.73 82.8505 123.659 90.8752 129.614 97.451C131.6 99.6439 133.823 101.777 136.292 103.425C138.434 104.851 141.933 104.58 144.324 103.928C146.549 103.322 148.685 102.848 150.77 101.999Z" fill="#F9B736"/>
<path d="M118.974 80.4603C120.132 79.1973 121.238 77.8802 122.33 76.546C123.069 75.6401 124.952 73.6006 124.304 72.3296C123.012 69.7943 120.82 67.2948 119.081 65.0354C118.103 63.763 117.281 62.42 115.58 63.5683C113.178 65.1874 111.383 67.4941 109.371 69.5416C107.197 71.7551 104.858 73.8772 102.604 76.0394C97.8194 80.6357 92.8252 85.0139 87.645 89.1603C87.4215 89.3395 87.1809 89.5429 87.1263 89.8261C87.0871 90.0167 87.1434 90.2132 87.2066 90.396C87.9727 92.6428 90.3426 94.1424 92.2775 95.3487C92.6 95.5501 92.9447 95.7466 93.3235 95.762C93.6545 95.7753 93.9736 95.646 94.2773 95.5161C100.816 92.788 107.349 89.8887 113.113 85.7696C115.276 84.2262 117.185 82.4085 118.974 80.4603Z" fill="#F9B736"/>
<path d="M73.2326 90.1447C73.5739 90.0681 73.9168 89.9948 74.2683 89.9349C76.3294 89.587 76.4079 91.2625 76.4574 92.8768C76.4745 93.4261 76.3362 93.9292 76.3243 94.4597C76.3089 95.1342 76.4932 95.76 76.3755 96.4425C76.2424 97.209 75.8107 97.9649 75.1009 98.2788C74.775 98.4235 74.415 98.468 74.0618 98.5107C70.2808 98.9627 66.4519 99.5978 62.6486 99.7805C61.671 99.8298 60.5551 99.7837 59.9152 99.0432C59.5876 98.666 59.446 98.1676 59.3146 97.6862C58.9819 96.4698 58.1237 93.8199 59.5484 93.0287C60.0074 92.7727 60.5346 92.6668 61.0516 92.5661C64.7115 91.8464 68.3749 91.1279 72.0348 90.4073C72.4409 90.3273 72.835 90.2353 73.2326 90.1447Z" fill="#FFC9B3"/>
<path d="M49.5427 85.0601C49.5273 85.0947 49.5137 85.1255 49.5 85.1575L58.7462 103.662C58.8861 103.612 59.0243 103.562 59.1608 103.507C59.4714 103.384 59.7734 103.242 60.0669 103.087C61.1794 102.491 62.1485 101.664 62.86 100.584C63.0119 100.352 63.1586 100.072 63.0852 99.794C63.0033 99.4887 62.698 99.3115 62.4335 99.1388C61.4404 98.4923 60.4832 97.2912 60.3518 96.0808C60.2648 95.293 60.4184 94.5012 60.6999 93.7794C60.821 93.4621 60.9644 93.1462 60.9934 92.8016C61.0241 92.4264 60.8807 92.0831 60.6436 91.7918C59.9764 90.9795 58.8059 90.5474 57.9528 89.9557C56.9751 89.2751 56.0452 88.5194 55.1767 87.6968C54.443 87.0023 53.7486 86.2618 52.9552 85.646C52.4569 85.2654 51.5697 84.651 50.7899 84.523C50.2849 84.4343 49.8259 84.5537 49.5427 85.0601Z" fill="#7FBFEB"/>
<path d="M49.5427 85.0601C49.5273 85.0947 49.5137 85.1255 49.5 85.1575L58.7462 103.662C58.8861 103.612 59.0244 103.562 59.1609 103.507C59.4714 103.384 59.7734 103.242 60.0669 103.087L50.7899 84.523C50.2849 84.4343 49.8259 84.5537 49.5427 85.0601Z" fill="#03172A"/>
<path d="M54.4078 87.8566C54.6517 87.8433 54.8496 88.0819 55.0203 88.2339C55.9775 89.087 56.9995 89.8615 58.0676 90.558C58.6716 90.9538 59.291 91.3191 59.9258 91.6597C60.0264 91.7129 60.0981 91.8223 60.1151 91.9363C60.1254 92.0049 60.0998 92.1496 59.9974 92.0936C58.7945 91.4485 57.6394 90.7112 56.5457 89.8821C56.0099 89.4742 55.4913 89.0476 54.9862 88.6004C54.8855 88.5118 54.7592 88.3465 54.6261 88.3125C54.464 88.2678 54.3549 88.4492 54.2832 88.5632C54.1655 88.7545 53.8429 89.6502 53.5529 89.6076C53.1024 89.5462 53.5546 88.8398 53.6604 88.713C53.7526 88.5971 53.8396 88.4711 53.918 88.3398C54.0289 88.1506 54.1569 87.8706 54.4078 87.8566Z" fill="#575DA9"/>
<path d="M59.0633 90.2233C59.1043 90.2693 59.14 90.3239 59.1571 90.3852C59.1725 90.4331 59.1878 90.4925 59.169 90.5405C59.0496 90.8884 58.9302 91.2404 58.809 91.5883C58.7749 91.6869 58.6725 91.6529 58.6128 91.5883C58.5719 91.5403 58.536 91.4844 58.5173 91.4263C58.5036 91.3784 58.4883 91.317 58.5054 91.269C58.6265 90.9191 58.746 90.5712 58.8671 90.2233C58.9012 90.1205 59.0036 90.16 59.0633 90.2233Z" fill="#03172A"/>
<path d="M58.0092 89.5389C58.0792 89.6162 58.1475 89.7508 58.1151 89.8581C58.0195 90.1828 57.9034 90.5 57.7652 90.8066C57.7499 90.8426 57.7329 90.872 57.6885 90.872C57.6458 90.8733 57.5964 90.836 57.5708 90.8066C57.5281 90.7594 57.4923 90.7046 57.4752 90.6447C57.4598 90.5986 57.4411 90.5321 57.4615 90.4881C57.5997 90.1808 57.7192 89.8648 57.8113 89.5389C57.842 89.437 57.9512 89.4776 58.0092 89.5389Z" fill="#03172A"/>
<path d="M56.8472 88.6758C56.8899 88.6738 56.9393 88.7098 56.9649 88.7405C57.0093 88.7864 57.0435 88.841 57.0622 88.901C57.0759 88.949 57.0929 89.0136 57.0741 89.0583C56.9513 89.3255 56.8284 89.5936 56.7056 89.8601C56.6902 89.8941 56.6732 89.9248 56.6288 89.9248C56.5862 89.9268 56.5384 89.8888 56.5111 89.8601C56.4685 89.8142 56.4326 89.7576 56.4156 89.6961C56.4019 89.6514 56.3831 89.5856 56.4019 89.5409C56.5247 89.2749 56.6476 89.007 56.7705 88.7405C56.7875 88.7031 56.8011 88.6758 56.8472 88.6758Z" fill="#03172A"/>
<path d="M55.8902 87.7458C55.9619 87.8244 56.025 87.9558 55.9977 88.0631C55.9022 88.4184 55.7572 88.7555 55.5661 89.0649C55.5439 89.0988 55.4995 89.0988 55.4671 89.0869C55.421 89.0695 55.3749 89.0236 55.3476 88.9828C55.2947 88.8988 55.2385 88.7676 55.2965 88.6757C55.3408 88.6043 55.3818 88.5303 55.421 88.4557C55.4432 88.4163 55.4602 88.3789 55.479 88.3397C55.479 88.3397 55.4842 88.3257 55.4876 88.3211C55.491 88.3156 55.4995 88.297 55.4978 88.297C55.5081 88.2764 55.5166 88.2576 55.5234 88.239C55.5917 88.0785 55.648 87.9145 55.694 87.7458C55.7213 87.6418 55.8356 87.6859 55.8902 87.7458Z" fill="#03172A"/>
<path d="M154.776 110.04C154.094 107.317 154.542 104.056 154.3 101.242C154.246 100.602 154.203 99.6252 153.996 98.7634C153.831 98.0688 153.558 97.4509 153.084 97.1424C152.626 96.8452 152.08 96.7205 151.548 96.6012C143.02 94.6957 134.47 93.6685 125.852 92.3035C121.975 91.6891 118.099 91.0765 114.224 90.4607C110.477 89.8682 106.61 88.9111 102.827 88.6571C100.526 88.5018 98.021 88.1419 95.7517 87.7273C93.7247 87.3567 91.957 87.2714 89.8549 87.3675C84.9408 87.5874 80.0388 88.0786 75.1776 88.8378C71.9545 89.3409 68.7502 89.9622 65.5731 90.6993C64.9298 90.8499 64.2695 90.9265 63.6246 91.0579C63.6706 91.6444 63.7337 92.2303 63.8139 92.8101C64.1245 95.0949 64.65 97.3436 65.2045 99.5771C65.3479 100.157 65.4946 100.735 65.6397 101.316C68.8867 100.502 72.294 100.338 75.6195 100.082C84.3351 99.4165 93.8986 100.514 102.259 103.222C106.759 104.677 111.004 106.767 115.328 108.656C117.087 109.422 118.796 109.888 120.533 110.741C122.543 111.729 124.632 112.546 126.77 113.207C135.269 115.831 144.371 116.005 153.154 115.056C156.104 114.739 155.273 112.019 154.776 110.04Z" fill="#F9B736"/>
<path d="M106.156 89.1107C106.146 89.1107 106.139 89.1107 106.129 89.1088C100.943 88.3002 95.6609 87.7251 90.4244 87.4012C90.322 87.3959 90.2452 87.3072 90.2503 87.2047C90.2572 87.104 90.3407 87.0274 90.4465 87.034C95.6933 87.3565 100.99 87.9331 106.185 88.7456C106.286 88.7596 106.354 88.8548 106.34 88.9568C106.325 89.0462 106.247 89.1107 106.156 89.1107Z" fill="#F04F0A"/>
<path d="M144.249 95.4003C144.237 95.4003 144.222 95.3983 144.208 95.395C143.136 95.151 142.027 94.9857 140.954 94.8238C140.186 94.7091 139.391 94.5899 138.61 94.4412L132.36 93.2609C131.259 93.0522 130.121 92.8375 128.99 92.8309C128.33 92.8256 127.688 92.715 127.067 92.6056C126.651 92.5336 126.219 92.4591 125.787 92.4176C125.687 92.4077 125.611 92.3171 125.62 92.2164C125.63 92.1137 125.719 92.0392 125.823 92.0491C126.268 92.0938 126.707 92.1683 127.13 92.2417C127.765 92.3529 128.364 92.455 128.992 92.4603C130.159 92.469 131.31 92.6875 132.428 92.8976L138.678 94.08C139.453 94.2266 140.244 94.3438 141.009 94.4585C142.089 94.6206 143.205 94.7878 144.29 95.035C144.389 95.0591 144.452 95.1563 144.43 95.257C144.409 95.3423 144.333 95.4003 144.249 95.4003Z" fill="#F04F0A"/>
<path d="M146.806 94.8642C146.714 94.8642 146.634 94.7929 146.624 94.6956C146.615 94.5929 146.689 94.5044 146.791 94.4943C147.904 94.3904 149.025 94.2383 150.125 94.0438C150.226 94.0264 150.321 94.0931 150.338 94.1938C150.357 94.2943 150.289 94.3904 150.188 94.409C149.081 94.605 147.948 94.7569 146.825 94.8628C146.818 94.8628 146.813 94.8642 146.806 94.8642Z" fill="#F04F0A"/>
<path d="M118.016 81.0861C117.957 81.0861 117.899 81.0588 117.863 81.0042C117.806 80.9208 117.83 80.8049 117.916 80.7483C119.994 79.3753 121.657 77.3498 122.601 75.0429C122.639 74.9489 122.746 74.903 122.842 74.9422C122.935 74.9816 122.982 75.089 122.942 75.183C121.971 77.5578 120.258 79.6425 118.119 81.0575C118.086 81.0774 118.052 81.0861 118.016 81.0861Z" fill="#F04F0A"/>
<path d="M152.511 113.483C152.686 114.154 152.857 114.875 153.328 115.348H171.636C173.697 115.327 175.76 115.323 177.823 115.336C178.347 115.339 178.869 115.343 179.391 115.348H198.484C201.026 114.973 203.557 114.346 205.952 113.608C208.232 112.907 210.465 111.902 212.224 110.293C214.685 108.04 216.123 104.298 214.779 101.109C214.753 101.046 214.726 100.982 214.697 100.918C213.617 98.5393 211.487 96.7565 209.128 95.632C206.918 94.581 204.737 93.5559 202.316 93.0947C199.086 92.4821 195.766 92.6034 192.485 92.8034C188.279 93.0561 184.08 93.4327 179.896 93.9292C175.983 94.3936 171.902 95.1222 167.949 95.1222C167.099 95.1968 166.249 95.2722 165.398 95.3015C162.598 95.3968 159.81 94.9942 157.012 94.8796C156.389 94.8555 155.742 94.8489 155.164 95.0862C153.123 95.9327 152.831 99.2205 152.471 101.076C151.918 103.909 151.64 106.811 151.876 109.697C151.982 110.973 152.19 112.241 152.511 113.483Z" fill="white"/>
<path d="M207.776 78.8239C208.383 78.1375 208.996 77.4503 209.595 76.7472C211.653 74.3364 213.712 71.9257 215.77 69.5162C216.789 68.3231 218.126 67.7566 219.722 67.9806C222.04 68.3031 223.627 70.4132 224.946 72.3522C226.471 74.5924 227.995 76.8325 229.521 79.0725C231.415 81.8559 233.262 85.0225 233.247 88.4929C233.244 89.2114 233.162 89.9466 232.829 90.5831C232.425 91.3575 231.897 91.4396 231.201 91.7762C230.49 92.1187 229.893 92.8713 229.244 93.3678C227.719 94.5382 226.024 95.4665 224.34 96.3831C221.83 97.7514 219.304 99.1244 216.591 100.025C213.683 100.99 210.59 101.394 207.532 101.205C206.061 101.116 204.57 100.881 203.26 100.207C201.802 99.4577 200.685 98.2186 199.743 96.9049C199.339 96.3384 198.629 95.564 198.429 94.8948C198.223 94.199 198.743 93.3832 199.018 92.728C200.378 89.4641 202.072 86.3415 204.062 83.4202C205.181 81.7825 206.469 80.3017 207.776 78.8239Z" fill="#FFC9B3"/>
<path d="M220.679 97.6115C220.418 97.2209 220.18 96.8109 219.936 96.4105C218.868 94.6629 217.758 92.9466 216.608 91.2536C215.509 89.6414 214.36 88.0511 213.007 86.6401C211.704 85.2771 210.281 84.0107 208.788 82.859C207.883 82.1632 206.947 81.5112 205.983 80.9021C205.31 81.7126 204.662 82.543 204.061 83.4202C202.072 86.3415 200.378 89.4641 199.018 92.728C198.745 93.3832 198.223 94.199 198.429 94.8948C198.629 95.564 199.338 96.3384 199.743 96.9049C200.685 98.2186 201.802 99.4577 203.26 100.207C204.57 100.881 206.061 101.116 207.532 101.205C210.59 101.394 213.683 100.99 216.59 100.025C218.123 99.5157 219.599 98.8552 221.042 98.1321C220.919 97.9594 220.798 97.7854 220.679 97.6115Z" fill="white"/>
<path d="M219.143 79.0833C219.23 78.9806 219.133 78.8427 219.073 78.7313C218.981 78.5607 218.894 78.3868 218.811 78.2128C218.645 77.863 218.5 77.503 218.374 77.1365C218.123 76.4046 217.954 75.6448 217.867 74.8757C217.8 74.2645 217.785 73.6506 217.826 73.038C217.835 72.8908 217.403 72.8807 217.394 73.038C217.294 74.5684 217.536 76.1159 218.085 77.5477C218.21 77.8715 218.35 78.1875 218.505 78.498C218.596 78.6753 218.799 79.2966 219.08 79.1347C219.107 79.1193 219.128 79.1019 219.143 79.0833Z" fill="#D14205"/>
<path d="M220.266 90.4694C219.155 89.7424 217.908 89.1672 216.594 88.9404C215.92 88.8225 215.246 88.8313 214.576 88.7132C213.9 88.5939 213.304 88.3707 212.608 88.4354C212.335 88.4607 212.031 88.6006 211.733 88.7753C211.38 88.9799 211.032 89.2338 210.748 89.3977C210.003 89.833 209.322 90.3822 208.742 91.0221C208.372 91.4299 208.039 91.8752 207.698 92.3084C207.148 93.0095 206.113 93.9381 205.677 94.8864C206.283 95.3664 206.926 95.7962 207.59 96.1955C209.066 97.0812 210.627 97.8111 212.125 98.6562C213.286 99.3094 214.412 100.045 215.403 100.932C215.5 100.824 215.584 100.669 215.649 100.456C216.026 99.2275 216.695 98.3743 217.744 97.5978C218.534 97.0093 219.145 96.4787 219.844 95.7755C220.409 95.2057 221.186 94.6839 221.602 93.9947C222.38 92.7063 221.348 91.1773 220.266 90.4694Z" fill="#FFC9B3"/>
<path d="M211.733 88.7752C211.38 88.9798 211.032 89.2337 210.749 89.3977C210.003 89.8329 209.322 90.3822 208.742 91.022C208.372 91.4298 208.039 91.8751 207.698 92.3084C207.942 92.6122 208.273 92.8748 208.519 93.0641C209.078 93.494 209.742 93.8 210.441 93.8919C211.09 93.9773 211.764 93.9686 212.387 93.7727C213.011 93.5759 213.584 93.1787 213.915 92.6122C214.856 90.9966 213.357 90.5647 212.482 89.5736C212.272 89.3344 212.045 89.0151 211.771 88.8018C211.759 88.7938 211.747 88.7832 211.733 88.7752Z" fill="#D14205"/>
<path d="M211.714 82.7213C211.706 82.6493 211.694 82.5761 211.682 82.5007C211.569 81.771 211.526 81.271 211.963 81.0011C212.294 80.7931 212.772 80.8685 213.233 80.9398L213.275 80.9465C214.031 81.0644 214.801 81.1238 215.56 81.1238C215.93 81.1238 216.306 81.1105 216.684 81.0832C216.746 81.0777 216.807 81.0745 216.87 81.0745C217.133 81.0625 217.434 81.049 217.715 80.8972C218.068 80.7059 218.321 80.4246 218.563 80.15C218.677 80.0234 218.783 79.9041 218.896 79.7968C219.507 79.2249 220.254 78.8836 221.252 78.7304C221.883 78.633 222.564 78.6157 223.221 78.599L223.33 78.5958C223.735 78.585 224.112 78.5958 224.468 78.6277C224.566 78.4264 224.671 78.2305 224.788 78.0413C224.33 77.9865 223.844 77.9658 223.313 77.9812L223.204 77.9832C222.527 78.0018 221.829 78.0172 221.16 78.1225C220.032 78.2972 219.179 78.6857 218.474 79.3496C218.341 79.4742 218.22 79.6108 218.104 79.7402C217.887 79.986 217.681 80.2167 217.422 80.356C217.265 80.4379 217.06 80.4486 216.843 80.4573C216.773 80.4606 216.705 80.464 216.637 80.4686C216.275 80.4959 215.913 80.5066 215.562 80.508C214.833 80.5066 214.094 80.45 213.369 80.3392L213.328 80.3326C212.781 80.2473 212.163 80.15 211.639 80.4773C210.823 80.9846 210.969 81.9157 211.074 82.5947C211.083 82.6681 211.095 82.7381 211.105 82.8067C211.172 83.2859 210.723 83.7311 210.23 84.115C210.363 84.2723 210.499 84.4257 210.634 84.581C211.119 84.207 211.832 83.5639 211.714 82.7213Z" fill="#D14205"/>
<path d="M221.205 78.4262C220.291 78.5682 219.429 78.8716 218.685 79.5727C218.313 79.9247 218.028 80.3765 217.568 80.6258C217.29 80.7758 216.969 80.7517 216.66 80.7758C216.295 80.8031 215.928 80.8171 215.561 80.815C214.812 80.815 214.061 80.7572 213.323 80.6432C212.806 80.5625 212.241 80.4639 211.799 80.7384C211.086 81.1824 211.313 82.0741 211.41 82.7639C211.512 83.5044 210.778 84.0929 210.265 84.4749C209.562 84.9953 208.796 85.3847 208.107 85.9372C207.258 86.6217 206.687 87.4728 207.161 88.5686C208.35 91.3238 210.782 93.0835 213.735 93.4567C214.554 93.5626 215.38 93.5713 216.203 93.5333C216.955 93.5014 217.51 93.4174 218.104 93.9532C218.682 94.4825 219.329 94.9409 220.042 95.2689C221.364 95.8761 222.876 96.0062 224.313 95.7874C225.718 95.5729 226.928 94.9943 228.205 94.4139C229.244 93.9399 229.844 92.6003 230.443 91.6619C230.914 90.9234 231.376 90.1501 231.513 89.285C231.882 86.9509 231.464 84.3096 230.162 82.2774C229.551 81.3202 228.802 80.5505 228.036 79.73C227.328 78.9709 226.292 78.6175 225.287 78.4283C224.64 78.3037 223.978 78.271 223.321 78.2884C222.605 78.3049 221.89 78.3203 221.205 78.4262Z" fill="#FFC9B3"/>
<path d="M219.525 89.0037C219.471 88.6898 219.488 88.3751 219.773 87.9919C220.039 87.6333 220.401 87.362 220.723 87.0514C222.592 85.2566 222.948 82.3659 222.556 79.8051C222.428 78.9687 222.257 78.0183 222.778 77.3512C223.573 76.324 225.711 76.524 226.7 77.0478C226.934 77.1705 227.178 77.3019 227.347 77.5083C227.625 77.8496 227.649 78.3275 227.843 78.7235C228.209 79.4719 229.137 79.8613 229.4 80.6509C229.563 81.1529 229.422 81.7247 229.63 82.2106C229.828 82.6645 230.282 82.9392 230.696 83.2091C231.473 83.707 232.256 84.3774 232.374 85.2906C232.469 86.021 232.112 86.7322 232.072 87.4681C232.02 88.3926 232.474 89.2902 232.432 90.2167C232.392 91.0744 231.937 91.851 231.474 92.5715C231.188 93.0167 230.886 93.4618 230.48 93.8012C230.215 94.0218 229.915 94.1904 229.618 94.359C228.813 94.8129 228.007 95.2669 227.202 95.7208C225.857 96.4799 224.499 97.2376 223.042 97.7635C221.563 98.2955 220.177 98.2068 218.7 98.4595C218.225 98.5393 217.48 98.3641 217.193 97.9462C216.92 97.5463 217.118 96.8592 217.128 96.4138C217.15 95.4449 217.386 94.4789 217.809 93.6086C218.061 93.0866 218.278 92.4929 218.57 91.9943C218.949 91.3457 219.565 91.0098 219.679 90.2027C219.747 89.7356 219.587 89.3702 219.525 89.0037Z" fill="#03172A"/>
<path d="M217.177 88.6823C217.194 88.6723 217.212 88.6603 217.229 88.6484C218.578 87.7458 221.835 87.7391 221.882 89.9487C221.895 90.7251 221.428 91.4656 220.771 91.8816C219.498 92.6907 216.761 92.634 216.012 91.0817C215.555 90.1359 216.444 89.1876 217.177 88.6823Z" fill="#FFC9B3"/>
<path d="M219.449 80.3796C219.486 80.3829 219.526 80.3916 219.565 80.4056C219.677 80.4429 219.77 80.5248 219.848 80.6135C220.124 80.9275 220.256 81.3486 220.29 81.7653C220.345 82.4205 220.266 83.1523 219.947 83.7341C219.911 83.7974 219.85 83.8694 219.782 83.8467C219.534 83.2255 219.718 82.5044 219.505 81.8726C219.387 81.5192 219.148 81.2126 219.063 80.8507C218.993 80.5555 219.178 80.351 219.449 80.3796Z" fill="#03172A"/>
<path d="M218.116 82.9426C218.285 82.844 218.428 82.7213 218.469 82.5794C218.5 82.4787 218.483 82.3615 218.447 82.2588C218.339 81.9569 218.082 81.851 217.819 81.9122C217.653 81.9503 217.496 82.0388 217.356 82.1363C217.21 82.2349 217.065 82.3574 216.954 82.5028C216.894 82.5794 216.86 82.6667 216.862 82.772C216.862 83.216 217.193 83.3098 217.512 83.2059C217.658 83.1559 217.906 83.066 218.116 82.9426Z" fill="#03172A"/>
<path d="M210.126 86.4883C210.156 86.6096 210.228 86.729 210.324 86.8449C210.95 87.6113 212.084 87.9081 213.006 87.5515C213.03 87.5428 213.055 87.5341 213.067 87.5141C213.089 87.4847 213.084 87.4474 213.077 87.4116C212.948 86.7596 212.497 86.3177 212.062 85.8484C211.887 85.6613 211.687 85.4592 211.431 85.434C211.052 85.398 210.564 85.7312 210.295 85.9698C210.115 86.1264 210.076 86.3078 210.126 86.4883Z" fill="white"/>
<path d="M230.046 91.1432C230.107 91.1912 230.151 91.3084 230.139 91.3852C230.052 91.9636 229.875 92.5422 229.51 93.0093C229.141 93.4827 228.578 93.8012 227.971 93.7911C227.848 93.7891 227.742 93.438 227.887 93.4412C228.461 93.4499 228.989 93.1394 229.334 92.6954C229.672 92.2622 229.839 91.7283 229.919 91.1912C229.931 91.1157 229.986 91.0971 230.046 91.1432Z" fill="#575DA9"/>
<path d="M229.089 90.9504C229.138 91.0097 229.178 91.117 229.149 91.1956C228.882 91.9588 228.193 92.5441 227.391 92.6647C227.255 92.6872 227.142 92.3387 227.258 92.3221C228.021 92.2061 228.69 91.6669 228.944 90.9344C228.973 90.8544 229.055 90.9057 229.089 90.9504Z" fill="#575DA9"/>
<path d="M222.465 95.9416C222.612 96.1409 222.965 96.0249 223.148 95.9448C223.477 95.7996 223.764 95.5797 223.997 95.3064C224.084 95.2024 224.255 95.523 224.173 95.6203C223.914 95.9256 223.578 96.1769 223.202 96.3214C222.923 96.4308 222.578 96.4395 222.382 96.1735C222.337 96.1122 222.288 96.0042 222.322 95.9276C222.356 95.8522 222.429 95.8902 222.465 95.9416Z" fill="#575DA9"/>
<path d="M221.228 94.9682C221.728 95.2175 222.341 95.1561 222.795 94.8368C222.856 94.7942 222.935 94.9375 222.948 94.9755C222.974 95.04 222.994 95.1354 222.929 95.1815C222.445 95.5227 221.785 95.562 221.256 95.2994C221.181 95.2634 221.138 95.156 221.133 95.0774C221.128 95.0182 221.152 94.9308 221.228 94.9682Z" fill="#575DA9"/>
<path d="M225.294 77.6057C225.436 77.4691 225.023 77.397 224.924 77.4943C224.397 78.0062 224.016 78.6481 223.832 79.3592C223.646 80.0777 223.66 80.9362 224.281 81.448C224.358 81.5095 224.485 81.5161 224.576 81.4875C224.637 81.4687 224.731 81.4021 224.654 81.3368C224.062 80.8522 224.085 80.0064 224.27 79.3306C224.451 78.6767 224.808 78.0782 225.294 77.6057Z" fill="#003A71"/>
<path d="M225.612 78.2913C225.165 79.0592 224.888 80.0744 225.455 80.8594C225.511 80.936 225.632 80.9482 225.721 80.9342C225.765 80.9294 225.929 80.878 225.871 80.7995C225.325 80.0457 225.598 79.0865 226.028 78.3493C226.106 78.2147 225.687 78.1615 225.612 78.2913Z" fill="#003A71"/>
<path d="M230.022 84.4136C229.962 84.337 229.848 84.323 229.757 84.337C229.715 84.3423 229.547 84.395 229.607 84.4716C230.314 85.3781 230.129 86.6931 229.186 87.3569C229.102 87.4149 229.206 87.4883 229.262 87.5069C229.356 87.5396 229.476 87.5261 229.558 87.4683C230.549 86.7718 230.769 85.3694 230.022 84.4136Z" fill="#003A71"/>
<path d="M228.319 85.6418C228.311 86.2957 228.011 86.9236 227.504 87.3361C227.427 87.4015 227.521 87.4694 227.581 87.4868C227.673 87.5155 227.799 87.5108 227.876 87.4487C228.415 87.0089 228.741 86.3364 228.751 85.6418C228.753 85.492 228.321 85.4886 228.319 85.6418Z" fill="#003A71"/>
<path d="M223.244 86.5241C223.087 86.8741 222.858 87.1554 222.547 87.3807C222.467 87.4387 222.566 87.5153 222.624 87.5306C222.723 87.5566 222.836 87.5513 222.919 87.4912C223.238 87.2593 223.498 86.9421 223.658 86.5821C223.728 86.4303 223.303 86.3909 223.244 86.5241Z" fill="#003A71"/>
<path d="M179.886 116.563C180.111 116.558 180.328 116.551 180.531 116.546C183.402 116.466 186.264 116.208 189.122 115.913C191.831 115.635 194.558 115.537 197.283 115.314C198.269 115.233 199.255 115.15 200.223 114.954C202.202 114.555 204.159 113.616 205.338 111.976C205.978 111.086 206.362 110.029 206.554 108.952C206.717 108.054 206.746 107.107 206.449 106.245C205.985 104.906 204.761 103.926 203.417 103.486C202.071 103.044 200.612 103.085 199.211 103.298C197.378 103.577 195.602 104.141 193.836 104.702C191.301 105.512 188.763 106.317 186.228 107.124C184.778 107.587 183.218 108.06 181.681 107.837C181.334 107.788 180.899 107.721 180.597 107.53C180.389 107.398 180.235 107.187 180.036 107.039C179.372 106.547 178.669 106.107 177.999 105.631C176.458 104.538 174.955 103.397 173.533 102.158C172.888 101.599 172.173 101.036 171.569 100.449C170.984 99.879 170.923 98.8605 170.808 98.1028C170.711 97.4629 170.583 96.8298 170.423 96.2039C170.273 95.6166 170.087 95.0215 169.699 94.5568C169.312 94.0931 168.677 93.7911 168.095 93.953C167.705 94.0644 167.539 94.0264 167.248 93.7431C167.056 93.5558 166.84 93.3918 166.608 93.2572C166.442 93.1613 166.266 93.0833 166.077 93.0519C165.57 92.9753 165.034 93.3492 164.932 93.8525C165.031 93.3645 162.629 92.9226 162.774 94.221C162.446 93.8544 161.926 93.6732 161.443 93.7604C160.948 93.8491 160.419 94.2277 160.417 94.7623C160.196 94.7602 159.749 94.7316 159.573 94.9054C159.412 95.0641 159.385 95.47 159.371 95.678C159.322 96.4358 159.684 97.1783 160.091 97.7955C160.881 98.9986 161.912 100.041 163.1 100.851C163.646 101.223 164.425 101.457 164.9 101.901C165.309 102.282 165.55 103.008 165.835 103.486C166.357 104.367 166.886 105.242 167.428 106.109C168.515 107.844 169.655 109.547 170.904 111.17C172.047 112.661 173.23 114.334 174.685 115.534C175.961 116.585 178.186 116.607 179.886 116.563Z" fill="#FFC9B3"/>
<path d="M206.448 106.245C205.984 104.906 204.761 103.926 203.416 103.486C202.07 103.044 200.611 103.085 199.21 103.298C197.378 103.577 195.602 104.141 193.836 104.703C192.928 104.993 192.02 105.281 191.112 105.571C191.189 105.79 191.266 106.008 191.341 106.228C192.102 108.426 192.829 110.637 193.6 112.831C193.914 113.725 194.235 114.619 194.569 115.505C195.474 115.449 196.378 115.389 197.282 115.314C198.269 115.233 199.255 115.15 200.222 114.954C202.201 114.555 204.159 113.617 205.338 111.976C205.977 111.086 206.361 110.029 206.554 108.952C206.716 108.054 206.745 107.107 206.448 106.245Z" fill="white"/>
<path d="M168.951 95.4033C168.675 94.9134 168.303 94.4802 167.86 94.1357C167.803 94.0917 167.716 94.0864 167.65 94.1071C167.607 94.1204 167.537 94.1697 167.595 94.2156C168.027 94.5502 168.385 94.9682 168.653 95.4448C168.704 95.5367 169.006 95.504 168.951 95.4033Z" fill="#D14205"/>
<path d="M165.884 94.8983C165.635 94.5898 165.382 94.2825 165.133 93.9738C165.089 93.9206 165.009 93.9093 164.942 93.9206C164.915 93.9245 164.792 93.9619 164.836 94.0146C165.086 94.3238 165.338 94.6324 165.587 94.9397C165.632 94.9943 165.712 95.0077 165.778 94.9957C165.806 94.9909 165.93 94.9531 165.884 94.8983Z" fill="#D14205"/>
<path d="M163.655 95.3882C163.386 95.0883 163.133 94.7737 162.896 94.4484C162.855 94.3918 162.77 94.3831 162.706 94.3937C162.674 94.3971 162.558 94.4345 162.599 94.4911C162.846 94.8283 163.109 95.1541 163.389 95.4681C163.454 95.5421 163.751 95.4974 163.655 95.3882Z" fill="#D14205"/>
<path d="M161.536 95.9993C161.21 95.6493 160.905 95.282 160.625 94.8935C160.584 94.8389 160.499 94.8302 160.435 94.8389C160.403 94.8435 160.287 94.8795 160.326 94.9361C160.616 95.3367 160.932 95.7193 161.272 96.0773C161.318 96.1273 161.423 96.1232 161.481 96.1064C161.533 96.0892 161.585 96.0486 161.536 95.9993Z" fill="#D14205"/>
<path d="M166.232 102.262C165.829 102.276 165.433 102.107 165.149 101.817C165.099 101.768 164.998 101.77 164.935 101.788C164.886 101.804 164.833 101.846 164.881 101.897C165.232 102.252 165.736 102.436 166.232 102.42C166.282 102.418 166.386 102.406 166.387 102.341C166.389 102.278 166.275 102.261 166.232 102.262Z" fill="#D14205"/>
<path d="M183.277 110.328C183.004 109.313 182.3 108.444 181.37 107.953C181.308 107.922 181.214 107.919 181.151 107.953C181.098 107.984 181.095 108.033 181.151 108.066C182.052 108.538 182.718 109.389 182.98 110.37C183.004 110.467 183.31 110.449 183.277 110.328Z" fill="#D14205"/>
<path d="M200.258 103.674C200.227 103.6 200.091 103.604 200.031 103.609C197.683 103.794 195.353 104.179 193.071 104.764C192.423 104.93 191.78 105.113 191.14 105.31C191.077 105.329 191.022 105.379 191.075 105.438C191.125 105.498 191.261 105.492 191.326 105.473C193.559 104.783 195.847 104.287 198.163 103.992C198.818 103.908 199.473 103.841 200.128 103.79C200.185 103.785 200.287 103.746 200.258 103.674Z" fill="#7FBFEB"/>
<path d="M196.777 101.457C196.7 101.432 196.588 101.437 196.523 101.49C195.786 102.099 195.185 102.865 194.776 103.73C194.714 103.856 195.078 103.894 195.131 103.779C195.533 102.932 196.117 102.185 196.844 101.585C196.909 101.533 196.828 101.475 196.777 101.457Z" fill="#7FBFEB"/>
<path d="M157.718 112.953C156.167 110.692 155.099 108.105 154.607 105.407C154.469 104.651 154.377 103.889 154.331 103.123C154.322 102.99 153.952 102.995 153.961 103.123C154.129 105.858 154.882 108.554 156.148 110.985C156.511 111.682 156.917 112.355 157.363 113.002C157.434 113.108 157.793 113.06 157.718 112.953Z" fill="#7FBFEB"/>
<path d="M205.551 93.9019C203.577 93.134 201.482 92.7041 199.366 92.6141C199.303 92.6121 199.151 92.6361 199.151 92.7247C199.151 92.8153 199.306 92.832 199.366 92.8341C201.408 92.9208 203.428 93.3506 205.334 94.0897C205.486 94.1511 205.814 94.0044 205.551 93.9019Z" fill="#7FBFEB"/>
<path d="M230.587 101.752C232.423 100.988 234.445 100.754 236.363 100.205C239.014 99.4489 240.925 97.7207 242.579 95.5926C242.966 95.098 245.882 91.5182 245.126 90.9344C242.561 88.9554 239.227 88.1537 235.987 88.1858C230.536 88.2424 223.738 90.1959 219.539 93.7857C215.446 97.2835 213.185 102.646 212.874 107.963C212.714 110.698 213.205 113.79 215.403 115.428C219.147 113.481 222.767 111.018 225.086 107.492C226.519 105.314 227.729 103.073 230.196 101.923C230.326 101.863 230.456 101.807 230.587 101.752Z" fill="#7FBFEB"/>
<path d="M243.764 90.71C242.217 92.1803 240.374 93.3254 238.368 94.0492C238.299 94.0744 238.223 94.1292 238.289 94.2005C238.352 94.2657 238.507 94.2671 238.584 94.2384C240.649 93.496 242.546 92.3322 244.135 90.8206C244.276 90.686 243.865 90.6126 243.764 90.71Z" fill="#575DA9"/>
<path d="M231.437 96.5586C231.348 96.5059 231.224 96.5212 231.132 96.5586C228.475 97.6491 226.004 99.1879 223.832 101.068C221.664 102.947 219.787 105.171 218.306 107.629C217.473 109.014 216.765 110.475 216.202 111.99C216.144 112.149 216.569 112.183 216.62 112.048C217.616 109.367 219.062 106.859 220.86 104.635C222.652 102.421 224.796 100.483 227.19 98.9354C228.535 98.0669 229.958 97.3218 231.437 96.7139C231.524 96.6779 231.505 96.5978 231.437 96.5586Z" fill="#575DA9"/>
<path d="M247.892 122.854H290.816C291.623 122.661 292.362 122.395 293.05 122.055C295.307 120.945 297.02 119.049 298.761 116.308C302.026 111.162 304.123 105.392 306.147 99.6778C309.333 90.6752 312.44 81.5008 313.013 71.9699C313.134 69.9563 312.803 67.4242 310.89 66.7798C309.655 66.3598 308.261 67.027 307.432 68.0368C306.604 69.0452 306.217 70.3354 305.84 71.5846C302.127 83.8809 297.373 95.7807 291.763 107.334C290.12 110.719 286.846 117.719 282.225 117.213C277.299 116.672 272.116 117.102 267.159 117.102C260.778 117.102 254.381 117.203 248.006 117.094C247.598 118.307 246.418 118.97 246.411 120.46C246.408 121.694 247.39 122.074 247.892 122.854Z" fill="#7FBFEB"/>
<path d="M305.389 69.3217C304.181 72.8348 303.001 76.3687 302.115 79.9805C301.272 83.4203 301.018 86.9521 300.278 90.3753C297.133 104.892 296.88 120.228 297.191 135.004C297.201 135.421 297.232 135.888 297.542 136.168C297.887 136.478 298.423 136.415 298.863 136.566C299.885 136.914 300.122 138.227 300.189 139.303C300.486 144.054 300.783 148.801 301.079 153.547C301.17 155.022 300.989 155.443 302.286 155.866C303.542 156.277 305.273 156.146 306.591 156.231C308.41 156.349 310.232 156.423 312.052 156.451C313.196 156.469 315.839 157.17 315.832 155.556C315.796 147.405 315.695 139.253 315.525 131.104C315.417 125.879 315.281 120.656 315.117 115.433C314.955 110.268 314.32 104.931 314.542 99.7717C314.736 95.2208 314.917 90.6618 314.854 86.0496C314.781 80.8949 314.617 75.7387 314.12 70.6066C313.987 69.2276 313.846 67.8154 313.235 66.573C312.622 65.3305 311.431 64.2781 310.048 64.2355C308.836 64.1995 307.708 64.9434 306.976 65.9071C306.241 66.8696 305.833 68.0367 305.437 69.1817C305.42 69.2276 305.407 69.2737 305.389 69.3217Z" fill="#03172A"/>
<path d="M310.819 83.1205C310.817 82.9666 310.385 82.9685 310.389 83.1205C310.508 90.2714 310.459 97.4258 310.239 104.577C310.02 111.69 309.633 118.798 309.08 125.893C308.771 129.837 308.41 133.778 307.998 137.713C305.912 137.775 303.821 137.628 301.765 137.268C301.166 137.166 300.574 137.042 299.984 136.902C299.895 136.883 299.759 136.871 299.689 136.942C299.622 137.009 299.694 137.076 299.766 137.093C301.883 137.594 304.05 137.879 306.227 137.937C306.811 137.953 307.394 137.951 307.976 137.934C307.966 138.077 308.391 138.091 308.406 137.934C309.155 130.818 309.735 123.687 310.143 116.548C310.549 109.441 310.79 102.328 310.86 95.2109C310.901 91.1793 310.887 87.1488 310.819 83.1205Z" fill="#003A71"/>
<path d="M311.245 64.7628C311.215 66.1411 310.791 67.4622 310.227 68.7059C309.657 69.965 308.971 71.1766 308.268 72.3636C307.544 73.5908 306.77 74.7918 305.953 75.9587C305.202 77.0325 304.386 78.0629 303.652 79.1513C302.861 80.3271 302.182 81.5967 301.914 83.0025C301.888 83.1371 302.315 83.1631 302.345 83.0025C302.833 80.4377 304.669 78.4128 306.135 76.3481C306.961 75.1863 307.742 73.9919 308.476 72.7682C309.191 71.5825 309.882 70.3707 310.478 69.1204C311.129 67.7535 311.643 66.2897 311.675 64.7628C311.679 64.6121 311.247 64.6089 311.245 64.7628Z" fill="#003A71"/>
<path d="M296.821 164.725L292.442 120.059L289.991 120.299L294.347 164.725H296.821Z" fill="#7FBFEB"/>
<path d="M257.059 164.725L261.414 120.299L258.965 120.059L254.585 164.725H257.059Z" fill="#7FBFEB"/>
<path d="M299.667 58.4104C299.774 58.9768 299.858 59.5401 299.921 60.0992C300.136 62.0208 297.986 63.2404 296.311 63.4757C294.654 63.7096 292.989 63.4298 291.332 63.667C289.588 63.9176 288.011 64.8668 286.599 65.8665C284.976 67.0162 283.287 68.9004 281.193 69.0777C281.767 67.0095 284.563 64.9095 286.092 63.5064C287.392 62.3127 289.924 60.6044 289.6 58.5743C289.508 58.0058 289.332 57.4426 289.168 56.924C288.88 56.0149 288.211 54.3885 289.421 53.8188C290.085 53.5062 290.456 53.5608 290.972 53.0936C290.994 53.0716 291.018 53.051 291.044 53.0269C291.291 52.7811 291.518 52.527 291.745 52.2811C291.89 52.1211 292.035 51.9658 292.185 51.814C292.478 51.5186 292.797 51.2473 293.187 51.02C295.084 49.913 296.645 50.321 297.619 52.2458C298.575 54.1293 299.271 56.2789 299.667 58.4104Z" fill="#FFC9B3"/>
<path d="M292.358 56.8746C292.27 56.9959 292.178 57.1152 292.079 57.2312C291.555 57.8449 290.888 58.3469 290.105 58.5175C289.937 58.5515 289.768 58.5721 289.599 58.5756C289.507 58.0057 289.332 57.4424 289.168 56.9239C288.879 56.0148 288.211 54.3884 289.42 53.8187C290.084 53.5061 290.456 53.5607 290.971 53.0935C290.993 53.0715 291.017 53.0509 291.043 53.0268C291.29 52.7809 291.517 52.5269 291.744 52.281C292.823 52.5115 293.708 53.1415 293.468 54.3352C293.285 55.2484 292.904 56.1201 292.358 56.8746Z" fill="#D14205"/>
<path d="M249.547 163.282C250.279 163.384 251.344 163.814 252.072 163.568C253.765 162.997 253.025 159.217 252.951 158.04C252.787 155.423 252.624 152.807 252.458 150.188C252.351 148.459 252.346 147.864 250.841 147.09C249.221 146.256 247.575 145.775 245.732 146.028C245.292 146.09 244.84 146.195 244.492 146.475C243.678 147.134 243.799 148.389 243.997 149.418C244.512 152.099 245.029 154.78 245.546 157.46C245.773 158.653 246.043 159.83 246.107 161.036C246.145 161.744 245.998 162.903 246.843 163.224C247.616 163.517 248.708 163.166 249.547 163.282Z" fill="#FFC9B3"/>
<path d="M245.827 160.686C245.566 160.907 245.305 161.125 245.033 161.34C244.376 161.861 243.706 162.321 243.1 162.917C242.899 163.116 242.689 163.352 242.713 163.62C242.75 164.055 243.339 164.25 243.822 164.29C244.342 164.333 244.864 164.324 245.385 164.312C247.663 164.26 249.877 164.019 252.137 163.79C252.369 163.766 252.607 163.741 252.805 163.626C253.297 163.342 253.261 162.693 253.136 162.181C252.927 161.322 252.613 160.458 252.005 159.767C251.396 159.074 250.449 158.578 249.468 158.642C248.7 158.694 248.009 159.073 247.385 159.482C246.822 159.849 246.325 160.267 245.827 160.686Z" fill="#FFC9B3"/>
<path d="M236.335 166.063L246.779 166.029C247.632 165.927 248.484 165.807 249.342 165.7C249.702 165.655 250.108 165.621 250.391 165.839C250.466 165.899 250.528 165.961 250.584 166.015L253.713 166.005C253.802 165.807 253.785 165.517 253.792 165.247C253.795 165.099 253.806 164.955 253.848 164.838C253.899 164.695 253.971 164.556 254.005 164.408C254.038 164.258 254.031 164.104 254.015 163.952C253.957 163.347 253.659 161.948 252.94 161.594C252.777 161.512 252.592 161.485 252.384 161.535C250.27 162.026 248.158 162.516 246.045 163.007C246.409 162.571 246.716 162.05 246.707 161.49C246.699 161.052 246.522 160.743 246.255 160.585C245.926 160.385 245.465 160.409 245.017 160.674C243.892 161.342 242.906 162.212 241.739 162.813C240.207 163.601 238.425 163.888 236.907 164.7C236.637 164.845 236.419 165.058 236.311 165.307C236.209 165.539 236.2 165.802 236.335 166.063Z" fill="#F04F0A"/>
<path d="M236.332 165.309C236.289 165.321 236.284 165.374 236.271 165.413C236.257 165.457 236.247 165.503 236.242 165.548C236.231 165.633 236.233 165.72 236.247 165.805C236.255 165.848 236.267 165.893 236.281 165.935C236.29 165.959 236.298 165.979 236.308 166C236.31 166.009 236.33 166.063 236.337 166.063L246.781 166.029C247.633 165.927 248.484 165.809 249.342 165.7C249.702 165.655 250.109 165.621 250.392 165.839C250.467 165.899 250.528 165.961 250.585 166.015L253.714 166.005C253.803 165.807 253.785 165.517 253.792 165.247C253.791 165.247 253.789 165.247 253.789 165.247C253.782 165.247 253.777 165.247 253.77 165.247C253.76 165.247 253.75 165.247 253.739 165.247C253.726 165.247 253.71 165.247 253.697 165.247C253.676 165.247 253.659 165.247 253.64 165.247C253.617 165.247 253.593 165.247 253.57 165.247C253.543 165.247 253.518 165.247 253.49 165.249C253.458 165.247 253.429 165.249 253.396 165.249C253.362 165.249 253.328 165.249 253.294 165.249C253.255 165.249 253.217 165.249 253.176 165.249C253.135 165.249 253.093 165.249 253.052 165.249C253.006 165.249 252.96 165.249 252.915 165.249C252.866 165.249 252.816 165.249 252.769 165.249C252.716 165.249 252.664 165.249 252.612 165.249C252.555 165.249 252.501 165.251 252.446 165.251C252.386 165.251 252.328 165.251 252.269 165.251C252.209 165.251 252.147 165.251 252.086 165.251C252.021 165.253 251.956 165.253 251.891 165.253C251.825 165.253 251.758 165.253 251.69 165.253C251.622 165.253 251.552 165.254 251.482 165.254C251.41 165.254 251.337 165.254 251.265 165.254C251.19 165.254 251.115 165.254 251.042 165.254C250.963 165.256 250.888 165.256 250.811 165.256C250.733 165.256 250.653 165.256 250.573 165.258C250.492 165.258 250.411 165.258 250.329 165.258C250.247 165.258 250.163 165.258 250.08 165.26C249.994 165.26 249.909 165.26 249.824 165.26C249.738 165.26 249.651 165.26 249.564 165.261C249.474 165.261 249.387 165.261 249.298 165.261C249.208 165.261 249.117 165.261 249.028 165.263C248.936 165.263 248.844 165.263 248.754 165.263C248.66 165.263 248.566 165.265 248.472 165.265C248.38 165.265 248.284 165.265 248.191 165.265C248.097 165.266 248 165.266 247.904 165.266C247.808 165.266 247.713 165.266 247.617 165.268C247.518 165.268 247.421 165.268 247.324 165.268C247.227 165.268 247.128 165.269 247.03 165.269C246.931 165.269 246.832 165.269 246.733 165.269C246.633 165.271 246.536 165.271 246.435 165.271C246.336 165.271 246.235 165.271 246.135 165.274C246.036 165.274 245.935 165.274 245.836 165.274C245.734 165.274 245.633 165.275 245.534 165.275C245.432 165.275 245.333 165.275 245.23 165.277C245.13 165.277 245.029 165.277 244.928 165.277C244.829 165.277 244.727 165.277 244.628 165.278C244.526 165.278 244.425 165.278 244.324 165.278C244.224 165.278 244.125 165.28 244.024 165.28C243.923 165.28 243.824 165.28 243.724 165.281C243.625 165.281 243.524 165.281 243.425 165.281C243.326 165.281 243.227 165.283 243.13 165.283C243.031 165.283 242.932 165.283 242.835 165.283C242.736 165.285 242.64 165.285 242.543 165.285C242.446 165.285 242.35 165.285 242.253 165.287C242.157 165.287 242.062 165.287 241.966 165.287C241.871 165.287 241.779 165.289 241.683 165.289C241.589 165.289 241.497 165.289 241.405 165.289C241.313 165.29 241.219 165.29 241.128 165.29C241.038 165.29 240.948 165.29 240.859 165.292C240.768 165.292 240.68 165.292 240.591 165.292C240.506 165.292 240.417 165.292 240.33 165.292C240.245 165.293 240.159 165.293 240.074 165.293C239.99 165.293 239.907 165.293 239.823 165.293C239.741 165.295 239.659 165.295 239.579 165.295C239.499 165.295 239.421 165.295 239.34 165.297C239.264 165.297 239.185 165.297 239.108 165.297C239.033 165.297 238.958 165.297 238.883 165.299C238.811 165.299 238.738 165.299 238.666 165.299C238.596 165.299 238.526 165.299 238.456 165.299C238.388 165.299 238.322 165.301 238.253 165.301C238.19 165.301 238.125 165.301 238.061 165.301C237.999 165.301 237.938 165.301 237.876 165.302C237.817 165.302 237.757 165.302 237.699 165.302C237.643 165.302 237.588 165.302 237.53 165.302C237.479 165.302 237.426 165.304 237.375 165.304C237.324 165.304 237.274 165.304 237.226 165.304C237.178 165.304 237.134 165.304 237.088 165.304C237.044 165.304 237.003 165.304 236.96 165.305C236.921 165.305 236.882 165.305 236.844 165.305C236.81 165.305 236.772 165.305 236.738 165.305C236.706 165.305 236.675 165.305 236.644 165.305C236.615 165.305 236.59 165.305 236.561 165.305C236.537 165.305 236.515 165.305 236.491 165.305C236.47 165.307 236.453 165.307 236.433 165.307C236.417 165.307 236.402 165.307 236.387 165.307C236.378 165.307 236.366 165.307 236.356 165.307C236.351 165.307 236.348 165.307 236.344 165.307C236.339 165.307 236.336 165.307 236.332 165.309Z" fill="#03172A"/>
<path d="M241.99 162.128C242.256 162.043 242.607 162.074 242.834 162.236C243.566 162.758 244.192 163.376 244.718 164.07C244.878 164.28 244.438 164.424 244.288 164.446C244.029 164.485 243.687 164.446 243.529 164.238C243.041 163.593 242.447 163.031 241.769 162.547C241.539 162.383 241.814 162.187 241.99 162.128Z" fill="#03172A"/>
<path d="M230.834 163.234C231.506 163.536 232.407 164.25 233.175 164.217C234.962 164.145 235.313 160.311 235.572 159.16C236.153 156.602 236.731 154.044 237.308 151.487C237.692 149.797 237.854 149.226 236.627 148.057C235.308 146.803 233.863 145.88 232.023 145.604C231.583 145.537 231.119 145.512 230.708 145.684C229.74 146.086 229.503 147.325 229.406 148.37C229.145 151.086 228.887 153.804 228.63 156.518C228.514 157.73 228.439 158.933 228.162 160.11C228 160.799 227.534 161.869 228.254 162.417C228.913 162.915 230.06 162.886 230.834 163.234Z" fill="#FFC9B3"/>
<path d="M227.85 160.686C227.589 160.907 227.328 161.125 227.057 161.34C226.4 161.861 225.727 162.321 225.125 162.917C224.924 163.116 224.714 163.352 224.736 163.62C224.774 164.055 225.362 164.25 225.847 164.29C226.364 164.333 226.888 164.324 227.41 164.312C229.686 164.26 231.901 164.019 234.16 163.79C234.392 163.766 234.632 163.741 234.827 163.626C235.32 163.342 235.286 162.693 235.16 162.181C234.95 161.322 234.636 160.458 234.028 159.767C233.421 159.074 232.474 158.578 231.491 158.642C230.723 158.694 230.032 159.073 229.409 159.482C228.845 159.849 228.348 160.267 227.85 160.686Z" fill="#FFC9B3"/>
<path d="M218.36 166.063L228.804 166.029C229.655 165.927 230.508 165.807 231.365 165.7C231.725 165.655 232.133 165.621 232.414 165.839C232.491 165.899 232.549 165.961 232.607 166.015L235.738 166.005C235.825 165.807 235.808 165.517 235.815 165.247C235.818 165.099 235.828 164.955 235.871 164.838C235.922 164.695 235.996 164.556 236.028 164.408C236.061 164.258 236.054 164.104 236.038 163.952C235.98 163.347 235.68 161.948 234.962 161.594C234.8 161.512 234.615 161.485 234.407 161.535C232.295 162.026 230.181 162.516 228.067 163.007C228.432 162.571 228.741 162.05 228.73 161.49C228.722 161.052 228.544 160.743 228.278 160.585C227.949 160.385 227.488 160.409 227.039 160.674C225.915 161.342 224.931 162.212 223.764 162.813C222.23 163.601 220.45 163.888 218.93 164.7C218.66 164.845 218.442 165.058 218.332 165.307C218.232 165.539 218.223 165.802 218.36 166.063Z" fill="#F04F0A"/>
<path d="M218.355 165.309C218.312 165.321 218.307 165.374 218.295 165.413C218.281 165.457 218.271 165.503 218.264 165.548C218.254 165.633 218.256 165.72 218.269 165.805C218.278 165.848 218.29 165.893 218.305 165.935C218.312 165.959 218.32 165.979 218.329 166C218.332 166.009 218.353 166.063 218.36 166.063L228.804 166.029C229.657 165.927 230.508 165.809 231.365 165.7C231.727 165.655 232.133 165.621 232.414 165.839C232.489 165.899 232.549 165.961 232.607 166.015L235.738 166.005C235.825 165.807 235.808 165.517 235.815 165.247C235.813 165.247 235.813 165.247 235.811 165.247C235.804 165.247 235.799 165.247 235.793 165.247C235.782 165.247 235.772 165.247 235.762 165.247C235.746 165.247 235.735 165.247 235.719 165.247C235.7 165.247 235.682 165.247 235.663 165.247C235.639 165.247 235.617 165.247 235.595 165.247C235.567 165.247 235.538 165.247 235.513 165.249C235.482 165.247 235.451 165.249 235.421 165.249C235.386 165.249 235.351 165.249 235.316 165.249C235.277 165.249 235.24 165.249 235.2 165.249C235.158 165.249 235.115 165.249 235.074 165.249C235.03 165.249 234.982 165.249 234.938 165.249C234.89 165.249 234.839 165.249 234.791 165.249C234.738 165.249 234.685 165.249 234.634 165.249C234.579 165.249 234.523 165.251 234.467 165.251C234.409 165.251 234.351 165.251 234.293 165.251C234.231 165.251 234.17 165.251 234.108 165.251C234.044 165.253 233.979 165.253 233.914 165.253C233.847 165.253 233.781 165.253 233.714 165.253C233.644 165.253 233.574 165.254 233.504 165.254C233.433 165.254 233.361 165.254 233.288 165.254C233.213 165.254 233.139 165.254 233.064 165.254C232.987 165.256 232.909 165.256 232.832 165.256C232.755 165.256 232.675 165.256 232.597 165.258C232.515 165.258 232.433 165.258 232.353 165.258C232.267 165.258 232.187 165.258 232.104 165.26C232.017 165.26 231.931 165.26 231.846 165.26C231.761 165.26 231.674 165.26 231.587 165.261C231.498 165.261 231.409 165.261 231.32 165.261C231.23 165.261 231.14 165.261 231.051 165.263C230.959 165.263 230.867 165.263 230.774 165.263C230.682 165.263 230.59 165.265 230.496 165.265C230.402 165.265 230.307 165.265 230.213 165.265C230.119 165.266 230.024 165.266 229.926 165.266C229.833 165.266 229.735 165.266 229.638 165.268C229.541 165.268 229.444 165.268 229.346 165.268C229.249 165.268 229.15 165.269 229.053 165.269C228.954 165.269 228.853 165.269 228.756 165.269C228.657 165.271 228.558 165.271 228.457 165.271C228.358 165.271 228.258 165.271 228.159 165.274C228.058 165.274 227.957 165.274 227.857 165.274C227.758 165.274 227.655 165.275 227.556 165.275C227.454 165.275 227.355 165.275 227.254 165.277C227.152 165.277 227.053 165.277 226.951 165.277C226.852 165.277 226.749 165.277 226.649 165.278C226.548 165.278 226.447 165.278 226.348 165.278C226.246 165.278 226.147 165.28 226.046 165.28C225.946 165.28 225.847 165.28 225.746 165.281C225.647 165.281 225.548 165.281 225.447 165.281C225.35 165.281 225.25 165.283 225.151 165.283C225.053 165.283 224.954 165.283 224.857 165.283C224.76 165.285 224.661 165.285 224.565 165.285C224.468 165.285 224.371 165.285 224.275 165.287C224.18 165.287 224.084 165.287 223.989 165.287C223.895 165.287 223.801 165.289 223.707 165.289C223.613 165.289 223.519 165.289 223.427 165.289C223.335 165.29 223.243 165.29 223.153 165.29C223.06 165.29 222.97 165.29 222.88 165.292C222.793 165.292 222.702 165.292 222.613 165.292C222.526 165.292 222.441 165.292 222.352 165.292C222.267 165.293 222.182 165.293 222.096 165.293C222.013 165.293 221.929 165.293 221.846 165.293C221.764 165.295 221.682 165.295 221.6 165.295C221.523 165.295 221.443 165.295 221.363 165.297C221.286 165.297 221.209 165.297 221.131 165.297C221.056 165.297 220.98 165.297 220.907 165.299C220.834 165.299 220.762 165.299 220.689 165.299C220.619 165.299 220.549 165.299 220.479 165.299C220.412 165.299 220.344 165.301 220.278 165.301C220.213 165.301 220.148 165.301 220.083 165.301C220.022 165.301 219.96 165.301 219.897 165.302C219.839 165.302 219.779 165.302 219.721 165.302C219.667 165.302 219.609 165.302 219.554 165.302C219.501 165.302 219.45 165.304 219.395 165.304C219.346 165.304 219.298 165.304 219.249 165.304C219.203 165.304 219.156 165.304 219.109 165.304C219.068 165.304 219.027 165.304 218.982 165.305C218.945 165.305 218.904 165.305 218.866 165.305C218.831 165.305 218.796 165.305 218.761 165.305C218.73 165.305 218.698 165.305 218.667 165.305C218.638 165.305 218.611 165.305 218.585 165.305C218.559 165.305 218.537 165.305 218.513 165.305C218.495 165.307 218.474 165.307 218.455 165.307C218.44 165.307 218.424 165.307 218.409 165.307C218.399 165.307 218.389 165.307 218.378 165.307C218.375 165.307 218.372 165.307 218.366 165.307C218.363 165.307 218.358 165.307 218.355 165.309Z" fill="#03172A"/>
<path d="M224.012 162.128C224.28 162.043 224.632 162.074 224.857 162.236C225.589 162.758 226.215 163.376 226.741 164.07C226.901 164.28 226.461 164.424 226.311 164.446C226.053 164.485 225.71 164.446 225.551 164.238C225.065 163.593 224.47 163.031 223.792 162.547C223.562 162.383 223.837 162.187 224.012 162.128Z" fill="#03172A"/>
<path d="M295.469 107.477C295.483 107.396 295.496 107.315 295.508 107.237C295.672 106.187 295.704 105.122 295.72 104.061C295.759 101.193 295.73 97.0584 293.828 94.7022C292.763 93.3819 291.108 92.6886 289.473 92.2401C286.004 91.2931 282.227 91.2064 278.731 92.0827C277.248 92.4533 277.024 93.5058 275.91 94.4582C274.752 95.4514 273.337 96.1218 271.909 96.627C267.36 98.234 262.451 98.4066 257.638 98.7139C253.162 99.0004 248.697 99.4185 244.249 99.9709C240.507 100.436 239.055 102.282 238.451 105.863C238.146 107.68 237.787 109.388 238.03 111.249C238.197 112.519 238.586 113.783 239.342 114.817C242.406 118.994 250.045 117.133 254.432 117.371C259.697 117.657 264.953 118.141 270.225 118.279C275.12 118.407 279.942 117.82 284.837 117.545C286.24 117.469 287.673 117.383 288.978 116.859C292.399 115.491 294.848 111.006 295.469 107.477Z" fill="#FDDF9E"/>
<path d="M230.802 156.626C229.471 156.326 225.173 155.877 224.809 155.005C224.456 154.159 225.441 152.118 225.628 151.253C225.877 150.106 226.128 148.958 226.377 147.808C227.398 143.12 228.416 138.429 229.435 133.738C229.744 132.323 230.051 130.909 230.358 129.493C231.645 123.572 232.931 117.65 234.219 111.728C234.663 109.687 235.151 107.564 236.716 105.993C239.282 103.42 248.439 103.374 250.937 106.893C251.78 108.085 251.611 109.538 251.188 110.799C250.7 112.255 249.511 113.555 249.105 114.995C248.69 116.466 248.637 117.933 248.137 119.373C247.542 121.086 247.284 122.953 246.864 124.715C245.998 128.352 245.129 131.986 244.264 135.622C242.672 143.252 240.531 150.766 238.877 158.383C236.207 158.008 233.45 157.221 230.802 156.626Z" fill="#FDDF9E"/>
<path d="M247.646 156.709C246.117 156.803 244.585 156.875 243.056 156.969C242.099 157.027 240.562 157.643 240.476 156.494C239.946 149.273 239.58 142.041 239.217 134.811C238.862 127.764 237.332 120.827 236.617 113.806C236.32 110.872 236.118 107.865 237.091 105.008C237.434 103.999 237.929 103.012 238.707 102.185C241.104 99.6298 245.899 99.2491 249.106 100.92C254.085 103.514 254.63 109.543 254.386 114.062C254.283 115.964 254.575 117.919 254.667 119.818C254.858 123.736 255.049 127.655 255.24 131.575C255.874 139.73 255.909 147.935 256.478 156.097C253.618 156.506 250.547 156.529 247.646 156.709Z" fill="#FDDF9E"/>
<path d="M238.868 133.951C238.583 131.015 238.25 128.081 237.873 125.155C237.497 122.245 237.057 119.339 236.788 116.414C236.486 113.132 236.409 109.809 236.9 106.539C236.921 106.4 236.499 106.383 236.475 106.539C235.597 112.389 236.535 118.288 237.308 124.092C238.088 129.943 238.68 135.816 239.086 141.703C239.315 145.033 239.485 148.367 239.594 151.703C239.599 151.855 240.024 151.853 240.019 151.703C239.825 145.775 239.441 139.855 238.868 133.951Z" fill="#F04F0A"/>
<path d="M254.166 116.886C252.454 116.478 250.88 115.621 249.605 114.409C249.506 114.315 249.098 114.384 249.238 114.519C250.55 115.766 252.19 116.652 253.951 117.072C254.038 117.093 254.173 117.103 254.241 117.033C254.306 116.967 254.236 116.902 254.166 116.886Z" fill="#F04F0A"/>
<path d="M303.835 62.8399C303.564 62.3927 303.253 61.9728 302.898 61.5888C300.503 58.9854 296.01 58.0043 292.988 59.9198C290.383 61.5735 287.834 63.3123 285.344 65.136C283.113 66.7689 280.889 68.1032 279.712 70.6779C278.518 73.2907 278.224 76.2406 277.99 79.1292C277.757 82.0639 277.566 85.0006 277.405 87.9405C277.293 89.9554 276.289 93.4259 278.269 94.6802C278.629 94.9088 279.021 95.0794 279.4 95.262C279.876 95.4906 280.35 95.7193 280.826 95.9479C281.736 96.3864 282.643 96.8284 283.558 97.2563C285.327 98.0854 287.126 98.8692 288.991 99.4318C290.46 99.8769 294.016 101.068 295.43 100.108C296.749 99.2105 297.773 95.5466 298.404 94.0963C300.242 89.88 301.699 85.4971 302.75 81.0182C303.886 76.1806 306.572 67.3454 303.835 62.8399Z" fill="#F9B736"/>
<path d="M285.759 65.6705C286.315 65.7178 286.841 65.8698 287.216 66.2209C287.786 66.7489 287.885 67.6052 287.866 68.3797C287.786 71.9103 286.029 75.2134 283.8 77.9515C282.135 79.9976 280.185 81.8079 278.026 83.3216C276.69 84.258 275.228 85.0957 273.614 85.3384C272.597 85.4904 271.408 85.3244 270.811 84.4866C270.568 84.144 270.452 83.7275 270.401 83.3129C270.215 81.8419 270.768 80.3748 271.49 79.0812C272.669 76.9671 274.174 75.2288 275.784 73.4386C277.583 71.4443 279.381 69.4495 281.178 67.4566C281.635 66.9514 282.106 66.4342 282.719 66.1397C283.062 65.9723 283.439 65.8817 283.814 65.815C284.37 65.7164 285.087 65.6138 285.759 65.6705Z" fill="#F9B736"/>
<path d="M262.264 76.3034C263.021 77.5884 263.82 78.8442 264.752 80.0165C266.415 82.1152 268.504 83.9462 270.998 84.9186C272.865 85.6472 274.167 84.8127 275.383 83.4103C275.59 83.1718 275.8 82.9271 275.919 82.6372C276.071 82.2652 276.066 81.8508 276.03 81.4495C275.719 78.0883 273.384 75.2563 270.998 73.0328C269.505 71.6405 267.831 70.4548 266.292 69.1137C264.912 67.9141 263.642 66.5897 262.472 65.1875C261.895 64.4963 261.342 63.7851 260.812 63.0579C260.407 62.502 259.988 61.5135 259.327 61.2356C259.135 61.1557 258.921 61.137 258.711 61.125C257.604 61.065 256.42 61.205 255.543 61.8862C254.683 62.5547 254.244 63.8431 254.917 64.7522C255.748 65.8766 256.565 67.0357 257.341 68.2214C258.014 69.2344 258.669 70.2602 259.324 71.2839C260.366 72.9168 261.279 74.6331 262.264 76.3034Z" fill="#FFC9B3"/>
<path d="M270.998 73.0328C269.812 71.9272 268.517 70.9514 267.259 69.9256C267.032 70.3881 266.785 70.8388 266.52 71.2805C266.046 72.065 265.529 72.823 264.992 73.5667C264.727 73.9339 264.463 74.2972 264.161 74.6364C263.877 74.9558 263.576 75.2544 263.263 75.5461C262.956 75.8348 262.635 76.1128 262.315 76.3853C263.055 77.6418 263.838 78.8701 264.751 80.0165C266.415 82.1152 268.503 83.9462 270.998 84.9186C272.864 85.6472 274.166 84.8127 275.383 83.4103C275.588 83.1718 275.797 82.9271 275.919 82.6372C276.07 82.2652 276.065 81.8508 276.029 81.4495C275.721 78.0883 273.383 75.2563 270.998 73.0328Z" fill="#F9B736"/>
<path d="M259.39 51.3885C259.234 51.266 259.027 51.2252 258.769 51.3339C258.505 51.4452 258.321 51.6859 258.159 51.9231C257.964 52.2077 257.782 52.503 257.662 52.8269C257.398 53.5607 257.486 54.3545 257.502 55.1191C257.51 55.5096 257.503 55.9034 257.423 56.2861C257.386 56.458 257.348 56.6813 257.229 56.818C257.14 56.9205 257.024 56.9478 256.957 57.0813C256.345 56.4414 255.756 55.7622 255.152 55.1104C254.555 54.4671 253.978 53.7947 253.535 53.0335C253.518 53.0028 253.477 52.9862 253.431 52.9789C252.987 52.307 252.538 51.6398 252.047 51.0119C251.827 50.7287 251.6 50.3922 251.27 50.2289C250.96 50.0749 250.523 50.0936 250.277 50.3581C250.242 50.3941 250.252 50.4282 250.279 50.4501C250.155 50.6993 250.216 51.094 250.281 51.3339C250.421 51.8458 250.711 52.2983 250.987 52.7457C251.289 53.2348 251.557 53.7967 251.915 54.2453C252.038 54.3985 252.187 54.4978 252.294 54.6684C252.412 54.8558 252.465 55.2044 252.601 55.3576C251.134 53.7181 249.631 52.1058 248.093 50.5427C247.807 50.2508 247.279 50.3154 247.017 50.6328C246.696 51.02 246.832 51.5359 247.09 51.9144C247.254 52.1531 247.454 52.3684 247.641 52.5883C247.843 52.8255 248.044 53.0608 248.25 53.2947C248.656 53.764 249.068 54.2279 249.484 54.6884C249.922 55.175 250.387 55.6443 250.799 56.1527C250.977 56.3727 251.12 56.6219 251.305 56.832C251.364 56.9019 251.455 56.9106 251.46 57.0159C251.468 57.1393 251.368 57.2172 251.248 57.1886C251.18 57.1746 251.124 57.1306 251.069 57.0893C250.441 56.596 249.861 56.0607 249.223 55.5775C248.793 55.2537 248.382 54.9071 248.01 54.5164C247.694 54.1886 247.39 53.832 247 53.5901C246.793 53.4621 246.556 53.3495 246.309 53.3342C245.452 53.2828 245.512 54.3866 245.856 54.9003C246.01 55.1237 246.205 55.3184 246.399 55.5096C247.175 56.2774 247.952 57.0453 248.791 57.7431C249.114 58.011 249.448 58.2669 249.742 58.5655C249.96 58.7889 250.426 59.0588 250.272 59.434C249.15 59.2581 248.191 58.5055 247.179 58.0383C246.906 57.9117 246.624 57.8064 246.336 57.7257C245.926 57.6131 245.177 57.3898 245.044 57.9904C244.991 58.2257 245.087 58.4749 245.24 58.6642C245.394 58.8501 245.601 58.9854 245.804 59.1148C246.826 59.7666 247.88 60.3658 248.964 60.905C249.274 61.0582 249.588 61.2082 249.882 61.3928C250.818 61.9813 251.506 62.8839 252.289 63.6669C252.838 64.2161 253.444 64.7113 254.089 65.1413C254.425 65.3633 254.772 65.5713 255.128 65.7591C255.365 65.8838 255.517 65.9997 255.785 66.0185C256.126 66.0458 256.457 66.0611 256.799 66.0238C257.473 65.9497 258.13 65.7252 258.705 65.3646C259 65.1787 259.281 64.95 259.467 64.6514C259.665 64.3361 259.711 63.9623 259.846 63.6242C260 63.2371 260.049 62.8138 260.071 62.3993C260.111 61.7407 260.059 61.0802 260.012 60.4218C259.88 58.6442 259.686 56.8746 259.553 55.0984C259.518 54.6531 259.503 54.2038 259.527 53.7587C259.553 53.308 259.65 52.8803 259.723 52.4384C259.781 52.0831 259.669 51.6059 259.39 51.3885Z" fill="#FFC9B3"/>
<path d="M261.678 58.7255L261.67 58.7429C261.6 58.8842 261.427 58.9443 261.284 58.8743L259.743 58.1184C259.602 58.0485 259.542 57.8758 259.612 57.7325L259.621 57.7157C259.69 57.5738 259.863 57.5146 260.004 57.5845L261.547 58.3384C261.69 58.4104 261.748 58.5824 261.678 58.7255Z" fill="#03172A"/>
<path d="M259.723 57.1185L257.477 55.9376L254.495 54.3699L250.789 52.4231L250.209 52.1192L249.461 51.9552C249.644 52.1465 249.825 52.3391 250.007 52.5325C250.785 53.3562 251.553 54.194 252.311 55.0371L252.313 55.0384L252.469 55.1104L259.847 58.4737L261.013 59.0055L261.118 58.7922L261.38 58.2583L261.484 58.043L259.723 57.1185Z" fill="#575DA9"/>
<path d="M256.235 57.9732C255.517 59.2088 255.292 60.7018 255.607 62.0943C255.643 62.2429 256.053 62.1915 256.022 62.0549C255.708 60.6759 255.932 59.2157 256.641 57.9926C256.713 57.8692 256.309 57.8493 256.235 57.9732Z" fill="#D14205"/>
<path d="M259.771 61.9967C259.724 61.9781 259.666 61.9728 259.62 61.9781C259.571 61.9847 259.516 61.9948 259.477 62.0221C259.446 62.0427 259.422 62.0648 259.422 62.1026C259.421 62.118 259.419 62.1333 259.419 62.1487C259.405 62.2187 259.378 62.2833 259.341 62.3434C259.315 62.3773 259.284 62.4092 259.254 62.4386C259.243 62.4452 259.233 62.4519 259.223 62.4592C259.214 62.464 259.206 62.4693 259.201 62.4726C259.168 62.4879 259.129 62.5099 259.115 62.5427C259.103 62.5732 259.117 62.6039 259.143 62.6225C259.18 62.6486 259.228 62.6585 259.272 62.6606C259.325 62.6606 259.382 62.6572 259.429 62.6347C259.552 62.5785 259.653 62.4987 259.73 62.3872C259.794 62.292 259.832 62.1806 259.837 62.0648C259.839 62.0308 259.793 62.0054 259.771 61.9967Z" fill="#D14205"/>
<path d="M274.079 75.8601C273.992 75.7475 273.593 75.8362 273.687 75.9541C274.589 77.0817 275.076 78.4995 275.059 79.9452C275.059 80.0844 275.472 80.061 275.473 79.9071C275.49 78.4449 274.992 76.9998 274.079 75.8601Z" fill="#F04F0A"/>
<path d="M280.406 68.9051C279.6 70.552 279.034 72.3076 278.628 74.0957C278.22 75.896 277.974 77.7316 277.783 79.5679C277.677 80.6102 277.589 81.6528 277.502 82.6984C277.49 82.8437 277.913 82.8524 277.927 82.6984C278.08 80.8629 278.235 79.0267 278.493 77.2044C278.751 75.3855 279.109 73.5753 279.67 71.8264C279.984 70.8453 280.363 69.8862 280.817 68.9618C280.889 68.8185 280.469 68.7738 280.406 68.9051Z" fill="#F04F0A"/>
<path d="M255.046 100.212L247.488 102.855L226.823 95.6867L232.147 91.5883L255.046 100.212Z" fill="#F9B736"/>
<path d="M255.046 100.212L254.306 100.415L231.763 91.9332L232.146 91.5885L255.046 100.212Z" fill="white"/>
<path d="M255.251 102.913C254.512 102.543 253.992 101.739 254.214 100.896C254.531 99.6793 256.085 99.0894 257.135 98.7429C262.719 96.902 268.306 95.0591 273.89 93.2161C278.245 91.7798 283.495 89.2578 286.986 93.7707C288.687 95.9721 287.448 97.0706 285.453 98.3762C281.701 100.835 277.154 101.812 272.744 102.201C269.841 102.457 266.927 102.485 264.016 102.607C262.718 102.661 261.411 102.74 260.127 102.737C258.73 102.734 257.348 103.256 255.954 103.119C255.71 103.097 255.471 103.026 255.251 102.913Z" fill="#FFC9B3"/>
<path d="M286.986 93.7705C283.495 89.2576 278.245 91.7796 273.89 93.2159C271.391 94.0404 268.891 94.8662 266.391 95.69C266.439 96.1133 266.504 96.5344 266.589 96.9543C266.975 98.8846 267.739 100.693 268.62 102.445C269.997 102.392 271.37 102.322 272.744 102.201C277.154 101.812 281.702 100.835 285.454 98.376C287.448 97.0704 288.687 95.9719 286.986 93.7705Z" fill="#F9B736"/>
<path d="M286.888 70.5911C283.715 77.7961 280.579 85.0718 278.255 92.6018C277.659 94.5314 279.408 95.7751 280.928 96.5723C284.24 98.3072 286.636 97.1181 288.415 94.0469C292.746 86.5767 296.6 78.7245 298.805 70.3638C299.284 68.5503 299.685 66.5814 298.999 64.8359C298.172 62.7338 295.686 61.4401 293.49 61.966C290.765 62.621 289.219 65.4345 288.057 67.9872C287.661 68.8502 287.274 69.7187 286.888 70.5911Z" fill="#F9B736"/>
<path d="M254.447 97.5176C254.355 97.485 254.261 97.4508 254.168 97.4183C253.447 97.1577 252.717 96.8984 251.954 96.8217C251.192 96.7444 250.385 96.8711 249.755 97.3283C249.465 97.5396 249.219 97.8162 248.914 98.0021C248.566 98.2154 248.161 98.2987 247.766 98.3808C247.011 98.536 246.406 98.63 245.643 98.5074C245.252 98.4459 244.843 98.3381 244.471 98.4801C244.099 98.6213 243.845 99.1571 244.123 99.4437C243.759 99.4623 243.515 99.8889 243.546 100.265C243.575 100.637 243.795 100.961 244.008 101.265C243.816 101.278 243.674 101.485 243.662 101.686C243.652 101.884 243.742 102.073 243.845 102.244C244.597 103.487 246.082 104.029 247.484 104.3C250.446 104.875 253.558 104.632 256.415 103.605C256.954 103.411 257.493 103.184 257.945 102.826C258.401 102.464 258.766 101.952 258.849 101.37C259.003 100.296 258.401 99.485 257.679 98.7952C257.28 98.4133 256.619 98.2987 256.109 98.1168C255.555 97.9168 255.002 97.7175 254.447 97.5176Z" fill="#FFC9B3"/>
<path d="M252.516 98.1675C251.258 97.8348 249.934 97.8075 248.665 98.1114C248.4 98.1748 248.69 98.362 248.844 98.326C250.009 98.0481 251.221 98.0535 252.378 98.3588C252.446 98.3774 252.594 98.3994 252.639 98.3194C252.683 98.2407 252.572 98.1827 252.516 98.1675Z" fill="#D14205"/>
<path d="M250.356 100.436C250.335 100.35 250.182 100.323 250.115 100.324C249.125 100.352 248.127 100.33 247.146 100.198C246.67 100.133 246.196 100.04 245.737 99.891C245.273 99.741 244.843 99.5039 244.375 99.3571C244.309 99.3379 244.159 99.3211 244.114 99.3979C244.066 99.4778 244.181 99.5325 244.237 99.5498C244.72 99.6998 245.169 99.947 245.652 100.099C246.128 100.25 246.622 100.345 247.117 100.412C248.132 100.548 249.17 100.577 250.194 100.548C250.255 100.546 250.378 100.526 250.356 100.436Z" fill="#D14205"/>
<path d="M250.164 101.944C250.144 101.86 249.99 101.831 249.924 101.833C248.958 101.875 247.982 101.879 247.019 101.804C246.052 101.727 245.134 101.447 244.214 101.149C244.148 101.126 243.996 101.113 243.953 101.189C243.907 101.268 244.02 101.323 244.076 101.339C245.03 101.649 245.984 101.938 246.987 102.017C247.989 102.097 248.999 102.1 250.002 102.055C250.063 102.051 250.185 102.036 250.164 101.944Z" fill="#D14205"/>
<path d="M249.745 103.36C249.692 103.283 249.551 103.268 249.469 103.28C247.747 103.53 245.985 103.22 244.446 102.408C244.37 102.369 244.232 102.35 244.161 102.406C244.084 102.466 244.15 102.533 244.212 102.563C245.874 103.438 247.793 103.763 249.65 103.495C249.721 103.484 249.796 103.435 249.745 103.36Z" fill="#D14205"/>
<path d="M293.394 62.0037C293.307 61.9511 293.181 61.9644 293.092 62.0037C291.251 62.7868 289.813 64.2832 288.765 65.9574C287.525 67.935 286.754 70.1698 285.918 72.3352C285.02 74.654 284.126 76.9694 283.232 79.2882C282.357 81.549 281.498 83.8185 280.604 86.0726C279.837 88.0055 278.971 89.961 277.598 91.5494C277.431 91.7407 277.26 91.9265 277.081 92.1039C276.943 92.2404 277.349 92.3104 277.448 92.2145C278.922 90.7389 279.884 88.8639 280.678 86.9577C281.108 85.9273 281.502 84.8796 281.903 83.8385C282.352 82.6801 282.8 81.5197 283.247 80.3633C284.143 78.0459 285.037 75.7291 285.935 73.4103C286.37 72.2827 286.8 71.1528 287.245 70.0285C287.665 68.9654 288.112 67.9109 288.656 66.9059C289.62 65.1242 290.939 63.4507 292.744 62.4696C292.956 62.355 293.173 62.2497 293.394 62.1577C293.476 62.1197 293.461 62.041 293.394 62.0037Z" fill="#F04F0A"/>
<path d="M296.522 78.8972C296.518 78.8939 296.517 78.8939 296.513 78.8972C295.984 79.4838 295.792 80.2668 295.498 80.9954C295.184 81.7685 294.863 82.5363 294.531 83.2995C293.799 84.9711 293.014 86.6194 292.168 88.2369C291.323 89.8493 290.417 91.4329 289.444 92.9706C288.472 94.5108 287.429 96.0058 286.318 97.4475C286.177 97.6314 286.035 97.814 285.89 97.9953C285.832 98.0685 285.994 98.1233 286.037 98.132C286.127 98.1453 286.24 98.1352 286.3 98.06C287.429 96.6317 288.491 95.1472 289.48 93.6183C290.475 92.0826 291.401 90.5031 292.265 88.8907C293.125 87.2819 293.923 85.6403 294.669 83.9747C295.061 83.0929 295.44 82.2037 295.805 81.31C295.993 80.8474 296.177 80.3828 296.36 79.9177C296.431 79.7331 296.551 79.5251 296.573 79.3272C296.578 79.2912 296.551 78.9245 296.522 78.8972Z" fill="#F04F0A"/>
<path d="M283.839 40.0575C283.45 40.6788 283.263 41.4225 283.201 42.1463C283.114 43.1888 283.264 44.2379 283.304 45.2857C283.336 46.1681 283.295 47.0366 282.957 47.8623C282.63 48.6709 282.003 49.314 281.464 49.9866C281.217 50.2937 281.024 50.623 281.352 50.901C281.662 51.1622 282.099 51.3108 282.43 51.5649C283.491 52.3772 283.387 53.7229 283.684 54.8987C283.976 56.061 284.626 56.9602 285.834 57.2634C287.839 57.7686 290.059 56.7983 291.652 55.6652C292.35 55.1719 292.98 54.5814 293.519 53.9163C294.002 53.3223 294.587 52.5478 294.787 51.7935C295.032 50.8691 295.928 50.7883 296.768 50.9216C297.027 50.961 297.838 51.1349 298.051 50.9544C299.87 49.4167 300.351 46.738 299.917 44.3972C299.592 42.6364 298.805 40.9467 297.587 39.6351C295.261 37.1349 291.697 36.5174 288.499 37.4541C287.738 37.6775 287.005 37.9827 286.281 38.3054C285.534 38.6386 284.646 39.0578 284.109 39.691C284.012 39.807 283.921 39.9295 283.839 40.0575Z" fill="#FFC9B3"/>
<path d="M284.31 45.4406C284.561 45.4014 284.804 45.3312 285.054 45.2993C285.537 45.236 286.037 45.3126 286.477 45.5227C286.802 45.6745 287.095 45.8965 287.433 46.0192C287.515 46.0485 287.329 45.6559 287.312 45.6286C287.216 45.4766 287.133 45.33 287.011 45.1954C286.781 44.9308 286.488 44.7188 286.165 44.5808C285.67 44.3675 284.877 44.2022 284.394 44.5074C284.119 44.6794 283.947 45.04 284.058 45.3466C284.073 45.3846 284.09 45.422 284.126 45.4406C284.16 45.458 284.201 45.456 284.239 45.4513C284.263 45.4472 284.288 45.444 284.31 45.4406Z" fill="#9E2F00"/>
<path d="M284.674 46.7839C284.725 46.4832 284.989 46.2481 285.298 46.3247C285.731 46.4254 285.757 47.1425 285.673 47.4851C285.709 47.8929 285.255 48.0909 284.945 47.8723C284.645 47.6423 284.587 47.1384 284.674 46.7839Z" fill="#03172A"/>
<path d="M287.143 52.0713C287.124 52 287.078 51.9401 286.998 51.908C286.726 51.7935 286.329 51.9694 286.078 52.0667C285.657 52.2267 285.222 52.3467 284.776 52.418C284.672 52.4333 284.565 52.4506 284.476 52.5065C284.256 52.6453 284.339 52.8991 284.397 53.0971C284.454 53.2931 284.601 53.5457 284.766 53.6723C284.942 53.8069 285.179 53.8236 285.401 53.8342C285.925 53.855 286.472 53.423 286.766 53.0205C286.885 52.8544 287.211 52.3547 287.143 52.0713Z" fill="white"/>
<path d="M302.958 41.7448C302.78 40.8543 302.54 39.9893 302.134 39.1994C301.328 37.6344 299.892 36.4437 298.269 35.7663C296.67 35.0974 294.857 34.8432 293.152 35.0957C292.311 35.2185 291.471 35.3687 290.627 35.4643C289.68 35.57 288.784 35.541 287.89 35.8738C286.992 36.2082 286.1 36.6074 285.368 37.2386C284.407 38.0697 283.771 39.4107 284.133 40.6291C284.355 41.3749 284.914 42.132 285.358 42.7619C285.885 43.5144 286.431 44.2549 287.056 44.9307C287.729 45.6573 288.596 46.2084 289.158 47.0255C290.97 49.6622 288.868 53.7345 290.801 56.282C291.598 57.3317 292.915 57.8536 293.831 58.8007C294.952 59.9557 295.365 61.6314 295.411 63.237C295.447 64.4839 295.326 65.8597 296.092 66.844C297.063 68.0911 298.917 68.0691 300.497 67.9751C303.144 67.8185 306.055 67.8659 308.094 69.5601C309.092 67.5625 311.211 63.3616 309.988 61.2221C309.571 60.4951 308.935 59.8965 308.631 59.1147C308.037 57.5843 308.882 55.9001 308.938 54.2571C308.983 52.9467 308.493 51.6258 307.604 50.6621C306.838 49.8309 305.809 49.2764 305.055 48.4332C303.47 46.6643 303.434 44.1169 302.958 41.7448Z" fill="#9E2F00"/>
<path d="M288.609 37.5666C288.722 37.4111 288.309 37.4079 288.229 37.5185C287.094 39.0956 286.884 41.175 287.698 42.9413C287.935 43.4578 288.256 43.9309 288.642 44.3469C288.741 44.4563 289.14 44.335 289.038 44.2242C287.731 42.8179 287.282 40.7844 287.894 38.9635C288.062 38.4656 288.302 37.9943 288.609 37.5666Z" fill="#F04F0A"/>
<path d="M290.122 42.9702C289.598 42.5828 289.224 42.0063 289.089 41.3685C289.012 41.008 289.009 40.636 289.021 40.2693C289.031 39.9021 289.05 39.5356 289.154 39.1811C289.202 39.0256 288.782 39.0511 288.741 39.1889C288.635 39.5442 288.615 39.9129 288.603 40.2794C288.589 40.6839 288.589 41.0899 288.68 41.4845C288.833 42.1476 289.231 42.7328 289.775 43.1394C289.884 43.2195 290.277 43.0901 290.122 42.9702Z" fill="#F04F0A"/>
<path d="M305.705 52.7099C305.044 51.918 304.094 51.4114 303.284 50.7903C302.449 50.1558 301.666 49.4405 301.047 48.5929C300.334 47.6164 299.849 46.4646 299.806 45.2462C299.801 45.1063 299.381 45.1597 299.387 45.3163C299.46 47.4251 300.801 49.188 302.359 50.495C302.756 50.8309 303.174 51.1435 303.601 51.4435C304.017 51.7354 304.444 52.0134 304.83 52.348C305.635 53.0457 306.078 54.0048 306.256 55.0452C306.439 56.1169 306.263 57.3801 305.285 58.0232C305.208 58.0725 305.236 58.1438 305.309 58.1745C305.403 58.2092 305.527 58.1784 305.606 58.1252C306.433 57.5813 306.771 56.5882 306.742 55.6312C306.712 54.6074 306.367 53.5029 305.705 52.7099Z" fill="#F04F0A"/>
<path d="M304.449 53.551C304.369 53.4317 303.963 53.537 304.055 53.6737C304.57 54.4415 304.673 55.4412 304.332 56.3016C304.274 56.4431 304.69 56.4277 304.744 56.2911C305.103 55.3953 304.988 54.3516 304.449 53.551Z" fill="#F04F0A"/>
<path d="M293.166 55.665C292.031 54.7979 291.424 53.307 291.628 51.8959C291.654 51.7266 291.236 51.7679 291.216 51.906C290.999 53.3923 291.627 54.9213 292.821 55.8322C292.929 55.9123 293.323 55.7822 293.166 55.665Z" fill="#F04F0A"/>
<path d="M300.559 66.2078C299.098 65.718 298.303 64.2303 298.313 62.7474C298.315 62.6114 297.895 62.6586 297.893 62.8159C297.88 64.3823 298.762 65.8973 300.287 66.4071C300.376 66.4385 300.509 66.4211 300.582 66.3578C300.651 66.3051 300.644 66.2372 300.559 66.2078Z" fill="#F04F0A"/>
<path d="M303.413 65.7712C302.497 65.6753 301.68 65.0047 301.383 64.133C301.332 63.9844 300.919 64.0697 300.963 64.2029C301.296 65.1774 302.211 65.8839 303.231 65.9892C303.32 65.9998 303.456 65.9844 303.512 65.9039C303.569 65.8273 303.487 65.7778 303.413 65.7712Z" fill="#F04F0A"/>
<path d="M299.378 37.1948C299.271 37.1127 298.876 37.2441 299.033 37.3601C299.866 37.9793 300.767 38.6964 300.938 39.7828C300.961 39.9314 301.381 39.8647 301.359 39.7147C301.178 38.5838 300.243 37.836 299.378 37.1948Z" fill="#F04F0A"/>
</svg>
