<svg viewBox="0 0 366 178" fill="none" xmlns="http://www.w3.org/2000/svg">
<rect width="365" height="178" transform="translate(0.5)" fill="white"/>
<path d="M262.473 75.9143L263.784 66.8415C264.221 63.8095 264.678 60.7809 265.055 57.7414C265.351 55.3485 265.586 52.9447 265.696 50.5343C265.178 47.074 264.669 43.5862 264.738 40.0777C264.77 38.3064 264.954 36.535 265.361 34.8099C265.743 33.1756 266.345 31.6116 266.998 30.0715C267.678 28.4646 268.397 26.8748 269.004 25.2371C269.574 23.6885 270.083 22.1193 270.652 20.5723C271.717 17.6669 273.024 14.7701 275.26 12.5653C276.75 11.0972 278.621 9.93056 280.687 9.50228C282.003 9.22818 284.483 8.23286 285.076 10.1532C285.355 11.0578 284.898 12.0017 284.627 12.9079C283.353 17.165 286.145 21.8932 284.728 26.104C283.986 28.3139 282.201 29.9893 280.976 31.973C279.169 34.9007 278.614 38.4604 276.85 41.4141C276.57 41.8818 276.257 42.3342 275.849 42.6936C275.459 43.0363 274.994 43.2811 274.542 43.5366C272.079 44.9393 269.881 46.8104 268.101 49.0167C266.201 51.3722 266.285 54.6645 265.906 57.6076C265.473 60.9863 265.132 64.3743 264.88 67.7717C264.627 71.1825 264.466 74.6002 264.397 78.0195C264.33 81.425 264.352 84.8305 264.467 88.2334C264.496 89.0879 264.531 89.9424 264.572 90.7975C264.611 91.6234 264.693 92.4538 264.7 93.2797C264.702 93.5574 264.668 93.8537 264.486 94.0766C264.296 94.3094 263.994 94.4052 263.705 94.4346C263.335 94.474 262.955 94.4393 262.586 94.428C262.16 94.4172 261.733 94.4038 261.307 94.3918C260.88 94.3778 260.453 94.3656 260.027 94.3522C259.974 94.3504 259.816 94.3301 259.828 94.2445C260.712 88.1356 261.593 82.0246 262.473 75.9143Z" fill="#98C449"/>
<path d="M267.292 44.9501C267.814 43.5335 268.531 42.2293 269.312 40.9431C270.1 39.6429 270.847 38.332 271.167 36.8317C271.215 36.6122 271.254 36.3947 271.296 36.1739C271.212 36.1872 271.119 36.1752 271.08 36.1326C269.783 34.7415 268.743 33.1227 268.022 31.365C267.958 31.2125 268.347 31.1766 268.4 31.3068C269.098 33.0079 270.093 34.5771 271.337 35.9321C271.537 34.757 271.681 33.5783 272.097 32.4477C273.026 29.9226 274.782 27.8292 276.229 25.5987C276.992 24.4218 277.655 23.1952 278.136 21.8761C278.155 21.8265 278.168 21.7768 278.187 21.7288C278.119 21.722 278.059 21.6946 278.042 21.6466C277.418 19.7382 276.08 18.1656 275.428 16.2674C275.246 15.7432 275.123 15.1985 275.087 14.6451C275.076 14.4995 275.469 14.491 275.479 14.6451C275.648 17.1411 277.494 19.0495 278.328 21.3245C278.741 20.0825 279.044 18.8097 279.357 17.542C279.714 16.0961 280.086 14.6486 280.647 13.2678C281.117 12.1149 281.737 10.8746 282.838 10.2013C283.095 10.0455 283.376 9.92896 283.669 9.85701C283.746 9.83646 283.878 9.82617 283.938 9.89641C283.991 9.96151 283.942 10.0249 283.868 10.0438C282.605 10.3555 281.833 11.5479 281.319 12.6545C281.118 13.0862 280.942 13.5265 280.781 13.9719C281.742 13.7201 282.705 13.4699 283.668 13.2164C283.745 13.1958 283.878 13.1856 283.937 13.2558C283.991 13.3209 283.94 13.3843 283.866 13.4031C282.813 13.679 281.761 13.9548 280.707 14.2289C280.7 14.2306 280.694 14.2323 280.687 14.234C280.387 15.0923 280.147 15.9711 279.923 16.8499C279.558 18.2855 279.237 19.733 278.785 21.1429C278.355 22.486 277.778 23.7554 277.043 24.9632C276.212 26.3336 275.236 27.6219 274.353 28.965C274.391 28.953 274.432 28.9478 274.458 28.9478C275.57 28.9461 276.683 28.9667 277.795 28.9256C278.833 28.8879 279.865 28.7217 280.862 28.4236C281.434 28.2523 281.994 28.0399 282.535 27.7898C282.619 27.7504 282.732 27.7401 282.813 27.7898C282.878 27.8275 282.893 27.9046 282.813 27.9422C281.838 28.3945 280.812 28.7268 279.755 28.9273C278.658 29.1346 277.559 29.1568 276.447 29.1603L274.458 29.1654C274.405 29.1654 274.302 29.1483 274.271 29.09C273.732 29.9192 273.228 30.7706 272.817 31.6768C272.544 32.2781 272.315 32.9017 272.152 33.5424C271.957 34.3133 271.859 35.1013 271.734 35.8842C271.612 36.6383 271.463 37.3898 271.198 38.1098C270.95 38.7863 270.615 39.4267 270.256 40.0504C269.528 41.3164 268.733 42.531 268.135 43.8708C269.706 43.0516 271.338 42.3578 273.019 41.7963C273.091 41.7702 273.231 41.7668 273.288 41.8338C273.343 41.902 273.288 41.957 273.216 41.9809C271.434 42.5793 269.708 43.324 268.049 44.2114C268.027 44.2234 268.003 44.2321 267.976 44.2388C267.438 45.5204 267.037 46.86 266.794 48.2284C266.727 48.5985 266.67 48.974 266.626 49.3507C266.607 49.5033 266.216 49.4932 266.233 49.3507C266.411 47.8483 266.766 46.3682 267.292 44.9501Z" fill="#6F7E31"/>
<path d="M225.435 18.6485C225.314 18.0404 225.25 17.4202 225.401 16.8241C226.18 13.761 231.006 15.5804 232.839 16.2844C235.044 17.1324 237.187 18.2134 239.51 18.652C240.932 18.9192 242.393 18.9398 243.81 19.2276C246.085 19.6901 248.213 20.8636 249.82 22.5407C251.512 24.3052 252.593 26.5476 253.934 28.5931C255.137 30.4244 256.569 32.1272 257.472 34.1247C258.846 37.1689 258.397 40.138 258.875 43.3018C259.326 46.2911 260.018 48.9363 259.629 52.0441C259.18 55.6174 258.611 59.1942 258.64 62.8037C258.656 64.7825 258.849 66.7505 259.007 68.7206C259.653 76.8613 259.666 85.0413 259.677 93.2092C259.678 93.9253 259.511 94.5115 258.731 94.5302C257.736 94.5544 257.751 93.6684 257.743 92.949C257.664 84.593 257.674 76.2329 257.779 67.8762C257.832 63.6978 257.929 59.518 258.006 55.3418C258.065 52.1825 255.358 48.7236 253.246 46.526C252.029 45.2599 250.661 44.165 249.177 43.2249C247.747 42.3149 246.243 41.5304 244.752 40.7236C242.433 39.4648 240.091 38.1196 238.253 36.1924C236.44 34.296 235 32.0947 233.184 30.1863C232.623 29.6021 232.036 29.0299 231.333 28.6239C229.567 27.6063 228.116 26.9417 227.184 24.963C226.708 23.954 226.444 22.8628 226.182 21.7784C225.983 20.9629 225.786 20.1458 225.591 19.3286C225.536 19.1042 225.482 18.8781 225.435 18.6485Z" fill="#98C449"/>
<path d="M226.673 22.7993C226.729 22.7325 226.868 22.7377 226.942 22.7599C227.457 22.9193 228.002 22.9312 228.536 22.9381C229.085 22.9449 229.631 22.9244 230.179 22.8901C231.255 22.8182 232.328 22.6811 233.398 22.5407C231.5 21.1051 229.827 19.3868 228.206 17.6429C227.944 17.3585 227.682 17.0742 227.418 16.7898C227.289 16.6493 227.666 16.5791 227.759 16.6801C229.895 18.998 232.059 21.3518 234.692 23.1163C236.586 24.3874 238.685 25.2748 240.729 26.2684C240.821 25.1326 240.395 23.9968 240.097 22.9175C239.769 21.7441 239.444 20.5672 239.117 19.392C239.072 19.2292 239.461 19.2018 239.497 19.3337C239.828 20.5312 240.16 21.7269 240.492 22.9227C240.804 24.0516 241.256 25.2491 241.106 26.438C241.106 26.4431 241.104 26.4465 241.102 26.4517C241.81 26.8011 242.507 27.1677 243.185 27.5703C245.698 29.0607 247.864 31.1045 249.489 33.5319C250.377 34.8544 251.035 36.2948 251.732 37.7201C251.948 38.1592 252.171 38.5941 252.407 39.0204C253.334 36.9425 254.238 34.7911 254.423 32.5041C254.476 31.8308 254.463 31.1576 254.375 30.4877C254.356 30.349 254.747 30.3353 254.768 30.4877C255.093 32.9186 254.36 35.3187 253.447 37.5442C253.188 38.1746 252.912 38.7982 252.633 39.4199C252.722 39.5704 252.813 39.721 252.905 39.8702C253.335 40.5488 253.813 41.1946 254.303 41.8316C256.171 44.2561 258.399 46.7982 258.584 50.0084C258.605 50.3858 258.595 50.7639 258.55 51.1406C258.533 51.2932 258.141 51.2831 258.158 51.1406C258.411 48.9483 257.536 46.9628 256.362 45.1675C255.521 45.3816 254.646 45.4311 253.784 45.3061C253.723 45.296 253.615 45.2531 253.647 45.1707C253.678 45.0938 253.822 45.0865 253.889 45.0952C254.672 45.2103 255.465 45.1654 256.229 44.9635C255.705 44.1804 255.129 43.4357 254.572 42.7229C253.758 41.683 252.96 40.6379 252.28 39.5108C252.244 39.4901 252.224 39.4606 252.229 39.4265C252.107 39.2232 251.987 39.0157 251.876 38.8049C251.11 37.3761 250.497 35.8686 249.669 34.4724C249.269 33.8009 248.827 33.1533 248.349 32.5332C245.764 32.8964 243.288 33.8009 240.698 34.1384C239.966 34.236 239.225 34.284 238.485 34.2634C238.423 34.2617 238.289 34.2429 238.289 34.1555C238.289 34.0716 238.426 34.0459 238.485 34.0459C241.099 34.1161 243.61 33.2921 246.128 32.7216C246.812 32.5674 247.499 32.4321 248.191 32.3328C246.918 30.7293 245.392 29.3246 243.68 28.2025C241.017 26.4585 237.969 25.4341 235.247 23.7981C234.692 23.4657 234.162 23.106 233.645 22.7257C233.628 22.7308 233.612 22.736 233.599 22.7377C232.439 22.8884 231.279 23.0357 230.114 23.1094C229.535 23.1454 228.956 23.1642 228.375 23.1522C227.826 23.1402 227.271 23.1111 226.743 22.9467C226.673 22.9244 226.618 22.8662 226.673 22.7993Z" fill="#6F7E31"/>
<path d="M248.444 67.3656C247.122 66.4268 245.489 66.1752 244.007 65.4952C242.364 64.7377 240.733 63.8832 238.943 63.5298C238.291 63.4034 237.614 63.3432 237.014 63.0607C236.319 62.7301 235.791 62.136 235.238 61.5979C233.643 60.0561 231.666 58.9118 229.533 58.3016C228 57.8632 226.366 57.6852 224.969 56.9177C222.523 55.5726 221.338 52.7527 219.39 50.7552C218.186 49.5206 216.688 48.6005 215.469 47.3806C214.249 46.1613 213.291 44.4669 213.603 42.7706C213.627 42.6474 213.665 42.5123 213.774 42.4508C213.838 42.4126 213.913 42.4091 213.985 42.4059C215.94 42.3235 217.912 42.329 219.84 42.6527C221.189 42.879 222.515 43.259 223.88 43.3327C225.005 43.393 226.14 43.2417 227.258 43.3889C230.299 43.7937 232.577 46.2516 235.135 47.9479C236.713 48.9946 238.467 49.7743 240.298 50.2466C243.685 51.1239 245.705 53.5905 247.118 56.6983C248.41 59.5335 249.489 62.4646 250.347 65.4591C251.163 68.3078 252.269 70.9972 253.311 73.7851C254.968 78.227 256.439 82.7393 257.717 87.3064C257.823 87.6866 257.928 88.0688 258.031 88.4508C258.092 88.3739 258.306 88.3103 258.389 88.3785C258.666 88.6067 258.671 88.9868 258.515 89.2901C258.341 89.6258 258.001 89.8093 257.63 89.8213C256.544 89.8567 256.162 88.7091 256.059 87.8339C255.766 85.364 255.279 82.9516 254.57 80.5685C253.854 78.1549 252.968 75.798 252.042 73.4591C251.596 72.3303 251.171 71.1839 250.668 70.0792C250.157 68.959 249.446 68.0803 248.444 67.3656Z" fill="#98C449"/>
<path d="M216.887 47.5076C218.004 47.6669 219.137 47.5196 220.17 47.062C220.134 47.0411 220.099 47.0225 220.063 47.0017C218.825 46.2516 217.658 45.3904 216.51 44.5111C216.226 44.2923 215.942 44.0727 215.659 43.8519C215.505 43.7335 215.853 43.5795 215.961 43.6612C216.552 44.1189 217.144 44.5799 217.747 45.025C217.662 44.5284 217.576 44.0312 217.49 43.5366C217.466 43.3855 217.847 43.2965 217.872 43.439C217.979 44.0572 218.085 44.6757 218.193 45.2974C218.196 45.3128 218.193 45.3301 218.186 45.3476C219.769 46.4965 221.422 47.5417 223.26 48.2444C225.261 49.01 227.366 49.4121 229.446 49.9094C229.456 49.5788 229.359 49.2408 229.278 48.9255C229.172 48.4906 229.043 48.0623 228.898 47.6395C228.598 46.7742 228.221 45.9364 227.772 45.1367C227.69 44.9895 228.058 44.8677 228.125 44.9875C228.584 45.8046 228.973 46.6577 229.278 47.5398C229.431 47.9833 229.563 48.4344 229.676 48.8868C229.763 49.2462 229.867 49.6283 229.82 49.9997C230.119 50.0752 230.421 50.1523 230.722 50.2332C231.944 50.5617 233.153 50.958 234.292 51.5127C235.505 52.1022 236.585 52.8933 237.59 53.7892C238.328 54.447 239.029 55.1477 239.747 55.8263C240.042 54.3801 239.548 52.9018 239.079 51.5401C239.033 51.4029 239.409 51.2985 239.461 51.4424C239.971 52.9239 240.502 54.5447 240.05 56.1106C240.24 56.2873 240.43 56.462 240.626 56.6345C241.155 57.101 241.707 57.5426 242.293 57.9389C242.902 58.3476 243.54 58.7178 244.158 59.1139C244.76 59.4993 245.344 59.9122 245.875 60.3934C246.387 60.8592 246.848 61.3764 247.269 61.9285C248.117 63.0312 248.799 64.2532 249.441 65.4864C249.601 65.7929 249.757 66.0994 249.914 66.4079C249.976 66.5277 249.606 66.6462 249.536 66.5076C248.264 64.0183 246.915 61.4521 244.588 59.7938C244.333 59.6124 244.074 59.4425 243.812 59.2732C243.79 59.2831 243.768 59.2919 243.752 59.2953C243.235 59.3876 242.8 59.6706 242.368 59.955C241.936 60.2394 241.498 60.5044 241.037 60.734C240.105 61.2004 239.111 61.5309 238.089 61.7243C238.027 61.7351 237.893 61.7538 237.871 61.6681C237.851 61.5873 237.976 61.5256 238.036 61.5136C239.063 61.3202 240.06 60.9842 240.991 60.5044C241.45 60.267 241.876 59.9872 242.306 59.7082C242.697 59.4544 243.11 59.2237 243.564 59.1139C242.699 58.5672 241.818 58.0478 241.015 57.4075C239.929 56.5422 238.959 55.5472 237.95 54.5942C236.958 53.6607 235.922 52.768 234.731 52.0915C234.412 51.9115 234.087 51.7455 233.756 51.593C232.686 52.0747 231.69 52.7206 230.82 53.5081C230.378 53.9057 229.982 54.3513 229.566 54.7742C229.148 55.1979 228.694 55.5693 228.182 55.867C227.598 56.205 226.972 56.4599 226.347 56.7155C226.282 56.7411 226.147 56.7717 226.095 56.7015C226.044 56.6313 226.138 56.5629 226.195 56.5389C226.753 56.3114 227.313 56.0885 227.837 55.7954C228.37 55.4991 228.833 55.1277 229.259 54.6953C229.677 54.2723 230.07 53.8274 230.512 53.4279C230.945 53.0358 231.408 52.6778 231.896 52.3552C232.401 52.0199 232.936 51.7268 233.487 51.4719C232.756 51.1493 231.995 50.8857 231.228 50.6582C230.726 50.509 230.219 50.375 229.71 50.2465C229.588 50.3156 229.376 50.3169 229.407 50.2037C229.408 50.1938 229.408 50.183 229.41 50.173C227.534 49.7192 225.634 49.3506 223.8 48.7376C222.616 48.34 221.484 47.8228 220.404 47.2005C220.392 47.2078 220.379 47.2145 220.368 47.2198C219.238 47.7298 217.972 47.9152 216.742 47.7372C216.486 47.701 216.73 47.4848 216.887 47.5076Z" fill="#6F7E31"/>
<path d="M269.629 67.4963C269.682 67.246 269.733 66.9944 269.778 66.742C270.208 64.3545 269.159 61.8873 269.665 59.4581C269.953 58.0621 270.662 56.7807 270.972 55.386C271.265 54.0724 271.196 52.7054 271.352 51.3669C271.51 50.0273 271.948 48.6301 273.004 47.7903C273.697 47.2354 274.597 46.9732 275.253 46.3736C275.906 45.776 276.245 44.9087 276.827 44.2389C277.339 43.6533 278.02 43.2419 278.689 42.841C282.141 40.7685 285.627 38.68 289.439 37.3851C290.489 37.0271 291.757 36.7682 292.612 37.4721C293.019 37.8101 293.254 38.3133 293.405 38.8185C293.804 40.1689 293.7 41.6605 293.112 42.9386C292.291 44.724 290.583 46.0925 290.195 48.0185C290.008 48.9485 290.145 49.9577 289.725 50.8102C289.136 52.0167 287.69 52.4652 286.438 52.9416C284.368 53.7245 282.331 55.0146 281.459 57.0443C281.122 57.8327 280.964 58.718 280.435 59.3911C279.81 60.1882 278.792 60.5361 277.869 60.9483C276.354 61.6289 274.962 62.5799 273.78 63.7429C272.512 64.9895 271.273 66.3365 270.674 68.0464C270.006 69.9561 270.035 72.4093 269.733 74.4376C269.017 79.2672 268.478 84.1221 268.119 88.9904C268.039 90.083 267.967 91.2909 267.474 92.2935C267.191 92.8668 266.389 93.6485 265.809 93.0195C265.665 92.8656 265.629 92.555 265.646 92.1836C265.685 91.3874 265.98 90.3126 266.036 89.9117C266.389 87.3529 266.951 84.8274 267.414 82.2872C267.979 79.1982 268.015 76.1146 268.416 73.0176C268.663 71.1279 269.238 69.319 269.629 67.4963Z" fill="#98C449"/>
<path d="M273.313 59.0452C273.394 58.9167 273.473 58.7868 273.55 58.6563C273.546 58.651 273.544 58.6464 273.543 58.6409C273.169 57.0825 272.953 55.4905 272.897 53.8905C272.89 53.7433 273.284 53.7378 273.291 53.8905C273.341 55.3266 273.52 56.7553 273.827 58.1578C273.921 57.9832 274.014 57.8051 274.098 57.6238C274.341 57.1058 274.536 56.5686 274.72 56.0272C275.079 54.9644 275.386 53.8771 275.902 52.8766C276.426 51.8608 277.19 51.0383 278.082 50.3323C278.984 49.6218 279.96 49.0187 280.87 48.3183C281.584 47.7647 282.269 47.1686 282.917 46.5361C282.905 46.5262 282.893 46.5154 282.886 46.5C282.268 44.9911 282.497 43.3307 282.732 41.7668C282.756 41.6144 283.148 41.6284 283.128 41.7668C282.903 43.2437 282.679 44.8163 283.196 46.2552C284.143 45.2994 285.01 44.2649 285.778 43.1594C287.064 41.3024 288.291 39.1048 290.564 38.3353C290.818 38.2497 291.08 38.1882 291.347 38.1486C291.416 38.1387 291.556 38.144 291.587 38.2243C291.621 38.3065 291.511 38.3473 291.45 38.356C290.023 38.5736 288.949 39.4716 288.053 40.549C289.185 40.6554 290.319 40.7597 291.452 40.8663C291.515 40.8729 291.621 40.919 291.589 40.9994C291.558 41.0804 291.416 41.0804 291.349 41.0749C290.209 40.9672 289.07 40.8621 287.933 40.7564C287.919 40.7544 287.905 40.7511 287.892 40.7477C287.371 41.3989 286.91 42.1009 286.472 42.7519C285.158 44.7033 283.605 46.4693 281.788 47.9648C280.906 48.6915 279.955 49.3153 279.032 49.983C278.54 50.339 278.06 50.7178 277.623 51.1408C278.211 51.2352 278.799 51.3261 279.383 51.4205C279.989 51.5182 280.577 51.5932 281.19 51.5577C281.807 51.5195 282.418 51.4788 283.037 51.5027C283.655 51.5262 284.274 51.5898 284.887 51.6667C284.95 51.674 285.058 51.7203 285.026 51.8006C284.995 51.8796 284.851 51.8829 284.784 51.8762C284.161 51.7972 283.535 51.7337 282.908 51.715C282.292 51.6961 281.682 51.7491 281.067 51.7799C280.46 51.8092 279.874 51.7249 279.28 51.6293C278.661 51.5303 278.046 51.4325 277.43 51.3349C277.43 51.3349 277.428 51.3328 277.426 51.3328C277.139 51.6326 276.873 51.9531 276.645 52.3058C276.039 53.2393 275.684 54.3054 275.34 55.3586C274.995 56.4072 274.641 57.4451 274.099 58.4134C273.084 60.2396 271.604 61.8805 271.072 63.9448C271.009 64.1965 270.961 64.4535 270.93 64.7125C270.911 64.8649 270.521 64.8543 270.536 64.7125C270.798 62.5589 272.212 60.8318 273.313 59.0452Z" fill="#6F7E31"/>
<path d="M271.112 90.366C272.148 87.9315 272.883 85.3718 273.293 82.7581C273.491 81.4799 273.589 80.1951 273.675 78.9048C273.762 77.6494 273.87 76.3888 274.206 75.1721C274.228 75.0919 274.25 75.0116 274.274 74.9326C274.317 74.5626 274.379 74.1938 274.47 73.8292C275.061 71.4482 276.875 70.1647 279.263 69.9967C284.378 69.6354 289.603 71.0473 293.841 73.9368C294.097 74.1136 294.366 74.3144 294.463 74.6101C294.636 75.1447 294.169 75.6674 293.696 75.9692C292.091 76.995 289.901 77.0105 288.282 76.0121C287.398 75.4687 286.677 74.6529 285.713 74.2794C284.272 73.7194 282.636 74.2628 281.115 73.987C278.924 73.5896 275.857 71.6591 274.804 74.5405C274.752 74.6844 274.704 74.8283 274.66 74.9734C274.574 75.7344 274.567 76.5065 274.564 77.2674C274.557 78.5951 274.517 79.9207 274.415 81.2451C274.211 83.8783 273.793 86.4961 273.164 89.0604C273.101 89.3259 273.031 89.5916 272.962 89.8567C272.976 89.8454 272.989 89.8313 273.001 89.8179C273.09 89.7169 273.467 89.783 273.341 89.9255C272.811 90.5131 271.95 90.7132 271.203 90.491C271.151 90.4737 271.086 90.4275 271.112 90.366Z" fill="#98C449"/>
<path d="M278.584 70.2419C278.66 70.1944 278.783 70.2032 278.862 70.2419C280.277 70.9545 281.173 72.4381 282.67 73.0089C282.91 73.1014 282.62 73.2539 282.471 73.197C280.936 72.6114 280.028 71.1226 278.584 70.3945C278.507 70.357 278.517 70.2833 278.584 70.2419Z" fill="#6F7E31"/>
<path d="M285.153 70.9665C285.226 70.9203 285.356 70.9256 285.432 70.9665C287.064 71.8852 288.151 73.4471 289.449 74.7473C289.823 75.1208 290.218 75.474 290.645 75.7858C290.72 75.8408 290.626 75.9143 290.575 75.9331C290.485 75.9638 290.379 75.9485 290.304 75.8936C288.813 74.8088 287.786 73.2437 286.413 72.0291C286.023 71.6845 285.607 71.3746 285.153 71.119C285.081 71.0782 285.084 71.008 285.153 70.9665Z" fill="#6F7E31"/>
<path d="M290.12 72.2974C290.208 72.2861 290.307 72.3015 290.364 72.3732C290.956 73.168 291.76 73.7918 292.671 74.1818C292.752 74.218 292.733 74.297 292.671 74.3364C292.589 74.386 292.476 74.3706 292.394 74.3364C291.436 73.9269 290.605 73.2638 289.983 72.4333C289.93 72.3596 290.076 72.3048 290.12 72.2974Z" fill="#6F7E31"/>
<path d="M246.558 80.0808V110.969C246.558 112.746 247.536 114.294 248.982 115.108C249.208 115.235 249.446 115.343 249.69 115.432C250.193 115.617 250.738 115.715 251.305 115.715H274.245C274.961 115.715 275.64 115.555 276.246 115.273C276.5 115.157 276.74 115.017 276.966 114.86C278.191 114 278.992 112.578 278.992 110.969V80.0808H246.558Z" fill="#333337"/>
<path d="M245.078 103.783H280.964C281.461 103.783 281.863 103.382 281.863 102.887C281.863 102.392 281.461 101.989 280.964 101.989H245.078C244.583 101.989 244.182 102.392 244.182 102.887C244.182 103.382 244.583 103.783 245.078 103.783Z" fill="#F9B736"/>
<path d="M281.996 161.797H283.801L276.529 102.775C276.468 102.284 276.008 101.933 275.529 101.996C275.037 102.056 274.688 102.505 274.749 102.995L281.996 161.797Z" fill="#F9B736"/>
<path d="M244.047 161.797L251.295 102.995C251.355 102.505 251.006 102.056 250.514 101.996C250.022 101.924 249.575 102.286 249.515 102.775L242.241 161.797H244.047Z" fill="#F9B736"/>
<path d="M263.197 91.1984C263.197 91.5069 263.185 91.8187 263.16 92.1286L259.208 139.828L255.19 139.191L255.067 139.172L254.079 139.016L253.955 138.997L188.624 128.642L188.006 128.542L170.205 125.723L169.588 125.623L169.34 125.586L151.788 128.367L151.169 128.467L84.7265 138.997L84.6031 139.016L83.6147 139.172L83.4914 139.191L79.4724 139.828L75.5202 92.1286C75.4928 91.7825 75.4808 91.438 75.4843 91.0954C75.486 90.6812 75.5134 90.2663 75.5631 89.8567C75.8149 87.7602 76.6544 85.7593 78.0094 84.0991L78.7203 83.2257L82.7033 78.3347C83.7038 77.106 84.7522 75.9331 85.8469 74.8196C86.688 73.963 87.5446 72.652 88.7369 72.5684C88.939 72.5511 89.1463 72.5357 89.345 72.5859C89.4752 72.6165 89.602 72.6782 89.7167 72.7604C89.8315 72.8461 89.936 72.9538 90.02 73.0803C89.9823 73.0222 90.0628 72.0699 90.0696 71.8866C90.0714 71.8658 90.0731 71.8437 90.0731 71.8196C90.1125 71.4021 90.3403 70.8914 90.5921 70.6084C91.166 69.966 92.0431 69.5036 92.7284 69.0325C96.367 66.5431 100.311 64.654 104.41 63.4636C105.248 63.22 106.092 63.0079 106.94 62.8212C107.744 62.6457 108.693 62.3031 109.457 62.8016C109.65 62.9289 109.813 63.0982 109.957 63.2955C110.145 63.5451 110.301 63.8382 110.452 64.1226C110.486 63.8435 110.519 63.5573 110.587 63.2868C110.62 63.1564 110.658 63.0332 110.706 62.9114C111.047 62.0823 111.636 62.0964 112.335 62.0503C113.188 61.9913 114.043 61.9591 114.894 61.9591H130.411C130.816 61.9591 131.208 61.9043 131.607 62.0261C131.96 62.1359 132.258 62.4162 132.481 62.7556C132.585 62.9115 132.673 63.0828 132.752 63.2575C132.839 63.4581 132.916 63.6669 132.988 63.8764C132.942 63.7426 133.199 63.1992 133.368 62.872C133.423 62.7675 133.469 62.6839 133.49 62.6478C133.598 62.4664 133.721 62.2964 133.884 62.182C134.35 61.8615 134.89 61.9591 135.402 61.9591H149.067C149.86 61.9591 150.839 61.9317 151.169 62.9663C151.174 62.975 151.176 62.9851 151.178 62.9971C151.27 63.3003 151.282 63.6503 151.448 63.9085C151.467 63.5163 151.589 63.1343 151.788 62.8138C151.849 62.7127 151.919 62.6204 151.997 62.5327C152.74 61.7143 153.917 61.9591 154.849 61.9591H167.115C168.053 61.9591 169.003 62.1633 169.588 62.9803C169.719 63.1617 169.832 63.3738 169.922 63.6208C169.936 63.6549 170.159 63.0024 170.181 62.9442C170.19 62.9255 170.197 62.9082 170.205 62.8893C170.322 62.6337 170.534 62.3996 170.726 62.2283C171.192 61.8133 171.735 61.9591 172.299 61.9591H185.923C186.721 61.9591 187.475 62.1405 188.006 62.7729C188.152 62.9442 188.282 63.155 188.39 63.4033C188.419 63.3505 188.446 63.2955 188.475 63.2407C188.523 63.1497 188.573 63.0574 188.624 62.9683C188.654 62.9167 188.684 62.8654 188.719 62.8124C189.27 61.9692 189.764 61.9591 190.636 61.9591H201.86C202.518 61.9591 203.176 61.966 203.833 61.9591C204.424 61.9538 204.978 61.8944 205.553 62.1304C205.881 62.2658 206.189 62.4818 206.424 62.7742C206.492 62.8552 206.55 62.9409 206.603 63.0332C206.617 63.0553 206.633 63.0828 206.655 63.0862C206.692 63.0947 206.718 63.0519 206.737 63.0146C206.826 62.8398 206.927 62.6941 207.044 62.5688C207.868 61.6729 209.315 61.9591 210.336 61.9591H223.786C224.797 61.9591 225.802 62.0155 226.81 62.0844C227.378 62.1219 227.901 62.4371 228.144 63.0005C228.218 63.1705 228.266 63.3658 228.283 63.5813C228.385 63.5472 228.463 63.4581 228.541 63.3759C228.608 63.3056 228.675 63.2421 228.742 63.1859C229.535 62.4972 230.404 62.5414 231.358 62.7388C232.398 62.9529 233.427 63.2147 234.45 63.5145C236.49 64.1194 238.495 64.8969 240.442 65.8378C241.888 66.5331 243.301 67.3227 244.677 68.1947C245.385 68.6437 246.082 69.1127 246.769 69.6066C247.278 69.9747 248.096 70.3943 248.321 71.0814C248.439 71.4341 248.448 71.8196 248.454 72.1949C248.456 72.2258 248.456 72.2566 248.456 72.2874C248.463 72.541 248.465 72.7912 248.472 73.0429C248.472 72.8582 248.718 72.7123 249.016 72.6045C249.39 72.4707 249.84 72.4005 249.969 72.4037C250.546 72.4145 250.95 72.9967 251.38 73.3996C253.008 74.9218 254.541 76.5734 255.977 78.3347L259.961 83.2257L260.672 84.0991C262.026 85.7593 262.865 87.7602 263.117 89.8567C263.143 90.0641 263.163 90.2695 263.174 90.477C263.187 90.6824 263.196 90.8886 263.196 91.0954C263.197 91.1302 263.197 91.1643 263.197 91.1984Z" fill="#FDDF9E"/>
<path d="M84.7264 148.072V138.257C84.7264 126.997 93.3759 117.835 104.009 117.835H234.671C245.304 117.835 253.955 126.997 253.955 138.257V148.072H255.19V138.257C255.19 126.274 245.984 116.527 234.671 116.527H104.009C92.6958 116.527 83.4913 126.274 83.4913 138.257V148.072H84.7264Z" fill="#F04F0A"/>
<path d="M93.2438 84.8977C92.3256 79.8473 91.2943 75.5799 90.0729 71.8198C90.0729 71.844 90.0712 71.8661 90.0695 71.8868C90.0626 72.0701 89.9821 73.0224 90.0198 73.0805C89.9358 72.9541 89.8313 72.8463 89.7166 72.7607C90.8301 76.3188 91.7825 80.3379 92.6408 85.0448C94.9689 97.8302 95.3647 111.031 95.7467 123.797C95.8135 126.064 95.8837 128.406 95.9625 130.71L96.5809 130.68C96.5004 128.378 96.4302 126.038 96.3634 123.773C95.9813 110.976 95.5856 97.7413 93.2438 84.8977ZM110.587 63.2851C110.519 63.5575 110.486 63.8438 110.452 64.1249C110.301 63.8385 110.145 63.5454 109.957 63.2939C111.273 70.2373 112.228 77.2985 112.804 84.375C113.39 91.5774 113.325 98.8426 113.261 105.866C113.241 108.104 113.219 110.414 113.219 112.698V130.901H113.839V112.698C113.839 110.418 113.858 108.109 113.878 105.874C113.942 98.832 114.008 91.5479 113.419 84.3087C112.843 77.2502 111.894 70.211 110.587 63.2851ZM132.988 63.8767C132.916 63.6672 132.839 63.4583 132.751 63.2577V130.901H133.368V62.8723C133.199 63.1995 132.942 63.7429 132.988 63.8767ZM151.178 62.996C151.176 62.9854 151.174 62.9753 151.169 62.9665V130.901H151.787V62.814C151.589 63.1346 151.467 63.5166 151.448 63.9087C151.282 63.6506 151.27 63.3006 151.178 62.996ZM169.922 63.623C169.831 63.3727 169.718 63.162 169.588 62.9806V130.901H170.205V62.8896C170.196 62.9084 170.19 62.9257 170.181 62.9425C170.159 63.0027 169.936 63.6552 169.922 63.623ZM188.39 63.4035C188.282 63.1553 188.151 62.9444 188.006 62.7731V130.901H188.624V62.9686C188.573 63.0576 188.523 63.15 188.475 63.241C188.446 63.2958 188.419 63.3508 188.39 63.4035ZM206.655 63.0851C206.632 63.083 206.617 63.0556 206.603 63.0335C206.55 62.9412 206.492 62.8555 206.423 62.7745V130.901H207.043V62.5691C206.927 62.6929 206.826 62.8401 206.737 63.0128C206.718 63.0522 206.692 63.0938 206.655 63.0851ZM228.283 63.5815C228.265 63.3641 228.217 63.1707 228.144 63.0008C226.809 70.0164 225.843 77.1546 225.261 84.3087C224.671 91.5479 224.738 98.832 224.802 105.874C224.822 108.109 224.843 110.418 224.843 112.698V130.901H225.461V112.698C225.461 110.414 225.44 108.104 225.42 105.866C225.355 98.8426 225.29 91.5774 225.876 84.375C226.456 77.2623 227.416 70.1636 228.742 63.1841C228.675 63.2423 228.608 63.3059 228.541 63.3761C228.462 63.4583 228.385 63.5474 228.283 63.5815ZM248.471 73.0431C248.465 72.7915 248.463 72.5392 248.456 72.2896C247.3 75.9333 246.32 80.0568 245.436 84.8977C243.096 97.7413 242.698 110.976 242.318 123.773C242.249 126.038 242.179 128.378 242.1 130.68L242.717 130.71C242.796 128.406 242.868 126.064 242.933 123.797C243.317 111.031 243.711 97.8302 246.039 85.0448C246.909 80.2688 247.879 76.2002 249.016 72.6048C248.718 72.7105 248.471 72.8585 248.471 73.0431Z" fill="#F04F0A"/>
<path d="M254.572 148.072V138.257C254.572 136.452 254.358 134.697 253.955 133.027C251.757 123.916 243.958 117.181 234.671 117.181H104.009C94.7224 117.181 86.9243 123.916 84.7264 133.027C84.3221 134.697 84.108 136.452 84.108 138.257V148.072H254.572Z" fill="#FDDF9E"/>
<path d="M266.685 161.797H263.101L258.652 141.526H262.236L266.685 161.797Z" fill="#333337"/>
<path d="M71.9944 161.797H75.5799L80.0289 141.526H76.4433L71.9944 161.797Z" fill="#333337"/>
<path d="M255.191 148.072V123.066C255.191 117.553 255.771 112.003 256.917 106.57L259.699 93.3741C259.979 92.0531 261.411 91.0943 263.107 91.0943C263.138 91.0943 263.168 91.0943 263.196 91.0956C265.061 91.1337 266.562 92.3395 266.562 93.8164V148.072H267.181V93.8164C267.181 91.9902 265.392 90.5046 263.174 90.4772C263.163 90.2697 263.143 90.0643 263.117 89.8569H263.107C260.83 89.8569 258.887 91.2274 258.49 93.1191L255.706 106.317C254.543 111.833 253.955 117.469 253.955 123.066V148.072H255.191Z" fill="#F04F0A"/>
<path d="M267.181 148.072V93.8164C267.181 91.9902 265.392 90.5046 263.174 90.4772C263.153 90.4758 263.131 90.4758 263.107 90.4758C262.117 90.4758 261.198 90.7683 260.484 91.2603C259.771 91.7533 259.264 92.444 259.096 93.2456L256.313 106.443C255.155 111.934 254.572 117.495 254.572 123.066V148.072H267.181Z" fill="#FDDF9E"/>
<path d="M78.9808 93.3741L81.7646 106.57C82.909 112.003 83.4914 117.553 83.4914 123.066V139.191L83.6147 139.172L84.1082 139.095V148.072H84.7266V123.066C84.7266 117.469 84.1373 111.833 82.9741 106.317L80.1903 93.1191C79.7928 91.2274 77.8501 89.8569 75.5734 89.8569H75.5631C75.5135 90.2665 75.4861 90.6814 75.4843 91.0956C75.5135 91.0943 75.5426 91.0943 75.5734 91.0943C77.2694 91.0943 78.7016 92.0531 78.9808 93.3741Z" fill="#F04F0A"/>
<path d="M84.1084 148.072V123.066C84.1084 117.495 83.526 111.934 82.3679 106.443L79.5858 93.2476C79.2483 91.6443 77.5541 90.4758 75.5737 90.4758C73.3227 90.4758 71.5 91.9709 71.5 93.8164V148.072H84.1084Z" fill="#FDDF9E"/>
<path d="M184.958 161.261C184.619 159.483 184.28 157.704 183.937 155.926C183.819 155.302 183.605 154.696 183.492 154.078C183.387 153.51 183.367 152.904 183.26 152.329C183.139 151.671 182.76 151.463 182.251 151.291C181.671 151.093 181.074 150.953 180.475 150.873C179.906 150.794 179.291 150.696 178.731 150.885C178.553 150.946 178.4 151.114 178.546 151.314C178.558 151.33 178.572 151.342 178.584 151.354C178.573 151.383 178.566 151.417 178.57 151.451C178.726 153.831 178.546 156.205 177.89 158.468C177.605 159.453 177.241 160.402 176.951 161.384C176.824 161.821 176.709 162.277 176.737 162.736C176.795 163.651 177.643 164.31 178.306 164.571C178.866 164.788 179.423 165.008 179.98 165.225C180.441 165.404 180.956 165.725 181.451 165.684C181.945 165.646 182.387 165.252 182.812 164.99C183.327 164.672 183.851 164.37 184.379 164.088C185.1 163.702 185.354 163.321 185.164 162.337C185.095 161.978 185.027 161.62 184.958 161.261Z" fill="#9E2F00"/>
<path d="M183.917 155.823C183.795 155.234 183.598 154.662 183.492 154.078C183.387 153.51 183.367 152.904 183.261 152.329C183.139 151.671 182.76 151.463 182.252 151.291C181.671 151.093 181.075 150.953 180.475 150.873C179.906 150.794 179.291 150.696 178.731 150.885C178.553 150.946 178.401 151.114 178.546 151.314C178.558 151.33 178.572 151.342 178.584 151.354C178.573 151.383 178.567 151.417 178.57 151.451C178.7 153.434 178.596 155.41 178.18 157.324C178.18 158.09 178.191 158.852 178.274 159.609C178.329 160.12 178.414 160.62 178.555 161.105C178.611 161.297 178.671 161.485 178.729 161.674H183.783C183.809 161.533 183.833 161.394 183.853 161.252C184.115 159.46 183.958 157.634 183.917 155.823Z" fill="#FFC9B3"/>
<path d="M170.743 113.428C170.837 113.741 170.945 114.051 171.07 114.356C171.285 114.886 171.562 115.408 172.013 115.759C172.42 116.078 172.955 116.164 173.368 116.461C173.823 116.789 173.628 117.296 173.649 117.832C173.7 119.235 173.64 120.636 173.673 122.038C173.76 125.641 173.882 129.243 174.041 132.844C174.289 138.423 174.625 144 175.05 149.569C175.125 150.554 174.872 152.883 175.367 153.749H186.824C186.877 153.096 186.839 152.432 186.862 151.784C186.884 151.047 186.908 150.309 186.93 149.572C187.102 143.797 187.211 138.019 187.254 132.241C187.292 127.109 187.365 121.957 187.225 116.823H189.031C189.498 116.823 189.671 116.571 189.551 116.388C189.704 116.335 189.819 116.247 189.836 116.117C190.656 110.034 190.694 103.709 189.625 97.6534C188.882 93.4443 184.861 92.2745 181.125 91.9012C179.598 91.7499 178.197 91.9044 176.7 92.1595C175.47 92.3682 174.767 93.1874 174.127 94.2479C172.91 96.2641 172.398 98.4552 171.519 100.583C170.608 102.793 170.358 105.081 170.255 107.448C170.168 109.443 170.174 111.501 170.743 113.428Z" fill="#575DA9"/>
<path d="M193.467 161.261C193.806 159.483 194.147 157.704 194.488 155.926C194.607 155.302 194.821 154.696 194.934 154.078C195.038 153.51 195.061 152.904 195.165 152.329C195.288 151.671 195.665 151.463 196.174 151.291C196.755 151.093 197.353 150.953 197.95 150.873C198.519 150.794 199.136 150.696 199.694 150.885C199.873 150.946 200.025 151.114 199.879 151.314C199.867 151.33 199.855 151.342 199.842 151.354C199.854 151.383 199.859 151.417 199.855 151.451C199.7 153.831 199.879 156.205 200.536 158.468C200.82 159.453 201.185 160.402 201.474 161.384C201.601 161.821 201.716 162.277 201.689 162.736C201.632 163.651 200.782 164.31 200.119 164.571C199.561 164.788 199.002 165.008 198.446 165.225C197.985 165.404 197.471 165.725 196.974 165.684C196.482 165.646 196.039 165.252 195.614 164.99C195.098 164.672 194.574 164.37 194.046 164.088C193.325 163.702 193.073 163.321 193.262 162.337C193.33 161.978 193.399 161.62 193.467 161.261Z" fill="#9E2F00"/>
<path d="M194.509 155.823C194.632 155.234 194.827 154.662 194.934 154.078C195.038 153.51 195.06 152.904 195.165 152.329C195.288 151.671 195.665 151.463 196.174 151.291C196.755 151.093 197.353 150.953 197.95 150.873C198.519 150.794 199.136 150.696 199.694 150.885C199.873 150.946 200.025 151.114 199.879 151.314C199.867 151.33 199.855 151.342 199.842 151.354C199.854 151.383 199.859 151.417 199.855 151.451C199.725 153.434 199.83 155.41 200.246 157.324C200.246 158.09 200.234 158.852 200.152 159.609C200.097 160.12 200.013 160.62 199.871 161.105C199.814 161.297 199.754 161.485 199.696 161.674H194.644C194.617 161.533 194.593 161.394 194.572 161.252C194.31 159.46 194.468 157.634 194.509 155.823Z" fill="#FFC9B3"/>
<path d="M207.263 113.176C207.075 114.214 206.778 115.689 205.898 116.391C205.511 116.698 205.086 116.698 204.863 117.222C204.666 117.69 204.764 118.256 204.76 118.747C204.748 119.843 204.779 120.94 204.754 122.038C204.668 125.641 204.545 129.243 204.385 132.844C204.139 138.423 203.801 144 203.376 149.569C203.301 150.554 203.554 152.883 203.061 153.749H191.602C191.551 153.096 191.587 152.432 191.566 151.784C191.542 151.047 191.518 150.309 191.498 149.572C191.324 143.797 191.217 138.019 191.172 132.241C191.134 127.109 191.061 121.957 191.201 116.823H189.396C188.93 116.823 188.755 116.571 188.875 116.388C188.722 116.335 188.608 116.247 188.59 116.117C187.77 110.034 187.732 103.709 188.801 97.6534C189.133 95.7757 189.872 94.7444 191.624 93.9341C192.981 93.3057 194.415 92.8413 195.881 92.5535C196.971 92.3394 198.102 92.2243 199.186 92.4679C200.022 92.6566 200.8 93.0534 201.523 93.5199C203.823 95.0068 205.634 97.2659 206.499 99.865C206.88 101.006 207.08 102.2 207.253 103.39C207.717 106.635 207.849 109.941 207.263 113.176Z" fill="#575DA9"/>
<path d="M187.375 113C187.319 111.821 187.271 110.639 187.201 109.461C187.135 108.378 187.022 107.284 186.67 106.253C186.524 105.83 186.25 105.442 186.118 105.023C186.058 105.018 185.998 105.02 185.936 105.029C185.832 105.345 186.161 105.741 186.277 106.038C186.673 107.055 186.805 108.153 186.877 109.238C186.952 110.379 186.995 111.523 187.052 112.665C187.117 113.988 187.197 115.312 187.151 116.635C187.149 116.745 187.456 116.748 187.461 116.635C187.502 115.422 187.435 114.21 187.375 113Z" fill="#504F53"/>
<path d="M191.051 113C191.107 111.821 191.155 110.639 191.225 109.461C191.29 108.378 191.403 107.284 191.756 106.253C191.917 105.786 192.13 105.265 192.568 104.993C192.654 105.255 192.26 105.75 192.149 106.038C191.753 107.055 191.621 108.153 191.549 109.238C191.474 110.379 191.433 111.523 191.374 112.665C191.309 113.988 191.229 115.312 191.275 116.635C191.278 116.745 190.97 116.748 190.967 116.635C190.926 115.422 190.991 114.21 191.051 113Z" fill="#504F53"/>
<path d="M173.794 115.833C173.635 115.039 173.512 114.241 173.424 113.438C173.412 113.325 173.104 113.334 173.116 113.438C173.201 114.241 173.325 115.039 173.484 115.833C173.508 115.946 173.813 115.929 173.794 115.833Z" fill="#504F53"/>
<path d="M204.645 113.981C204.631 114.641 204.616 115.3 204.601 115.96C204.597 116.067 204.907 116.071 204.909 115.96C204.924 115.3 204.94 114.641 204.955 113.981C204.957 113.875 204.649 113.872 204.645 113.981Z" fill="#504F53"/>
<path d="M202.16 64.4379C202.177 63.8283 202.158 63.218 202.098 62.6103C201.915 60.7943 201.339 58.9988 200.289 57.5032C199.665 56.6145 198.879 55.8348 198.389 54.8666C197.621 53.3489 197.664 51.5488 197.087 49.9502C196.539 48.4291 195.427 47.1355 194.057 46.2776C192.583 45.3556 190.911 45.0558 189.222 44.8295C187.817 44.6428 185.863 44.8095 184.65 45.5924C183.66 46.2308 182.646 46.815 181.614 47.3992C180.292 48.15 179.163 49.2375 178.359 50.5297C177.479 51.941 177.786 53.5937 177.429 55.1737C177.068 56.777 175.917 57.9971 174.978 59.2932C174.037 60.5887 173.249 62.2912 173.772 63.8403C173.922 64.2873 174.173 64.6861 174.327 65.1339C174.591 65.9007 174.548 66.7505 174.714 67.5509C174.961 68.736 175.697 69.7934 176.681 70.3743C176.907 70.5074 177.147 70.6191 177.347 70.7918C177.648 71.0554 177.837 71.4376 178.082 71.7667C179.519 73.6939 182.046 74.0179 184.126 74.4496C186.096 74.8571 188.073 75.2953 190.072 75.3368C191.564 75.3656 193.056 75.1722 194.516 74.8129C196.302 74.3706 197.866 74.564 198.989 72.707C199.501 71.8578 199.831 70.8894 200.342 70.0383C200.988 68.9642 201.702 68.1318 201.913 66.8744C202.048 66.0706 202.137 65.2536 202.16 64.4379Z" fill="#333337"/>
<path d="M205.346 91.6281C205.142 93.2609 205.134 94.9245 205.564 96.5265C205.935 97.9171 207.393 99.4147 205.975 100.611C205.529 100.985 204.978 101.203 204.431 101.403C203.367 101.794 202.285 102.137 201.19 102.435C196.625 103.673 191.855 104.093 187.137 103.829C182.701 103.581 177.544 103.052 173.606 100.883C173.249 100.685 172.014 100.16 171.881 99.7773C171.795 99.5291 171.865 99.2553 171.93 98.9984C171.93 97.6534 172.475 96.206 172.538 94.8289C172.597 93.5747 172.295 92.6447 172.009 91.4333C171.353 88.6408 170.726 85.845 170.083 83.0492C168.991 78.2933 167.432 71.5661 172.17 68.2617C174.836 66.4066 178.133 66.1169 181.087 64.9505C181.315 64.8609 181.541 64.7672 181.767 64.6709C183.345 64.0096 184.897 63.8604 186.596 63.825C187.333 63.8095 188.068 63.7941 188.803 63.7801C190.567 63.7407 192.2 63.8229 193.858 64.4741C193.913 64.4775 193.966 64.4807 194.019 64.4842C194.161 64.4962 194.358 64.5664 194.427 64.6969C195.108 64.964 195.789 65.2295 196.472 65.4987C197.776 66.0092 198.903 65.9355 200.21 66.2829C201.82 66.7131 203.266 67.6949 204.637 68.5942C207.158 70.2491 207.799 72.4881 207.827 75.4139C207.837 76.5876 207.847 77.7626 207.856 78.9357C207.887 82.3177 206.787 85.5572 205.91 88.7794C205.653 89.7128 205.466 90.6672 205.346 91.6281Z" fill="white"/>
<path d="M196.213 66.1543C196.085 66.4493 196.022 66.8041 195.943 67.1138C195.811 67.6291 195.636 68.1398 195.443 68.6369C195.266 69.1027 195.071 69.5718 194.824 70.0088C194.072 71.3471 192.851 72.4058 191.396 73.0415C189.971 73.6611 188.323 73.8345 186.795 73.4797C185.969 73.2897 185.174 72.9558 184.496 72.4686C182.416 70.9784 181.573 68.2789 181.208 65.8872C181.189 65.7689 181.169 65.639 181.15 65.4985C181.126 65.3252 181.104 65.1405 181.087 64.9503C181.315 64.8607 181.541 64.767 181.767 64.6708C183.345 64.0095 184.897 63.8603 186.596 63.8248C187.333 63.8094 188.068 63.794 188.802 63.78C190.567 63.7406 192.2 63.8228 193.858 64.4739C193.913 64.4774 193.966 64.4806 194.019 64.484C194.161 64.496 194.358 64.5663 194.427 64.6968C195.108 64.9639 195.789 65.2294 196.472 65.4985C196.513 65.7809 196.316 65.9128 196.213 66.1543Z" fill="white"/>
<path d="M181.755 64.8871C181.844 65.8193 182.087 66.7374 182.361 67.6315C182.606 68.4332 182.861 69.2435 183.271 69.9817C183.649 70.6655 184.151 71.2872 184.785 71.7602C185.427 72.2393 186.176 72.5666 186.957 72.7553C188.398 73.1033 189.955 72.9333 191.3 72.3217C192.672 71.698 193.823 70.6547 194.534 69.3411C194.767 68.9096 194.951 68.4484 195.12 67.9914C195.3 67.5009 195.466 67.001 195.591 66.4938C195.68 66.1345 195.79 65.7811 195.881 65.4217C195.893 65.3736 195.903 65.3254 195.915 65.2792C195.418 65.0839 194.923 64.8905 194.426 64.6971C194.358 64.5665 194.161 64.4963 194.019 64.4862C193.966 64.4809 193.912 64.4776 193.858 64.4742C192.199 63.823 190.567 63.7408 188.802 63.779C188.067 63.7956 187.332 63.8097 186.596 63.8251C184.896 63.8626 183.344 64.0098 181.765 64.671C181.756 64.6743 181.748 64.6796 181.739 64.683C181.744 64.75 181.748 64.8189 181.755 64.8871Z" fill="#FFC9B3"/>
<path d="M202.632 106.859C202.992 106.959 203.352 107.053 203.708 107.158C203.999 107.242 204.332 107.37 204.423 107.66C204.505 107.923 204.349 108.196 204.231 108.446C204.128 108.669 204.051 108.904 204.003 109.141C203.979 109.278 203.962 109.428 204.02 109.554C204.19 109.93 204.926 109.686 205.197 109.562C205.611 109.371 205.939 109.044 206.144 108.638C206.206 109.28 206.799 108.902 207.013 108.581C207.232 108.259 207.402 107.905 207.515 107.531C207.525 107.495 207.539 107.458 207.57 107.44C207.633 107.409 207.695 107.476 207.746 107.521C208.404 108.115 208.656 106.642 208.642 106.337C208.709 106.457 208.899 106.457 209.003 106.368C209.313 106.111 209.183 105.292 209.151 104.937C209.104 104.41 208.991 103.884 208.803 103.387C208.438 102.431 207.76 101.576 206.752 101.268C205.718 100.951 204.633 100.84 203.557 100.728C202.252 100.595 200.541 100.076 199.328 100.749C198.406 101.261 197.968 102.475 198.182 103.485C198.413 104.567 199.285 105.436 200.224 105.96C200.976 106.378 201.8 106.628 202.632 106.859Z" fill="#FFC9B3"/>
<path d="M194.329 104.437C195.531 104.413 196.734 104.389 197.937 104.364C198.454 104.353 199.177 104.415 199.657 104.197C200.104 103.992 200.136 103.493 200.313 103.046C200.583 102.354 201.714 101.155 200.813 100.603C200.544 100.439 200.222 100.386 199.91 100.334C199.263 100.225 198.615 100.103 197.971 99.9714C195.49 99.4655 193.044 98.8031 190.62 98.0764C188.424 97.4185 186.294 96.6235 184.045 96.2929C181.146 95.8701 176.555 95.2362 175.133 98.635C174.676 99.7299 174.685 100.775 175.557 101.689C176.209 102.373 177.11 102.755 178.005 103.058C179.49 103.562 181.025 103.9 182.575 104.132C184.069 104.357 185.647 104.615 187.156 104.585C189.548 104.537 191.937 104.487 194.329 104.437Z" fill="#FFC9B3"/>
<path d="M181.998 99.2206C181.546 96.9562 180.891 94.7927 180.533 92.5282C179.848 88.1906 177.804 84.1508 176.667 79.9109C176.514 79.344 176.359 78.7665 176.026 78.2834C175.432 77.4147 174.709 77.3873 173.809 77.7165C170.851 78.7992 169.953 81.65 170.188 84.5669C170.645 90.2222 172.192 95.5977 174.793 100.629C175.687 102.361 177.237 102.977 179.17 102.678C180.403 102.486 182.466 101.712 182.171 100.127C182.161 100.076 182.152 100.026 182.144 99.9781C182.096 99.7246 182.048 99.4743 181.998 99.2206Z" fill="#FFC9B3"/>
<path d="M205.32 105.369C205.245 105.306 204.947 105.36 205.055 105.448C205.994 106.229 206.076 107.528 205.961 108.657C205.949 108.761 206.257 108.77 206.269 108.657C206.389 107.494 206.285 106.171 205.32 105.369Z" fill="#D14205"/>
<path d="M206.492 103.974C206.434 103.928 206.353 103.912 206.281 103.928C206.244 103.937 206.16 103.983 206.218 104.031C207.189 104.821 207.302 106.139 207.275 107.304C207.271 107.413 207.578 107.435 207.581 107.329C207.611 106.135 207.486 104.783 206.492 103.974Z" fill="#D14205"/>
<path d="M207.566 102.985C207.501 102.911 207.203 102.939 207.294 103.048C208.032 103.912 208.437 105.023 208.43 106.157C208.43 106.269 208.738 106.284 208.74 106.178C208.745 105.01 208.325 103.872 207.566 102.985Z" fill="#D14205"/>
<path d="M198.612 104.165C198.48 103.987 198.406 103.78 198.398 103.558C198.396 103.495 198.29 103.48 198.244 103.481C198.208 103.481 198.166 103.485 198.136 103.503C198.115 103.516 198.088 103.533 198.089 103.558C198.098 103.792 198.175 104.022 198.314 104.206C198.355 104.262 198.439 104.273 198.502 104.262C198.535 104.258 198.571 104.249 198.595 104.227C198.612 104.212 198.627 104.185 198.612 104.165Z" fill="#D14205"/>
<path d="M180.573 95.7572C179.648 95.7008 178.724 96.0984 178.14 96.8177C178.094 96.8707 178.217 96.9101 178.246 96.9154C178.313 96.9234 178.392 96.9135 178.438 96.8585C178.95 96.2269 179.757 95.8635 180.573 95.9149C180.617 95.9184 180.725 95.8997 180.725 95.836C180.725 95.7691 180.616 95.7604 180.573 95.7572Z" fill="#D14205"/>
<path d="M180.263 84.0581C180.208 83.6881 180.157 83.3127 180.119 82.9273C180.002 81.7422 179.869 80.5584 179.723 79.3759C179.43 77.0104 179.081 74.6515 178.67 72.3047C178.51 71.3846 178.337 70.4525 177.923 69.6153C177.508 68.7788 176.814 68.0353 175.92 67.7716C173.183 66.9613 170.272 69.9031 169.426 72.2004C168.895 73.6337 168.741 75.1776 168.699 76.7053C168.588 80.913 168.83 85.499 169.451 89.6358C172.223 89.773 175.012 89.5107 177.709 88.8616C178.666 88.6321 179.638 88.2794 180.206 87.4274C180.928 86.3489 180.436 85.2299 180.263 84.0581Z" fill="white"/>
<path d="M191.782 64.1226C191.475 63.0586 190.742 63.4053 189.947 63.5164C189.32 63.6669 188.686 63.7887 188.051 63.8898C187.415 63.7887 186.783 63.6669 186.154 63.5164C185.361 63.4053 184.628 63.0586 184.321 64.1226C184.21 64.5115 184.239 64.9264 184.296 65.3273C184.232 65.6391 184.23 65.9642 184.285 66.2333C184.434 66.9787 184.95 67.6105 185.586 67.9978C185.707 68.0715 185.83 68.1364 185.957 68.1933C186.504 68.4396 187.105 68.5513 187.703 68.5801C187.818 68.5875 187.934 68.5888 188.051 68.5875C188.167 68.5888 188.284 68.5875 188.4 68.5801C188.998 68.5513 189.599 68.4396 190.146 68.1933C190.273 68.1364 190.396 68.0715 190.516 67.9978C191.151 67.6105 191.669 66.9787 191.818 66.2333C191.871 65.9642 191.869 65.6391 191.806 65.3273C191.861 64.9264 191.893 64.5115 191.782 64.1226Z" fill="#D14205"/>
<path d="M195.63 54.8468C195.652 54.0377 195.573 53.2327 195.278 52.4705C195.011 51.7873 194.672 51.0056 194.148 50.483C193.642 49.9778 193.074 49.5327 192.464 49.1608C191.263 48.424 189.891 47.9603 188.486 47.8385C187.234 47.7287 185.927 47.8912 184.837 48.5217C184.082 48.9566 183.465 49.5944 182.888 50.2488C182.351 50.8564 181.839 51.4834 181.325 52.1104C181.043 52.4551 180.732 52.856 180.59 53.2822C180.431 53.7708 180.486 54.3416 180.472 54.8468C180.455 55.506 180.496 56.1657 180.549 56.7773C180.688 58.3787 180.945 59.9808 181.459 61.5092C181.575 61.8551 181.705 62.1944 181.849 62.5297C182.012 62.984 182.197 63.4277 182.411 63.8592C183.225 65.4954 184.58 67.1362 186.456 67.5203C186.566 67.5438 186.672 67.5578 186.78 67.5698C187.199 67.6368 187.628 67.6589 188.051 67.6294C188.476 67.6589 188.902 67.6368 189.322 67.5698C189.432 67.5578 189.538 67.5438 189.647 67.5203C191.522 67.1362 192.877 65.4954 193.692 63.8592C193.906 63.4277 194.089 62.984 194.252 62.5297C194.396 62.1944 194.528 61.8551 194.645 61.5092C195.157 59.9808 195.414 58.3787 195.554 56.7773C195.607 56.1657 195.645 55.506 195.63 54.8468Z" fill="#FFC9B3"/>
<path d="M190.449 57.7502C190.481 57.8512 190.533 57.9422 190.599 58.0205C190.944 57.985 191.29 57.9984 191.638 58.0327C191.715 57.9115 191.752 57.7589 191.757 57.6117C191.757 57.6063 191.757 57.603 191.757 57.5996C191.761 57.5823 191.763 57.5634 191.766 57.5448C191.783 57.3734 191.783 57.1847 191.737 57.0168C191.698 56.8628 191.59 56.7478 191.453 56.6728C191.314 56.5959 191.149 56.5597 190.993 56.563C190.819 56.5664 190.688 56.638 190.594 56.7478C190.449 56.921 190.394 57.1867 190.404 57.425C190.404 57.534 190.416 57.6458 190.449 57.7502Z" fill="#333337"/>
<path d="M183.384 57.5995C183.384 57.603 183.384 57.6062 183.384 57.6117C183.387 57.7381 183.418 57.8699 183.476 57.9831C183.852 57.9248 184.234 57.9041 184.614 57.9214C184.647 57.8687 184.672 57.8104 184.691 57.7501C184.725 57.6458 184.737 57.5339 184.737 57.425C184.746 57.1867 184.693 56.921 184.545 56.7478C184.451 56.638 184.321 56.5664 184.15 56.5629C183.99 56.5597 183.826 56.5958 183.689 56.6727C183.552 56.7478 183.444 56.8627 183.403 57.0167C183.36 57.1846 183.358 57.3734 183.375 57.5447C183.377 57.5634 183.381 57.5822 183.384 57.5995Z" fill="#333337"/>
<path d="M186.101 54.7181C186.078 54.7502 186.051 54.7851 186.018 54.8192C185.575 55.3143 184.997 55.667 184.379 55.9086C184.009 56.0545 183.629 56.1964 183.236 56.27C183.092 56.2974 182.77 56.3709 182.652 56.2392C182.467 56.0283 182.906 55.8176 183.048 55.7474C183.865 55.3398 184.545 54.7108 185.287 54.1782C185.667 53.9058 186.483 54.1701 186.101 54.7181Z" fill="#333337"/>
<path d="M190.002 54.7181C190.024 54.7502 190.052 54.7851 190.082 54.8192C190.528 55.3143 191.105 55.667 191.722 55.9086C192.092 56.0545 192.472 56.1964 192.864 56.27C193.008 56.2974 193.33 56.3709 193.447 56.2392C193.635 56.0283 193.195 55.8176 193.055 55.7474C192.238 55.3398 191.557 54.7108 190.814 54.1782C190.434 53.9058 189.62 54.1701 190.002 54.7181Z" fill="#333337"/>
<path d="M196.782 50.298C196.515 49.8336 196.2 49.4007 195.812 49.0146C194.456 47.6547 192.051 47.2264 190.214 47.0291C189.5 46.9522 188.772 46.9301 188.052 46.9676C187.331 46.9301 186.603 46.9522 185.888 47.0291C181.693 47.4781 178.387 51.0228 177.568 55.0265C177.477 55.4594 177.415 55.9119 177.511 56.3454C177.729 57.3406 178.63 57.4997 179.512 57.3613C180.675 57.176 181.14 56.1018 181.649 55.1804C182.392 53.834 183.077 52.4548 183.814 51.1064C184.222 50.365 184.65 49.6061 185.304 49.0714C185.373 49.0146 185.457 48.9584 185.544 48.9738C185.614 48.9878 185.666 49.044 185.714 49.0968C186.827 50.389 187.607 52.1571 189.217 52.7152C189.858 52.9379 190.553 52.9312 191.216 53.0765C192.597 53.3763 194.212 54.5621 194.841 55.8483C195.581 57.3733 197.923 58.3047 198.226 55.9646C198.31 55.3296 198.182 54.6872 198.046 54.0615C197.771 52.7767 197.435 51.4444 196.782 50.298Z" fill="#333337"/>
<path d="M195.909 56.64C196.207 57.0529 196.33 57.5721 196.358 58.0808C196.44 59.6566 195.589 61.2521 194.228 62.0584C193.778 62.326 193.159 62.4973 192.755 62.1614C192.546 61.988 192.445 61.7177 192.377 61.454C191.959 59.8775 192.46 58.5298 193.195 57.1572C193.759 56.1019 194.989 55.3585 195.909 56.64Z" fill="#FFC9B3"/>
<path d="M180.193 56.64C179.896 57.0529 179.773 57.5721 179.745 58.0808C179.661 59.6566 180.513 61.2521 181.873 62.0584C182.325 62.326 182.94 62.4973 183.348 62.1614C183.557 61.988 183.656 61.7177 183.725 61.454C184.143 59.8775 183.643 58.5298 182.908 57.1572C182.344 56.1019 181.112 55.3585 180.193 56.64Z" fill="#FFC9B3"/>
<path d="M188.417 61.5553C187.962 61.4468 187.412 61.2555 187.323 60.7275C187.28 60.4705 187.347 60.2002 187.391 59.9479C187.437 59.6877 187.492 59.4273 187.545 59.167C187.765 58.1063 187.996 57.0323 187.896 55.9449C187.884 55.8076 187.513 55.8164 187.525 55.9449C187.633 57.1132 187.359 58.261 187.127 59.3985C187.071 59.6755 187.014 59.9534 186.971 60.2343C186.932 60.488 186.917 60.7503 187.033 60.9865C187.257 61.4349 187.777 61.6101 188.229 61.7179C188.301 61.7353 188.429 61.7466 188.484 61.6838C188.534 61.6255 188.484 61.5707 188.417 61.5553Z" fill="#D14205"/>
<path d="M189.923 63.5955C189.918 63.5868 189.913 63.5815 189.906 63.5748C189.827 63.4838 189.716 63.4309 189.605 63.3862C188.986 63.1366 188.299 63.0588 187.64 63.1532C187.093 63.2269 186.221 63.3694 186.207 64.0579C186.206 64.1041 186.211 64.1537 186.237 64.1932C186.262 64.226 186.3 64.246 186.341 64.2621C186.792 64.438 187.282 64.1845 187.76 64.1196C188.258 64.0526 188.758 64.1951 189.257 64.2734C189.449 64.3029 189.67 64.3162 189.817 64.1877C189.978 64.0493 190.06 63.7802 189.923 63.5955Z" fill="#D14205"/>
<path d="M191.838 52.0321C191.817 51.9706 191.694 51.9738 191.648 51.9772C190.798 52.0369 189.974 51.662 189.33 51.1294C188.643 50.5586 188.155 49.793 187.78 48.9927C187.557 48.5216 187.37 48.0371 187.195 47.5485C187.159 47.4529 186.856 47.475 186.897 47.5914C187.528 49.3373 188.403 51.2029 190.257 51.9116C190.728 52.0917 191.226 52.164 191.73 52.1299C191.781 52.1258 191.858 52.0917 191.838 52.0321Z" fill="#504F53"/>
<path d="M192.222 50.9405C190.975 50.6133 190.07 49.5922 189.419 48.5302C189.363 48.4411 189.063 48.4773 189.121 48.573C189.803 49.6866 190.759 50.7351 192.066 51.0757C192.124 51.0911 192.232 51.0999 192.278 51.0469C192.321 50.9967 192.277 50.9539 192.222 50.9405Z" fill="#504F53"/>
<path d="M195.477 49.2756C195.156 48.1514 194.279 47.2433 193.186 46.8498C193.13 46.8291 193.017 46.827 192.974 46.8786C192.929 46.9322 192.977 46.9663 193.029 46.9864C194.069 47.3605 194.877 48.2599 195.179 49.3165C195.206 49.4121 195.509 49.3955 195.477 49.2756Z" fill="#504F53"/>
<path d="M180.607 49.3802C180.539 49.3574 180.455 49.368 180.395 49.409C178.994 50.3818 177.889 51.9512 178.084 53.7311C178.096 53.8442 178.404 53.8356 178.392 53.7311C178.202 51.9773 179.281 50.4488 180.662 49.4879C180.724 49.447 180.647 49.3922 180.607 49.3802Z" fill="#504F53"/>
<path d="M179.836 51.7249C179.684 52.1774 179.624 52.6551 179.662 53.1336C179.672 53.2434 179.98 53.2379 179.972 53.1336C179.934 52.6712 179.987 52.2048 180.134 51.7664C180.174 51.6501 179.869 51.628 179.836 51.7249Z" fill="#504F53"/>
<path d="M177.148 58.9868C177.208 58.8965 176.91 58.8569 176.85 58.9439C175.93 60.3024 174.993 61.9727 175.659 63.643C175.815 64.0337 176.064 64.3817 176.389 64.6487C176.444 64.6934 176.537 64.6982 176.602 64.6761C176.646 64.6628 176.715 64.6145 176.656 64.5697C175.908 63.958 175.658 62.9375 175.769 62.0088C175.901 60.8885 176.53 59.8981 177.148 58.9868Z" fill="#504F53"/>
<path d="M177.869 63.732C177.412 63.3078 177.194 62.6666 177.282 62.0518C177.295 61.9507 176.989 61.9385 176.972 62.0518C176.879 62.6995 177.124 63.3673 177.6 63.8109C177.654 63.8605 177.751 63.8605 177.813 63.8404C177.861 63.825 177.921 63.7822 177.869 63.732Z" fill="#504F53"/>
<path d="M199.449 59.2853C199.362 59.2318 199.081 59.3053 199.23 59.3965C200.299 60.0408 200.731 61.3905 200.268 62.5436C200.222 62.6546 200.527 62.6807 200.566 62.5844C201.061 61.3544 200.578 59.9652 199.449 59.2853Z" fill="#504F53"/>
<path d="M198.499 60.0935C198.446 60.0026 198.143 60.0353 198.201 60.1364C198.35 60.4 198.417 60.6984 198.396 61.0017C198.391 61.0652 198.507 61.0818 198.55 61.0806C198.598 61.0806 198.701 61.0685 198.706 61.0017C198.725 60.6864 198.651 60.3692 198.499 60.0935Z" fill="#504F53"/>
<path d="M181.515 91.471C180.181 89.549 179.261 87.377 178.562 85.1512C177.813 82.7749 177.317 80.3324 176.76 77.9066C176.443 76.5242 176.104 75.147 175.693 73.7885C175.663 73.6922 175.359 73.7109 175.394 73.8294C176.136 76.2792 176.635 78.7906 177.217 81.2814C177.759 83.5886 178.379 85.8933 179.326 88.0722C179.849 89.2767 180.47 90.4344 181.219 91.5117C181.279 91.6015 181.579 91.5619 181.515 91.471Z" fill="#F04F0A"/>
<path d="M206.708 87.5714C205.888 87.4383 205.065 87.3252 204.246 87.2034C203.439 87.0802 202.631 86.9858 201.824 86.8628C200.436 86.6533 199.064 86.3708 197.707 86.0183C197.678 86.2304 197.656 86.4425 197.644 86.6566C197.579 87.8525 198.129 89.0657 198.583 90.141C199.506 92.3206 200.45 94.5336 201.966 96.3497C202.425 96.9011 203.056 98.0047 203.899 97.8795C204.498 97.7918 204.801 97.1274 204.992 96.5498C205.937 93.6416 206.725 90.6536 207.263 87.6437C207.076 87.625 206.891 87.6008 206.708 87.5714Z" fill="#FFC9B3"/>
<path d="M207.974 76.8733C208.3 80.0271 208.262 83.2085 208.168 86.3764C208.152 86.8434 208.137 87.3145 208.01 87.7635C207.977 87.882 207.931 88.0052 207.834 88.0787C207.736 88.151 207.609 88.163 207.489 88.1643C206.855 88.1784 206.233 88.0358 205.62 87.894C204.265 87.5802 202.912 87.2703 201.557 86.9564C201.132 86.8574 200.686 86.751 200.359 86.4634C199.929 86.0846 199.792 85.4816 199.712 84.9147C199.328 82.3036 199.592 79.623 200.294 77.0787C200.657 75.7685 201.166 74.4388 202.144 73.4933C203.124 72.5477 204.681 72.0853 205.887 72.7157C207.441 73.524 207.806 75.2732 207.974 76.8733Z" fill="white"/>
<path d="M200.529 76.3854C199.741 78.7731 199.186 81.235 198.881 83.7291C198.792 84.4404 198.727 85.1544 198.68 85.8705C198.674 85.9787 198.982 85.9835 198.989 85.8705C199.153 83.3676 199.563 80.8823 200.215 78.4599C200.402 77.778 200.606 77.0994 200.827 76.4282C200.866 76.3098 200.561 76.2891 200.529 76.3854Z" fill="#F04F0A"/>
<path d="M196.599 66.6838C196.821 65.9577 197.143 65.257 197.268 64.5029C197.337 64.0866 197.361 63.5386 197.212 63.1444C197.017 62.6339 196.684 62.1989 196.408 61.7331C196.181 61.3544 195.799 61.1041 195.351 61.038C194.644 60.9348 193.93 61.329 193.482 61.8871C193.005 62.4819 192.691 63.3058 192.587 64.0592C192.429 65.2263 192.216 66.3914 191.864 67.5169C191.75 67.8796 191.62 68.2409 191.584 68.6217C191.55 68.9998 191.619 69.406 191.862 69.697C192.05 69.9199 192.321 70.055 192.595 70.1494C193.268 70.3744 194.013 70.3703 194.683 70.1393C194.93 70.0537 195.17 69.9353 195.369 69.764C196.299 68.9643 196.266 67.7686 196.599 66.6838Z" fill="white"/>
<path d="M198.608 64.1721C198.469 63.8831 198.302 63.6208 198.111 63.4053C198.036 63.321 197.962 63.2373 197.873 63.1705C197.755 63.0814 197.616 63.0199 197.476 62.9697C197.233 62.8827 196.976 62.8191 196.719 62.8518C196.093 62.9335 195.989 63.4802 196.052 64.013C195.713 63.9855 195.358 64.0786 195.107 64.3093C194.826 64.5683 194.711 64.943 194.771 65.3118C194.444 65.3052 194.118 65.4141 193.892 65.6611C193.626 65.9522 193.573 66.3791 193.724 66.7351C193.078 66.8228 192.624 67.3609 192.755 68.0199C192.821 68.3613 193.034 68.6591 193.31 68.8665C193.366 68.9094 193.433 68.9642 193.423 69.0344C193.416 69.0719 193.387 69.0993 193.361 69.1267C192.64 69.8723 192.405 71.0521 192.785 72.0183C192.957 72.4553 193.239 72.8407 193.522 73.2142C193.704 73.4504 193.928 73.5126 194.161 73.6731C194.723 74.0606 195.441 74.0586 196.085 73.9322C196.652 73.8191 197.263 73.5709 197.553 73.0362C197.707 72.7498 197.755 72.4212 197.779 72.1007C197.801 71.7339 197.81 71.3692 197.846 71.0045C197.925 70.2128 198.082 69.4265 198.317 68.6644C198.54 67.9377 198.862 67.237 198.987 66.4836C199.105 65.7763 198.949 64.8923 198.608 64.1721Z" fill="#FFC9B3"/>
<path d="M204.794 94.8061C204.529 92.3394 203.561 89.7491 202.927 87.9263C201.947 85.105 200.967 82.2837 199.986 79.4605C199.504 78.0726 199.023 76.6887 198.542 75.3008C198.207 74.3399 197.995 72.8529 197.31 72.0647C196.707 71.3661 195.79 71.5782 194.992 71.6471C194.547 71.6825 194.094 71.8405 193.819 72.2105C193.664 72.4161 193.577 72.6717 193.594 72.9231C193.565 72.9332 193.544 72.9519 193.546 72.9814C193.676 75.4226 193.807 77.8637 193.937 80.3063C194.144 84.2022 194.334 88.0327 195.119 91.8563C195.444 93.4463 195.828 95.0323 196.458 96.5266C197.485 98.9503 200.22 102.997 203.145 100.443C204.717 99.0688 205.031 96.9869 204.794 94.8061Z" fill="#FFC9B3"/>
<path d="M198.09 65.6939C197.673 64.9384 197.178 64.1261 196.27 63.9293C196.215 63.9173 196.107 63.912 196.077 63.9702C196.044 64.0284 196.137 64.0665 196.178 64.0745C196.981 64.2479 197.427 65.0529 197.79 65.714C197.841 65.807 198.143 65.7917 198.09 65.6939Z" fill="#D14205"/>
<path d="M196.643 66.7726C196.53 66.3892 196.287 66.1014 195.999 65.8357C195.713 65.5755 195.408 65.3326 195.023 65.2382C194.971 65.2262 194.86 65.2242 194.831 65.281C194.796 65.3407 194.891 65.3734 194.93 65.3835C195.261 65.4643 195.524 65.7127 195.768 65.9354C196.032 66.1784 196.241 66.4441 196.345 66.7954C196.372 66.8912 196.679 66.8912 196.643 66.7726Z" fill="#D14205"/>
<path d="M195.325 67.695C195.311 67.6863 195.296 67.6796 195.28 67.6743C195.272 67.6522 195.265 67.6262 195.26 67.6126C195.246 67.5799 195.232 67.5511 195.217 67.5203C195.184 67.4535 195.145 67.3899 195.102 67.3296C195.009 67.2011 194.903 67.0901 194.778 66.9958C194.521 66.7989 194.211 66.6858 193.889 66.6651C193.843 66.6619 193.735 66.6685 193.728 66.7342C193.723 66.797 193.836 66.821 193.877 66.8231C194.167 66.8417 194.439 66.9771 194.648 67.1777C194.758 67.2835 194.85 67.4054 194.917 67.5405C194.95 67.606 194.967 67.6863 195.011 67.7425C195.08 67.8322 195.218 67.8489 195.316 67.8048C195.374 67.7807 195.378 67.7259 195.325 67.695Z" fill="#D14205"/>
<path d="M194.156 68.3922C194.093 68.3682 194.002 68.3648 193.944 68.4056C193.894 68.4398 193.846 68.4792 193.798 68.5188C193.797 68.5188 193.796 68.5188 193.796 68.5188C193.786 68.5119 193.776 68.5066 193.764 68.4979C193.761 68.4967 193.755 68.4933 193.752 68.49C193.716 68.4606 193.685 68.4277 193.658 68.3922C193.618 68.3321 193.589 68.2671 193.576 68.1969V68.2002C193.572 68.1727 193.56 68.1573 193.536 68.1433C193.505 68.1246 193.462 68.1145 193.43 68.1125C193.392 68.1113 193.353 68.1112 193.319 68.1279C193.3 68.1366 193.265 68.1541 193.269 68.1794C193.288 68.2911 193.331 68.3848 193.401 68.4705C193.466 68.5515 193.555 68.613 193.651 68.6505C193.555 68.747 193.464 68.8493 193.384 68.9556C193.368 68.9764 193.38 69.0039 193.396 69.0173C193.418 69.0413 193.456 69.0547 193.485 69.062C193.545 69.0742 193.637 69.0756 193.678 69.0192C193.716 68.969 193.755 68.9195 193.796 68.8714C193.817 68.8493 193.839 68.8253 193.86 68.8018C193.86 68.7997 193.869 68.7931 193.869 68.7931C193.874 68.7898 193.877 68.7843 193.88 68.7811C193.892 68.7689 193.904 68.7569 193.916 68.7449C194.006 68.6572 194.103 68.5769 194.206 68.5053C194.262 68.4624 194.203 68.4076 194.156 68.3922Z" fill="#D14205"/>
<path d="M204.985 94.8795C204.62 92.5843 204.027 90.3299 203.213 88.151C203.179 88.0547 202.872 88.0621 202.915 88.1731C203.72 90.3366 204.313 92.5776 204.676 94.8576C204.695 94.9739 205 94.9774 204.985 94.8795Z" fill="#D14205"/>
<path d="M202.782 100.732C202.711 100.708 202.631 100.718 202.569 100.759C201.411 101.533 199.971 101.046 199.011 100.19C198.938 100.126 198.641 100.177 198.746 100.271C199.851 101.256 201.524 101.715 202.837 100.84C202.898 100.799 202.819 100.744 202.782 100.732Z" fill="#D14205"/>
<path d="M152.519 107.389C152.214 106.065 151.774 104.771 151.034 103.625C150.145 102.245 148.875 101.233 147.502 100.367C143.985 99.2205 140.212 99.0338 136.558 98.3867C136.491 98.3747 136.425 98.3626 136.358 98.3485C128.765 96.9714 121.353 93.6101 113.682 94.3865C111.962 94.5597 110.236 94.9518 108.729 95.7943C107.276 96.608 105.902 98.0354 105.106 99.5104C104.314 100.981 104.59 103.135 104.746 104.73C105.041 107.718 106.089 110.719 108.179 112.874C110.922 115.704 115.03 116.708 118.948 117.142C128.349 118.181 138.038 116.616 146.595 112.587C148.627 111.629 150.657 110.484 152.019 108.698C152.249 108.396 152.442 108.081 152.596 107.759C152.571 107.635 152.547 107.512 152.519 107.389Z" fill="#333337"/>
<path d="M152.519 107.389C152.214 106.065 151.774 104.772 151.034 103.625C150.594 102.939 150.054 102.346 149.46 101.814C147.188 101.756 144.92 101.914 142.653 102.051C140.438 102.183 138.184 102.388 136.106 103.218C135.088 103.624 134.132 104.197 133.308 104.915C132.467 105.652 131.77 106.532 131.153 107.463C129.872 109.397 128.902 111.559 128.333 113.811C128.047 114.958 127.861 116.158 127.862 117.352C134.333 116.951 140.73 115.347 146.595 112.587C148.627 111.629 150.657 110.484 152.019 108.698C152.248 108.396 152.442 108.081 152.596 107.759C152.57 107.636 152.546 107.513 152.519 107.389Z" fill="#FFC9B3"/>
<path d="M133.086 162.118C131.614 159.627 130.668 156.946 130.625 154.006C130.559 149.312 132.371 145.088 133.772 140.743C134.874 137.331 135.751 133.849 136.777 130.415C137.779 127.059 139.133 123.857 140.251 120.53C141.63 116.419 142.965 112.187 142.869 107.838C142.84 106.507 142.456 104.893 141.209 104.533C140.308 104.271 139.83 103.841 138.812 103.824C136.479 103.781 134.146 104.756 132.498 106.459C130.536 108.485 130.233 111.49 129.156 114.008C127.845 117.072 126.927 120.301 126.283 123.578C124.828 130.965 125.471 138.508 124.275 145.867C123.878 148.321 124.008 151.75 122.226 153.6C121.99 153.845 121.782 154.106 121.651 154.41C121.299 155.226 121.842 155.997 122.459 156.59C122.872 156.988 123.398 157.314 123.927 157.55C123.934 157.552 123.937 157.556 123.944 157.557C124.239 157.689 124.527 157.806 124.811 157.921C125.731 158.292 126.588 158.633 127.365 159.337C128.349 160.227 128.983 161.377 129.663 162.496C130.288 163.522 132.393 163.748 133.457 163.696C133.644 163.115 133.384 162.621 133.086 162.118Z" fill="#FFC9B3"/>
<path d="M135.597 164.759C135.734 164.747 135.864 164.711 135.911 164.632C136.003 164.483 135.858 164.302 135.722 164.183C134.849 163.415 133.989 162.416 132.805 162.179C132.173 162.056 131.529 162.066 130.89 162.092C130.393 162.112 129.978 162.292 129.55 161.92C129.314 161.715 129.158 161.437 128.99 161.174C128.609 160.574 128.145 160.02 127.633 159.517C127.374 159.26 127.109 159.086 126.984 158.757C126.862 158.439 126.83 158.064 126.746 157.732C126.389 156.336 125.896 154.948 125.053 153.744C124.68 153.208 124.155 152.672 123.489 152.641C122.874 152.61 122.334 153.032 121.968 153.507C121.171 154.544 120.841 155.955 121.514 157.12C122.184 158.277 121.968 159.685 121.832 160.992C121.786 161.419 122.086 161.467 122.423 161.549C122.478 161.561 123.148 161.727 123.148 161.729C123.249 161.285 123.343 160.845 123.444 160.401C123.528 160.019 123.612 159.642 123.698 159.258C123.777 158.906 123.691 158.455 124.185 158.368C124.207 158.364 124.229 158.362 124.253 158.359C124.507 158.33 124.764 158.404 125.014 158.518C125.05 158.532 125.086 158.551 125.12 158.572C125.415 158.719 125.694 158.919 125.939 159.07C127.439 159.997 128.277 161.289 128.969 162.782C129.06 162.976 129.159 163.127 129.266 163.252C129.266 163.252 130.364 163.524 130.365 163.524L130.663 163.598L135.241 164.739L135.258 164.744C135.335 164.761 135.47 164.771 135.597 164.759Z" fill="#333337"/>
<path d="M154.801 162.666C152.855 160.548 151.387 158.131 150.746 155.266C150.037 152.085 150.368 148.985 150.781 145.795C151.939 136.844 153.196 127.685 153.518 118.579C153.509 118.551 153.503 118.526 153.499 118.498C153.273 116.534 153.242 114.553 153.141 112.579C153.054 110.838 152.908 109.094 152.519 107.389C152.214 106.065 151.774 104.771 151.034 103.625C150.875 103.375 150.7 103.137 150.517 102.911C149.554 102.594 148.442 102.685 147.495 103.082C146.167 103.643 145.117 104.711 144.231 105.849C143.114 107.281 142.371 108.552 142.069 110.315C141.722 112.353 141.591 114.45 141.184 116.475C140.526 119.754 140.284 123.11 140.319 126.454C140.396 133.992 142.558 141.228 142.885 148.682C142.994 151.167 143.818 154.492 142.453 156.685C142.271 156.975 142.119 157.276 142.054 157.602C141.876 158.475 142.563 159.111 143.286 159.558C143.772 159.86 144.351 160.065 144.918 160.182C144.923 160.182 144.929 160.184 144.935 160.185C145.251 160.248 145.556 160.301 145.857 160.351C146.832 160.515 147.74 160.665 148.643 161.184C149.785 161.842 150.638 162.832 151.531 163.777C152.35 164.646 154.453 164.411 155.485 164.13C155.548 163.52 155.193 163.094 154.801 162.666Z" fill="#FFC9B3"/>
<path d="M157.795 164.709C157.925 164.669 158.045 164.605 158.076 164.517C158.134 164.353 157.953 164.208 157.795 164.118C156.781 163.55 155.733 162.755 154.525 162.772C153.881 162.782 153.25 162.928 152.632 163.087C152.151 163.212 151.784 163.473 151.289 163.2C151.013 163.048 150.802 162.81 150.583 162.587C150.084 162.08 149.516 161.638 148.909 161.25C148.603 161.056 148.305 160.939 148.114 160.646C147.929 160.358 147.818 160 147.667 159.693C147.027 158.402 146.252 157.148 145.177 156.147C144.697 155.702 144.075 155.287 143.417 155.395C142.807 155.496 142.367 156.021 142.108 156.562C141.546 157.744 141.521 159.193 142.424 160.19C143.321 161.18 143.403 162.602 143.544 163.91C143.592 164.336 143.893 164.321 144.241 164.329C144.296 164.331 144.986 164.351 144.986 164.353C144.991 163.899 144.993 163.447 144.998 162.995C145 162.604 145.003 162.217 145.009 161.823C145.01 161.461 144.83 161.038 145.296 160.852C145.317 160.841 145.338 160.834 145.36 160.827C145.603 160.745 145.87 160.764 146.138 160.822C146.177 160.831 146.215 160.841 146.252 160.855C146.573 160.935 146.888 161.074 147.159 161.169C148.819 161.761 149.91 162.849 150.898 164.163C151.03 164.334 151.157 164.461 151.289 164.56C151.289 164.56 152.418 164.596 152.419 164.596L152.726 164.606L157.442 164.764H157.459C157.538 164.764 157.67 164.745 157.795 164.709Z" fill="#333337"/>
<path d="M143.282 105.419C143.075 104.341 142.643 103.313 141.872 102.517C141.79 102.431 141.433 102.49 141.552 102.613C142.953 104.059 143.158 106.226 143.062 108.14C142.941 110.582 142.413 112.982 141.75 115.331C141.375 116.656 140.955 117.967 140.537 119.278C140.489 119.42 140.856 119.446 140.894 119.33C141.648 116.974 142.401 114.61 142.898 112.182C143.146 110.975 143.328 109.753 143.41 108.522C143.479 107.486 143.477 106.44 143.282 105.419Z" fill="#D14205"/>
<path d="M141.454 66.8637C141.286 65.9544 141.021 65.0442 140.485 64.2929C140.024 63.6417 139.383 63.1411 138.751 62.6546C137.87 61.9747 136.94 61.3839 136 60.8084C134.113 59.6567 132.575 58.0601 130.722 56.8114C128.745 55.4803 126.571 54.3601 124.191 53.9988C123.449 53.8837 122.692 53.8462 121.947 53.9473C119.574 54.2712 117.695 55.9703 115.715 57.1439C113.493 58.4609 111.144 59.4686 108.85 60.647C106.192 62.0122 105.64 64.6355 105.046 67.3523C104.163 71.3781 103.593 75.4126 103.226 79.5153C102.995 82.0896 102.94 84.6051 103.053 87.1674C103.106 88.3974 102.938 89.5918 103.101 90.8319C103.267 92.1112 103.598 93.3707 104.086 94.5665C104.353 95.221 104.691 95.8032 104.7 96.5266C104.706 97.3403 104.449 98.1828 104.329 98.9878C104.064 100.758 103.901 102.542 103.838 104.331C103.797 105.498 105.239 105.902 106.178 105.962C107.384 106.039 108.581 106.234 109.786 106.329C112.109 106.509 114.461 106.537 116.758 106.104C118.427 105.789 120.045 105.138 121.418 104.13C122.766 103.144 123.696 101.111 124.356 99.6134C124.643 98.959 124.89 98.2685 125.293 97.6721C125.736 97.0131 126.223 97.0539 127.02 96.9595C128.721 96.7628 130.434 96.6892 132.133 96.4697C133.036 96.3512 134.358 96.3125 135.165 95.8635C135.936 95.4364 136.157 94.268 136.299 93.4343C136.676 91.2501 136.452 89.009 136.55 86.7939C136.651 84.569 137.082 82.3553 137.822 80.2501C138.501 78.3208 139.779 76.8941 140.568 75.0184C141.646 72.4621 141.958 69.5894 141.454 66.8637Z" fill="#575DA9"/>
<path d="M135.334 85.9943C135.308 83.9386 135.229 81.8895 135.047 79.8439C134.866 77.7882 134.65 75.7357 134.407 73.6874C134.163 71.6196 133.891 69.5552 133.595 67.4942C133.386 66.0488 133.208 64.5927 132.877 63.1686C132.56 61.8001 132.103 60.431 131.263 59.2887C130.867 58.7453 130.372 58.2708 129.805 57.9116C129.377 57.6406 128.925 57.3976 128.478 57.1594C127.357 56.5598 126.198 56.0044 124.981 55.6208C124.438 55.4495 123.873 55.3024 123.301 55.2837C123.069 55.2749 122.869 55.2837 122.657 55.3378C122.48 55.3848 122.328 55.4596 122.213 55.5627C122.059 55.7032 121.865 55.6496 121.759 55.5266C121.654 55.7046 121.649 55.7274 121.588 55.9187C121.528 56.0988 121.483 56.2874 121.451 56.4755C121.413 56.6829 121.397 56.8335 121.379 57.0783C121.36 57.324 121.351 57.5702 121.349 57.8151C121.346 58.3705 121.377 58.922 121.423 59.4734C121.642 62.0725 122.191 64.6454 122.766 67.1843C123.015 68.2637 123.275 69.3411 123.539 70.4172C123.693 71.0542 123.866 71.6899 123.986 72.3337C124.894 77.2194 125.372 82.1773 125.608 87.1386C125.73 89.6823 125.773 92.2264 125.814 94.7739C125.834 96.0468 125.898 97.3208 125.906 98.5957C126.108 98.5549 126.309 98.5167 126.511 98.4826C128.404 98.1573 130.312 97.9204 132.185 97.4889C133.286 97.234 134.432 96.8759 135.198 96.0415C135.296 95.937 135.383 95.8253 135.465 95.7088C135.311 92.4767 135.376 89.2305 135.334 85.9943Z" fill="white"/>
<path d="M121.757 62.1613C122.679 62.7729 123.678 63.2682 124.717 63.6349C125.917 64.0558 127.174 64.3282 128.443 64.3234C129.78 64.3181 131.14 63.9942 132.313 63.3464C132.493 63.2454 132.671 63.1376 132.843 63.0232C132.527 61.7036 132.072 60.39 131.263 59.2886C130.867 58.7452 130.372 58.2707 129.805 57.9115C129.377 57.6404 128.925 57.3975 128.478 57.1592C127.357 56.5596 126.198 56.0043 124.981 55.6207C124.438 55.4494 123.873 55.3022 123.301 55.2836C123.069 55.2748 122.869 55.2836 122.657 55.3377C122.48 55.3846 122.328 55.4595 122.213 55.5626C122.059 55.7031 121.865 55.6495 121.759 55.5265C121.654 55.7045 121.649 55.7272 121.588 55.9186C121.528 56.0986 121.483 56.2873 121.451 56.4754C121.413 56.6828 121.397 56.8334 121.379 57.0782C121.36 57.3239 121.351 57.57 121.349 57.815C121.346 58.3704 121.377 58.9218 121.423 59.4733C121.498 60.3727 121.615 61.2707 121.757 62.1613Z" fill="#FFC9B3"/>
<path d="M178.647 65.8447C178.771 65.5931 178.497 65.4526 178.283 65.4132C176.534 65.0826 174.514 65.2585 172.801 65.7176C172.436 65.8153 172.074 65.9371 171.75 66.1325C171.12 66.5127 170.692 67.147 170.284 67.7565C169.835 68.4298 169.386 69.0996 168.941 69.7708C168.509 70.4173 168.119 71.1961 167.6 71.7738C166.784 72.6872 165.691 73.5691 164.586 74.1104C164.389 74.2062 164.189 74.2919 163.985 74.3708C163.929 74.3916 163.917 74.4344 163.942 74.4738C163.881 74.4872 163.838 74.518 163.851 74.5728C164.054 75.4588 164.362 76.3188 164.77 77.1305C164.973 77.5346 165.203 77.9288 165.455 78.3043C165.561 78.4648 165.669 78.6877 165.837 78.7888C166.005 78.8917 166.203 78.8576 166.353 78.7446C167.389 77.9629 168.167 76.9559 169.285 76.2739C170.337 75.6336 171.494 75.1196 172.379 74.2424C173.029 73.6018 173.419 72.8203 173.906 72.0667C174.209 71.5937 174.608 71.2115 175.023 70.8401C175.394 70.5076 175.853 70.2166 176.081 69.7575C176.265 69.3874 176.244 68.8822 175.924 68.6232C175.696 68.4399 175.369 68.4211 175.086 68.5035C174.805 68.5836 174.56 68.7537 174.318 68.9196C173.455 69.5138 172.593 70.1088 171.732 70.705C172.297 69.9288 172.652 69.0547 173.344 68.3596C173.65 68.051 174 67.7773 174.385 67.5786C175.338 67.0847 176.443 67.3658 177.378 66.8846C177.471 66.8385 177.563 66.7837 177.616 66.6946C177.669 66.6057 177.671 66.4784 177.592 66.4116C177.808 66.3211 178.026 66.2322 178.243 66.1445C178.384 66.0844 178.533 66.0195 178.618 65.8929C178.629 65.8756 178.639 65.8622 178.647 65.8447Z" fill="#FFC9B3"/>
<path d="M147.204 74.2628C146.386 73.2483 145.624 72.1882 144.923 71.0883C143.664 69.1127 142.642 67.0644 141.242 65.1813C140.486 64.1689 139.248 63.1551 137.961 62.9409C136.591 62.7114 135.469 64.2117 134.957 65.2877C134.097 67.0931 133.797 69.1596 134.109 71.1364C134.688 74.8242 137.249 77.8569 139.779 80.6027C141.879 82.8799 144.034 85.1115 146.357 87.1626C147.291 87.9877 148.559 89.4512 149.76 89.797C150.995 90.1532 152.459 89.314 153.211 88.3892C155.101 86.057 154.986 83.2377 153.288 80.8461C152.286 79.4341 150.96 78.2932 149.734 77.074C148.84 76.1834 147.995 75.2444 147.204 74.2628Z" fill="#575DA9"/>
<path d="M156.599 77.5486C156.051 77.7882 155.501 78.021 154.946 78.246C154.129 78.5732 153.295 78.885 152.562 79.3715C150.934 80.4555 149.447 81.5283 148.753 83.4601C148.217 84.9612 148.19 86.6107 148.478 88.1785C148.56 88.6269 148.678 89.0933 148.998 89.4187C149.595 90.0268 150.592 89.8951 151.416 89.6842C153.465 89.1603 155.46 88.4201 157.357 87.4813C159.236 86.5492 160.838 85.2985 162.522 84.0597C164.577 82.5441 166.679 81.0913 168.826 79.7054C168.929 79.6404 169.037 79.5649 169.071 79.4465C169.107 79.3167 169.035 79.1829 168.965 79.0664C167.805 77.1136 166.643 75.1624 165.482 73.211C164.475 73.7162 163.467 74.2216 162.46 74.7274C160.524 75.7017 158.583 76.6768 156.599 77.5486Z" fill="#575DA9"/>
<path d="M177.448 66.1118C177.058 65.9237 176.617 65.8688 176.189 65.8481C175.757 65.826 175.327 65.8461 174.901 65.9082C174.06 66.028 173.248 66.3178 172.516 66.7494C172.441 66.7936 172.523 66.8638 172.571 66.8845C172.65 66.9188 172.753 66.9167 172.826 66.8725C173.486 66.485 174.214 66.2248 174.968 66.1037C175.339 66.0434 175.716 66.0181 176.091 66.0314C176.485 66.0468 176.888 66.083 177.246 66.2575C177.373 66.3179 177.666 66.2161 177.448 66.1118Z" fill="#D14205"/>
<path d="M171.619 70.7248C171.54 70.6961 171.441 70.6907 171.365 70.737C171.086 70.9083 170.824 71.0675 170.507 71.1605C170.481 71.1685 170.449 71.1947 170.447 71.2222C170.444 71.2528 170.471 71.2816 170.495 71.2938C170.574 71.344 170.668 71.3453 170.755 71.3198C171.086 71.2201 171.382 71.04 171.674 70.8621C171.746 70.816 171.668 70.7457 171.619 70.7248Z" fill="#D14205"/>
<path d="M124.765 32.1803C123.929 31.9833 122.999 32.0638 122.194 32.2334C121.567 32.367 120.948 32.6103 120.476 33.0488C119.196 34.2377 118.776 36.2594 119.482 37.8573C120.188 39.454 121.966 40.508 123.705 40.36C123.972 40.3367 124.243 40.2865 124.474 40.1532C124.926 39.891 125.147 39.3858 125.55 39.0653C126.038 38.6764 126.631 38.3077 127.169 37.9725C127.29 37.8969 127.424 37.8131 127.47 37.6759C127.499 37.585 127.486 37.4859 127.472 37.3915C127.388 36.8281 127.304 36.264 127.219 35.7007C127.063 34.6626 126.86 33.5319 126.074 32.8347C125.697 32.5006 125.248 32.2951 124.765 32.1803Z" fill="#9E2F00"/>
<path d="M122.202 54.4231C121.94 54.9216 121.697 55.4236 121.479 55.9262C120.722 57.6547 122.375 59.4139 123.867 60.1178C125.629 60.9469 127.619 61.293 129.557 61.0996C129.959 61.06 130.369 60.9953 130.72 60.7945C131.907 60.1145 131.015 58.5573 131.544 57.488C131.792 56.9847 132.118 56.5117 132.421 56.0747C132.954 55.3091 134.048 53.9868 133.086 53.1063C132.556 52.623 132.191 52.5661 131.849 51.9819C131.832 51.9545 131.818 51.9271 131.801 51.8983C131.64 51.5965 131.503 51.2967 131.362 51.001C131.273 50.809 131.184 50.6222 131.087 50.4388C130.9 50.0775 130.68 49.7328 130.384 49.4077C128.935 47.8263 127.36 47.7561 125.896 49.2684C124.462 50.7473 123.191 52.5527 122.202 54.4231Z" fill="#FFC9B3"/>
<path d="M129.462 55.1049C129.507 55.244 129.56 55.3826 129.618 55.5177C129.928 56.2424 130.406 56.9036 131.088 57.2891C131.234 57.3713 131.386 57.4383 131.544 57.4878C131.792 56.9845 132.118 56.5115 132.421 56.0745C132.954 55.3089 134.048 53.9866 133.086 53.106C132.556 52.6228 132.191 52.5659 131.849 51.9817C131.832 51.9543 131.818 51.9269 131.801 51.8981C131.64 51.5963 131.503 51.2965 131.362 51.0008C130.292 50.9043 129.283 51.235 129.163 52.4173C129.068 53.3202 129.173 54.2435 129.462 55.1049Z" fill="#D14205"/>
<path d="M139.587 40.6105C139.854 41.2736 139.906 42.0226 139.837 42.7278C139.741 43.7435 139.414 44.7253 139.195 45.7258C139.01 46.569 138.898 47.408 139.078 48.26C139.255 49.0937 139.745 49.8204 140.145 50.5605C140.329 50.8999 140.459 51.2471 140.096 51.458C139.751 51.6567 139.304 51.7235 138.945 51.907C137.783 52.5045 137.648 53.8154 137.161 54.8928C136.678 55.9581 135.897 56.7083 134.684 56.7926C132.671 56.9298 130.706 55.6088 129.372 54.245C128.788 53.6508 128.284 52.9743 127.883 52.2409C127.522 51.5865 127.095 50.7399 127.035 49.983C126.96 49.0509 126.112 48.8167 125.283 48.7993C125.027 48.7939 124.219 48.8181 124.046 48.6093C122.564 46.8151 122.566 44.1598 123.39 41.9864C124.01 40.3502 125.056 38.8646 126.456 37.8147C129.123 35.8174 132.656 35.8448 135.565 37.3007C136.257 37.6468 136.908 38.067 137.547 38.5033C138.206 38.9523 138.987 39.5091 139.393 40.2098C139.469 40.3382 139.532 40.4734 139.587 40.6105Z" fill="#FFC9B3"/>
<path d="M138.508 45.1196C138.503 45.1228 138.496 45.1262 138.491 45.1295C137.9 45.4949 137.213 45.4928 136.541 45.4949C136.378 45.4949 135.273 45.5424 135.315 45.2273C135.351 44.9428 135.983 44.7822 136.211 44.7427C136.68 44.6639 137.149 44.5882 137.619 44.5179C137.888 44.479 138.193 44.4014 138.462 44.4597C138.847 44.544 138.802 44.9261 138.508 45.1196Z" fill="#9E2F00"/>
<path d="M137.159 46.7831C137.163 46.4865 136.949 46.2141 136.637 46.2349C136.205 46.2551 136.054 46.9403 136.077 47.283C135.971 47.6703 136.373 47.9394 136.709 47.7815C137.039 47.612 137.182 47.139 137.159 46.7831Z" fill="#333337"/>
<path d="M134.329 51.5797C134.358 51.5128 134.411 51.4632 134.495 51.4446C134.775 51.3808 135.127 51.6191 135.354 51.7564C135.729 51.9839 136.126 52.1726 136.541 52.3198C136.638 52.3553 136.74 52.388 136.815 52.457C137.002 52.6297 136.878 52.8579 136.787 53.0391C136.697 53.2192 136.515 53.4347 136.334 53.5257C136.14 53.6247 135.91 53.6012 135.696 53.5719C135.187 53.5015 134.737 52.9931 134.526 52.554C134.439 52.3746 134.213 51.8367 134.329 51.5797Z" fill="white"/>
<path d="M124.544 51.8589C124.193 51.9478 123.83 51.9959 123.468 51.9786C122.723 51.9445 122.675 49.4691 122.569 48.8541C122.372 47.6805 121.947 46.3549 121.947 45.1677C121.81 44.3586 121.673 43.5449 121.647 42.7265C121.603 41.3286 121.89 39.9119 122.557 38.6832C123.484 36.9768 125.169 35.79 127.014 35.2521C128.578 34.7964 130.247 34.9197 131.873 35.0448C133.661 35.1853 135.357 35.8739 137.06 36.3947C138.352 36.7903 139.868 37.2941 140.532 38.5655C141.259 39.9561 141.658 43.1635 139.457 43.5142C139.392 43.5248 139.318 43.5262 139.266 43.4854C139.212 43.4392 139.208 43.3581 139.206 43.2879C139.206 43.1152 139.206 42.9439 139.206 42.7726C139.205 42.697 139.196 42.6068 139.128 42.5739C139.059 42.5398 138.979 42.5927 138.919 42.6409C138.53 42.9473 138.048 43.1681 137.558 43.2471C137.101 43.3194 136.666 43.1735 136.198 43.2096C135.88 43.2351 134.739 43.6017 134.639 43.1306C134.608 42.9715 134.67 42.8122 134.715 42.6563C134.864 42.149 134.847 41.6096 134.828 41.0836C134.824 40.931 134.758 40.727 134.61 40.7498C134.4 41.3526 134.117 41.9296 133.766 42.4587C133.214 43.2966 132.589 44.0214 132.196 44.9515C131.825 45.8375 131.285 46.7843 130.512 47.388C128.666 48.8322 127.314 50.8824 125.027 51.7095C124.868 51.7677 124.707 51.8179 124.544 51.8589Z" fill="#9E2F00"/>
<path d="M130.55 46.0242C130.042 45.5068 129.238 45.3832 128.637 45.7652C128.096 46.1078 127.77 46.7864 127.619 47.4737C127.414 48.4225 127.505 49.4792 127.986 50.2809C128.156 50.5619 128.377 50.8142 128.654 50.9386C129.149 51.1615 129.735 50.9266 130.126 50.5103C130.924 49.6592 131.392 48.1548 131.063 46.9489C130.968 46.5943 130.794 46.2692 130.55 46.0242Z" fill="#FFC9B3"/>
<path d="M126.464 35.4403C124.871 36.0639 123.494 37.1741 122.551 38.6029C122.539 38.6215 122.529 38.6402 122.517 38.659C122.514 38.637 122.5 38.6181 122.471 38.6008C121.659 38.1778 121.073 37.4157 120.777 36.5591C120.417 35.5174 120.508 34.3593 120.85 33.3263C120.898 33.1859 120.532 33.1602 120.492 33.2767C120.136 34.3491 120.047 35.5277 120.419 36.6086C120.73 37.508 121.361 38.2923 122.207 38.736C122.281 38.7742 122.396 38.7774 122.469 38.738C122.238 39.1014 122.038 39.4834 121.868 39.8822C121.811 40.0141 122.176 40.0468 122.224 39.9317C122.87 38.4127 123.989 37.1039 125.394 36.2352C125.791 35.9885 126.212 35.7744 126.651 35.603C126.877 35.5157 126.596 35.3889 126.464 35.4403Z" fill="#F04F0A"/>
<path d="M122.685 37.2854C122.25 36.9603 121.957 36.4684 121.882 35.9322C121.87 35.8552 121.76 35.838 121.695 35.838C121.651 35.838 121.5 35.8569 121.51 35.9322C121.591 36.5058 121.901 37.0338 122.365 37.3819C122.434 37.4328 122.536 37.4401 122.619 37.4139C122.668 37.3985 122.756 37.337 122.685 37.2854Z" fill="#F04F0A"/>
<path d="M124.618 32.9325C124.546 32.8897 124.426 32.8931 124.354 32.9325C124.284 32.9685 124.289 33.0285 124.354 33.0662C124.909 33.3917 125.5 33.8319 125.605 34.5155C125.617 34.5943 125.726 34.6097 125.79 34.6097C125.834 34.6097 125.987 34.5926 125.976 34.5155C125.862 33.7668 125.226 33.2923 124.618 32.9325Z" fill="#F04F0A"/>
<path d="M138.777 37.7245C138.703 37.6743 138.607 37.6642 138.523 37.6897C138.475 37.705 138.383 37.7687 138.456 37.8182C139.793 38.7296 140.094 40.4259 139.969 41.935C139.96 42.06 140.329 42.0701 140.341 41.935C140.468 40.3911 140.14 38.6527 138.777 37.7245Z" fill="#F04F0A"/>
<path d="M138.232 39.2435C138.199 39.1063 137.832 39.1305 137.862 39.2435C138.021 39.9014 137.951 40.5986 137.654 41.209C137.593 41.3354 137.957 41.3748 138.012 41.2585C138.314 40.6347 138.396 39.9187 138.232 39.2435Z" fill="#F04F0A"/>
<path d="M136.113 39.5002C136.125 40.0415 135.971 40.5709 135.667 41.0199C135.619 41.0869 135.755 41.1297 135.796 41.135C135.87 41.1463 135.977 41.1383 136.024 41.0694C136.336 40.6091 136.497 40.0556 136.483 39.5002C136.479 39.3683 136.109 39.3703 136.113 39.5002Z" fill="#F04F0A"/>
<path d="M123.672 39.1873C122.728 40.7786 122.305 42.6662 122.464 44.5078C122.509 45.0252 122.603 45.5345 122.737 46.0344C122.766 46.1493 123.132 46.13 123.095 45.9847C122.622 44.2255 122.726 42.3169 123.367 40.6126C123.549 40.1362 123.768 39.675 124.03 39.2388C124.098 39.1223 123.737 39.0775 123.672 39.1873Z" fill="#F04F0A"/>
<path d="M124.383 41.9602C124.393 41.8358 124.023 41.8271 124.011 41.9602C123.96 42.6046 123.982 43.2505 124.082 43.8874C124.104 44.0246 124.472 44.0092 124.453 43.8874C124.354 43.2505 124.33 42.6046 124.383 41.9602Z" fill="#F04F0A"/>
<path d="M133.329 40.8622C132.807 42.0687 131.966 43.112 130.9 43.8809C130.828 43.9304 130.917 43.9927 130.965 44.0093C131.046 44.0356 131.149 44.0248 131.219 43.9753C132.3 43.1977 133.158 42.1316 133.687 40.9124C133.744 40.7807 133.379 40.7457 133.329 40.8622Z" fill="#F04F0A"/>
<path d="M125.167 89.1683C123.963 86.4566 122.814 83.7191 121.722 80.9595C120.631 78.1997 119.598 75.4172 118.622 72.6148C118.488 72.2346 118.286 71.8197 118.267 71.4135C118.248 71.0214 118.485 70.717 118.733 70.4372C119.31 69.7935 119.893 69.151 120.472 68.5086C120.513 68.4624 120.492 68.423 120.443 68.3935C119.536 67.8816 118.627 67.3691 117.721 66.8584C117.508 66.7373 117.296 66.6175 117.083 66.499C116.885 66.384 116.628 66.2782 116.511 66.0688C116.403 65.8734 116.441 65.6406 116.465 65.4317C116.491 65.1782 116.523 64.9265 116.556 64.6742C116.811 62.7129 117.208 60.7688 117.748 58.8651C118.053 57.7877 118.404 56.7223 118.795 55.6724C118.846 55.5351 118.481 55.5077 118.437 55.6222C117.724 57.5307 117.152 59.4941 116.729 61.4882C116.518 62.4801 116.343 63.4803 116.208 64.4861C116.175 64.7364 116.143 64.9894 116.115 65.2418C116.09 65.4626 116.042 65.7007 116.085 65.9215C116.17 66.3532 116.653 66.5365 116.994 66.7286C118.029 67.3127 119.06 67.895 120.093 68.4792C119.59 69.0359 119.088 69.5947 118.584 70.1515C118.372 70.3896 118.13 70.6272 117.995 70.9203C117.851 71.2321 117.892 71.5508 117.99 71.8692C118.21 72.5805 118.479 73.2825 118.728 73.9832C118.981 74.6979 119.24 75.4106 119.5 76.1212C120.54 78.9478 121.637 81.7525 122.793 84.5328C123.447 86.102 124.121 87.6645 124.809 89.2185C124.859 89.3329 125.226 89.2987 125.167 89.1683Z" fill="#504F53"/>
<path d="M138.655 70.4956C138.65 70.1703 138.699 69.7749 138.556 69.471C138.412 69.1712 138.031 68.9985 137.764 68.824C137.123 68.3989 136.483 67.9741 135.844 67.5491L136.942 66.17C137.132 65.9317 137.326 65.6909 137.516 65.4505C137.658 65.2739 137.865 65.0791 137.816 64.8288C137.764 64.5806 137.538 64.3404 137.398 64.135C137.225 63.8813 137.051 63.6297 136.88 63.3761C136.541 62.8809 136.202 62.3844 135.864 61.8873C135.479 61.3238 135.095 60.7602 134.71 60.1968C134.638 60.0904 134.278 60.1399 134.352 60.2463C135.013 61.2161 135.672 62.1822 136.332 63.15C136.664 63.6365 137.002 64.1196 137.327 64.6094C137.398 64.7158 137.469 64.8288 137.447 64.9587C137.425 65.0825 137.329 65.185 137.255 65.2812C137.075 65.5055 136.897 65.7282 136.717 65.9524C136.298 66.4818 135.876 67.0098 135.455 67.5371C135.438 67.5592 135.455 67.5974 135.472 67.6107C136.054 67.9962 136.635 68.3816 137.218 68.7671C137.487 68.9457 137.783 69.1097 138.033 69.3171C138.29 69.5313 138.271 69.8532 138.278 70.1583C138.306 71.5596 138.311 72.9608 138.293 74.3621C138.261 77.1645 138.143 79.9679 137.939 82.763C137.824 84.3363 137.682 85.9055 137.512 87.4706C137.499 87.5944 137.869 87.6064 137.884 87.4706C138.186 84.6527 138.403 81.826 138.533 78.9962C138.662 76.1641 138.701 73.3296 138.655 70.4956Z" fill="#504F53"/>
<path d="M111.292 65.4625C110.845 64.5785 110.177 63.7955 109.351 63.2408C108.577 62.7195 107.491 62.4358 106.685 63.0641C106.617 63.1169 106.701 63.1751 106.752 63.1926C106.829 63.22 106.937 63.2113 107.004 63.1584C107.746 62.5809 108.691 63.0554 109.33 63.5525C110.004 64.0786 110.55 64.7498 110.934 65.512C110.99 65.6251 111.355 65.5875 111.292 65.4625Z" fill="#504F53"/>
<path d="M141.742 70.7799C141.74 70.648 141.368 70.648 141.37 70.7799C141.389 73.053 141.284 75.3283 141.057 77.5913C140.829 79.8439 140.479 82.0829 140.01 84.298C139.743 85.5641 139.434 86.8201 139.086 88.0654C139.045 88.2093 139.412 88.2293 139.445 88.1149C140.053 85.9254 140.546 83.7037 140.914 81.4593C141.286 79.2068 141.533 76.9316 141.654 74.6498C141.723 73.3615 141.752 72.07 141.742 70.7799Z" fill="#504F53"/>
<path d="M125.365 99.5157L146.392 100.155L156.355 79.9555C156.55 79.5406 156.268 79.0575 155.819 79.0407L135.39 78.3006L125.365 99.5157Z" fill="white"/>
<path d="M125.966 99.5346L146.629 100.162L156.387 79.8044L135.724 79.1774L125.966 99.5346Z" fill="#7FBFEB"/>
<path d="M116.709 92.6568C116.775 92.6133 116.844 92.5691 116.912 92.5297C117.491 92.1956 117.947 92.278 118.598 92.3188C119.931 92.4031 121.264 92.5022 122.593 92.6172C123.294 92.6789 123.97 92.5778 124.549 92.1495C124.928 91.8698 125.25 91.5205 125.62 91.2294C126.038 90.9022 126.518 90.6506 127.027 90.4947C127.277 90.4178 127.537 90.3628 127.794 90.3093C128.152 90.2343 129.605 89.715 129.771 90.3181C129.792 90.3915 129.771 90.4685 129.749 90.5389C129.644 90.8493 129.492 91.1403 129.298 91.4028C129.255 91.4609 129.207 91.5205 129.197 91.5928C129.183 91.7072 129.271 91.8189 129.379 91.8652C129.487 91.9126 129.608 91.9112 129.725 91.908C132.185 91.8497 134.641 91.7178 137.088 91.4675C137.329 91.4415 137.795 91.3666 137.884 91.6644C137.975 91.9815 137.672 92.3724 137.387 92.4613C137.54 92.4767 137.662 92.6086 137.703 92.7558C137.745 92.9029 137.716 93.0623 137.667 93.2062C137.571 93.4818 137.391 93.7275 137.156 93.902C137.329 93.9771 137.403 94.2018 137.363 94.3885C137.324 94.5753 137.197 94.7325 137.069 94.8751C135.534 96.5695 133.135 97.604 130.932 98.0443C129.444 98.342 127.909 98.3883 126.4 98.2411C125.743 98.1774 125.147 98.0289 124.503 98.1334C123.832 98.243 123.157 98.296 122.49 98.4465C121.456 98.6835 120.243 99.1117 119.182 99.0307C118.187 98.9538 117.238 98.6485 116.419 98.0685C116.056 97.8115 115.724 97.503 115.484 97.1309C115.239 96.7521 115.093 96.3172 115.004 95.8755C114.925 95.4866 114.889 95.0786 114.989 94.6964C115.098 94.2789 115.359 93.9209 115.643 93.6003C115.958 93.2444 116.313 92.9184 116.709 92.6568Z" fill="#FFC9B3"/>
<path d="M131.39 93.5868C133.353 93.3618 135.336 93.1309 137.195 92.4196C137.31 92.3754 137.62 92.5294 137.423 92.605C135.542 93.3243 133.527 93.5592 131.538 93.7855C131.468 93.7936 131.335 93.7694 131.297 93.6998C131.258 93.6255 131.324 93.5935 131.39 93.5868Z" fill="#D14205"/>
<path d="M132.1 95.3548C133.838 95.2056 135.528 94.6795 137.043 93.8197C137.147 93.7615 137.481 93.8966 137.336 93.979C135.778 94.8644 134.036 95.4023 132.249 95.5529C132.179 95.5602 132.047 95.5395 132.008 95.4672C131.97 95.3956 132.034 95.3595 132.1 95.3548Z" fill="#D14205"/>
<path d="M127.809 91.8717C128.225 91.7312 128.671 91.6951 129.108 91.7552C129.163 91.7619 129.288 91.8034 129.274 91.8784C129.26 91.9553 129.127 91.9486 129.075 91.9399C129.051 91.9366 129.027 91.9353 129.002 91.9318C128.996 91.9318 128.962 91.9286 128.964 91.9286C128.916 91.9245 128.868 91.9233 128.822 91.9212C128.729 91.9212 128.661 91.9233 128.572 91.9318C128.392 91.9507 128.217 91.9901 128.046 92.0463C127.965 92.0739 127.854 92.055 127.785 92.0035C127.725 91.9574 127.736 91.8971 127.809 91.8717Z" fill="#D14205"/>
<path d="M135.102 96.1643C135.033 96.1249 134.907 96.1249 134.838 96.1643C133.903 96.7024 132.846 96.9868 131.768 96.9748C131.713 96.9748 131.583 96.9902 131.583 97.0692C131.583 97.1461 131.717 97.1634 131.768 97.1634C132.933 97.1756 134.089 96.879 135.102 96.2983C135.167 96.2608 135.167 96.2039 135.102 96.1643Z" fill="#D14205"/>
<path d="M122.978 99.2688C122.862 100.185 121.5 100.084 120.832 99.9988C117.663 99.5926 114.497 99.1622 111.336 98.7086C110.695 98.6177 110.044 98.5198 109.453 98.2562C108.861 97.9907 108.328 97.5315 108.124 96.9165C107.972 96.4629 108.011 95.9697 108.054 95.4912C108.194 93.8866 108.612 91.7056 110.17 90.8337C110.819 90.4683 111.597 90.4309 112.343 90.4395C114.75 90.4703 117.092 91.08 119.431 91.5926C120.303 91.7839 121.103 91.7498 121.988 91.7839C122.456 91.8046 123.571 91.7378 123.871 92.2055C124.21 92.7402 123.621 94.1569 123.545 94.7464C123.355 96.2534 123.167 97.7611 122.978 99.2688Z" fill="#575DA9"/>
<path d="M124.193 92.1461C124.193 92.0773 124.133 92.0298 124.077 92.0036C123.527 91.7688 122.807 91.8291 122.22 91.7688C121.647 91.7093 121.075 91.6476 120.505 91.5753C119.364 91.4335 118.226 91.2548 117.104 90.9965C116.106 90.7683 115.117 90.4793 114.165 90.0939C113.69 89.9018 113.224 89.6856 112.772 89.448C112.679 89.3999 112.589 89.3517 112.496 89.3002C112.385 87.0805 112.546 84.8581 112.782 82.6506C113.022 80.4335 113.335 78.2239 113.524 76.0036C113.628 74.7549 113.694 73.5055 113.685 72.2516C113.683 72.1217 113.312 72.1217 113.313 72.2516C113.33 74.4818 113.109 76.7022 112.849 78.9138C112.592 81.1254 112.294 83.3358 112.16 85.5608C112.088 86.7379 112.066 87.9198 112.117 89.098C111.878 88.9716 111.636 88.8498 111.389 88.7388C110.403 88.2997 109.215 88.0722 108.218 88.6103C108.15 88.6465 108.155 88.7059 108.218 88.7434C108.289 88.783 108.41 88.7796 108.481 88.7434C109.375 88.2624 110.413 88.5366 111.276 88.9408C111.739 89.1563 112.179 89.4132 112.631 89.6449C113.07 89.871 113.52 90.0752 113.98 90.2578C115.838 90.9979 117.808 91.4028 119.784 91.675C120.907 91.8311 122.036 91.9442 123.164 92.0566C123.179 92.0566 123.198 92.0586 123.22 92.0586C123.337 92.0586 123.441 92.096 123.552 92.1169C123.599 92.1235 123.777 92.1068 123.803 92.1321C123.881 92.2078 123.725 92.8535 123.71 92.9753C123.636 93.5762 123.554 94.1793 123.468 94.7789C123.294 95.9559 123.093 97.1296 122.864 98.294C122.809 98.5824 122.751 98.8701 122.691 99.1579C122.662 99.2951 122.639 99.4349 122.584 99.5634C122.564 99.6103 122.444 99.8399 122.367 99.807C122.297 99.7775 122.208 99.7695 122.132 99.797C119.979 99.6973 117.82 99.5928 115.674 99.358C113.548 99.1284 111.427 98.7724 109.375 98.1588C108.212 97.8116 107.076 97.3833 105.983 96.8572C105.906 96.821 105.798 96.807 105.721 96.8486C105.657 96.8806 105.642 96.9476 105.716 96.9838C107.672 97.9205 109.757 98.5562 111.883 98.9833C114.043 99.4162 116.239 99.6377 118.435 99.7862C119.672 99.8705 120.909 99.9288 122.148 99.987C122.168 99.987 122.201 99.987 122.235 99.9797C122.393 100.012 122.555 99.9903 122.698 99.9046C122.889 99.7862 122.967 99.5841 123.015 99.3754C123.15 98.8012 123.253 98.217 123.361 97.6382C123.578 96.4765 123.767 95.308 123.931 94.1351C124.02 93.4873 124.102 92.8381 124.176 92.185C124.186 92.1749 124.193 92.1616 124.193 92.1461Z" fill="#504F53"/>
<path d="M212.93 96.9835C212.957 96.9702 212.988 96.958 213.014 96.9474C216.139 95.7402 219.736 96.6803 223.131 96.4837C224.865 96.3805 226.553 95.981 228.266 95.7241C230.697 95.3614 233.184 95.2925 235.641 95.5219C235.814 95.5373 233.76 101.144 233.593 101.551C232.668 103.809 231.69 106.05 230.661 108.266C230.568 108.465 230.469 108.672 230.28 108.803C230.076 108.944 229.802 108.972 229.545 108.989C225.883 109.263 222.198 109.306 218.525 109.119C217.896 109.086 217.214 109.177 216.8 108.687C216.433 108.256 216.312 107.399 216.128 106.895C215.534 105.268 214.958 103.634 214.401 101.996C213.879 100.468 213.411 98.9248 212.819 97.4171C212.776 97.3128 212.736 97.1889 212.796 97.0913C212.827 97.0437 212.875 97.0089 212.93 96.9835Z" fill="white"/>
<path d="M235.288 116.43H211.678V107.408H235.288V116.43Z" fill="#7FBFEB"/>
<path d="M227.019 99.4266C225.977 101.553 225.037 103.725 224.201 105.94C224.159 106.054 224.464 106.077 224.499 105.983C225.335 103.768 226.273 101.593 227.317 99.4694C227.368 99.363 227.063 99.3324 227.019 99.4266Z" fill="#7FBFEB"/>
<path d="M221.708 101.729C221.704 101.619 221.396 101.621 221.399 101.729C221.429 102.529 221.458 103.329 221.485 104.127C221.488 104.237 221.799 104.236 221.795 104.127C221.768 103.329 221.737 102.529 221.708 101.729Z" fill="#7FBFEB"/>
</svg>
