<svg viewBox="0 0 366 178" fill="none" xmlns="http://www.w3.org/2000/svg">
<rect width="365" height="178" transform="translate(0.5)" fill="white"/>
<path d="M159.909 162.975H157.504V150.034H159.909V162.975Z" fill="#333337"/>
<path d="M183.843 162.975H181.439V150.034H183.843V162.975Z" fill="#333337"/>
<path d="M187.967 105.02V149.241C187.967 151.325 186.278 153.012 184.194 153.012H157.152C156.543 153.012 155.968 152.867 155.459 152.612C154.226 151.991 153.381 150.715 153.381 149.241V105.02C153.381 102.937 155.07 101.249 157.152 101.249H184.194C186.278 101.249 187.967 102.937 187.967 105.02Z" fill="#FDDF9E"/>
<path d="M180.661 105.831C180.534 104.441 180.141 103.018 179.26 102.073C179.061 101.861 178.841 101.683 178.608 101.538C178.515 101.481 178.36 101.47 178.274 101.543C178.196 101.605 178.182 101.694 178.277 101.751C179.314 102.395 179.885 103.771 180.101 105.125C180.363 106.774 180.252 108.51 180.239 110.178C180.214 113.689 180.191 117.2 180.166 120.709C180.141 124.237 180.117 127.765 180.091 131.291C180.069 134.802 180.044 138.312 180.018 141.821C180.007 143.586 179.995 145.349 179.982 147.113C179.976 147.955 179.974 148.798 179.964 149.641C179.955 150.339 179.931 151.06 179.744 151.723C179.652 152.042 179.523 152.336 179.352 152.601C179.287 152.704 179.474 152.774 179.52 152.782C179.62 152.801 179.742 152.777 179.809 152.675C180.542 151.529 180.434 149.909 180.444 148.531L180.48 143.189C180.506 139.612 180.531 136.033 180.555 132.456L180.704 111.088C180.71 110.189 180.717 109.29 180.723 108.391C180.729 107.539 180.737 106.68 180.661 105.831Z" fill="#F04F0A"/>
<path d="M168.777 121.177H167.974L167.949 120.683L166.887 101.25H167.69L168.752 120.683L168.777 121.177Z" fill="#F04F0A"/>
<path d="M170.217 153.128H78.8304L78.805 152.726L75.8118 101.765L75.7642 100.964L74.4231 78.1355C74.1406 73.341 77.9543 69.2987 82.7568 69.2987H157.42C161.839 69.2987 165.494 72.7443 165.752 77.1579L170.217 153.128Z" fill="#FDDF9E"/>
<path d="M175.597 127.706V153.012H175.14V127.706C175.14 124.278 172.352 121.491 168.925 121.491H100.931V154.731H100.473V121.032H168.925C172.604 121.032 175.597 124.024 175.597 127.706Z" fill="#F04F0A"/>
<path d="M78.0275 162.975H75.623V150.034H78.0275V162.975Z" fill="#333337"/>
<path d="M101.962 162.975H99.5575V150.034H101.962V162.975Z" fill="#333337"/>
<path d="M102.313 100.85H75.6498L75.6974 101.649H102.313C104.171 101.649 105.683 103.162 105.683 105.02V149.241C105.683 151.099 104.171 152.612 102.313 152.612H78.6905L78.7143 153.012H104.096C105.507 152.342 106.485 150.904 106.485 149.241V105.02C106.485 102.721 104.615 100.85 102.313 100.85Z" fill="#F04F0A"/>
<path d="M102.313 153.012H75.2693C73.1886 153.012 71.5 151.325 71.5 149.242V105.02C71.5 102.938 73.1886 101.249 75.2693 101.249H102.313C104.397 101.249 106.084 102.938 106.084 105.02V149.242C106.084 151.325 104.397 153.012 102.313 153.012Z" fill="#FDDF9E"/>
<path d="M98.8353 105.646C98.7131 104.243 98.3243 102.805 97.445 101.849C97.2466 101.635 97.0277 101.454 96.7944 101.308C96.7039 101.251 96.55 101.24 96.4611 101.311C96.3833 101.375 96.369 101.464 96.4626 101.523C97.499 102.176 98.0687 103.565 98.2782 104.932C98.5369 106.596 98.4195 108.345 98.4052 110.029C98.3703 113.572 98.337 117.112 98.3021 120.655C98.2688 124.213 98.2354 127.771 98.2021 131.331C98.1671 134.872 98.1339 138.412 98.1005 141.955C98.0831 143.734 98.0672 145.513 98.0497 147.292C98.0418 148.143 98.0371 148.993 98.0244 149.842C98.0132 150.547 97.9878 151.274 97.7989 151.942C97.7053 152.264 97.5752 152.561 97.4053 152.828C97.3403 152.931 97.5244 153.002 97.572 153.01C97.6736 153.029 97.7942 153.007 97.8608 152.902C98.5988 151.75 98.4925 150.114 98.5068 148.725L98.5576 143.335C98.5925 139.726 98.6259 136.116 98.6624 132.507L98.867 110.948C98.8734 110.042 98.8829 109.136 98.8924 108.229C98.9004 107.368 98.9115 106.503 98.8353 105.646Z" fill="#F04F0A"/>
<path d="M82.1014 69.7779C82.1871 69.7271 82.3395 69.7271 82.4252 69.7779C83.9281 70.646 84.9518 72.1235 85.5168 73.7424C86.196 75.6897 86.1976 77.7814 86.0405 79.8161C85.9532 80.9191 85.8278 82.0173 85.7247 83.1188C85.6199 84.244 85.5279 85.3692 85.4501 86.496C85.2946 88.7481 85.1898 91.0049 85.139 93.2617C85.0882 95.5201 85.0898 97.7785 85.1438 100.037C85.1501 100.313 85.1581 100.589 85.1676 100.867C85.1723 101.026 84.7137 101.032 84.7089 100.867C84.6422 98.6403 84.6264 96.412 84.6629 94.1854C84.6994 91.9476 84.7867 89.7114 84.9263 87.4784C85.066 85.2613 85.2771 83.0537 85.4914 80.8429C85.6913 78.7559 85.8341 76.5975 85.3009 74.5454C84.8755 72.906 84.009 71.3126 82.6315 70.2889C82.4632 70.1635 82.2839 70.0477 82.1014 69.9413C82.0189 69.8953 82.0205 69.8239 82.1014 69.7779Z" fill="#F04F0A"/>
<path d="M159.057 163.204C158.376 163.237 157.359 163.55 156.708 163.26C156.024 162.952 155.867 162.034 155.851 161.36C155.821 160.208 155.864 159.052 155.829 157.898C155.784 156.415 155.697 154.923 155.743 153.439C155.789 152.05 155.519 150.687 155.819 149.303C155.938 148.76 156.138 148.217 156.521 147.819C156.833 147.494 157.248 147.287 157.667 147.129C158.973 146.637 160.425 146.557 161.774 146.905C162.175 147.008 162.609 147.181 162.79 147.562C162.893 147.779 162.896 148.03 162.896 148.271C162.902 150.98 162.802 153.69 162.655 156.392C162.58 157.746 162.494 159.097 162.404 160.449C162.347 161.317 162.634 163.069 161.555 163.379C160.818 163.588 159.839 163.166 159.057 163.204Z" fill="#FFC9B3"/>
<path d="M162.316 160.877C162.562 161.084 162.808 161.291 163.065 161.495C163.683 161.985 164.318 162.418 164.886 162.982C165.076 163.169 165.275 163.391 165.252 163.644C165.218 164.053 164.664 164.235 164.205 164.275C163.718 164.316 163.223 164.305 162.734 164.296C160.585 164.247 158.498 164.02 156.368 163.804C156.149 163.782 155.924 163.758 155.738 163.65C155.275 163.38 155.306 162.771 155.424 162.287C155.624 161.476 155.919 160.663 156.492 160.011C157.063 159.358 157.958 158.889 158.882 158.951C159.607 158.998 160.26 159.357 160.847 159.741C161.378 160.088 161.847 160.48 162.316 160.877Z" fill="#FFC9B3"/>
<path d="M171.265 165.948L161.418 165.915C160.614 165.818 159.811 165.705 159.003 165.604C158.662 165.562 158.279 165.531 158.013 165.737C157.941 165.793 157.886 165.85 157.832 165.902L154.88 165.891C154.797 165.705 154.813 165.432 154.808 165.177C154.805 165.037 154.794 164.902 154.753 164.793C154.707 164.658 154.637 164.526 154.607 164.388C154.575 164.245 154.581 164.099 154.596 163.958C154.651 163.387 154.935 162.066 155.61 161.733C155.764 161.657 155.938 161.631 156.135 161.677C158.127 162.141 160.119 162.603 162.112 163.066C161.766 162.653 161.479 162.163 161.487 161.636C161.493 161.222 161.663 160.931 161.914 160.781C162.223 160.593 162.66 160.615 163.08 160.866C164.14 161.496 165.07 162.317 166.17 162.882C167.616 163.625 169.295 163.896 170.728 164.663C170.98 164.799 171.187 164.999 171.288 165.234C171.385 165.453 171.393 165.7 171.265 165.948Z" fill="#F04F0A"/>
<path d="M171.269 165.235C171.309 165.247 171.315 165.296 171.326 165.334C171.339 165.375 171.347 165.418 171.353 165.461C171.365 165.542 171.363 165.624 171.349 165.704C171.342 165.745 171.331 165.786 171.317 165.826C171.309 165.848 171.301 165.867 171.292 165.888C171.29 165.894 171.271 165.948 171.265 165.948L161.418 165.915C160.614 165.818 159.811 165.705 159.003 165.604C158.662 165.562 158.279 165.531 158.013 165.737C157.941 165.793 157.886 165.85 157.832 165.902L154.88 165.891C154.797 165.705 154.813 165.432 154.808 165.177C154.81 165.177 154.811 165.177 154.813 165.177C154.816 165.177 154.821 165.177 154.827 165.177C154.837 165.177 154.848 165.177 154.857 165.177C154.87 165.177 154.883 165.177 154.897 165.177C154.916 165.177 154.934 165.177 154.949 165.178C154.972 165.178 154.994 165.178 155.015 165.178C155.042 165.178 155.067 165.178 155.092 165.178C155.121 165.178 155.149 165.178 155.18 165.178C155.211 165.178 155.245 165.178 155.276 165.178C155.315 165.178 155.349 165.178 155.388 165.178C155.426 165.18 155.467 165.18 155.505 165.18C155.548 165.18 155.592 165.18 155.635 165.18C155.68 165.18 155.727 165.18 155.773 165.18C155.822 165.18 155.872 165.181 155.921 165.181C155.973 165.181 156.026 165.181 156.078 165.181C156.133 165.181 156.187 165.181 156.243 165.181C156.3 165.181 156.359 165.183 156.416 165.183C156.476 165.183 156.537 165.183 156.598 165.183C156.662 165.183 156.725 165.185 156.789 165.185C156.854 165.185 156.919 165.185 156.986 165.185C157.054 165.185 157.122 165.185 157.19 165.186C157.26 165.186 157.33 165.186 157.4 165.186C157.473 165.186 157.546 165.186 157.617 165.186C157.694 165.188 157.768 165.188 157.843 165.188C157.919 165.188 157.995 165.188 158.071 165.188C158.151 165.189 158.228 165.189 158.308 165.189C158.387 165.189 158.468 165.189 158.547 165.191C158.63 165.191 158.712 165.191 158.793 165.191C158.878 165.191 158.962 165.191 159.046 165.193C159.13 165.193 159.214 165.193 159.301 165.193C159.385 165.193 159.473 165.194 159.56 165.194C159.646 165.194 159.735 165.194 159.822 165.194C159.909 165.196 160 165.196 160.088 165.196C160.177 165.196 160.268 165.196 160.358 165.196C160.449 165.196 160.539 165.196 160.631 165.197C160.722 165.197 160.814 165.197 160.906 165.197C160.998 165.197 161.091 165.199 161.182 165.199C161.277 165.199 161.369 165.199 161.463 165.199C161.556 165.201 161.65 165.201 161.744 165.201C161.837 165.201 161.933 165.201 162.025 165.202C162.12 165.202 162.217 165.202 162.31 165.202C162.406 165.202 162.499 165.204 162.594 165.204C162.688 165.204 162.783 165.204 162.88 165.205C162.974 165.205 163.069 165.205 163.164 165.205C163.259 165.205 163.353 165.207 163.448 165.207C163.544 165.207 163.639 165.207 163.734 165.207C163.828 165.208 163.923 165.208 164.016 165.208C164.112 165.208 164.205 165.21 164.299 165.21C164.394 165.21 164.488 165.21 164.581 165.21C164.673 165.21 164.767 165.212 164.862 165.212C164.953 165.212 165.046 165.212 165.138 165.212C165.231 165.213 165.323 165.213 165.413 165.213C165.505 165.213 165.596 165.213 165.686 165.215C165.778 165.215 165.867 165.215 165.957 165.215C166.046 165.216 166.135 165.216 166.224 165.216C166.311 165.216 166.399 165.216 166.488 165.218C166.575 165.218 166.659 165.218 166.746 165.218C166.832 165.218 166.916 165.218 167.002 165.22C167.086 165.22 167.17 165.22 167.252 165.22C167.335 165.22 167.418 165.221 167.5 165.221C167.579 165.221 167.66 165.221 167.741 165.221C167.821 165.221 167.9 165.223 167.976 165.223C168.054 165.223 168.132 165.223 168.208 165.223C168.282 165.223 168.359 165.224 168.433 165.224C168.505 165.224 168.578 165.224 168.651 165.224C168.722 165.224 168.792 165.226 168.863 165.226C168.932 165.226 169 165.226 169.068 165.226C169.135 165.226 169.2 165.226 169.266 165.228C169.33 165.228 169.393 165.228 169.457 165.228C169.517 165.228 169.578 165.228 169.639 165.229C169.697 165.229 169.757 165.229 169.814 165.229C169.87 165.229 169.925 165.229 169.981 165.229C170.033 165.229 170.087 165.229 170.139 165.229C170.189 165.229 170.238 165.229 170.287 165.229C170.335 165.231 170.381 165.231 170.427 165.231C170.471 165.231 170.514 165.231 170.557 165.231C170.598 165.231 170.636 165.231 170.677 165.231C170.714 165.231 170.75 165.231 170.787 165.231C170.819 165.232 170.854 165.232 170.885 165.232C170.915 165.232 170.947 165.232 170.976 165.232C171.001 165.232 171.027 165.232 171.053 165.232C171.076 165.232 171.096 165.232 171.12 165.232C171.138 165.232 171.155 165.232 171.174 165.232C171.188 165.232 171.203 165.232 171.215 165.232C171.226 165.232 171.236 165.232 171.247 165.232C171.25 165.232 171.253 165.232 171.258 165.232C171.261 165.234 171.266 165.234 171.269 165.235Z" fill="#333337"/>
<path d="M165.935 162.237C165.683 162.156 165.351 162.186 165.138 162.337C164.448 162.831 163.859 163.412 163.361 164.069C163.211 164.266 163.624 164.402 163.767 164.423C164.011 164.459 164.335 164.423 164.483 164.224C164.943 163.616 165.503 163.088 166.143 162.631C166.359 162.477 166.1 162.29 165.935 162.237Z" fill="#333337"/>
<path d="M151.747 123.934C151.777 124.102 151.791 124.276 151.805 124.449C152.697 136.106 153.335 147.898 153.288 159.574C153.288 159.571 163.245 159.62 164.145 159.492C164.318 159.468 164.504 159.435 164.618 159.305C164.729 159.179 164.738 158.997 164.743 158.83C165.064 149.238 165.005 139.633 164.566 130.045C164.402 126.465 164.339 122.796 163.877 119.239C163.57 116.874 163.026 113.402 161.228 111.697C160.496 111.001 159.558 110.561 158.616 110.19C152.209 107.672 145.097 107.909 138.312 106.742C136.411 106.414 134.464 105.979 132.521 106.128C130.688 106.27 129.466 107.115 127.977 108.076C125.182 109.877 122.978 113.124 125.379 116.206C126.709 117.914 129.025 118.46 131.002 119.041C135.868 120.471 140.861 121.429 145.87 122.208C147.162 122.408 150.852 122.137 151.582 123.45C151.666 123.6 151.713 123.764 151.747 123.934Z" fill="#333337"/>
<path d="M142.517 163.204C141.823 163.237 140.787 163.552 140.123 163.26C138.693 162.63 139.315 159.958 139.439 158.832C139.669 156.753 139.838 154.667 139.947 152.577C139.995 151.687 140.033 150.779 140.347 149.944C140.772 148.809 141.61 148.322 142.674 147.89C144.159 147.287 146.346 146.607 147.11 148.581C147.4 149.328 147.349 150.162 147.284 150.963C147.094 153.342 146.813 155.715 146.443 158.073C146.267 159.206 145.945 160.374 145.884 161.512C145.849 162.165 145.851 163.155 145.062 163.379C144.312 163.588 143.315 163.166 142.517 163.204Z" fill="#FFC9B3"/>
<path d="M145.711 160.877C145.957 161.084 146.203 161.291 146.46 161.495C147.077 161.985 147.712 162.418 148.28 162.982C148.471 163.169 148.669 163.391 148.647 163.644C148.612 164.053 148.058 164.235 147.601 164.275C147.112 164.316 146.617 164.305 146.128 164.296C143.979 164.247 141.892 164.02 139.763 163.804C139.544 163.782 139.318 163.758 139.133 163.65C138.669 163.38 138.701 162.771 138.818 162.287C139.018 161.476 139.313 160.663 139.885 160.011C140.459 159.358 141.353 158.889 142.276 158.951C143.002 158.998 143.654 159.357 144.241 159.741C144.773 160.088 145.241 160.48 145.711 160.877Z" fill="#FFC9B3"/>
<path d="M154.659 165.948L144.813 165.915C144.008 165.818 143.205 165.705 142.397 165.604C142.056 165.562 141.674 165.531 141.407 165.737C141.336 165.793 141.28 165.85 141.226 165.902L138.276 165.891C138.192 165.705 138.209 165.432 138.203 165.177C138.2 165.037 138.189 164.902 138.149 164.793C138.1 164.658 138.031 164.526 138.001 164.388C137.969 164.245 137.976 164.099 137.99 163.958C138.046 163.387 138.33 162.066 139.006 161.733C139.158 161.657 139.333 161.631 139.53 161.677C141.521 162.141 143.513 162.603 145.506 163.066C145.161 162.653 144.873 162.163 144.881 161.636C144.889 161.222 145.057 160.931 145.308 160.781C145.619 160.593 146.054 160.615 146.476 160.866C147.536 161.496 148.465 162.317 149.565 162.882C151.01 163.625 152.69 163.896 154.123 164.663C154.375 164.799 154.581 164.999 154.683 165.234C154.78 165.453 154.788 165.7 154.659 165.948Z" fill="#F04F0A"/>
<path d="M154.664 165.235C154.703 165.247 154.71 165.296 154.721 165.334C154.734 165.375 154.743 165.418 154.748 165.461C154.759 165.542 154.757 165.624 154.745 165.704C154.737 165.745 154.726 165.786 154.711 165.826C154.703 165.848 154.696 165.867 154.686 165.888C154.684 165.894 154.665 165.948 154.659 165.948L144.813 165.915C144.008 165.818 143.205 165.705 142.397 165.604C142.056 165.562 141.674 165.531 141.407 165.737C141.336 165.793 141.28 165.85 141.226 165.902L138.276 165.891C138.192 165.705 138.209 165.432 138.203 165.177C138.204 165.177 138.206 165.177 138.208 165.177C138.212 165.177 138.215 165.177 138.222 165.177C138.231 165.177 138.242 165.177 138.252 165.177C138.265 165.177 138.279 165.177 138.292 165.177C138.311 165.177 138.328 165.177 138.346 165.178C138.366 165.178 138.388 165.178 138.411 165.178C138.436 165.178 138.461 165.178 138.487 165.178C138.515 165.178 138.546 165.178 138.574 165.178C138.607 165.178 138.639 165.178 138.672 165.178C138.709 165.178 138.744 165.178 138.782 165.178C138.82 165.18 138.861 165.18 138.899 165.18C138.942 165.18 138.987 165.18 139.03 165.18C139.076 165.18 139.122 165.18 139.168 165.18C139.217 165.18 139.266 165.181 139.315 165.181C139.368 165.181 139.42 165.181 139.472 165.181C139.528 165.181 139.582 165.181 139.637 165.181C139.695 165.181 139.753 165.183 139.81 165.183C139.871 165.183 139.933 165.183 139.995 165.183C140.056 165.183 140.12 165.185 140.183 165.185C140.248 165.185 140.314 165.185 140.38 165.185C140.448 165.185 140.517 165.185 140.585 165.186C140.655 165.186 140.726 165.186 140.794 165.186C140.867 165.186 140.94 165.186 141.012 165.186C141.088 165.188 141.163 165.188 141.237 165.188C141.313 165.188 141.39 165.188 141.466 165.188C141.545 165.189 141.623 165.189 141.702 165.189C141.783 165.189 141.863 165.189 141.942 165.191C142.024 165.191 142.107 165.191 142.188 165.191C142.272 165.191 142.356 165.191 142.44 165.193C142.524 165.193 142.608 165.193 142.694 165.193C142.78 165.193 142.867 165.194 142.954 165.194C143.042 165.194 143.129 165.194 143.216 165.194C143.305 165.196 143.394 165.196 143.483 165.196C143.572 165.196 143.662 165.196 143.753 165.196C143.843 165.196 143.934 165.196 144.026 165.197C144.116 165.197 144.208 165.197 144.3 165.197C144.392 165.197 144.486 165.199 144.576 165.199C144.672 165.199 144.764 165.199 144.857 165.199C144.951 165.201 145.045 165.201 145.138 165.201C145.232 165.201 145.327 165.201 145.421 165.202C145.514 165.202 145.611 165.202 145.705 165.202C145.8 165.202 145.894 165.204 145.989 165.204C146.084 165.204 146.178 165.204 146.275 165.205C146.368 165.205 146.463 165.205 146.559 165.205C146.654 165.205 146.747 165.207 146.843 165.207C146.94 165.207 147.033 165.207 147.128 165.207C147.222 165.208 147.317 165.208 147.411 165.208C147.506 165.208 147.601 165.21 147.693 165.21C147.789 165.21 147.882 165.21 147.976 165.21C148.068 165.21 148.162 165.212 148.257 165.212C148.347 165.212 148.441 165.212 148.533 165.212C148.625 165.213 148.717 165.213 148.808 165.213C148.9 165.213 148.992 165.213 149.08 165.215C149.171 165.215 149.261 165.215 149.352 165.215C149.441 165.216 149.53 165.216 149.619 165.216C149.706 165.216 149.793 165.216 149.882 165.218C149.969 165.218 150.053 165.218 150.141 165.218C150.226 165.218 150.312 165.218 150.396 165.22C150.48 165.22 150.564 165.22 150.647 165.22C150.729 165.22 150.812 165.221 150.895 165.221C150.975 165.221 151.055 165.221 151.136 165.221C151.215 165.221 151.293 165.223 151.372 165.223C151.448 165.223 151.526 165.223 151.602 165.223C151.677 165.223 151.753 165.224 151.828 165.224C151.901 165.224 151.972 165.224 152.045 165.224C152.117 165.224 152.186 165.226 152.258 165.226C152.326 165.226 152.394 165.226 152.463 165.226C152.529 165.226 152.594 165.226 152.661 165.228C152.724 165.228 152.788 165.228 152.851 165.228C152.912 165.228 152.972 165.228 153.034 165.229C153.093 165.229 153.151 165.229 153.208 165.229C153.264 165.229 153.32 165.229 153.375 165.229C153.427 165.229 153.481 165.229 153.534 165.229C153.583 165.229 153.632 165.229 153.683 165.229C153.729 165.231 153.775 165.231 153.821 165.231C153.866 165.231 153.908 165.231 153.953 165.231C153.992 165.231 154.031 165.231 154.072 165.231C154.108 165.231 154.146 165.231 154.181 165.231C154.215 165.232 154.248 165.232 154.281 165.232C154.31 165.232 154.342 165.232 154.37 165.232C154.396 165.232 154.421 165.232 154.448 165.232C154.47 165.232 154.491 165.232 154.515 165.232C154.532 165.232 154.55 165.232 154.569 165.232C154.583 165.232 154.597 165.232 154.611 165.232C154.621 165.232 154.63 165.232 154.642 165.232C154.645 165.232 154.648 165.232 154.653 165.232C154.656 165.234 154.661 165.234 154.664 165.235Z" fill="#333337"/>
<path d="M149.329 162.237C149.077 162.156 148.745 162.186 148.533 162.337C147.842 162.831 147.254 163.412 146.755 164.069C146.606 164.266 147.019 164.402 147.161 164.423C147.407 164.459 147.73 164.423 147.877 164.224C148.337 163.616 148.898 163.088 149.537 162.631C149.753 162.477 149.494 162.29 149.329 162.237Z" fill="#333337"/>
<path d="M139.736 123.44C139.75 123.462 139.763 123.488 139.775 123.511C140.234 124.414 139.682 125.886 139.668 126.854C139.629 129.076 139.593 131.296 139.555 133.518C139.555 138.758 139.382 144.005 139.295 149.244C139.237 152.698 138.987 156.143 138.972 159.574H149.245C149.422 159.158 149.468 158.632 149.504 158.262L152.104 131.048C152.448 127.439 152.796 123.827 152.904 120.202C152.996 117.157 152.918 114.479 150.242 112.521C148.339 111.129 145.775 110.62 143.231 110.209C140.369 109.744 137.5 109.318 134.621 108.994C129.007 108.364 123.327 108.118 117.701 108.745C116.277 108.906 114.812 109.064 113.429 109.45C109.48 110.551 109.248 115.228 110.957 118.299C111.559 119.382 112.5 120.312 113.676 120.705C114.366 120.939 115.106 120.977 115.835 121.007C122.889 121.289 130.023 120.837 136.958 122.17C137.792 122.332 139.244 122.61 139.736 123.44Z" fill="#333337"/>
<path d="M152.873 117.469C152.83 116.563 152.714 115.66 152.289 114.846C151.919 114.138 151.375 113.527 150.751 113.032C149.317 111.889 147.509 111.378 145.761 110.926C143.794 110.416 141.802 109.991 139.796 109.655C139.547 109.613 139.297 109.572 139.048 109.534C138.991 109.525 138.864 109.528 138.836 109.594C138.809 109.664 138.907 109.694 138.956 109.702C140.938 110.015 142.908 110.41 144.855 110.891C146.63 111.331 148.51 111.769 150.042 112.816C150.699 113.265 151.291 113.824 151.724 114.495C152.215 115.249 152.43 116.092 152.499 116.982C152.578 117.982 152.581 118.991 152.588 119.994C152.592 121.013 152.578 122.031 152.551 123.05C152.494 125.076 152.383 127.101 152.265 129.125C152.251 129.38 152.235 129.639 152.223 129.895C152.215 130.012 152.559 130.018 152.565 129.895C152.686 127.823 152.807 125.751 152.875 123.676C152.943 121.61 152.967 119.537 152.873 117.469Z" fill="#03172A"/>
<path d="M187.397 67.4817C187.671 67.1897 188.335 66.6882 188.049 66.2105C187.943 66.0343 187.771 65.9407 187.571 65.901C187.827 65.5233 188.074 64.7567 187.348 64.7504C186.995 64.7456 186.644 64.7837 186.302 64.8615C186.427 64.6821 186.41 64.4155 186.26 64.2552C186 63.9759 185.526 64.1616 185.232 64.2885C183.664 64.9757 182.128 65.4455 180.426 64.863C180.142 64.7662 181.267 63.9695 181.409 63.8981C181.798 63.7029 182.212 63.5521 182.58 63.3188C182.791 63.1855 182.997 63.0046 183.051 62.7602C183.262 61.8079 181.68 62.2539 181.279 62.3491C180.356 62.5697 179.476 62.9443 178.62 63.3522C177.868 63.7124 177.013 64.052 176.416 64.6567C175.462 65.6248 175.151 67.1706 174.048 67.9896C173.745 67.9705 173.41 68.0626 173.385 68.2863C173.275 69.1973 173.93 70.1988 174.349 70.9653C174.691 71.5922 175.075 72.1778 175.887 71.9652C176.256 71.8699 176.492 71.57 176.787 71.3542C177.222 71.0383 177.69 70.8431 178.227 70.8114C179.766 70.7225 181.267 71.0367 182.805 70.7447C184.386 70.4463 185.892 69.7433 187.138 68.726C187.441 68.4768 188.02 67.7134 187.397 67.4817Z" fill="#FFC9B3"/>
<path d="M180.001 64.8884C179.996 65.1502 179.895 65.3899 179.799 65.6295C179.709 65.8549 179.612 66.0787 179.493 66.2898C179.277 66.6738 178.963 67.0293 178.528 67.1595C178.479 67.1737 178.436 67.2118 178.477 67.2579C178.517 67.3055 178.62 67.2991 178.673 67.2833C179.134 67.1484 179.484 66.8055 179.728 66.3993C179.864 66.1739 179.969 65.9311 180.068 65.6867C180.171 65.4311 180.282 65.1693 180.287 64.8884C180.288 64.7884 180.003 64.7852 180.001 64.8884Z" fill="#F04F0A"/>
<path d="M185.618 64.9692C184.521 65.8706 183.12 66.3594 181.701 66.3245C181.66 66.3229 181.558 66.3372 181.558 66.3975C181.558 66.4579 181.661 66.4705 181.701 66.4705C183.205 66.5086 184.702 65.9992 185.864 65.0422C185.961 64.9628 185.689 64.9105 185.618 64.9692Z" fill="#F04F0A"/>
<path d="M187.538 65.8723C187.478 65.8517 187.392 65.858 187.342 65.8977C185.959 66.9896 184.225 67.6038 182.461 67.6165C182.292 67.6181 182.288 67.7641 182.461 67.7625C184.312 67.7498 186.135 67.1181 187.589 65.9723C187.642 65.931 187.576 65.885 187.538 65.8723Z" fill="#F04F0A"/>
<path d="M187.068 67.6769C185.872 68.4291 184.54 68.9433 183.148 69.1814C182.96 69.2131 183.088 69.3449 183.225 69.3211C184.658 69.0766 186.037 68.5545 187.27 67.7816C187.408 67.6943 187.148 67.6277 187.068 67.6769Z" fill="#F04F0A"/>
<path d="M149.83 69.4244C153.831 72.3652 157.833 75.306 161.834 78.2469C162.313 78.6008 162.658 79.899 162.777 80.4751C162.952 81.3162 162.907 82.2098 162.531 82.9906C161.799 84.5094 160.331 85.1458 158.708 85.13C156.771 85.1109 154.918 84.0381 153.154 83.2842C149.219 81.6019 145.338 79.7117 141.878 77.1692C140.942 76.482 140.034 75.7409 139.293 74.8474C137.771 73.0111 137.054 70.5416 137.312 68.1753C137.631 65.2615 140.852 63.8569 143.364 64.9441C144.256 65.3297 145.049 65.9122 145.833 66.4867C147.165 67.4675 148.498 68.4451 149.83 69.4244Z" fill="#575DA9"/>
<path d="M160.836 75.2042C163.872 74.0996 166.738 72.5316 169.304 70.5699C170.737 69.4765 172.083 68.256 173.648 67.3593C174.6 66.8134 175.024 68.2084 175.384 68.8369C175.984 69.8812 176.585 70.9255 177.185 71.9682C177.441 72.4125 177.733 72.6331 177.525 73.0966C177.352 73.4886 176.713 73.9266 176.406 74.2313C175.643 74.9884 174.86 75.7263 174.059 76.4421C172.526 77.8165 170.923 79.1147 169.26 80.332C166.381 82.4396 163.235 84.5853 159.583 84.9551C159.001 85.0138 158.123 85.171 157.615 84.8091C157.065 84.4155 156.887 83.6585 156.747 83.0348C156.52 82.0064 156.711 80.9494 156.896 79.9305C157.092 78.864 156.776 77.3277 157.639 76.5421C158.168 76.0612 158.882 75.8533 159.563 75.639C159.99 75.5026 160.415 75.3581 160.836 75.2042Z" fill="#575DA9"/>
<path d="M158.069 76.412C158 76.3898 157.895 76.3945 157.836 76.4453C157.039 77.1262 156.428 78.0102 156.079 78.9973C156.035 79.1275 156.374 79.1529 156.411 79.0449C156.755 78.0705 157.347 77.2024 158.131 76.5326C158.192 76.4818 158.12 76.4295 158.069 76.412Z" fill="#03172A"/>
<path d="M158.185 77.4196C158.058 77.6894 157.96 77.9703 157.887 78.2608C157.881 78.2862 157.922 78.3147 157.936 78.3226C157.973 78.3401 158.02 78.3496 158.058 78.348C158.123 78.348 158.212 78.3338 158.231 78.2608C158.3 77.9878 158.396 77.7212 158.517 77.4656C158.572 77.3466 158.236 77.3133 158.185 77.4196Z" fill="#03172A"/>
<path d="M143.809 104.414C144.195 102.165 143.787 99.5608 143.727 97.3119C143.656 94.7361 143.611 92.1556 143.776 89.5829C144.225 82.6475 146.265 75.6786 144.962 68.8511C144.722 67.5989 144.246 66.1785 143.375 65.2088C142.508 64.2407 140.862 63.8344 139.704 63.3027C136.699 61.9251 133.632 60.4555 130.319 60.0317C125.988 59.481 121.644 60.419 117.753 62.333C115.888 63.2503 114.079 64.3216 112.565 65.7452C109.773 68.375 108.67 72.2125 107.726 75.8135C106.655 79.8876 105.934 84.0457 105.336 88.2133C104.988 90.6304 104.722 93.1015 105.16 95.5027C105.599 97.9055 106.839 100.262 108.921 101.538C109.472 101.876 110.276 102.23 110.595 102.83C111.095 103.77 110.381 105.934 110.292 106.985C110.167 108.485 110.026 110.002 110.007 111.508C109.991 112.651 110.33 112.673 111.275 112.383C112.568 111.984 113.781 111.58 115.131 111.356C115.131 111.178 131.957 108.712 133.524 108.423C136.092 107.952 138.658 107.479 141.224 107.007C142.716 106.733 143.44 106.223 143.752 104.719C143.773 104.619 143.792 104.517 143.809 104.414Z" fill="#575DA9"/>
<path d="M135.749 66.0898C135.865 65.9708 135.976 65.847 136.081 65.7169C136.935 64.6361 137.466 62.6046 136.341 61.5825C135.289 60.6287 133.31 60.2542 131.975 59.9003C130.02 59.3845 127.966 59.2496 125.962 59.5257C124.984 59.6606 123.678 59.7987 123.426 60.8954C123.154 62.0698 124.116 63.4061 124.83 64.2282C126.733 66.4199 129.594 67.9753 132.473 67.6166C133.692 67.4658 134.891 66.9548 135.749 66.0898Z" fill="white"/>
<path d="M136.346 56.4563C136.376 56.8356 136.368 57.234 136.394 57.5371C136.459 58.3402 136.402 59.1496 136.224 59.9336C136.11 60.4335 135.948 60.9239 135.797 61.4159C135.319 62.9855 135.903 64.5234 134.132 65.3566C133.404 65.6994 132.575 65.7756 131.771 65.7248C130.441 65.6407 129.133 65.2233 128 64.5202C126.787 63.7664 125.798 62.7094 124.825 61.6667C124.614 61.4397 124.394 61.1906 124.367 60.8827C124.299 60.1193 125.365 59.6971 125.746 59.1575C126.263 58.4195 126.389 57.4499 126.416 56.5675C126.444 55.6533 126.522 54.9026 126.689 53.9948C126.822 53.2616 126.806 52.3903 127.111 51.7062C127.679 50.4271 129.395 50.4017 130.51 50.8492C131.658 51.3095 132.758 51.9538 133.632 52.8363C134.078 53.287 134.432 53.8075 134.878 54.2551C135.329 54.7074 135.818 55.0423 136.138 55.6073C136.265 55.8295 136.319 56.1357 136.346 56.4563Z" fill="#FFC9B3"/>
<path d="M136.346 56.4562C136.376 56.8355 136.368 57.2338 136.394 57.537C136.459 58.34 136.402 59.1494 136.224 59.9334C136.109 60.4334 135.948 60.9238 135.797 61.4158C135.437 61.3904 135.059 61.2777 134.783 61.1904C134.159 60.9936 133.572 60.6492 133.127 60.1636C132.719 59.716 132.367 59.1986 132.186 58.6178C132.002 58.0353 131.999 57.3878 132.256 56.8339C132.988 55.2564 134.116 56.1705 135.337 56.3102C135.632 56.3435 135.995 56.3467 136.303 56.4419C136.317 56.4467 136.332 56.4514 136.346 56.4562Z" fill="#F04F0A"/>
<path d="M139.163 43.7438C139.179 43.774 139.196 43.8041 139.211 43.8343C139.338 44.0723 139.353 44.4437 139.442 44.7167C139.552 45.0547 139.639 45.4007 139.68 45.753C139.755 46.3974 139.382 47.0259 139.455 47.667C139.488 47.9591 139.676 48.1923 139.823 48.4399C139.998 48.7335 140.182 49.0192 140.379 49.2985C140.777 49.8699 141.22 50.4111 141.702 50.9158C142.039 51.2649 142.413 51.6458 142.44 52.1267C142.48 52.9075 141.678 53.2107 141.102 53.5043C140.482 53.8185 140.425 54.6914 140.407 55.2865C140.383 56.1007 140.495 56.8927 140.439 57.7116C140.369 58.7241 140.022 59.6113 138.936 59.8335C136.2 60.3921 133.565 59.4748 131.707 57.4211C131.193 56.8514 130.745 56.2261 130.336 55.5785C129.961 54.9882 129.728 54.52 129.004 54.3549C128.293 54.1915 127.596 53.9423 126.97 53.5741C125.801 52.8901 124.897 51.8061 124.3 50.5904C123.718 49.4065 123.513 48.1749 123.276 46.8925C123.084 45.8482 123.786 44.677 124.184 43.7184C124.495 42.9677 124.841 42.2044 125.428 41.6394C127.011 40.1158 129.25 39.0286 131.493 38.9398C132.546 38.8985 133.532 39.0588 134.567 39.2064C135.522 39.3429 136.343 39.9428 137.025 40.6094C137.935 41.5013 138.568 42.6218 139.163 43.7438Z" fill="#FFC9B3"/>
<path d="M132.007 50.6032C132.334 50.4397 132.623 50.2429 132.74 49.8445C133.042 48.8368 133.05 47.6671 132.934 46.6323C132.904 46.3498 132.862 46.0451 133.002 45.7975C133.137 45.5611 133.405 45.4389 133.654 45.3278C134.781 44.8294 135.892 44.2914 136.979 43.7121C137.527 43.4217 138.22 43.1757 138.66 42.7265C138.939 42.4377 139.109 42.0092 138.982 41.6283C138.927 41.4585 138.816 41.3109 138.701 41.1728C137.368 39.5635 135.241 38.7462 133.154 38.6732C131.066 38.6018 129.004 39.2064 127.09 40.046C126.075 40.4904 124.943 41.0221 124.407 42.0394C124.226 42.3838 124.094 42.7519 123.908 43.0932C123.404 44.0248 122.824 44.7786 122.512 45.8166C122.193 46.872 122.121 48.0035 122.318 49.0891C122.818 51.8347 124.892 53.6852 126.138 56.0531C126.197 56.1658 126.259 56.2817 126.351 56.3705C126.625 56.634 127.065 56.5848 127.431 56.4864C127.684 56.4182 127.93 56.3341 128.171 56.2341C128.381 56.15 128.528 55.9516 128.709 55.8183C129.028 55.5818 129.352 55.3422 129.62 55.0485C130.237 54.3788 130.518 53.5011 130.766 52.6457C130.893 52.2061 131.004 51.7586 131.16 51.3285C131.339 50.8365 131.547 50.8301 132.007 50.6032Z" fill="#333337"/>
<path d="M133.518 52.2552C133.518 52.2345 133.518 52.2155 133.516 52.1965C133.486 50.6856 131.758 48.1987 130.049 49.3413C129.447 49.7413 129.133 50.4935 129.163 51.2141C129.223 52.617 130.725 54.6755 132.309 54.42C133.272 54.2644 133.521 53.082 133.518 52.2552Z" fill="#FFC9B3"/>
<path d="M138.752 46.4831C138.344 46.334 137.512 46.7815 137.255 46.9338C136.963 47.1068 136.687 47.3163 136.484 47.5877C136.279 47.8607 136.154 48.2003 136.181 48.5384C136.184 48.5765 136.19 48.6193 136.217 48.6479C136.281 48.7209 136.4 48.6701 136.478 48.6114C136.824 48.3495 137.098 47.9861 137.492 47.8036C137.712 47.7004 137.957 47.6623 138.185 47.5798C138.469 47.4798 139.126 47.0148 138.934 46.6403C138.892 46.5609 138.83 46.5117 138.752 46.4831Z" fill="#333337"/>
<path d="M137.693 49.1128C137.682 48.9303 137.698 48.7557 137.784 48.6494C137.846 48.5701 137.942 48.5224 138.041 48.4955C138.328 48.4177 138.546 48.5558 138.641 48.7907C138.699 48.9367 138.714 49.1033 138.715 49.2604C138.718 49.4255 138.699 49.6017 138.649 49.7651C138.622 49.8508 138.574 49.9223 138.493 49.9794C138.154 50.2143 137.906 50.0111 137.819 49.7127C137.776 49.5747 137.711 49.3382 137.693 49.1128Z" fill="#333337"/>
<path d="M139.11 56.0658C138.594 56.215 137.899 55.9801 137.488 55.7151C137.128 55.4818 136.906 55.1485 136.933 54.7089C136.964 54.1407 137.539 54.3788 137.944 54.3994C138.436 54.4248 138.932 54.428 139.424 54.4073C139.555 54.4026 139.712 54.4089 139.774 54.5232C139.881 54.7232 139.769 55.2818 139.704 55.4818C139.596 55.8103 139.377 55.9896 139.11 56.0658Z" fill="white"/>
<path d="M132.773 45.2973C131.275 44.8752 129.78 44.453 128.285 44.0293C128.22 44.0118 128.098 44.0023 128.048 44.061C128.001 44.1181 128.05 44.1626 128.11 44.18C129.607 44.6022 131.104 45.0259 132.599 45.4481C132.664 45.4671 132.786 45.4751 132.835 45.4164C132.883 45.3608 132.833 45.3148 132.773 45.2973Z" fill="#03172A"/>
<path d="M137.416 41.8681C136.071 43.1155 134.243 43.7773 132.412 43.6599C132.361 43.6567 132.24 43.6774 132.24 43.7472C132.24 43.8202 132.364 43.8313 132.412 43.8344C134.338 43.9582 136.297 43.2711 137.712 41.957C137.825 41.8506 137.497 41.7935 137.416 41.8681Z" fill="#03172A"/>
<path d="M136.233 40.2158C136.16 40.2047 136.073 40.2174 136.024 40.2777C135.371 41.0712 134.529 41.9552 133.419 41.952C133.369 41.952 133.248 41.9679 133.248 42.0393C133.248 42.1107 133.372 42.1266 133.419 42.1266C134.681 42.1298 135.606 41.2363 136.355 40.3237C136.403 40.2634 136.268 40.2205 136.233 40.2158Z" fill="#03172A"/>
<path d="M124.433 51.4617C123.508 50.2302 123.119 48.6384 123.336 47.1148C123.4 46.672 123.517 46.2403 123.682 45.8261C123.733 45.7023 123.395 45.6721 123.351 45.78C122.765 47.2385 122.806 48.9129 123.43 50.3524C123.606 50.7634 123.833 51.1507 124.103 51.5078C124.174 51.603 124.505 51.5554 124.433 51.4617Z" fill="#03172A"/>
<path d="M125.465 49.5793C124.883 49.1508 124.552 48.4366 124.597 47.7161C124.605 47.5987 124.262 47.5907 124.254 47.7161C124.206 48.4684 124.562 49.2222 125.17 49.6698C125.235 49.7158 125.329 49.7238 125.405 49.6999C125.451 49.6857 125.532 49.6285 125.465 49.5793Z" fill="#03172A"/>
<path d="M165.375 89.0291C165.368 89.0878 165.36 89.1481 165.351 89.2052C165.307 89.5068 165.26 89.8083 165.213 90.1115C164.581 94.2188 163.84 98.3039 163.104 102.395C162.878 103.648 162.634 105.344 161.207 105.671C160.58 105.815 159.936 105.757 159.301 105.709C158.512 105.65 157.724 105.585 156.935 105.519C155.322 105.384 153.71 105.238 152.099 105.081C151.555 105.028 151.01 104.973 150.464 104.917C149.785 104.849 149.104 104.778 148.423 104.703C147.887 104.646 147.352 104.587 146.816 104.525C145.952 104.428 145.089 104.327 144.226 104.225C143.688 104.16 142.551 104.279 142.459 103.538C142.453 103.481 142.451 103.424 142.454 103.367C142.465 103.187 142.523 103.013 142.58 102.843C142.826 102.121 143.118 101.4 143.365 100.675C143.365 100.675 143.365 100.675 143.365 100.673C143.611 99.9576 143.811 99.2339 143.881 98.4959L143.883 98.4944C143.908 98.1992 143.916 97.9008 143.897 97.5992C143.876 97.2818 143.824 96.9581 143.667 96.6803C143.511 96.4026 143.238 96.1756 142.921 96.1439C142.659 96.1169 142.405 96.2217 142.154 96.2963C141.128 96.5978 139.974 96.3708 139.11 95.7455C138.876 95.5757 138.663 95.3773 138.48 95.1504C138.431 95.0901 138.384 95.0282 138.342 94.9663C137.611 93.9157 137.515 92.4444 138.128 91.3176C138.234 91.1224 138.363 90.9336 138.544 90.8066C138.845 90.5955 139.241 90.5844 139.609 90.586C140.223 90.5908 140.836 90.6098 141.448 90.6447C141.896 90.6701 142.354 90.7066 142.769 90.878C143.259 91.0843 143.765 91.4827 144.259 91.2875C144.599 91.1542 144.775 90.7844 144.895 90.44C145.152 89.7147 145.303 88.9529 145.344 88.1848C145.394 87.2738 145.351 86.3977 145.76 85.5598C145.84 85.3979 145.949 85.2677 146.076 85.163C146.519 84.7996 147.206 84.7392 147.787 84.7488C148.742 84.7646 149.666 85.0709 150.577 85.3614C151.488 85.6534 152.423 85.9359 153.378 85.9041C153.542 85.8978 153.71 85.8819 153.859 85.8121C154.721 85.4042 154.238 84.3107 154.167 83.6315C154.062 82.6269 153.592 80.9509 154.532 80.1955C155.51 79.413 157.176 79.6749 158.163 80.2701C158.539 80.4954 158.887 80.7874 159.117 81.162C159.596 81.9349 159.501 82.9697 159.058 83.7632C158.784 84.2536 158.393 84.6694 158.104 85.1503C157.439 86.2549 157.887 87.0833 159.047 87.5483C160.598 88.1705 162.331 88.0737 163.996 87.9435C164.357 87.915 164.78 87.9118 165.065 88.1007C165.146 88.153 165.216 88.2213 165.27 88.307C165.403 88.518 165.403 88.7767 165.375 89.0291Z" fill="#7FBFEB"/>
<path d="M154.488 73.66C153.978 73.0759 153.18 72.9061 152.434 72.9458C151.193 73.0077 149.263 74.2472 148.303 72.9411C147.9 72.3935 147.844 71.6619 147.935 70.9906C148.022 70.3351 148.234 69.6987 148.558 69.1226C148.896 68.5195 149.371 67.9227 149.331 67.2324C149.303 66.7039 148.961 66.2309 148.531 65.923C148.103 65.6136 147.592 65.4437 147.084 65.293C142.41 63.9059 137.457 63.7821 132.584 63.9503C131.386 63.99 129.996 64.2408 130.401 65.7929C130.669 66.8213 130.797 67.8069 130.713 68.8877C130.688 69.2083 130.645 69.5336 130.524 69.832C130.164 70.7176 129.15 71.2111 128.195 71.1826C127.753 71.1683 127.3 71.0524 126.966 70.7636C126.719 70.5525 126.555 70.2653 126.341 70.0209C125.27 68.802 123.324 69.1448 122.394 70.3732C121.951 70.9556 121.77 71.7285 121.908 72.4475C121.961 72.7189 122.056 72.9807 122.173 73.2299C122.822 74.6043 124.743 74.6868 126.055 74.4408C126.528 74.3535 127.101 74.1631 127.509 74.5107C127.898 74.8376 127.999 75.4137 128.023 75.8898C128.076 77.0024 127.747 78.099 127.533 79.1782C127.365 80.0257 127.004 81.3398 127.838 81.9493C128.623 82.5222 129.842 82.6666 130.769 82.884C131.943 83.1602 133.127 83.3982 134.31 83.6442C136.762 84.1553 139.215 84.6679 141.669 85.1805C142.659 85.3868 143.645 85.682 144.665 85.7027C145.813 85.7249 146.489 85.3662 146.816 84.2092C146.97 83.6649 146.998 83.0951 147.025 82.5301C147.076 81.4969 147.127 80.4638 147.176 79.4306C147.212 78.6783 147.26 77.8911 147.646 77.2452C148.033 76.5977 148.876 76.1564 149.558 76.477C150.222 76.7865 150.452 77.634 151.048 78.0562C151.734 78.5418 152.901 78.3847 153.569 77.9435C154.308 77.4547 154.74 76.5992 154.932 75.7549C155.097 75.0296 154.989 74.2361 154.488 73.66Z" fill="#7FBFEB"/>
<path d="M146.77 86.7566C146.768 87.0089 146.752 87.2533 146.751 87.4533C146.736 88.5468 146.527 89.6276 146.314 90.6989C146.238 91.0909 146.157 91.4892 145.96 91.84C145.603 92.478 145.025 92.6176 144.354 92.4462C143.822 92.3113 143.303 92.1304 142.804 91.9035C142.385 91.7146 141.98 91.4956 141.545 91.3432C140.988 91.1496 140.374 91.075 139.802 91.229C138.591 91.5575 138.136 92.6938 138.638 93.7873C138.793 94.1269 138.987 94.4682 139.237 94.7395C139.439 94.9601 139.675 95.1316 139.961 95.222C140.248 95.3141 140.555 95.3109 140.858 95.3077C141.239 95.3029 141.627 95.2966 141.993 95.1903C142.634 95.0014 143.054 94.684 143.672 95.0316C144.159 95.3045 144.38 95.614 144.47 96.0727C144.5 96.2219 144.514 96.3853 144.522 96.5678C144.533 96.8773 144.537 97.1868 144.535 97.4963C144.527 98.293 144.472 99.0881 144.37 99.8753C144.264 100.718 144.102 101.553 143.889 102.375C143.711 103.056 143.361 103.419 142.646 103.378C142.581 103.373 142.518 103.37 142.454 103.367C141.334 103.299 140.213 103.219 139.095 103.126C138.328 103.065 137.561 102.997 136.797 102.926C136.001 102.851 135.205 102.772 134.41 102.688C133.245 102.565 132.078 102.397 130.913 102.218C130.367 102.132 129.821 102.043 129.277 101.953C128.333 101.799 127.388 101.643 126.444 101.5C125.765 101.397 125.005 101.25 124.608 100.685C124.306 100.253 124.297 99.6864 124.327 99.1627C124.403 97.8073 124.662 96.4726 124.925 95.1427C125.014 94.6808 125.111 94.2095 125.366 93.8159C126.066 92.7414 127.642 93.2239 128.558 93.727C129.112 94.0301 129.583 94.6157 130.156 94.8475C131.043 95.2093 132.396 95.057 132.738 94.0428C133.059 93.0938 132.397 91.959 131.627 91.4305C130.686 90.7846 129.683 91.2861 128.672 91.4511C127.939 91.5718 126.841 91.6098 126.347 90.9242C126.052 90.5148 126.146 89.9942 126.206 89.526C126.277 88.9658 126.352 88.404 126.427 87.8437C126.581 86.6471 126.738 85.4504 126.895 84.2538C126.987 83.5364 126.966 82.4985 127.804 82.2239C128.307 82.0605 128.847 82.1954 129.353 82.2763C129.898 82.3636 130.443 82.4525 130.991 82.5398C132.142 82.7254 133.297 82.9508 134.454 83.0936C135.067 83.1698 135.755 83.154 136.087 82.5382C136.324 82.1001 136.171 81.6288 135.962 81.2162C135.549 80.4004 135.027 79.7116 135.098 78.7483C135.233 76.8835 137.025 75.9153 138.742 76.0915C138.804 76.0979 138.877 76.1153 138.945 76.1439C140.455 76.4264 141.212 77.6325 141.12 79.1387C141.067 80.002 140.688 80.8416 140.072 81.451C139.439 82.0795 138.172 82.8794 139.215 83.7459C140.22 84.5823 141.613 84.714 142.916 84.8124C143.64 84.8664 144.365 84.9219 145.092 84.9759C145.425 85.0013 145.773 85.0299 146.076 85.1632C146.138 85.1902 146.198 85.2219 146.255 85.2584C146.708 85.5457 146.774 86.1757 146.77 86.7566Z" fill="#7FBFEB"/>
<path d="M142.348 73.6615C141.632 73.6536 140.904 73.8456 140.331 74.2725C140.164 74.3551 140.003 74.4471 139.85 74.555C139.296 74.9375 138.744 75.5565 138.65 76.25C138.536 77.0848 139.363 77.4911 140.087 77.4641C140.89 77.434 141.682 76.9705 142.334 76.5389C142.932 76.1453 143.765 75.5993 143.983 74.8756C144.267 73.9297 143.026 73.6694 142.348 73.6615Z" fill="white"/>
<path d="M142.67 79.8828C142.408 79.6194 141.823 79.64 141.504 79.7336C140.713 79.9685 139.969 80.3446 139.339 80.8811C138.936 81.2255 138.003 82.0682 138.114 82.6919C138.114 83.0792 138.404 83.2474 138.78 83.2934C139.223 83.4093 139.775 83.3553 140.109 83.2791C140.874 83.1046 141.596 82.7776 142.243 82.3364C142.58 82.1063 142.891 81.8492 143.172 81.5524C143.399 81.3096 143.773 80.9795 143.775 80.6271C143.775 80.1272 143.222 79.9384 142.67 79.8828Z" fill="white"/>
<path d="M137.354 86.1853C137.219 85.9124 136.848 85.8013 136.575 85.7664C136.173 85.714 135.762 85.7981 135.411 85.9981C134.967 86.252 134.599 86.6059 134.348 87.0551C134.21 87.2979 134.461 87.474 134.808 87.547C134.888 87.6042 134.986 87.6455 135.072 87.6772C135.692 87.9057 136.473 87.7534 136.94 87.2788C137.195 87.0201 137.546 86.5758 137.354 86.1853Z" fill="white"/>
<path d="M134.654 81.8175C133.867 80.897 132.063 81.4858 131.253 82.0603C130.823 82.3651 129.822 83.2824 129.82 83.9188C129.531 84.452 129.487 84.998 130.329 85.2059C130.588 85.271 130.85 85.2852 131.11 85.2646C131.409 85.2948 131.725 85.2583 131.977 85.1884C132.859 84.9472 133.656 84.2076 134.184 83.449C134.662 82.9285 135.057 82.292 134.654 81.8175Z" fill="white"/>
<path d="M165.375 89.0291C165.368 89.0878 165.36 89.1481 165.351 89.2053C165.306 89.5068 165.26 89.8084 165.213 90.1115C163.715 90.7876 162.391 92.1604 161.372 93.265C158.672 96.1884 156.698 99.7132 153.8 102.462C152.792 103.417 151.681 104.262 150.464 104.917C149.785 104.849 149.104 104.778 148.423 104.703C148.602 104.628 148.782 104.547 148.956 104.459C152.619 102.616 154.975 99.0483 157.381 95.8773C159.399 93.2158 161.967 89.8909 165.375 89.0291Z" fill="white"/>
<path d="M145.157 99.1546C144.903 99.4038 144.642 99.6434 144.37 99.8751C144.045 100.154 143.71 100.419 143.366 100.673C143.366 100.675 143.366 100.675 143.366 100.675C142.936 100.994 142.493 101.294 142.045 101.581C141.104 102.181 140.117 102.695 139.095 103.125C138.328 103.065 137.562 102.997 136.797 102.925C138.344 102.391 139.822 101.649 141.174 100.734C142.082 100.121 142.963 99.4276 143.735 98.6499C143.783 98.6023 143.834 98.5499 143.881 98.496C144.135 98.2135 144.383 97.8675 144.535 97.4961C144.727 97.0263 144.765 96.5232 144.47 96.0725C144.459 96.0582 144.448 96.0408 144.437 96.0265C144.151 95.6297 143.537 95.5504 143.086 95.4694C142.615 95.3869 142.14 95.3472 141.661 95.3504C140.795 95.3567 139.939 95.5027 139.111 95.7456C138.919 95.8011 138.73 95.8646 138.541 95.9297C135.321 97.0501 132.896 99.4958 130.913 102.218C130.368 102.132 129.822 102.043 129.277 101.953C130.341 100.489 131.523 99.1149 132.901 97.9421C134.492 96.5851 136.34 95.5424 138.342 94.9663C138.638 94.8806 138.936 94.806 139.238 94.7394C139.415 94.7029 139.596 94.668 139.776 94.6378C141.042 94.422 142.371 94.4061 143.634 94.641C144.694 94.8394 145.997 95.1187 146.308 96.3122C146.598 97.4295 145.916 98.4039 145.157 99.1546Z" fill="white"/>
<path d="M162.019 99.5941C161.454 99.2068 160.548 99.4147 160.005 99.7512C159.713 99.9321 159.472 100.17 159.263 100.435C159.056 100.664 158.833 100.953 158.741 101.227C158.695 101.318 158.66 101.413 158.653 101.506C158.634 101.811 158.885 101.991 159.15 102.073C159.439 102.162 159.726 102.159 160.005 102.098C160.183 102.079 160.35 102.043 160.478 101.998C161.02 101.818 161.488 101.384 161.829 100.941C162.116 100.572 162.543 99.9512 162.019 99.5941Z" fill="white"/>
<path d="M146.444 86.0472C146.424 85.7726 146.403 85.4965 146.378 85.2219C146.438 85.1997 146.489 85.1616 146.49 85.1029C146.494 84.9807 146.282 84.9601 146.205 84.9569C144.997 84.895 143.792 84.7506 142.604 84.5268C142.005 84.4141 141.412 84.2808 140.823 84.1268C140.553 84.0554 140.283 83.984 140.017 83.9031C139.806 83.838 139.591 83.7602 139.409 83.6301C138.993 83.3285 138.957 82.8143 139.158 82.3699C139.38 81.8811 139.818 81.551 140.171 81.1622C140.855 80.4036 141.199 79.3387 140.944 78.3325C140.704 77.3913 139.993 76.6105 139.055 76.3391C138.128 76.0693 137.063 76.255 136.297 76.8454C135.551 77.4183 135.159 78.3817 135.202 79.3117C135.227 79.8148 135.395 80.2734 135.608 80.7242C135.825 81.1828 136.076 81.6542 136.062 82.1763C136.055 82.3953 135.997 82.6667 135.79 82.7858C135.595 82.8969 135.305 82.8397 135.092 82.8302C134.484 82.8 133.878 82.7556 133.272 82.6969C132.039 82.5779 130.81 82.4001 129.594 82.1636C129.296 82.1065 129.001 82.0446 128.704 81.9795C128.587 81.9541 128.407 81.9367 128.312 82.0319C128.226 82.1208 128.318 82.2112 128.415 82.2335C129.639 82.5001 130.875 82.7159 132.119 82.8683C132.729 82.9445 133.342 83.0048 133.956 83.0508C134.278 83.0746 134.6 83.0952 134.924 83.1127C135.206 83.1286 135.495 83.154 135.776 83.1175C136.033 83.0841 136.289 82.9873 136.449 82.7778C136.597 82.5826 136.641 82.3223 136.633 82.0843C136.619 81.5637 136.367 81.086 136.151 80.6258C135.936 80.1687 135.778 79.7148 135.771 79.2069C135.767 78.7388 135.87 78.2753 136.081 77.8595C136.495 77.0406 137.328 76.4915 138.255 76.5121C139.199 76.5327 139.966 77.231 140.29 78.0817C140.656 79.0419 140.398 80.1703 139.741 80.9416C139.393 81.3495 138.944 81.678 138.679 82.1509C138.444 82.5683 138.353 83.119 138.66 83.5238C138.949 83.9062 139.429 84.0697 139.872 84.1967C140.463 84.3681 141.058 84.5173 141.656 84.6474C142.85 84.9061 144.061 85.0886 145.279 85.187C145.454 85.2029 145.629 85.214 145.805 85.2251C145.909 86.39 145.967 87.5613 145.965 88.7309C145.963 89.7768 145.894 90.8941 145.36 91.8241C145.249 92.0225 145.106 92.2177 144.914 92.3447C144.716 92.4748 144.503 92.4748 144.28 92.4256C144.002 92.3653 143.734 92.2574 143.465 92.1669C143.181 92.0685 142.899 91.9717 142.615 91.8749C141.632 91.5369 140.548 91.0417 139.484 91.2226C139.026 91.302 138.606 91.5115 138.314 91.8797C138.063 92.1971 137.941 92.6097 137.922 93.0112C137.879 93.9238 138.371 94.8681 139.188 95.295C139.664 95.5458 140.214 95.622 140.744 95.6251C141.337 95.6299 141.926 95.5458 142.499 95.3982C142.873 95.3014 143.362 95.1109 143.74 95.2792C144.145 95.4569 144.272 95.9315 144.307 96.333C144.354 96.8599 144.307 97.4011 144.273 97.928C144.235 98.5199 144.18 99.1103 144.103 99.6991C144.03 100.278 143.938 100.856 143.827 101.429C143.724 101.961 143.61 102.492 143.413 102.999C143.315 103.245 143.197 103.483 143.058 103.708C142.948 103.881 143.505 103.954 143.61 103.786C144.188 102.861 144.364 101.721 144.537 100.662C144.729 99.4912 144.845 98.3073 144.886 97.1217C144.899 96.6678 144.918 96.1965 144.762 95.7616C144.6 95.3141 144.221 95.0347 143.759 94.9538C143.251 94.8665 142.74 95.0062 142.253 95.1331C141.713 95.276 141.159 95.3522 140.599 95.3299C140.114 95.3109 139.629 95.1839 139.258 94.857C138.912 94.5539 138.66 94.119 138.553 93.6715C138.374 92.9033 138.574 91.8971 139.385 91.5749C139.809 91.4067 140.291 91.4861 140.72 91.5987C141.256 91.7384 141.777 91.9384 142.301 92.1177C142.851 92.3066 143.405 92.5367 143.972 92.6732C144.513 92.8049 145.106 92.7843 145.537 92.3907C145.9 92.0558 146.113 91.5607 146.256 91.0972C146.411 90.5894 146.484 90.0641 146.516 89.5356C146.586 88.3786 146.524 87.2026 146.444 86.0472Z" fill="#575DA9"/>
<path d="M144.062 102.48C144.006 102.323 143.838 102.202 143.675 102.232C143.768 102.116 143.837 101.975 143.851 101.829C143.854 101.788 143.854 101.748 143.848 101.708C143.778 101.204 143.256 101.207 142.899 101.346C142.757 101.402 142.619 101.459 142.48 101.519C142.481 101.369 142.376 101.21 142.221 101.145C141.842 100.983 141.354 101.177 140.98 101.269C140.037 101.5 139.099 101.767 138.141 101.918C137.668 101.991 137.19 102.037 136.712 102.03C136.273 102.024 135.801 101.994 135.382 101.85C135.079 101.743 134.719 101.531 134.684 101.177C134.643 100.772 135.019 100.504 135.335 100.34C135.752 100.124 136.196 99.9625 136.653 99.861C137.036 99.7753 137.472 99.7689 137.801 99.5293C138.506 99.0103 137.722 98.3834 137.12 98.4199C136.866 98.4358 136.62 98.5151 136.366 98.5532C135.869 98.631 135.365 98.5469 134.86 98.5564C133.836 98.5754 132.824 99.0024 132.092 99.7197C131.814 99.9943 131.578 100.305 131.302 100.58C130.935 100.947 130.505 101.331 130.008 101.473C129.569 101.597 129.118 101.643 128.664 101.64C128.537 101.64 128.409 101.632 128.285 101.634C128.053 102.459 127.971 103.316 127.89 104.167C127.844 104.632 127.807 105.101 127.736 105.565C127.693 105.851 127.623 106.135 127.569 106.419C127.583 106.433 127.601 106.449 127.62 106.458C127.96 106.644 128.572 106.509 128.948 106.509C129.469 106.509 129.989 106.508 130.508 106.503C131.572 106.489 132.637 106.455 133.697 106.376C135.911 106.209 137.985 105.755 140.086 105.062C140.783 104.832 141.477 104.586 142.135 104.262C142.484 104.09 142.824 103.898 143.143 103.675C143.419 103.481 143.803 103.248 143.987 102.959C144.076 102.818 144.117 102.638 144.062 102.48Z" fill="#FFC9B3"/>
<path d="M142.213 101.737C141.023 102.438 139.763 103.183 138.344 103.232C138.301 103.233 138.201 103.245 138.201 103.305C138.201 103.364 138.303 103.379 138.344 103.378C139.842 103.327 141.156 102.583 142.416 101.842C142.556 101.759 142.294 101.689 142.213 101.737Z" fill="#F04F0A"/>
<path d="M143.54 102.338C142.28 103.555 140.676 104.398 138.952 104.724C138.765 104.76 138.892 104.892 139.028 104.865C140.814 104.528 142.482 103.674 143.786 102.411C143.88 102.321 143.607 102.273 143.54 102.338Z" fill="#F04F0A"/>
<path d="M128.018 101.361C127.977 101.345 127.936 101.332 127.895 101.323C127.823 101.308 127.749 101.304 127.679 101.28C127.511 101.221 127.376 101.091 127.211 101.024C127.054 100.961 126.89 100.921 126.73 100.867C126.355 100.742 125.99 100.585 125.63 100.424C124.894 100.097 124.155 99.7419 123.357 99.5928C123.171 99.5578 122.973 99.5356 122.802 99.6118C122.538 99.7245 122.415 100.023 122.334 100.297C122.07 101.178 121.978 102.097 121.943 103.013C121.926 103.468 121.956 103.933 121.921 104.389C121.891 104.787 121.748 105.178 121.767 105.587C121.788 105.958 121.945 106.343 122.257 106.544C122.457 106.671 122.697 106.714 122.932 106.749C124.257 106.942 125.601 106.96 126.941 106.976C127.106 106.979 127.277 106.981 127.434 106.923C127.925 106.746 128.082 106.109 128.145 105.659C128.263 104.817 128.341 103.911 128.455 103.046C128.512 102.616 128.836 101.945 128.458 101.586C128.374 101.507 128.266 101.461 128.161 101.416C128.114 101.397 128.066 101.377 128.018 101.361Z" fill="#575DA9"/>
<path d="M127.528 101.075C125.163 100.191 122.884 99.0769 120.732 97.7597C119.659 97.1026 118.62 96.3932 117.615 95.6362C116.663 94.9204 115.766 94.1285 114.797 93.4365C114.576 93.2794 114.351 93.127 114.121 92.9858C114.394 91.0368 114.705 89.0943 115.055 87.1581C115.412 85.1774 115.812 83.2031 116.25 81.2383C116.496 80.1337 116.757 79.0307 117.028 77.9308C117.053 77.8277 116.715 77.8039 116.684 77.9308C116.203 79.875 115.762 81.8303 115.36 83.7935C114.957 85.7646 114.593 87.7453 114.27 89.7323C114.103 90.7528 113.948 91.7748 113.805 92.7969C113.029 92.3589 112.195 92.0335 111.297 91.9542C111.237 91.9494 111.113 91.9462 111.086 92.0161C111.058 92.0827 111.156 92.1176 111.205 92.124C112.13 92.2049 112.983 92.5652 113.768 93.0413C113.765 93.0572 113.763 93.0746 113.76 93.0937C113.751 93.1635 113.884 93.1953 113.987 93.1778C114.108 93.254 114.227 93.3349 114.344 93.4159C115.322 94.0935 116.212 94.8839 117.157 95.6028C119.142 97.1153 121.272 98.4405 123.506 99.5546C124.759 100.18 126.044 100.737 127.355 101.227C127.477 101.272 127.738 101.153 127.528 101.075Z" fill="#03172A"/>
<path d="M127.154 106.911C124.865 107.003 122.565 106.801 120.331 106.298C119.277 106.062 118.228 105.787 117.184 105.506C116.169 105.235 115.16 104.936 114.175 104.574C113.072 104.17 111.999 103.678 110.996 103.06C110.9 103.002 110.586 103.083 110.753 103.184C112.565 104.3 114.595 104.993 116.638 105.557C118.809 106.155 121.002 106.723 123.245 106.96C124.543 107.096 125.849 107.139 127.154 107.087C127.204 107.084 127.325 107.071 127.325 106.999C127.325 106.928 127.201 106.909 127.154 106.911Z" fill="#03172A"/>
<path d="M290.347 149.112H200.792V107.428H290.347V149.112Z" fill="#F04F0A"/>
<path d="M206.175 165.953H200.792V142.356H206.175V165.953Z" fill="#F04F0A"/>
<path d="M295.5 109.718H194.953V106.855H295.5V109.718Z" fill="#9E2F00"/>
<path d="M290.347 165.953H284.964V142.356H290.347V165.953Z" fill="#F04F0A"/>
<path d="M206.52 126.152H284.735V115.043H206.52V126.152ZM285.308 126.724H205.945V114.47H285.308V126.724Z" fill="#9E2F00"/>
<path d="M230.511 120.597C230.511 121.483 229.792 122.2 228.907 122.2C228.021 122.2 227.304 121.483 227.304 120.597C227.304 119.712 228.021 118.995 228.907 118.995C229.792 118.995 230.511 119.712 230.511 120.597Z" fill="white"/>
<path d="M263.949 120.597C263.949 121.483 263.232 122.2 262.346 122.2C261.462 122.2 260.743 121.483 260.743 120.597C260.743 119.712 261.462 118.995 262.346 118.995C263.232 118.995 263.949 119.712 263.949 120.597Z" fill="white"/>
<path d="M206.52 142.644H284.735V131.534H206.52V142.644ZM285.308 143.215H205.945V130.961H285.308V143.215Z" fill="#9E2F00"/>
<path d="M230.511 137.089C230.511 137.974 229.792 138.692 228.907 138.692C228.021 138.692 227.304 137.974 227.304 137.089C227.304 136.203 228.021 135.486 228.907 135.486C229.792 135.486 230.511 136.203 230.511 137.089Z" fill="white"/>
<path d="M263.949 137.089C263.949 137.974 263.232 138.692 262.346 138.692C261.462 138.692 260.743 137.974 260.743 137.089C260.743 136.203 261.462 135.486 262.346 135.486C263.232 135.486 263.949 136.203 263.949 137.089Z" fill="white"/>
<path d="M259.885 106.855H230.338V103.649H259.885V106.855Z" fill="#333337"/>
<path d="M250.608 104.565H239.615V92.9985H250.608V104.565Z" fill="#333337"/>
<path d="M285.651 98.4962H205.488L213.045 54.2916H293.21L285.651 98.4962Z" fill="#7FBFEB"/>
<path d="M206.424 93.0176L205.488 98.4962H285.651L286.589 93.0176H206.424Z" fill="white"/>
<path d="M206.507 97.6358H284.927L292.191 55.15H213.771L206.507 97.6358ZM286.376 99.3546H204.471L212.322 53.4328H294.227L286.376 99.3546Z" fill="#333337"/>
<path d="M224.612 92.9794V81.781H216.252V92.9794H224.612Z" fill="#FDDF9E"/>
<path d="M223.463 84.8744C222.898 84.8744 222.436 85.333 222.436 85.9012V89.2293C222.436 89.7959 222.898 90.2561 223.463 90.2561H225.763C226.328 90.2561 226.788 89.7959 226.788 89.2293V85.9012C226.788 85.333 226.328 84.8744 225.763 84.8744H223.463ZM225.763 91.402H223.463C222.265 91.402 221.291 90.4275 221.291 89.2293V85.9012C221.291 84.703 222.265 83.7285 223.463 83.7285H225.763C226.96 83.7285 227.934 84.703 227.934 85.9012V89.2293C227.934 90.4275 226.96 91.402 225.763 91.402Z" fill="#FDDF9E"/>
<path d="M275.119 88.7388C275.468 87.4342 275.476 86.0027 275.463 84.6363C275.417 79.3624 275.019 74.1505 274.654 68.8862C274.606 68.1927 274.558 67.5023 274.509 66.8087C274.357 64.5948 274.2 62.3745 273.795 60.1907C273.406 58.0799 272.941 55.95 271.378 54.4026C270.368 53.4059 269.248 53.2235 268.185 54.3439C267.763 54.7851 267.488 55.3422 267.245 55.904C265.115 60.8445 265.565 66.1168 265.066 71.3192C264.657 75.5963 264.511 79.9211 265.027 84.195C265.211 85.7202 265.487 87.2581 266.136 88.6515C266.785 90.045 267.848 91.2956 269.259 91.905C271.045 92.6748 273.174 92.2018 274.289 90.5878C274.679 90.0212 274.942 89.3959 275.119 88.7388Z" fill="#F9B736"/>
<path d="M270.475 58.4908C270.086 60.2382 269.963 62.0046 269.869 63.7868C269.566 69.4495 269.266 75.1106 268.963 80.7716L268.511 89.264C268.445 90.5162 268.379 91.7653 268.312 93.0175H238.964C238.094 86.9199 237.823 80.7383 238.148 74.5868C238.507 67.8244 239.324 60.8127 240.964 54.2359C241.059 53.855 241.248 53.5725 241.384 53.236L241.249 53.3328C241.889 51.887 242.871 51.3284 244.23 50.6094C246.298 49.5144 248.01 47.7225 250.278 47.048C252.691 46.3275 255.262 46.1355 257.753 46.4957C258.269 46.5703 258.785 46.6687 259.274 46.8497C259.81 47.048 260.304 47.3449 260.796 47.6385C263.057 49.0018 265.292 50.4126 267.496 51.868C268.523 52.5441 269.742 53.1725 270.656 53.9946C270.691 54.0264 270.723 54.0581 270.753 54.0915C271.681 55.0818 270.734 57.3386 270.475 58.4908Z" fill="#F9B736"/>
<path d="M259.12 49.2477C259.059 49.9445 258.871 50.5999 258.66 51.2538C258.526 51.6728 258.383 52.0902 258.263 52.5155C257.195 56.2451 256.349 60.0398 255.769 63.8757C255.493 65.7136 255.328 67.5752 255.227 69.4432C255.128 71.2318 255.085 73.0267 255.051 74.8106C254.96 79.5226 255.154 84.233 255.257 88.9434C255.287 90.302 255.309 91.6589 255.316 93.0175H245.66C246.125 84.3584 245.96 75.6613 246.355 67.0022C246.515 63.4774 246.769 59.9572 247.195 56.4514C247.566 53.4074 247.809 49.8492 250.505 47.9098C252.046 46.8005 253.974 46.3275 255.871 46.2672C256.617 46.2434 257.801 46.2513 258.436 46.7084C259.113 47.1972 259.185 48.505 259.12 49.2477Z" fill="white"/>
<path d="M249.128 52.3364C249.944 52.7268 250.926 52.957 251.808 53.0649C252.875 53.1934 253.946 53.1696 255.003 52.9681C255.689 52.8379 256.366 52.6443 257.004 52.365C257.09 52.3269 257.176 52.2856 257.26 52.2491C257.282 52.2396 257.298 52.2317 257.309 52.2269C257.311 52.2269 257.312 52.2269 257.312 52.2253C257.325 52.2206 257.338 52.2142 257.352 52.2094C257.425 52.1777 257.498 52.1444 257.571 52.111C257.763 52.0222 257.952 51.9269 258.141 51.8285C258.277 51.7555 258.412 51.6826 258.547 51.6048C258.585 51.4873 258.623 51.3715 258.661 51.254C258.869 50.6017 259.06 49.9447 259.12 49.248C259.185 48.5052 259.114 47.1975 258.436 46.7087C257.801 46.2516 256.617 46.2437 255.873 46.2675C253.975 46.3278 252.046 46.8007 250.505 47.9101C249.202 48.848 248.474 50.1637 248.025 51.6143C248.349 51.9111 248.718 52.1396 249.128 52.3364Z" fill="#FFC9B3"/>
<path d="M271.965 84.5267C271.724 83.384 271.335 82.2318 270.654 81.3589C269.997 80.5177 268.966 79.9861 267.985 79.6687C266.885 79.3132 265.723 79.2021 264.574 79.1862C264.078 79.1783 263.436 79.0878 262.956 79.1798C262.413 79.2846 262.613 79.7274 262.917 80.0924C264.981 82.5698 266.007 85.8852 265.707 89.0942C265.657 89.6307 265.573 90.1703 265.631 90.7051C265.69 91.24 265.919 91.7875 266.368 92.0843C266.822 92.3874 267.404 92.3842 267.95 92.3731C269.048 92.3462 270.151 92.3208 271.243 92.1795C271.396 92.1589 271.551 92.1351 271.678 92.051C271.894 91.9065 271.97 91.6288 272.022 91.3749C272.383 89.6513 272.448 87.869 272.227 86.1233C272.162 85.6138 272.08 85.071 271.965 84.5267Z" fill="#F9B736"/>
<path d="M220.801 66.3534C220.646 66.601 220.454 66.6724 220.225 66.8216C219.919 67.0263 219.654 67.2723 219.33 67.4612C218.862 67.7326 218.348 67.9865 217.803 67.9643C216.916 67.9246 216.24 67.1723 215.742 66.4343C215.337 65.836 214.978 65.2091 214.618 64.5806C214.123 63.7157 213.626 62.8507 213.131 61.9842C213.05 61.8445 212.971 61.7049 212.89 61.5652C212.65 61.1462 212.312 60.6765 212.138 60.1924C212.098 60.1749 212.058 60.1559 212.019 60.1369L212.082 60.094C211.46 59.4655 210.843 58.7879 210.625 57.9372C210.3 56.6644 211.06 55.1773 209.946 54.1155C209.655 53.8394 209.273 53.6743 208.879 53.6045C208.321 53.5077 207.73 53.595 207.226 53.8505C206.84 54.0473 206.508 54.3361 206.143 54.571C205.745 54.8265 205.277 55.044 204.818 54.8725C204.405 54.717 203.998 54.3488 204.063 53.8664C204.22 52.6808 205.989 51.865 207 51.6492C208.221 51.3905 209.524 51.6318 210.625 52.1952C211.117 52.4475 211.671 52.6761 212.093 53.03C212.62 53.4712 213.063 54.0013 213.499 54.5266C214.445 55.6582 215.391 56.785 216.339 57.9102C217.121 58.8402 217.905 59.7687 218.691 60.7003C218.992 61.0574 219.292 61.4176 219.563 61.7969C220.19 62.6762 220.647 63.6713 220.909 64.7171C221.043 65.2456 221.106 65.8693 220.801 66.3534Z" fill="#FFC9B3"/>
<path d="M220.802 66.3534C220.646 66.601 220.454 66.6724 220.225 66.8216C219.919 67.0263 219.654 67.2723 219.33 67.4612C218.862 67.7326 218.348 67.9865 217.804 67.9643C216.916 67.9246 216.24 67.1723 215.742 66.4343C215.337 65.836 214.979 65.2091 214.618 64.5806C214.123 63.7157 213.626 62.8507 213.131 61.9842C214.239 60.6574 215.328 59.3148 216.339 57.9102C217.121 58.8402 217.905 59.7687 218.691 60.7003C218.992 61.0574 219.292 61.4176 219.564 61.7969C220.19 62.6762 220.648 63.6713 220.909 64.7171C221.043 65.2456 221.106 65.8693 220.802 66.3534Z" fill="white"/>
<path d="M210.1 52.4171C209.187 52.1219 208.202 52.2013 207.278 52.3965C206.845 52.4901 206.451 52.6488 206.082 52.8964C205.71 53.1471 205.382 53.4566 205.058 53.7661C204.944 53.8724 205.272 53.9311 205.353 53.855C205.943 53.2916 206.546 52.7488 207.365 52.5678C208.2 52.3822 209.102 52.3012 209.927 52.5678C209.99 52.5885 210.113 52.5932 210.162 52.5361C210.213 52.479 210.16 52.4361 210.1 52.4171Z" fill="#F04F0A"/>
<path d="M232.414 74.4632C231.71 73.0015 230.513 71.8319 229.335 70.7447C228.734 70.1908 228.124 69.6449 227.539 69.072C226.929 68.4768 226.339 67.8626 225.761 67.2373C224.603 65.9835 223.493 64.6885 222.362 63.4093C221.786 62.757 221.205 62.1095 220.608 61.4763C220.322 61.1716 220.032 60.87 219.74 60.5732C219.267 60.0955 218.778 59.2258 218.12 59.8717C217.05 60.9208 216.093 62.0762 215.198 63.2792C214.406 64.3441 212.992 65.5979 213.973 66.9151C216.774 70.6828 219.934 74.1823 223.398 77.3469C224.016 77.9119 224.647 78.469 225.369 78.8911C226.958 79.8212 229.137 80.2259 230.784 79.3101C231.143 79.1102 231.505 78.8927 231.829 78.6372C232.429 78.1659 232.784 77.4977 232.873 76.7407C232.965 75.9551 232.756 75.1663 232.414 74.4632Z" fill="#F9B736"/>
<path d="M241.327 68.8149C241.55 68.5054 241.764 68.1912 241.972 67.8722C244.668 63.7617 246.227 58.9132 246.431 54.0012C246.457 53.4362 246.458 52.8522 246.244 52.33C245.919 51.5365 245.048 51.0398 244.205 51.0493C243.297 51.0588 242.053 51.381 241.235 51.7603C239.707 52.4729 238.434 53.6505 237.395 54.9773C236.355 56.3041 235.531 57.7848 234.713 59.2576C233.608 61.2446 232.575 63.2808 231.261 65.125C229.921 67.0057 228.521 68.8514 227.325 70.8289C226.58 72.0605 226.571 73.6348 226.722 75.0219C226.798 75.7155 227.079 76.4598 227.052 77.1486C227.023 77.8882 226.803 78.4198 227.356 79.08C229.142 81.2004 231.921 78.8325 233.395 77.6295C235.47 75.9361 237.252 73.9205 238.953 71.8637C239.775 70.8702 240.582 69.864 241.327 68.8149Z" fill="#F9B736"/>
<path d="M209.162 59.4937C209.132 59.6349 209.102 59.7777 209.07 59.9174C208.95 60.4697 208.829 61.022 208.705 61.5727C208.619 61.9488 208.534 62.3266 208.446 62.7043C207.958 64.8421 207.445 66.9735 206.931 69.1049C206.783 69.7175 206.636 70.3301 206.455 70.9332C206.22 71.7125 205.928 72.4743 205.582 73.2107C205.51 73.363 205.425 73.5249 205.272 73.5995C205.177 73.6455 205.068 73.6487 204.961 73.6503C203.074 73.6868 201.181 73.444 199.367 72.9313C198.918 72.806 198.457 72.6536 198.121 72.3314C197.361 71.603 197.604 70.7523 198.351 70.1937C198.895 69.7858 199.467 69.3716 199.794 68.778C200.292 67.8718 200.084 66.664 199.387 65.8991C198.692 65.1341 197.586 64.8056 196.561 64.9547C196.105 65.0214 195.651 65.1817 195.31 65.4912C194.871 65.8879 194.664 66.5021 194.683 67.0941C194.701 67.6861 194.925 68.2558 195.234 68.7605C195.378 69.0002 195.548 69.2303 195.647 69.4938C196.045 70.5365 195.326 71.1808 194.318 71.1173C192.355 70.992 190.413 70.5381 188.597 69.781C187.845 69.4668 187.364 69.116 187.405 68.259C187.48 66.6561 187.553 65.0468 187.815 63.4629C187.891 63.0058 187.984 62.5456 188.199 62.1345C188.987 60.6205 190.639 61.0458 191.393 62.3345C191.568 62.6313 191.627 62.9535 191.928 63.1518C192.392 63.455 193.015 63.3582 193.514 63.228C193.818 63.1487 194.125 63.0614 194.388 62.8884C194.801 62.6186 195.058 62.1742 195.301 61.7457C195.858 60.7649 195.683 59.0937 194.498 58.6224C193.966 58.4113 193.369 58.57 192.806 58.6668C192.063 58.7938 191.265 58.8461 190.52 58.9065C189.89 58.9572 189.287 58.6969 189.037 58.0986C188.833 57.613 188.86 57.0638 188.932 56.5433C189.164 54.8896 189.825 53.3311 190.501 51.8059C190.811 51.1076 191.217 50.7124 192 50.7886C192.833 50.8711 193.663 51.0235 194.48 51.1917C197.554 51.8297 200.597 52.6693 203.634 53.485C204.142 53.6199 204.65 53.7564 205.158 53.8881C205.436 53.9627 205.717 54.0373 205.994 54.1087C207.364 54.4626 209.127 54.788 209.449 56.4258C209.646 57.4241 209.37 58.5208 209.162 59.4937Z" fill="#7FBFEB"/>
<path d="M213.355 57.4686C213.141 56.5672 212.541 55.9863 211.633 55.972C210.627 55.9562 209.478 56.0625 208.492 55.845C207.967 55.7292 207.472 55.4848 206.938 55.4165C206.45 55.3547 205.712 55.5213 205.67 56.1117C205.651 56.3926 205.75 56.6767 205.939 56.8846C206.11 57.0719 206.342 57.1925 206.57 57.3067C206.935 57.4924 207.294 57.6384 207.67 57.7924C208.333 58.0622 208.914 58.4272 209.413 58.943C209.66 59.2017 209.912 59.4429 210.235 59.6064C210.536 59.7587 210.866 59.8524 211.201 59.8984C211.855 59.9889 212.542 59.8762 212.968 59.3287C213.368 58.8129 213.506 58.1019 213.355 57.4686Z" fill="#FFC9B3"/>
<path d="M213.08 59.0032C213.036 58.9985 212.992 59.0001 212.947 59.0128C212.923 59.0207 212.877 59.0366 212.869 59.0651C212.803 59.2651 212.696 59.4555 212.553 59.6142C212.484 59.692 212.406 59.765 212.32 59.8269C212.277 59.8587 212.242 59.8825 212.195 59.9095C212.176 59.9206 212.16 59.9269 212.146 59.9332C212.081 59.9094 211.996 59.911 211.936 59.9428C211.874 59.9761 211.871 60.0348 211.936 60.0682C212.241 60.2205 212.577 59.9777 212.79 59.7682C212.974 59.5841 213.118 59.3603 213.201 59.1112C213.223 59.0429 213.136 59.0112 213.08 59.0032Z" fill="#F04F0A"/>
<path d="M232.225 73.7919C231.124 72.2778 229.845 70.8986 228.416 69.6893C228.356 69.6385 228.253 69.6353 228.181 69.6575C228.132 69.6734 228.059 69.7258 228.119 69.7782C229.535 70.9748 230.802 72.3397 231.893 73.8379C231.963 73.9347 232.295 73.8871 232.225 73.7919Z" fill="#F04F0A"/>
<path d="M240.878 57.9007C240.861 57.7753 240.518 57.788 240.534 57.9007C240.678 58.9941 240.532 60.0908 240.351 61.17C240.169 62.246 239.988 63.3189 239.885 64.4045C239.826 65.025 239.785 65.6471 239.763 66.2693C239.758 66.3899 240.101 66.3946 240.105 66.2693C240.145 65.1742 240.242 64.0791 240.394 62.992C240.548 61.9112 240.788 60.8447 240.893 59.7575C240.951 59.1386 240.959 58.518 240.878 57.9007Z" fill="#F04F0A"/>
<path d="M244.357 52.5249C244.482 52.3837 244.609 52.2424 244.735 52.0996C244.998 51.8028 245.262 51.5045 245.523 51.2061C246.063 50.5967 246.601 49.9872 247.141 49.3762C247.249 49.2572 246.918 49.2048 246.845 49.2873C246.361 49.8349 245.879 50.3808 245.396 50.9268C244.922 51.4632 244.431 51.9917 243.971 52.5408C243.784 52.7646 243.651 53.0074 243.709 53.3058C243.773 53.628 243.933 53.9406 244.052 54.2437C244.316 54.9103 244.577 55.5785 244.841 56.245C244.903 56.4037 244.965 56.5609 245.027 56.718C245.087 56.8719 245.2 57.0624 245.193 57.2306C245.187 57.3861 245.054 57.4797 244.947 57.5766C244.809 57.7051 244.67 57.8337 244.53 57.9622C244.257 58.213 243.986 58.4637 243.713 58.7129C243.487 58.9208 243.227 59.1192 243.048 59.3715C242.868 59.6271 242.883 59.927 242.911 60.2238C242.949 60.5793 242.989 60.9348 243.033 61.2887C243.122 61.9791 243.229 62.6679 243.354 63.3535C243.63 64.8945 243.998 66.4197 244.447 67.9211C244.481 68.0258 244.819 68.0068 244.779 67.8735C244.378 66.5387 244.044 65.1818 243.781 63.8137C243.652 63.1377 243.54 62.46 243.443 61.7791C243.395 61.4347 243.352 61.0888 243.311 60.7428C243.276 60.4254 243.2 60.0762 243.243 59.7572C243.287 59.4382 243.536 59.2382 243.757 59.0335C244.017 58.7954 244.276 58.5574 244.533 58.3193C244.798 58.0765 245.066 57.8353 245.328 57.5877C245.409 57.5115 245.492 57.4322 245.522 57.3211C245.561 57.1703 245.495 57.0211 245.441 56.883C245.182 56.2244 244.923 55.5657 244.665 54.9087C244.533 54.5754 244.401 54.2406 244.271 53.9073C244.155 53.62 243.955 53.2693 244.07 52.9535C244.128 52.79 244.244 52.6535 244.357 52.5249Z" fill="#F04F0A"/>
<path d="M262.675 50.1206C262.391 49.6572 262.083 49.2065 261.756 48.7716C261.596 48.5574 261.429 48.3479 261.259 48.1416C261.21 48.0813 261.123 48.0701 261.048 48.0797C261.015 48.086 260.88 48.1289 260.929 48.1876C261.599 49.0018 262.245 49.8842 262.729 50.8237C262.851 51.0649 262.926 51.3157 262.867 51.5855C262.81 51.841 262.667 52.0727 262.537 52.2965C262.25 52.7996 261.962 53.3027 261.675 53.8074C261.097 54.8136 260.521 55.8214 259.945 56.8276C259.825 57.0371 259.647 57.2672 259.61 57.5116C259.577 57.7354 259.715 57.948 259.845 58.1179C260.082 58.4242 260.382 58.6654 260.67 58.9193C260.953 59.1669 261.243 59.4367 261.383 59.7954C261.586 60.3128 261.361 60.8635 261.205 61.3602C260.864 62.4506 260.521 63.5393 260.169 64.6248C259.466 66.7991 258.726 68.9607 257.89 71.0874C257.041 73.249 256.12 75.3851 255.222 77.5277C255.111 77.7943 254.997 78.0641 254.886 78.3323C254.833 78.4545 255.171 78.4863 255.216 78.3784C256.12 76.2247 257.039 74.0742 257.912 71.9079C258.776 69.7685 259.545 67.5943 260.263 65.4025C260.624 64.2979 260.975 63.1917 261.324 62.0824C261.41 61.811 261.494 61.5396 261.58 61.2666C261.661 61.0095 261.75 60.7508 261.789 60.4842C261.853 60.0509 261.729 59.6573 261.456 59.3193C261.216 59.0241 260.915 58.7892 260.631 58.5385C260.355 58.2925 259.834 57.8576 259.972 57.4386C260.055 57.1863 260.234 56.9482 260.366 56.7181C260.51 56.4673 260.655 56.215 260.799 55.9626C261.091 55.4516 261.385 54.939 261.677 54.4263C261.965 53.9232 262.254 53.4186 262.542 52.9155C262.683 52.6695 262.826 52.4235 262.965 52.1759C263.084 51.9616 263.197 51.7331 263.226 51.4871C263.283 50.9904 262.922 50.519 262.675 50.1206Z" fill="#F04F0A"/>
<path d="M273.422 83.9061C272.632 82.5905 271.546 81.4557 270.27 80.6066C269.627 80.1797 268.945 79.8242 268.223 79.5497C267.367 79.2243 266.48 79.1053 265.568 79.0815C265.398 79.0767 265.23 79.0735 265.058 79.0719C265.104 76.5707 265.153 74.0679 265.338 71.5715C265.52 69.075 265.842 66.5801 266.434 64.144C266.604 63.4409 266.801 62.7458 267.015 62.0538C267.225 61.3793 267.431 60.7016 267.536 60.0017C267.553 59.8891 267.21 59.8748 267.191 60.0017C267.098 60.6413 266.913 61.2603 266.723 61.8777C266.539 62.4728 266.364 63.068 266.207 63.6726C265.893 64.8915 265.647 66.1294 265.457 67.3753C265.076 69.859 264.909 72.3713 264.817 74.8821C264.768 76.2755 264.741 77.6722 264.717 79.0672C263.928 79.0592 263.141 79.064 262.355 79.0608C262.305 79.0608 262.184 79.0767 262.184 79.1481C262.184 79.2211 262.308 79.2354 262.355 79.2354C263.165 79.2402 263.974 79.2418 264.784 79.2465C264.842 79.2672 264.925 79.2687 264.984 79.2481C265.025 79.2481 265.066 79.2481 265.107 79.2481C265.996 79.256 266.879 79.3052 267.729 79.5862C269.162 80.0607 270.48 80.9193 271.548 81.981C272.141 82.573 272.659 83.2348 273.09 83.9522C273.151 84.0522 273.487 84.0141 273.422 83.9061Z" fill="#F04F0A"/>
<path d="M268.666 66.0105C267.895 67.2294 266.887 68.2753 266.106 69.4878C266.041 69.5894 266.373 69.6338 266.438 69.5338C267.217 68.3213 268.226 67.277 268.998 66.0582C269.063 65.9534 268.73 65.909 268.666 66.0105Z" fill="#F04F0A"/>
<path d="M273.308 81.8288C272.221 80.6575 271.072 79.4561 269.529 78.9149C269.467 78.8927 269.342 78.8911 269.294 78.9467C269.244 79.0054 269.297 79.0451 269.355 79.0673C270.848 79.5894 271.962 80.7876 273.011 81.916C273.086 81.997 273.416 81.9446 273.308 81.8288Z" fill="#F04F0A"/>
<path d="M265.527 90.6669C265.2 91.2287 264.539 90.6653 264.212 90.3797C263.924 90.1241 263.668 89.8162 263.428 89.4972C262.859 88.7355 262.465 87.907 262.095 87.0484C261.906 86.6136 261.726 86.1707 261.529 85.7264C261.484 85.6296 261.441 85.5312 261.397 85.4344C261.391 85.4185 261.384 85.4058 261.379 85.3899C260.773 84.0266 260.856 82.2285 261.056 80.7287C261.116 80.278 261.208 79.8098 261.459 79.4638C261.473 79.4448 261.486 79.4273 261.5 79.4099C261.552 79.3448 261.611 79.2845 261.673 79.2305C261.74 79.1734 261.808 79.121 261.883 79.0766C261.986 79.0861 262.111 79.1083 262.265 79.1416C262.879 79.2686 263.484 79.459 264.051 79.7368C264.385 79.9002 264.708 80.097 265.003 80.3272C265.344 81.1715 265.471 82.1555 265.539 83.0871C265.55 83.2442 265.561 83.4029 265.571 83.5569C265.604 84.1361 265.631 84.717 265.647 85.2995C265.658 85.6534 265.666 86.0105 265.671 86.366C265.676 86.758 265.677 87.15 265.673 87.542C265.673 87.8181 265.668 88.0975 265.661 88.3752C265.65 88.9386 265.801 90.1924 265.527 90.6669Z" fill="#F04F0A"/>
<path d="M261.121 93.0175H238.445L231.941 67.0022H254.616L255.227 69.4432L261.121 93.0175Z" fill="#575DA9"/>
<path d="M247.517 67.6896H238.01V66.431H247.517V67.6896Z" fill="#333337"/>
<path d="M265.671 86.366C265.655 86.3676 265.641 86.3676 265.625 86.3676C264.241 86.3565 262.795 86.0566 261.524 85.4614C261.475 85.4376 261.426 85.4154 261.38 85.39C261.121 85.263 260.87 85.1249 260.629 84.9726C260.074 84.6218 259.515 84.2536 258.875 84.0806C258.188 83.895 257.464 83.9315 256.761 83.9505C256.076 83.9696 255.393 83.9569 254.709 83.8886C253.362 83.7521 252.037 83.4236 250.781 82.9205C250.161 82.6713 249.537 82.3872 248.967 82.0349C248.747 81.8984 248.515 81.7207 248.475 81.4477C248.447 81.2493 248.529 81.0763 248.685 80.9748C248.445 80.6447 247.998 80.5098 247.82 80.1241C247.699 79.8606 247.791 79.575 248.021 79.448C247.742 79.1957 247.418 78.8052 247.636 78.4323C247.858 78.045 248.494 77.9403 248.897 77.907C250.256 77.7927 251.629 77.8308 252.979 78.0212C253.008 78.0244 253.036 78.0292 253.067 78.0323C253.033 78.0212 253.003 78.0101 252.968 77.999C252.143 77.7197 251.262 77.6245 250.4 77.515C249.875 77.4467 249.005 77.4499 248.877 76.7579C248.712 75.8676 250.238 76.0771 250.735 76.0691C251.28 76.0596 251.824 76.0596 252.37 76.0739C253.773 76.1088 255.181 76.2834 256.52 76.7087C257.49 77.0182 258.475 77.4245 259.363 77.9181C260.094 78.3244 260.804 78.7814 261.553 79.1703C261.594 79.1909 261.634 79.2115 261.673 79.2306C261.751 79.2718 261.83 79.3115 261.911 79.3496C262.475 79.6178 263.067 79.8368 263.606 80.1574C264.076 80.4383 264.446 80.8018 264.77 81.2414C265.086 81.6667 265.228 82.2095 265.408 82.711C265.452 82.8348 265.497 82.9602 265.539 83.0871C265.551 83.2443 265.562 83.403 265.571 83.5569C265.604 84.1362 265.631 84.7171 265.647 85.2995C265.658 85.6534 265.666 86.0105 265.671 86.366Z" fill="#FFC9B3"/>
<path d="M265.647 85.2995C265.632 84.7171 265.605 84.1362 265.571 83.5569C265.562 83.403 265.551 83.2443 265.54 83.0871C265.471 82.1555 265.344 81.1715 265.003 80.3272C264.708 80.0971 264.386 79.9003 264.051 79.7368C263.484 79.4591 262.88 79.2687 262.265 79.1417C262.111 79.1084 261.986 79.0861 261.883 79.0766C261.715 79.0623 261.61 79.0862 261.553 79.1703C261.516 79.2226 261.5 79.3004 261.5 79.4099C261.5 79.4988 261.512 79.6051 261.534 79.7384C261.737 81.0541 261.765 82.3936 261.697 83.722C261.669 84.3124 261.534 84.898 261.524 85.4614C262.796 86.0566 264.241 86.3565 265.625 86.3676C265.641 86.3676 265.655 86.3676 265.671 86.366C265.667 86.0105 265.659 85.6534 265.647 85.2995Z" fill="white"/>
<path d="M254.087 80.0907C252.148 79.8764 250.214 79.5987 248.293 79.2559C248.235 79.2463 248.108 79.2511 248.08 79.3178C248.053 79.3876 248.151 79.4162 248.201 79.4241C250.123 79.7685 252.056 80.0462 253.998 80.2589C254.055 80.2652 254.181 80.2652 254.208 80.1986C254.236 80.1288 254.138 80.0954 254.087 80.0907Z" fill="#F04F0A"/>
<path d="M253.765 81.7081C252.175 81.4986 250.591 81.2303 249.02 80.9034C248.964 80.8923 248.836 80.9002 248.809 80.9653C248.78 81.0367 248.88 81.0621 248.928 81.0732C250.5 81.4002 252.084 81.6684 253.675 81.8763C253.733 81.8842 253.859 81.8826 253.886 81.816C253.914 81.7461 253.814 81.7144 253.765 81.7081Z" fill="#F04F0A"/>
<path d="M253.852 78.0324C253.741 78.0244 253.63 78.0102 253.52 77.9895C253.504 77.9863 253.49 77.9832 253.476 77.98C253.474 77.98 253.473 77.98 253.471 77.98C253.471 77.98 253.469 77.98 253.468 77.98C253.441 77.9737 253.412 77.9673 253.387 77.9594C253.333 77.9451 253.277 77.9308 253.222 77.9133C253.182 77.9006 253.133 77.8975 253.09 77.9038C253.058 77.9086 253.012 77.9197 252.987 77.9435C252.933 77.9991 252.995 78.0466 253.049 78.0641C253.279 78.1371 253.52 78.1831 253.761 78.2022C253.806 78.2038 253.85 78.2054 253.893 78.1911C253.92 78.1847 253.958 78.1673 253.972 78.1403C254.004 78.0752 253.898 78.0355 253.852 78.0324Z" fill="#F04F0A"/>
<path d="M261.422 34.7023C261.765 35.0102 262.111 35.3244 262.403 35.6974C263.317 36.8718 263.364 38.5493 263.157 40.0269C263.046 40.8299 262.873 41.6362 262.967 42.4503C263.113 43.7184 264.435 45.3769 262.943 46.1387C262.184 46.5275 261.343 46.7085 260.508 46.8783C258.38 47.3115 256.23 47.7004 254.046 47.6798C252.195 47.6623 250.35 47.3512 248.501 47.2607C247.642 47.2179 246.804 47.2322 245.972 47.3782C245.304 47.494 244.43 47.3607 243.871 46.8608C243.627 46.6434 243.527 46.2847 243.514 45.9498C243.503 45.6134 243.568 45.2848 243.595 44.9516C243.649 44.2548 243.527 43.5343 243.246 42.89C242.986 42.2964 242.595 41.7663 242.395 41.1474C241.864 39.4968 243.181 38.3145 243.262 36.729C243.305 35.8482 242.967 34.9943 242.867 34.1166C242.565 31.4647 244.382 28.7809 246.666 27.5843C247.579 27.1066 248.52 26.594 249.518 26.3416C251.23 25.9099 253.251 25.8353 254.99 26.4226C256.469 26.9209 257.958 27.3351 259.086 28.6334C260.053 29.7459 260.624 31.2536 260.648 32.7534C260.658 33.3485 260.618 33.9611 261.072 34.3817C261.188 34.488 261.305 34.596 261.422 34.7023Z" fill="#F04F0A"/>
<path d="M259.172 48.5241C259.042 49.7699 257.744 50.392 256.717 50.911C255.514 51.5236 254.177 51.8125 252.822 51.8505C251.402 51.8886 249.648 51.4363 249.286 49.8461C249.14 49.2049 249.285 48.5701 249.25 47.9321C249.246 47.8654 249.242 47.7988 249.235 47.7305C249.177 47.1179 249.007 46.4926 248.918 45.888C248.823 45.2262 248.635 44.5119 248.659 43.8343C248.677 43.4058 248.777 42.9931 249.04 42.6186C249.53 41.9171 250.478 41.4727 251.286 41.4394C252.125 41.4029 252.613 41.0458 253.327 40.6411C253.866 40.3332 254.501 40.2523 255.122 40.2348C255.947 40.2126 256.528 40.2459 256.89 41.0712C257.288 41.9774 257.445 42.9471 257.774 43.8803C258.156 44.9658 258.537 46.0514 258.918 47.1354C259.037 47.475 259.156 47.8178 259.18 48.1749C259.186 48.2971 259.185 48.4114 259.172 48.5241Z" fill="#FFC9B3"/>
<path d="M252.73 48.121C251.656 48.5146 250.129 48.5146 249.235 47.7306C249.177 47.118 249.007 46.4927 248.918 45.888C248.823 45.2262 248.635 44.512 248.659 43.8343C249.034 43.2297 249.696 42.8027 250.388 42.6028C251.929 42.1584 254.915 42.1632 255.488 44.1216C256.025 45.9721 254.287 47.5528 252.73 48.121Z" fill="#F04F0A"/>
<path d="M244.633 38.8907C244.381 36.4482 244.584 33.9581 245.247 31.5949C245.539 30.557 246.006 29.7777 246.882 29.1366C247.555 28.6446 248.339 28.3033 249.145 28.0986C250.24 27.8209 251.294 28.0938 252.373 28.2875C253.408 28.4716 254.349 28.9652 255.155 29.6063C256.857 30.9617 257.866 32.9201 258.185 35.0151C258.342 36.0467 258.123 36.964 257.925 37.9702C257.517 40.0397 256.672 42.1092 255.766 44.0106C254.538 46.5879 251.354 47.9988 248.677 46.8149C248.261 46.6308 247.891 46.4134 247.623 46.188C247.285 45.9055 247.014 45.5564 246.749 45.204C246.734 45.1866 246.722 45.1675 246.707 45.1501C246.106 44.3359 245.609 43.3646 245.323 42.3918C244.985 41.2491 244.755 40.0762 244.633 38.8907Z" fill="#FFC9B3"/>
<path d="M256.577 36.7908C256.243 36.1147 255.722 35.61 254.99 35.3291C254.36 35.0879 253.683 34.9784 253.068 34.6991C252.027 34.2277 251.248 33.3041 250.734 32.2852C250.22 31.2663 249.942 30.1473 249.669 29.038C247.741 29.1348 246.168 30.6441 245.579 32.4232C245.325 33.1898 245.22 34.0515 244.671 34.6403C244.541 34.7816 244.374 34.9054 244.184 34.9213C243.433 34.9847 243.887 32.9533 243.981 32.5295C244.193 31.5487 244.597 30.6108 245.16 29.7823C246.28 28.1397 248.133 27.17 250.11 26.9827C250.567 26.9383 251.024 26.9399 251.481 26.9415C251.905 26.9431 252.33 26.9447 252.751 27.0002C253.683 27.1256 254.557 27.5176 255.414 27.9048C255.763 28.062 256.116 28.2206 256.43 28.4381C257.011 28.8396 257.439 29.4189 257.849 29.9902C258.296 30.6139 258.766 31.298 259.029 32.0201C259.294 32.7533 259.306 33.7024 259.312 34.4753C259.325 36.1227 258.953 37.7986 258.031 39.1825C257.936 39.3238 257.814 39.4761 257.644 39.4888C257.371 39.5095 257.312 38.9397 257.314 38.7604C257.323 38.1493 256.915 37.624 256.703 37.0749C256.663 36.9765 256.622 36.8829 256.577 36.7908Z" fill="#F04F0A"/>
<path d="M257.839 36.4528C258.043 36.4941 258.243 36.575 258.404 36.7052C258.637 36.8956 258.764 37.1749 258.823 37.4543C258.94 38.0018 258.829 38.562 258.661 39.0874C258.34 40.0904 257.786 41.0521 256.904 41.6965C256.739 41.8171 256.539 41.9314 256.326 41.8965C256.122 41.8631 255.966 41.6997 255.858 41.533C255.177 40.4713 255.723 39.2032 255.91 38.1177C256.066 37.2115 256.587 36.2052 257.839 36.4528Z" fill="#FFC9B3"/>
<path d="M244.82 36.4402C244.803 36.3894 244.825 36.3338 244.849 36.2894C245.324 35.3895 246.157 35.1927 247.049 35.1308C247.266 35.115 247.999 35.0911 248.023 35.5006C248.03 35.626 247.955 35.7355 247.86 35.7894C247.764 35.8402 247.653 35.845 247.544 35.8402C247.333 35.8291 247.123 35.7831 246.911 35.7704C246.504 35.7482 246.111 35.8529 245.741 36.0132C245.628 36.0624 244.854 36.5306 244.82 36.4402Z" fill="#9E2F00"/>
<path d="M254.877 36.4401C254.898 36.3893 254.873 36.3338 254.849 36.2878C254.346 35.3831 253.476 35.1752 252.548 35.1038C252.319 35.0863 251.556 35.0562 251.537 35.4656C251.53 35.591 251.61 35.7021 251.708 35.7561C251.808 35.8084 251.926 35.8148 252.038 35.8116C252.257 35.8021 252.478 35.7577 252.695 35.7481C253.121 35.7291 253.53 35.8386 253.916 36.0021C254.033 36.0529 254.846 36.5306 254.877 36.4401Z" fill="#9E2F00"/>
<path d="M252.581 36.8639C252.705 36.7179 252.906 36.7131 253.078 36.7798C253.224 36.8099 253.363 36.8941 253.455 37.0067C253.589 37.1766 253.641 37.3971 253.636 37.6098C253.633 37.805 253.597 38.005 253.485 38.1716C253.362 38.3621 253.139 38.4303 252.92 38.3827C252.909 38.3811 252.9 38.3748 252.89 38.3716C252.859 38.3637 252.827 38.3526 252.798 38.3367C252.797 38.3367 252.797 38.3367 252.797 38.3367C252.775 38.3272 252.752 38.3192 252.733 38.3081C252.689 38.2859 252.646 38.2605 252.611 38.2256C252.44 38.0685 252.37 37.8066 252.368 37.5797C252.367 37.4463 252.389 37.3035 252.436 37.1734C252.467 37.0591 252.509 36.948 252.581 36.8639Z" fill="#333337"/>
<path d="M246.05 36.9844C246.174 36.8368 246.375 36.8321 246.545 36.9003C246.693 36.9305 246.832 37.013 246.924 37.1273C247.058 37.2971 247.11 37.5177 247.105 37.7304C247.102 37.9256 247.064 38.124 246.955 38.2906C246.831 38.4826 246.607 38.5509 246.39 38.5033C246.378 38.5017 246.369 38.4953 246.358 38.4922C246.328 38.4826 246.296 38.4731 246.267 38.4572C246.266 38.4572 246.266 38.4572 246.266 38.4572C246.243 38.4477 246.221 38.4398 246.202 38.4271C246.158 38.4049 246.115 38.3811 246.078 38.3462C245.909 38.189 245.839 37.9256 245.837 37.7002C245.836 37.5669 245.858 37.4241 245.905 37.2923C245.936 37.1781 245.978 37.067 246.05 36.9844Z" fill="#333337"/>
<path d="M251.081 43.552C250.597 44.0281 249.904 44.1598 249.293 44.0709C248.713 43.9868 248.153 43.6297 247.809 43.0425C247.744 42.933 247.685 42.795 247.801 42.6981C247.852 42.6569 247.912 42.6442 247.971 42.6363C248.469 42.568 248.958 42.7394 249.451 42.7711C250.05 42.8092 250.673 42.7045 251.267 42.6108C251.365 42.5966 251.494 42.5998 251.53 42.7172C251.551 42.787 251.524 42.8648 251.495 42.9314C251.391 43.1822 251.248 43.3869 251.081 43.552Z" fill="white"/>
<path d="M249.74 41.4807C249.519 41.4728 249.299 41.4649 249.083 41.4188C248.926 41.3871 248.55 41.303 248.52 41.1078C248.504 40.9983 248.551 40.8507 248.569 40.7396C248.588 40.6126 248.61 40.4856 248.632 40.3587C248.677 40.1063 248.724 39.854 248.773 39.6016C248.967 38.5923 249.175 37.5861 249.261 36.5608C249.27 36.445 248.927 36.4371 248.916 36.5608C248.821 37.6956 248.577 38.8081 248.367 39.927C248.318 40.1968 248.269 40.4682 248.226 40.7396C248.205 40.8665 248.151 41.0284 248.186 41.1554C248.21 41.2459 248.283 41.3014 248.358 41.3506C248.766 41.6141 249.27 41.6378 249.74 41.6569C249.791 41.6585 249.911 41.6395 249.911 41.568C249.911 41.4966 249.788 41.4839 249.74 41.4807Z" fill="#F04F0A"/>
<path d="M255.856 34.5707C254.147 34.3152 252.676 33.1677 251.979 31.5886C251.781 31.1379 251.649 30.6618 251.586 30.1745C251.57 30.0491 251.227 30.0603 251.243 30.1745C251.479 31.979 252.643 33.5582 254.303 34.3088C254.768 34.5215 255.261 34.6643 255.766 34.7405C255.823 34.7485 255.95 34.7453 255.977 34.6786C256.006 34.6088 255.907 34.5786 255.856 34.5707Z" fill="#9E2F00"/>
<path d="M256.518 33.3661C255.441 33.0535 254.542 32.2552 254.085 31.2331C254.038 31.1284 253.7 31.1585 253.754 31.2807C254.239 32.3631 255.207 33.1884 256.345 33.5169C256.414 33.5375 256.525 33.5423 256.58 33.4867C256.634 33.4312 256.575 33.382 256.518 33.3661Z" fill="#9E2F00"/>
<path d="M257.565 28.6334C257.469 28.5731 257.158 28.6509 257.322 28.7572C258.268 29.3619 258.914 30.3903 259.069 31.5012C259.087 31.6266 259.428 31.6139 259.414 31.5012C259.249 30.3236 258.565 29.273 257.565 28.6334Z" fill="#9E2F00"/>
<path d="M246.069 29.7696C245.433 30.36 245.109 31.1726 244.758 31.9471C244.425 32.6867 244.02 33.4675 243.293 33.8897C243.127 33.9881 243.441 34.0706 243.538 34.0135C245.095 33.1041 245.111 31.0266 246.364 29.8569C246.479 29.7506 246.149 29.6935 246.069 29.7696Z" fill="#9E2F00"/>
<path d="M261.74 38.9667C261.885 38.2652 261.91 37.5431 261.688 36.8559C261.653 36.748 261.313 36.7702 261.356 36.9019C261.775 38.1938 261.275 39.5317 260.842 40.7458C260.45 41.8472 260.078 43.0185 260.388 44.1882C260.532 44.7389 260.823 45.2452 261.28 45.5943C261.345 45.6419 261.442 45.6483 261.516 45.6245C261.562 45.6102 261.643 45.5546 261.578 45.5038C260.729 44.8579 260.515 43.6994 260.65 42.6932C260.823 41.3997 261.473 40.2364 261.74 38.9667Z" fill="#9E2F00"/>
<path d="M262.24 44.7406C261.767 44.501 261.457 43.9963 261.438 43.4694C261.433 43.3472 261.089 43.3504 261.094 43.4694C261.116 44.0566 261.475 44.5994 261.997 44.8628C262.067 44.8993 262.168 44.9009 262.24 44.8628C262.3 44.8311 262.303 44.7724 262.24 44.7406Z" fill="#9E2F00"/>
<path d="M243.783 41.8361C243.352 41.3045 243.194 40.5903 243.359 39.9253C243.383 39.8222 243.045 39.7983 243.014 39.9253C242.848 40.6014 243.014 41.341 243.451 41.8838C243.5 41.9441 243.589 41.9552 243.663 41.9441C243.695 41.9393 243.83 41.898 243.783 41.8361Z" fill="#9E2F00"/>
</svg>
