<svg xmlns="http://www.w3.org/2000/svg" width="26" height="24" viewBox="0 0 26 24" fill="none">
<path d="M23.6663 19.3333C24.18 19.3335 24.6738 19.5314 25.0455 19.8858C25.4172 20.2403 25.6384 20.7241 25.663 21.2372C25.6877 21.7502 25.5141 22.2531 25.1781 22.6416C24.8421 23.0301 24.3696 23.2744 23.8583 23.324L23.6663 23.3333H2.33301C1.81939 23.333 1.32555 23.1352 0.953826 22.7807C0.582103 22.4263 0.360992 21.9424 0.336309 21.4294C0.311626 20.9164 0.485264 20.4135 0.821242 20.025C1.15722 19.6365 1.62978 19.3922 2.14101 19.3426L2.33301 19.3333H23.6663ZM23.6663 9.99996C24.1968 9.99996 24.7055 10.2107 25.0806 10.5857C25.4556 10.9608 25.6663 11.4695 25.6663 12C25.6663 12.5304 25.4556 13.0391 25.0806 13.4142C24.7055 13.7892 24.1968 14 23.6663 14H2.33301C1.80257 14 1.29387 13.7892 0.918794 13.4142C0.543722 13.0391 0.333008 12.5304 0.333008 12C0.333008 11.4695 0.543722 10.9608 0.918794 10.5857C1.29387 10.2107 1.80257 9.99996 2.33301 9.99996H23.6663ZM23.6663 0.666626C24.1968 0.666626 24.7055 0.87734 25.0806 1.25241C25.4556 1.62749 25.6663 2.13619 25.6663 2.66663C25.6663 3.19706 25.4556 3.70577 25.0806 4.08084C24.7055 4.45591 24.1968 4.66663 23.6663 4.66663H2.33301C1.80257 4.66663 1.29387 4.45591 0.918794 4.08084C0.543722 3.70577 0.333008 3.19706 0.333008 2.66663C0.333008 2.13619 0.543722 1.62749 0.918794 1.25241C1.29387 0.87734 1.80257 0.666626 2.33301 0.666626H23.6663Z" fill="#003A71"/>
</svg>