<svg width="24" height="24" viewBox="0 0 24 24" fill="none" xmlns="http://www.w3.org/2000/svg">
  <path d="M22.5 6.00018C22.5 5.20453 22.1839 4.44146 21.6213 3.87885C21.0587 3.31625 20.2956 3.00018 19.5 3.00018H18.75V2.27127C18.75 1.86768 18.4397 1.52127 18.0361 1.50111C17.9347 1.49623 17.8333 1.51198 17.7382 1.54742C17.6431 1.58286 17.5561 1.63724 17.4826 1.70728C17.4091 1.77732 17.3506 1.86155 17.3106 1.95487C17.2706 2.04818 17.25 2.14865 17.25 2.25018V3.00018H6.75V2.27127C6.75 1.86768 6.43969 1.52127 6.03609 1.50111C5.93469 1.49623 5.83334 1.51198 5.7382 1.54742C5.64307 1.58286 5.55611 1.63724 5.48261 1.70728C5.40911 1.77732 5.3506 1.86155 5.31062 1.95487C5.27063 2.04818 5.25001 2.14865 5.25 2.25018V3.00018H4.5C3.70435 3.00018 2.94129 3.31625 2.37868 3.87885C1.81607 4.44146 1.5 5.20453 1.5 6.00018V6.56268C1.5 6.6124 1.51975 6.6601 1.55492 6.69526C1.59008 6.73042 1.63777 6.75018 1.6875 6.75018H22.3125C22.3622 6.75018 22.4099 6.73042 22.4451 6.69526C22.4802 6.6601 22.5 6.6124 22.5 6.56268V6.00018ZM1.5 19.5002C1.5 20.2958 1.81607 21.0589 2.37868 21.6215C2.94129 22.1841 3.70435 22.5002 4.5 22.5002H19.5C20.2956 22.5002 21.0587 22.1841 21.6213 21.6215C22.1839 21.0589 22.5 20.2958 22.5 19.5002V8.3908C22.5 8.3535 22.4852 8.31774 22.4588 8.29136C22.4324 8.26499 22.3967 8.25017 22.3594 8.25017H1.64062C1.60333 8.25017 1.56756 8.26499 1.54119 8.29136C1.51482 8.31774 1.5 8.3535 1.5 8.3908V19.5002ZM17.625 9.75017C17.8475 9.75017 18.065 9.81615 18.25 9.93977C18.435 10.0634 18.5792 10.2391 18.6644 10.4447C18.7495 10.6502 18.7718 10.8764 18.7284 11.0947C18.685 11.3129 18.5778 11.5133 18.4205 11.6707C18.2632 11.828 18.0627 11.9352 17.8445 11.9786C17.6262 12.022 17.4 11.9997 17.1945 11.9145C16.9889 11.8294 16.8132 11.6852 16.6896 11.5002C16.566 11.3152 16.5 11.0977 16.5 10.8752C16.5 10.5768 16.6185 10.2907 16.8295 10.0797C17.0405 9.8687 17.3266 9.75017 17.625 9.75017ZM17.625 13.5002C17.8475 13.5002 18.065 13.5662 18.25 13.6898C18.435 13.8134 18.5792 13.9891 18.6644 14.1947C18.7495 14.4002 18.7718 14.6264 18.7284 14.8447C18.685 15.0629 18.5778 15.2633 18.4205 15.4207C18.2632 15.578 18.0627 15.6851 17.8445 15.7286C17.6262 15.772 17.4 15.7497 17.1945 15.6645C16.9889 15.5794 16.8132 15.4352 16.6896 15.2502C16.566 15.0652 16.5 14.8477 16.5 14.6252C16.5 14.3268 16.6185 14.0407 16.8295 13.8297C17.0405 13.6187 17.3266 13.5002 17.625 13.5002ZM13.875 9.75017C14.0975 9.75017 14.315 9.81615 14.5 9.93977C14.685 10.0634 14.8292 10.2391 14.9144 10.4447C14.9995 10.6502 15.0218 10.8764 14.9784 11.0947C14.935 11.3129 14.8278 11.5133 14.6705 11.6707C14.5132 11.828 14.3127 11.9352 14.0945 11.9786C13.8762 12.022 13.65 11.9997 13.4445 11.9145C13.2389 11.8294 13.0632 11.6852 12.9396 11.5002C12.816 11.3152 12.75 11.0977 12.75 10.8752C12.75 10.5768 12.8685 10.2907 13.0795 10.0797C13.2905 9.8687 13.5766 9.75017 13.875 9.75017ZM13.875 13.5002C14.0975 13.5002 14.315 13.5662 14.5 13.6898C14.685 13.8134 14.8292 13.9891 14.9144 14.1947C14.9995 14.4002 15.0218 14.6264 14.9784 14.8447C14.935 15.0629 14.8278 15.2633 14.6705 15.4207C14.5132 15.578 14.3127 15.6851 14.0945 15.7286C13.8762 15.772 13.65 15.7497 13.4445 15.6645C13.2389 15.5794 13.0632 15.4352 12.9396 15.2502C12.816 15.0652 12.75 14.8477 12.75 14.6252C12.75 14.3268 12.8685 14.0407 13.0795 13.8297C13.2905 13.6187 13.5766 13.5002 13.875 13.5002ZM13.875 17.2502C14.0975 17.2502 14.315 17.3162 14.5 17.4398C14.685 17.5634 14.8292 17.7391 14.9144 17.9447C14.9995 18.1502 15.0218 18.3764 14.9784 18.5947C14.935 18.8129 14.8278 19.0133 14.6705 19.1707C14.5132 19.328 14.3127 19.4352 14.0945 19.4786C13.8762 19.522 13.65 19.4997 13.4445 19.4145C13.2389 19.3294 13.0632 19.1852 12.9396 19.0002C12.816 18.8152 12.75 18.5977 12.75 18.3752C12.75 18.0768 12.8685 17.7907 13.0795 17.5797C13.2905 17.3687 13.5766 17.2502 13.875 17.2502ZM10.125 13.5002C10.3475 13.5002 10.565 13.5662 10.75 13.6898C10.935 13.8134 11.0792 13.9891 11.1644 14.1947C11.2495 14.4002 11.2718 14.6264 11.2284 14.8447C11.185 15.0629 11.0778 15.2633 10.9205 15.4207C10.7632 15.578 10.5627 15.6851 10.3445 15.7286C10.1262 15.772 9.90005 15.7497 9.69448 15.6645C9.48891 15.5794 9.31321 15.4352 9.1896 15.2502C9.06598 15.0652 9 14.8477 9 14.6252C9 14.3268 9.11853 14.0407 9.3295 13.8297C9.54048 13.6187 9.82663 13.5002 10.125 13.5002ZM10.125 17.2502C10.3475 17.2502 10.565 17.3162 10.75 17.4398C10.935 17.5634 11.0792 17.7391 11.1644 17.9447C11.2495 18.1502 11.2718 18.3764 11.2284 18.5947C11.185 18.8129 11.0778 19.0133 10.9205 19.1707C10.7632 19.328 10.5627 19.4352 10.3445 19.4786C10.1262 19.522 9.90005 19.4997 9.69448 19.4145C9.48891 19.3294 9.31321 19.1852 9.1896 19.0002C9.06598 18.8152 9 18.5977 9 18.3752C9 18.0768 9.11853 17.7907 9.3295 17.5797C9.54048 17.3687 9.82663 17.2502 10.125 17.2502ZM6.375 13.5002C6.5975 13.5002 6.81501 13.5662 7.00002 13.6898C7.18502 13.8134 7.32922 13.9891 7.41436 14.1947C7.49951 14.4002 7.52179 14.6264 7.47838 14.8447C7.43498 15.0629 7.32783 15.2633 7.1705 15.4207C7.01316 15.578 6.81271 15.6851 6.59448 15.7286C6.37625 15.772 6.15005 15.7497 5.94448 15.6645C5.73891 15.5794 5.56321 15.4352 5.4396 15.2502C5.31598 15.0652 5.25 14.8477 5.25 14.6252C5.25 14.3268 5.36853 14.0407 5.5795 13.8297C5.79048 13.6187 6.07663 13.5002 6.375 13.5002ZM6.375 17.2502C6.5975 17.2502 6.81501 17.3162 7.00002 17.4398C7.18502 17.5634 7.32922 17.7391 7.41436 17.9447C7.49951 18.1502 7.52179 18.3764 7.47838 18.5947C7.43498 18.8129 7.32783 19.0133 7.1705 19.1707C7.01316 19.328 6.81271 19.4352 6.59448 19.4786C6.37625 19.522 6.15005 19.4997 5.94448 19.4145C5.73891 19.3294 5.56321 19.1852 5.4396 19.0002C5.31598 18.8152 5.25 18.5977 5.25 18.3752C5.25 18.0768 5.36853 17.7907 5.5795 17.5797C5.79048 17.3687 6.07663 17.2502 6.375 17.2502Z" fill="#A6A4BC"/>
</svg>