<svg xmlns="http://www.w3.org/2000/svg" width='24px' height='24px' viewBox="0 0 24 24"  >
    <path
      d="M13.6202 23.9531H9.76932C9.1261 23.9531 8.60286 23.4309 8.60286 22.7889V14.12H6.35616C5.71294 14.12 5.1897 13.5976 5.1897 12.9558V9.24115C5.1897 8.59918 5.71294 8.07697 6.35616 8.07697H8.60286V6.2168C8.60286 4.37238 9.18315 2.80316 10.2808 1.67908C11.3834 0.549866 12.9243 -0.046875 14.737 -0.046875L17.6739 -0.0421143C18.316 -0.0410156 18.8383 0.481201 18.8383 1.12207V4.57104C18.8383 5.21301 18.3152 5.73523 17.6722 5.73523L15.6948 5.73596C15.0918 5.73596 14.9382 5.85663 14.9054 5.89362C14.8513 5.95496 14.7869 6.12836 14.7869 6.60718V8.07678H17.5236C17.7296 8.07678 17.9292 8.1275 18.1008 8.22308C18.4708 8.42944 18.7009 8.81964 18.7009 9.24133L18.6994 12.956C18.6994 13.5976 18.1762 14.1198 17.533 14.1198H14.7869V22.7889C14.7869 23.4309 14.2634 23.9531 13.6202 23.9531ZM10.0126 22.5461H13.377V13.4901C13.377 13.0615 13.7265 12.7128 14.1558 12.7128H17.2897L17.291 9.48395H14.1556C13.7263 9.48395 13.377 9.13531 13.377 8.70667V6.60718C13.377 6.0575 13.4329 5.43237 13.8486 4.96252C14.351 4.39453 15.1426 4.32898 15.6945 4.32898L17.4286 4.32825V1.3645L14.7359 1.36011C11.8228 1.36011 10.0126 3.22119 10.0126 6.2168V8.70667C10.0126 9.13513 9.66328 9.48395 9.23397 9.48395H6.59943V12.7128H9.23397C9.66328 12.7128 10.0126 13.0615 10.0126 13.4901V22.5461Z"
      fill="currentColor"
    />
  </svg>