<svg xmlns="http://www.w3.org/2000/svg"  viewBox="0 0 70 80" fill="none">
  <path d="M64.0952 55.0895C63.5745 54.7055 62.8407 54.8167 62.4567 55.3377C62.0726 55.8586 62.1838 56.5922 62.7048 56.9761C65.6252 59.1284 67.3688 62.5772 67.3688 66.2016C67.3688 72.5177 62.2303 77.6562 55.9142 77.6562C49.5971 77.6562 44.4579 72.5177 44.4579 66.2016C44.4579 59.8845 49.5973 54.7453 55.9142 54.7453C56.6815 54.7453 57.4476 54.8216 58.1912 54.972C58.8254 55.0989 59.4438 54.69 59.5721 54.0558C59.7004 53.4212 59.2902 52.803 58.6559 52.6747C57.7596 52.4934 56.8373 52.4016 55.9142 52.4016C53.7909 52.4016 51.7784 52.8839 49.9798 53.7442C48.4842 52.1966 46.5548 51.0909 44.457 50.5955L33.094 47.9114V45.275H42.9702C43.6174 45.275 44.1421 44.7505 44.1421 44.1031V40.3516C44.1421 39.7042 43.6174 39.1797 42.9702 39.1797C42.3231 39.1797 41.7984 39.7042 41.7984 40.3516V42.9313H34.2584C37.6346 40.6003 39.7979 36.7878 40.0181 32.6486H41.3923C41.5292 32.6486 41.6642 32.6416 41.7982 32.6306V34.8828C41.7982 35.5302 42.3229 36.0547 42.9701 36.0547C43.6173 36.0547 44.142 35.5302 44.142 34.8828V31.8142C45.4734 30.9239 46.3523 29.4072 46.3523 27.6886C46.3523 25.9705 45.4737 24.4539 44.1426 23.5634V17.4291C44.1426 12.772 42.3295 8.39531 39.0376 5.10531C35.7473 1.81313 31.3704 0 26.7135 0C17.1031 0 9.28447 7.81875 9.28447 17.4292V23.5634C7.95322 24.4538 7.07463 25.9703 7.07463 27.6886C7.07463 29.4069 7.95322 30.9234 9.28447 31.8139V44.1031C9.28447 44.7505 9.80916 45.275 10.4563 45.275H20.3331V47.9116L8.96947 50.5956C3.8576 51.8042 0.287598 56.3159 0.287598 61.5673V65.6767C0.287598 66.3241 0.812285 66.8486 1.45947 66.8486C2.10666 66.8486 2.63135 66.3241 2.63135 65.6767V61.5673C2.63135 57.4078 5.45947 53.8341 9.50853 52.8766L14.8426 51.6166L11.0537 57.4159C10.7367 57.9013 10.8221 58.5455 11.2546 58.9314L15.2417 62.4886L14.0267 68.8214C13.947 69.2366 14.0971 69.6625 14.4195 69.9359L23.5206 77.6562H11.3126V69.0422C11.3126 68.3948 10.7879 67.8703 10.1407 67.8703C9.49353 67.8703 8.96885 68.3948 8.96885 69.0422V77.6562H2.63135V71.1453C2.63135 70.498 2.10666 69.9734 1.45947 69.9734C0.812285 69.9734 0.287598 70.498 0.287598 71.1453V78.8281C0.287598 79.4755 0.812285 80 1.45947 80H55.9142C63.5226 80 69.7126 73.8102 69.7126 66.2016C69.7126 61.8358 67.6127 57.6817 64.0952 55.0895ZM35.7585 62.2773L36.9699 68.5911L29.0768 75.2867L36.3651 52.5042L39.8601 57.8536L36.1295 61.182C35.8217 61.4566 35.6809 61.8725 35.7585 62.2773ZM26.7135 74.982L20.8845 56.7603L25.7548 63.6928C25.9742 64.0052 26.332 64.1909 26.7137 64.1909C27.0954 64.1909 27.4531 64.0052 27.6726 63.6928L32.5429 56.7603L26.7135 74.982ZM31.4195 41.8758C24.1731 45.3266 15.7074 39.9825 15.732 31.9503V26.1795L16.5329 26.0283C20.1753 25.3409 23.3343 23.2778 25.4285 20.2192L26.7135 18.342L27.9987 20.2194C30.0926 23.2778 33.2518 25.3406 36.8942 26.0283L37.6953 26.1795V31.9503C37.6953 36.1695 35.232 40.0655 31.4195 41.8758ZM12.0346 30.3048C10.592 30.3048 9.41838 29.1311 9.41838 27.6886C9.41838 26.2461 10.592 25.0725 12.0346 25.0725H13.3882V30.3048H12.0346ZM40.039 30.3048V25.0725H41.3926C42.8351 25.0725 44.0088 26.2461 44.0088 27.6886C44.0088 29.1311 42.8352 30.3048 41.3926 30.3048H40.039ZM11.6282 17.4292C11.6282 9.11109 18.3954 2.34375 26.7135 2.34375C30.744 2.34375 34.5323 3.91297 37.3806 6.76266C40.2298 9.61047 41.799 13.3986 41.799 17.4292V22.7467C41.6648 22.7358 41.5295 22.7288 41.3924 22.7288H38.867C38.2552 22.7288 37.7537 23.1975 37.7004 23.7953L37.3287 23.7252C34.3001 23.1536 31.6735 21.4383 29.9324 18.8955L27.6803 15.6056C27.4618 15.2866 27.1001 15.0958 26.7134 15.0958C26.3267 15.0958 25.9648 15.2866 25.7465 15.6058L23.4945 18.8953C21.7534 21.4383 19.1267 23.1536 16.0982 23.7252L15.7267 23.7953C15.6734 23.1975 15.1718 22.7288 14.5601 22.7288H12.0346C11.8976 22.7288 11.7623 22.7358 11.6281 22.7467V17.4292H11.6282ZM11.6282 32.6306C11.7624 32.6416 11.8978 32.6486 12.0348 32.6486H13.407C13.576 35.9459 14.9395 39.0219 17.2907 41.3733C17.8698 41.9523 18.4973 42.4716 19.1649 42.9313H11.6282V32.6306ZM21.7742 49.9794C22.3031 49.8545 22.6767 49.3825 22.6767 48.8389V44.6536C23.9737 45.0666 25.3253 45.2756 26.7134 45.2756C28.1017 45.2756 29.4532 45.0666 30.7501 44.6537V48.8389C30.7501 49.3825 31.1237 49.8545 31.6526 49.9794L34.0451 50.5444L26.7134 60.9805L19.3817 50.5444L21.7742 49.9794ZM17.2979 61.182L13.5673 57.8538L17.0623 52.5042L24.3504 75.2867L16.4573 68.5911L17.6685 62.2773C17.7462 61.8725 17.6054 61.4566 17.2979 61.182ZM29.9067 77.6562L39.0079 69.9359C39.3302 69.6625 39.4804 69.2366 39.4007 68.8214L38.1856 62.4886L42.1727 58.9314C42.6053 58.5455 42.6907 57.9013 42.3737 57.4159L38.5846 51.6164L43.9182 52.8764C45.4218 53.2316 46.7743 53.9512 47.8924 54.9791C44.3965 57.4852 42.1142 61.5817 42.1142 66.2017C42.1142 70.9673 44.5432 75.1763 48.2281 77.6564H29.9067V77.6562Z" fill="#A6A4BC"/>
  <path d="M57.0857 67.239V63.2693H57.4922C58.1394 63.2693 58.6641 62.7448 58.6641 62.0974C58.6641 61.4501 58.1394 60.9255 57.4922 60.9255H54.3355C53.6883 60.9255 53.1636 61.4501 53.1636 62.0974C53.1636 62.7448 53.6883 63.2693 54.3355 63.2693H54.7421V67.239H52.8535C52.0541 67.239 51.4036 66.5887 51.4036 65.7893V62.0974C51.4036 61.4501 50.8789 60.9255 50.2318 60.9255H48.6533C48.0061 60.9255 47.4814 61.4501 47.4814 62.0974C47.4814 62.7448 48.0061 63.2693 48.6533 63.2693H49.0599V65.7893C49.0599 67.881 50.7618 69.5827 52.8535 69.5827H54.7421V71.9741H54.3355C53.6883 71.9741 53.1636 72.4987 53.1636 73.146C53.1636 73.7933 53.6883 74.3179 54.3355 74.3179H57.4922C58.1394 74.3179 58.6641 73.7933 58.6641 73.146C58.6641 72.4987 58.1394 71.9741 57.4922 71.9741H57.0857V69.5827H58.9743C61.066 69.5827 62.7677 67.8808 62.7677 65.7893V63.2693H63.1743C63.8214 63.2693 64.3461 62.7448 64.3461 62.0974C64.3461 61.4501 63.8214 60.9255 63.1743 60.9255H61.5958C60.9486 60.9255 60.4239 61.4501 60.4239 62.0974V65.7893C60.4239 66.5887 59.7736 67.239 58.9743 67.239H57.0857Z" fill="#A6A4BC"/>
</svg>