<svg  fill="none" viewBox="0 0 20 20" xmlns="http://www.w3.org/2000/svg">
<path d="M23.2969 12.8031H21.6406V24H23.2969C23.6852 24 24 23.6852 24 23.2969V13.5062C24 13.1179 23.6852 12.8031 23.2969 12.8031Z" fill="currentColor"/>
<path d="M0 13.5062V23.2969C0 23.6852 0.314813 24 0.703125 24H2.35936V12.8031H0.703125C0.314813 12.8031 0 13.1179 0 13.5062Z" fill="currentColor"/>
<path d="M11.1968 18.7281H12.803V24H11.1968V18.7281Z" fill="currentColor"/>
<path d="M19.5313 4.89526H16.6744C16.4073 5.64869 15.7237 6.20673 14.9016 6.29059C14.7932 7.35283 13.8935 8.18434 12.8031 8.18434H11.1969C10.1065 8.18434 9.20673 7.35283 9.09841 6.29059C8.27631 6.20678 7.59278 5.64869 7.32555 4.89526H4.46875C4.08044 4.89526 3.76562 5.21008 3.76562 5.59839V24H9.79061V18.025C9.79061 17.6366 10.1054 17.3218 10.4937 17.3218H13.5062C13.8946 17.3218 14.2094 17.6366 14.2094 18.025V24H20.2344V5.59839C20.2344 5.21008 19.9196 4.89526 19.5313 4.89526ZM8.18439 18.7781C8.1498 19.71 6.81241 19.7093 6.77814 18.7781V18.025C6.81273 17.093 8.15013 17.0937 8.18439 18.025V18.7781ZM8.18439 15.0125C8.1498 15.9444 6.81241 15.9437 6.77814 15.0125V14.2593C6.81273 13.3274 8.15013 13.3281 8.18439 14.2593V15.0125ZM8.18439 11.2468C8.1498 12.1787 6.81241 12.178 6.77814 11.2468V10.4937C6.81273 9.56181 8.15013 9.56251 8.18439 10.4937V11.2468ZM11.1969 15.0125C11.1623 15.9444 9.82492 15.9437 9.79066 15.0125V14.2593C9.82525 13.3274 11.1626 13.3281 11.1969 14.2593V15.0125ZM11.1969 11.2468C11.1623 12.1787 9.82492 12.178 9.79066 11.2468V10.4937C9.82525 9.56181 11.1626 9.56251 11.1969 10.4937V11.2468ZM14.2094 15.0125C14.1748 15.9444 12.8374 15.9437 12.8031 15.0125V14.2593C12.8377 13.3274 14.1751 13.3281 14.2094 14.2593V15.0125ZM14.2094 11.2468C14.1748 12.1787 12.8374 12.178 12.8031 11.2468V10.4937C12.8377 9.56181 14.1751 9.56251 14.2094 10.4937V11.2468ZM17.2219 18.7781C17.1873 19.71 15.8499 19.7093 15.8156 18.7781V18.025C15.8502 17.093 17.1876 17.0937 17.2219 18.025V18.7781ZM17.2219 15.0125C17.1873 15.9444 15.8499 15.9437 15.8156 15.0125V14.2593C15.8502 13.3274 17.1876 13.3281 17.2219 14.2593V15.0125ZM17.2219 11.2468C17.1873 12.1787 15.8499 12.178 15.8156 11.2468V10.4937C15.8502 9.56181 17.1876 9.56251 17.2219 10.4937V11.2468Z" fill="currentColor"/>
<path d="M9.31396 4.8953H10.4937V6.075C10.4937 6.46331 10.8085 6.77812 11.1968 6.77812H12.8031C13.1914 6.77812 13.5062 6.46331 13.5062 6.075V4.8953H14.6858C15.0742 4.8953 15.389 4.58048 15.389 4.19217V2.58595C15.389 2.19764 15.0742 1.88283 14.6858 1.88283H13.5061V0.703125C13.5061 0.314812 13.1913 0 12.803 0H11.1967C10.8084 0 10.4936 0.314812 10.4936 0.703125V1.88283H9.31396C8.92565 1.88283 8.61084 2.19764 8.61084 2.58595V4.19222C8.61084 4.58048 8.92565 4.8953 9.31396 4.8953Z" fill="currentColor"/>
</svg>
