<svg xmlns="http://www.w3.org/2000/svg" viewBox="0 0 66 80" fill="none">
  <path d="M29.8433 26.0194H36.1567C36.804 26.0194 37.3286 25.4949 37.3286 24.8476V10.6421C37.3286 9.99475 36.804 9.47021 36.1567 9.47021H29.8433C29.1959 9.47021 28.6714 9.99475 28.6714 10.6421V24.8476C28.6714 25.4949 29.1959 26.0194 29.8433 26.0194ZM31.0151 11.814H34.9848V23.6757H31.0151V11.814Z" fill="#A6A4BC"/>
  <path d="M46.9194 9.47021H40.606C39.9586 9.47021 39.4341 9.99475 39.4341 10.6421V24.8476C39.4341 25.4949 39.9586 26.0194 40.606 26.0194H46.9194C47.5667 26.0194 48.0913 25.4949 48.0913 24.8476V10.6421C48.0913 9.9949 47.5667 9.47021 46.9194 9.47021ZM45.7475 23.6757H41.7778V11.814H45.7475V23.6757Z" fill="#A6A4BC"/>
  <path d="M51.3687 26.0194H57.6822C58.3296 26.0194 58.8541 25.4949 58.8541 24.8476V10.6421C58.8541 9.99475 58.3296 9.47021 57.6822 9.47021H51.3687C50.7213 9.47021 50.1968 9.99475 50.1968 10.6421V24.8476C50.1968 25.4949 50.7213 26.0194 51.3687 26.0194ZM52.5405 11.814H56.5104V23.6757H52.5405V11.814Z" fill="#A6A4BC"/>
  <path d="M28.6714 39.0531C28.6714 39.7004 29.1959 40.225 29.8433 40.225H36.1567C36.804 40.225 37.3286 39.7004 37.3286 39.0531V29.5828C37.3286 28.9354 36.804 28.4109 36.1567 28.4109H29.8433C29.1959 28.4109 28.6714 28.9354 28.6714 29.5828V39.0531ZM31.0151 30.7546H34.9848V37.8812H31.0151V30.7546Z" fill="#A6A4BC"/>
  <path d="M39.4341 39.0531C39.4341 39.7004 39.9586 40.225 40.606 40.225H46.9194C47.5667 40.225 48.0913 39.7004 48.0913 39.0531V29.5828C48.0913 28.9354 47.5667 28.4109 46.9194 28.4109H40.606C39.9586 28.4109 39.4341 28.9354 39.4341 29.5828V39.0531ZM41.7778 30.7546H45.7475V37.8812H41.7778V30.7546Z" fill="#A6A4BC"/>
  <path d="M50.1968 39.0531C50.1968 39.7004 50.7213 40.225 51.3687 40.225H57.6822C58.3296 40.225 58.8541 39.7004 58.8541 39.0531V29.5828C58.8541 28.9354 58.3296 28.4109 57.6822 28.4109H51.3687C50.7213 28.4109 50.1968 28.9354 50.1968 29.5828V39.0531ZM52.5405 30.7546H56.5104V37.8812H52.5405V30.7546Z" fill="#A6A4BC"/>
  <path d="M26.5664 29.5828C26.5664 28.9354 26.0418 28.4109 25.3945 28.4109H19.0811C18.4337 28.4109 17.9092 28.9354 17.9092 29.5828V39.0531C17.9092 39.7004 18.4337 40.225 19.0811 40.225H25.3945C26.0418 40.225 26.5664 39.7004 26.5664 39.0531V29.5828ZM24.2226 37.8812H20.2529V30.7546H24.2226V37.8812Z" fill="#A6A4BC"/>
  <path d="M7.14648 29.5828V39.0531C7.14648 39.7004 7.67102 40.225 8.31836 40.225H14.632C15.2793 40.225 15.8038 39.7004 15.8038 39.0531V29.5828C15.8038 28.9354 15.2793 28.4109 14.632 28.4109H8.31836C7.67117 28.4109 7.14648 28.9356 7.14648 29.5828ZM9.49023 30.7546H13.4601V37.8812H9.49023V30.7546Z" fill="#A6A4BC"/>
  <path d="M28.6714 53.2584C28.6714 53.9057 29.1959 54.4302 29.8433 54.4302H36.1567C36.804 54.4302 37.3286 53.9057 37.3286 53.2584V43.7882C37.3286 43.1409 36.804 42.6163 36.1567 42.6163H29.8433C29.1959 42.6163 28.6714 43.1409 28.6714 43.7882V53.2584ZM31.0151 44.9599H34.9848V52.0863H31.0151V44.9599Z" fill="#A6A4BC"/>
  <path d="M39.4341 53.2584C39.4341 53.9057 39.9586 54.4302 40.606 54.4302H46.9194C47.5667 54.4302 48.0913 53.9057 48.0913 53.2584V43.7882C48.0913 43.1409 47.5667 42.6163 46.9194 42.6163H40.606C39.9586 42.6163 39.4341 43.1409 39.4341 43.7882V53.2584ZM41.7778 44.9599H45.7475V52.0863H41.7778V44.9599Z" fill="#A6A4BC"/>
  <path d="M50.1968 53.2584C50.1968 53.9057 50.7213 54.4302 51.3687 54.4302H57.6822C58.3296 54.4302 58.8541 53.9057 58.8541 53.2584V43.7882C58.8541 43.1409 58.3296 42.6163 57.6822 42.6163H51.3687C50.7213 42.6163 50.1968 43.1409 50.1968 43.7882V53.2584ZM52.5405 44.9599H56.5104V52.0863H52.5405V44.9599Z" fill="#A6A4BC"/>
  <path d="M25.3945 42.6162H19.0811C18.4337 42.6162 17.9092 43.1407 17.9092 43.7881V53.2582C17.9092 53.9056 18.4337 54.4301 19.0811 54.4301H25.3945C26.0418 54.4301 26.5664 53.9056 26.5664 53.2582V43.7881C26.5664 43.1409 26.0418 42.6162 25.3945 42.6162ZM24.2226 52.0865H20.2529V44.9601H24.2226V52.0865Z" fill="#A6A4BC"/>
  <path d="M7.14648 53.2584C7.14648 53.9057 7.67102 54.4302 8.31836 54.4302H14.632C15.2793 54.4302 15.8038 53.9057 15.8038 53.2584V43.7882C15.8038 43.1409 15.2793 42.6163 14.632 42.6163H8.31836C7.67102 42.6163 7.14648 43.1409 7.14648 43.7882V53.2584ZM9.49023 44.9599H13.4601V52.0863H9.49023V44.9599Z" fill="#A6A4BC"/>
  <path d="M7.14648 67.4638C7.14648 68.1112 7.67102 68.6357 8.31836 68.6357H19.081C19.7284 68.6357 20.2529 68.1112 20.2529 67.4638V57.9935C20.2529 57.3462 19.7284 56.8217 19.081 56.8217H8.31836C7.67102 56.8217 7.14648 57.3462 7.14648 57.9935V67.4638ZM9.49023 59.1652H17.9091V66.2918H9.49023V59.1652Z" fill="#A6A4BC"/>
  <path d="M45.7476 57.9934V67.4637C45.7476 68.1111 46.2721 68.6356 46.9194 68.6356H57.6821C58.3294 68.6356 58.854 68.1111 58.854 67.4637V57.9934C58.854 57.3461 58.3294 56.8215 57.6821 56.8215H46.9194C46.2721 56.8215 45.7476 57.3462 45.7476 57.9934ZM48.0913 59.1653H56.5102V66.2918H48.0913V59.1653Z" fill="#A6A4BC"/>
  <path d="M19.2232 9.47021H14.4881C13.8407 9.47021 13.3162 9.99475 13.3162 10.6421V14.2055H9.75293C9.10559 14.2055 8.58105 14.7301 8.58105 15.3774V20.1126C8.58105 20.7599 9.10559 21.2844 9.75293 21.2844H13.3162V24.8477C13.3162 25.4951 13.8407 26.0196 14.4881 26.0196H19.2232C19.8706 26.0196 20.3951 25.4951 20.3951 24.8477V21.2844H23.9586C24.6059 21.2844 25.1304 20.7599 25.1304 20.1126V15.3774C25.1304 14.7301 24.6059 14.2055 23.9586 14.2055H20.3951V10.6421C20.3951 9.9949 19.8706 9.47021 19.2232 9.47021ZM22.7867 16.5493V18.9407H19.2232C18.5759 18.9407 18.0514 19.4652 18.0514 20.1126V23.6758H15.66V20.1126C15.66 19.4652 15.1354 18.9407 14.4881 18.9407H10.9248V16.5493H14.4881C15.1354 16.5493 15.66 16.0247 15.66 15.3774V11.814H18.0514V15.3774C18.0514 16.0247 18.5759 16.5493 19.2232 16.5493H22.7867Z" fill="#A6A4BC"/>
  <path d="M65.739 4.64375V2.43438C65.739 1.09203 64.647 0 63.3046 0H53.3609C52.7136 0 52.189 0.524531 52.189 1.17188C52.189 1.81922 52.7136 2.34375 53.3609 2.34375H63.3048C63.3548 2.34375 63.3954 2.38438 63.3954 2.43438V4.64375C63.3954 4.69453 63.3556 4.73438 63.3048 4.73438H2.69527C2.64449 4.73438 2.60465 4.69453 2.60465 4.64375V2.43438C2.60465 2.38438 2.64527 2.34375 2.69527 2.34375H47.8922C48.5395 2.34375 49.064 1.81922 49.064 1.17188C49.064 0.524531 48.5395 0 47.8922 0H2.69527C1.35293 0 0.260898 1.09203 0.260898 2.43438V4.64375C0.260898 5.91016 1.23324 6.95281 2.47043 7.06672V19.378C2.47043 20.0253 2.99496 20.5498 3.6423 20.5498C4.28965 20.5498 4.81418 20.0253 4.81418 19.378V7.07812H61.1861V72.9219H41.7778V57.9934C41.7778 57.3461 41.2532 56.8216 40.6059 56.8216H25.3942C24.7468 56.8216 24.2223 57.3461 24.2223 57.9934V72.9219H4.81402V24.8469C4.81402 24.1995 4.28949 23.675 3.64215 23.675C2.9948 23.675 2.47027 24.1995 2.47027 24.8469V72.9333C1.23309 73.0473 0.260742 74.0898 0.260742 75.3562V77.5656C0.260742 78.908 1.35277 80 2.69512 80H50.1373C50.7846 80 51.3092 79.4755 51.3092 78.8281C51.3092 78.1808 50.7846 77.6562 50.1373 77.6562H2.69527C2.64527 77.6562 2.60465 77.6156 2.60465 77.5656V75.3562C2.60465 75.3055 2.64449 75.2656 2.69527 75.2656H63.3046C63.3554 75.2656 63.3953 75.3055 63.3953 75.3562V77.5656C63.3953 77.6156 63.3547 77.6562 63.3046 77.6562H55.6062C54.9589 77.6562 54.4343 78.1808 54.4343 78.8281C54.4343 79.4755 54.9589 80 55.6062 80H63.3048C64.6471 80 65.7392 78.908 65.7392 77.5656V75.3562C65.7392 74.09 64.767 73.0473 63.5298 72.9333V7.06672C64.7668 6.95266 65.739 5.91 65.739 4.64375ZM39.434 72.9219H34.1718V59.1653H39.434V72.9219ZM26.5659 59.1653H31.8281V72.9219H26.5659V59.1653Z" fill="#A6A4BC"/>
</svg>