<svg width="20" height="20" viewBox="0 0 20 20" fill="none" xmlns="http://www.w3.org/2000/svg">
    <path d="M19.4139 10.6692H18.0337V19.9999H19.4139C19.7375 19.9999 19.9998 19.7376 19.9998 19.414V11.2551C19.9998 10.9315 19.7375 10.6692 19.4139 10.6692Z"
          fill="currentColor"/>
    <path d="M0 11.2551V19.414C0 19.7376 0.262344 19.9999 0.585938 19.9999H1.96613V10.6692H0.585938C0.262344 10.6692 0 10.9315 0 11.2551Z"
          fill="currentColor"/>
    <path d="M9.33057 15.6067H10.6691V19.9999H9.33057V15.6067Z" fill="currentColor"/>
    <path d="M16.2762 4.07935H13.8955C13.6729 4.7072 13.1033 5.17224 12.4181 5.24212C12.3279 6.12731 11.5781 6.82024 10.6694 6.82024H9.33088C8.42225 6.82024 7.67244 6.12731 7.58217 5.24212C6.89709 5.17228 6.32748 4.7072 6.10478 4.07935H3.72412C3.40053 4.07935 3.13818 4.34169 3.13818 4.66528V19.9999H8.159V15.0208C8.159 14.6972 8.42135 14.4348 8.74494 14.4348H11.2554C11.579 14.4348 11.8413 14.6972 11.8413 15.0208V19.9999H16.8621V4.66528C16.8622 4.34169 16.5998 4.07935 16.2762 4.07935ZM6.82049 15.6484C6.79166 16.425 5.67717 16.4244 5.64861 15.6484V15.0208C5.67744 14.2441 6.79193 14.2447 6.82049 15.0208V15.6484ZM6.82049 12.5104C6.79166 13.287 5.67717 13.2864 5.64861 12.5104V11.8827C5.67744 11.1061 6.79193 11.1067 6.82049 11.8827V12.5104ZM6.82049 9.37231C6.79166 10.1489 5.67717 10.1483 5.64861 9.37231V8.74474C5.67744 7.96813 6.79193 7.96872 6.82049 8.74474V9.37231ZM9.33092 12.5104C9.30209 13.287 8.1876 13.2864 8.15904 12.5104V11.8827C8.18787 11.1061 9.30236 11.1067 9.33092 11.8827V12.5104ZM9.33092 9.37231C9.30209 10.1489 8.1876 10.1483 8.15904 9.37231V8.74474C8.18787 7.96813 9.30236 7.96872 9.33092 8.74474V9.37231ZM11.8413 12.5104C11.8125 13.287 10.698 13.2864 10.6694 12.5104V11.8827C10.6983 11.1061 11.8128 11.1067 11.8413 11.8827V12.5104ZM11.8413 9.37231C11.8125 10.1489 10.698 10.1483 10.6694 9.37231V8.74474C10.6983 7.96813 11.8128 7.96872 11.8413 8.74474V9.37231ZM14.3517 15.6484C14.3229 16.425 13.2084 16.4244 13.1799 15.6484V15.0208C13.2087 14.2441 14.3232 14.2447 14.3517 15.0208V15.6484ZM14.3517 12.5104C14.3229 13.287 13.2084 13.2864 13.1799 12.5104V11.8827C13.2087 11.1061 14.3232 11.1067 14.3517 11.8827V12.5104ZM14.3517 9.37231C14.3229 10.1489 13.2084 10.1483 13.1799 9.37231V8.74474C13.2087 7.96813 14.3232 7.96872 14.3517 8.74474V9.37231Z"
          fill="currentColor"/>
    <path d="M7.76172 4.07941H8.7448V5.0625C8.7448 5.38609 9.00715 5.64844 9.33074 5.64844H10.6693C10.9929 5.64844 11.2552 5.38609 11.2552 5.0625V4.07941H12.2383C12.5619 4.07941 12.8242 3.81707 12.8242 3.49348V2.15496C12.8242 1.83137 12.5619 1.56902 12.2383 1.56902H11.2552V0.585938C11.2552 0.262344 10.9929 0 10.6693 0H9.3307C9.00711 0 8.74477 0.262344 8.74477 0.585938V1.56902H7.76172C7.43812 1.56902 7.17578 1.83137 7.17578 2.15496V3.49352C7.17578 3.81707 7.43812 4.07941 7.76172 4.07941Z"
          fill="currentColor"/>
</svg>