<svg width="24" height="24" viewBox="0 0 24 24" fill="none" xmlns="http://www.w3.org/2000/svg">
<path d="M7.49994 13.875C7.81667 13.8764 8.12234 13.7587 8.35621 13.5451C8.59008 13.3315 8.73504 13.0377 8.76227 12.7222L8.83862 11.8822C8.85455 11.7068 8.83376 11.53 8.77756 11.3631C8.72137 11.1962 8.631 11.0428 8.51223 10.9127C8.39346 10.7827 8.24889 10.6788 8.08775 10.6078C7.9266 10.5367 7.75241 10.5 7.57629 10.5H7.42359C7.24748 10.5 7.07329 10.5367 6.91214 10.6077C6.751 10.6788 6.60643 10.7826 6.48765 10.9127C6.36887 11.0427 6.2785 11.1961 6.22229 11.363C6.16608 11.5299 6.14528 11.7067 6.16119 11.8821L6.23754 12.7221C6.26475 13.0376 6.4097 13.3314 6.64359 13.5451C6.87749 13.7587 7.18319 13.8765 7.49994 13.875Z" fill="currentColor"/>
<path d="M9.62074 14.8425L8.52791 14.3425C8.2169 14.5274 7.8618 14.6249 7.5 14.6249C7.1382 14.6249 6.7831 14.5274 6.47209 14.3425L5.37982 14.8421C5.11786 14.9616 4.8957 15.1538 4.73974 15.3958C4.58378 15.6378 4.50057 15.9196 4.5 16.2075V17.25H10.5V16.2075C10.4995 15.9197 10.4163 15.638 10.2605 15.3961C10.1046 15.1541 9.88258 14.962 9.62074 14.8425Z" fill="currentColor"/>
<path d="M21.375 6.75H14.625V8.625C14.6247 8.92327 14.506 9.20923 14.2951 9.42013C14.0842 9.63104 13.7983 9.74967 13.5 9.75H10.5C10.2017 9.74967 9.91577 9.63104 9.70487 9.42013C9.49396 9.20923 9.37533 8.92327 9.375 8.625V6.75H2.625C2.32673 6.75033 2.04077 6.86896 1.82987 7.07987C1.61896 7.29077 1.50033 7.57673 1.5 7.875V19.875C1.50033 20.1733 1.61896 20.4592 1.82987 20.6701C2.04077 20.881 2.32673 20.9997 2.625 21H21.375C21.6733 20.9997 21.9592 20.881 22.1701 20.6701C22.381 20.4592 22.4997 20.1733 22.5 19.875V7.875C22.4997 7.57673 22.381 7.29077 22.1701 7.07987C21.9592 6.86896 21.6733 6.75033 21.375 6.75ZM11.25 17.625C11.25 17.7245 11.2105 17.8198 11.1402 17.8902C11.0698 17.9605 10.9745 18 10.875 18H4.125C4.02554 18 3.93016 17.9605 3.85984 17.8902C3.78951 17.8198 3.75 17.7245 3.75 17.625V16.2075C3.75073 15.7758 3.87533 15.3534 4.10903 14.9905C4.34272 14.6275 4.67568 14.3393 5.06835 14.16L5.86856 13.794C5.65425 13.4997 5.52364 13.1529 5.4906 12.7904L5.41425 11.9503C5.38888 11.6711 5.42198 11.3897 5.51143 11.124C5.60088 10.8583 5.74472 10.6141 5.93378 10.4071C6.12284 10.2001 6.35296 10.0347 6.60948 9.92159C6.866 9.80845 7.14329 9.75001 7.42365 9.75H7.57635C7.8567 9.75001 8.13397 9.80845 8.39048 9.92158C8.64699 10.0347 8.87711 10.2 9.06616 10.4071C9.25522 10.6141 9.39907 10.8582 9.48853 11.1239C9.57799 11.3896 9.6111 11.671 9.58575 11.9502L9.5094 12.7902C9.47634 13.1528 9.34566 13.4997 9.13125 13.794L9.93202 14.1603C10.3246 14.3396 10.6575 14.6278 10.8911 14.9907C11.1248 15.3536 11.2493 15.7759 11.25 16.2075V17.625ZM20.625 16.5H13.125C13.0255 16.5 12.9302 16.4605 12.8598 16.3902C12.7895 16.3198 12.75 16.2245 12.75 16.125C12.75 16.0255 12.7895 15.9302 12.8598 15.8598C12.9302 15.7895 13.0255 15.75 13.125 15.75H20.625C20.7245 15.75 20.8198 15.7895 20.8902 15.8598C20.9605 15.9302 21 16.0255 21 16.125C21 16.2245 20.9605 16.3198 20.8902 16.3902C20.8198 16.4605 20.7245 16.5 20.625 16.5ZM20.625 14.25H13.125C13.0255 14.25 12.9302 14.2105 12.8598 14.1402C12.7895 14.0698 12.75 13.9745 12.75 13.875C12.75 13.7755 12.7895 13.6802 12.8598 13.6098C12.9302 13.5395 13.0255 13.5 13.125 13.5H20.625C20.7245 13.5 20.8198 13.5395 20.8902 13.6098C20.9605 13.6802 21 13.7755 21 13.875C21 13.9745 20.9605 14.0698 20.8902 14.1402C20.8198 14.2105 20.7245 14.25 20.625 14.25ZM20.625 12H13.125C13.0255 12 12.9302 11.9605 12.8598 11.8902C12.7895 11.8198 12.75 11.7245 12.75 11.625C12.75 11.5255 12.7895 11.4302 12.8598 11.3598C12.9302 11.2895 13.0255 11.25 13.125 11.25H20.625C20.7245 11.25 20.8198 11.2895 20.8902 11.3598C20.9605 11.4302 21 11.5255 21 11.625C21 11.7245 20.9605 11.8198 20.8902 11.8902C20.8198 11.9605 20.7245 12 20.625 12Z" fill="currentColor"/>
<path d="M13.5 3H10.5C10.4005 3 10.3052 3.03951 10.2348 3.10984C10.1645 3.18016 10.125 3.27554 10.125 3.375V8.625C10.125 8.72446 10.1645 8.81984 10.2348 8.89017C10.3052 8.96049 10.4005 9 10.5 9H13.5C13.5995 9 13.6948 8.96049 13.7652 8.89017C13.8355 8.81984 13.875 8.72446 13.875 8.625V3.375C13.875 3.27554 13.8355 3.18016 13.7652 3.10984C13.6948 3.03951 13.5995 3 13.5 3ZM12 5.625C11.8517 5.625 11.7067 5.58101 11.5833 5.4986C11.46 5.41619 11.3639 5.29906 11.3071 5.16201C11.2503 5.02497 11.2355 4.87417 11.2644 4.72868C11.2933 4.5832 11.3648 4.44956 11.4697 4.34467C11.5746 4.23978 11.7082 4.16835 11.8537 4.13941C11.9992 4.11047 12.15 4.12532 12.287 4.18209C12.4241 4.23886 12.5412 4.33499 12.6236 4.45832C12.706 4.58166 12.75 4.72666 12.75 4.875C12.75 5.07391 12.671 5.26468 12.5303 5.40533C12.3897 5.54598 12.1989 5.625 12 5.625Z" fill="currentColor"/>
</svg>
