<svg width="22" height="18" viewBox="0 0 22 18" fill="none" xmlns="http://www.w3.org/2000/svg">
    <path d="M6.50019 10.875C6.81691 10.8764 7.12258 10.7587 7.35645 10.5451C7.59033 10.3315 7.73528 10.0377 7.76251 9.72218L7.83886 8.88218C7.8548 8.70678 7.834 8.52998 7.77781 8.36307C7.72161 8.19616 7.63125 8.04278 7.51248 7.91274C7.39371 7.78269 7.24914 7.67882 7.08799 7.60776C6.92685 7.5367 6.75266 7.5 6.57654 7.5H6.42384C6.24772 7.49999 6.07354 7.53668 5.91239 7.60773C5.75124 7.67878 5.60667 7.78264 5.48789 7.91267C5.36912 8.04271 5.27874 8.19607 5.22254 8.36297C5.16633 8.52988 5.14552 8.70667 5.16144 8.88206L5.23779 9.72206C5.26499 10.0376 5.40995 10.3314 5.64384 10.5451C5.87773 10.7587 6.18343 10.8765 6.50019 10.875Z"
          fill="currentColor"/>
    <path d="M8.62074 11.8425L7.52791 11.3425C7.2169 11.5274 6.8618 11.6249 6.5 11.6249C6.1382 11.6249 5.7831 11.5274 5.47209 11.3425L4.37982 11.8421C4.11786 11.9616 3.8957 12.1538 3.73974 12.3958C3.58378 12.6378 3.50057 12.9196 3.5 13.2075V14.25H9.5V13.2075C9.49947 12.9197 9.41634 12.638 9.26048 12.3961C9.10462 12.1541 8.88258 11.962 8.62074 11.8425Z"
          fill="currentColor"/>
    <path d="M20.375 3.75H13.625V5.625C13.6247 5.92327 13.506 6.20923 13.2951 6.42013C13.0842 6.63104 12.7983 6.74967 12.5 6.75H9.5C9.20173 6.74967 8.91577 6.63104 8.70487 6.42013C8.49396 6.20923 8.37533 5.92327 8.375 5.625V3.75H1.625C1.32673 3.75033 1.04077 3.86896 0.829867 4.07987C0.618959 4.29077 0.500328 4.57673 0.5 4.875V16.875C0.500328 17.1733 0.618959 17.4592 0.829867 17.6701C1.04077 17.881 1.32673 17.9997 1.625 18H20.375C20.6733 17.9997 20.9592 17.881 21.1701 17.6701C21.381 17.4592 21.4997 17.1733 21.5 16.875V4.875C21.4997 4.57673 21.381 4.29077 21.1701 4.07987C20.9592 3.86896 20.6733 3.75033 20.375 3.75ZM10.25 14.625C10.25 14.7245 10.2105 14.8198 10.1402 14.8902C10.0698 14.9605 9.97446 15 9.875 15H3.125C3.02554 15 2.93016 14.9605 2.85984 14.8902C2.78951 14.8198 2.75 14.7245 2.75 14.625V13.2075C2.75073 12.7758 2.87533 12.3534 3.10903 11.9905C3.34272 11.6275 3.67568 11.3393 4.06835 11.16L4.86856 10.794C4.65425 10.4997 4.52364 10.1529 4.4906 9.79035L4.41425 8.95035C4.38888 8.67114 4.42198 8.3897 4.51143 8.12399C4.60088 7.85828 4.74472 7.61413 4.93378 7.4071C5.12284 7.20008 5.35296 7.03473 5.60948 6.92159C5.866 6.80845 6.14329 6.75001 6.42365 6.75H6.57635C6.8567 6.75001 7.13397 6.80845 7.39048 6.92158C7.64699 7.0347 7.87711 7.20005 8.06616 7.40705C8.25522 7.61406 8.39907 7.8582 8.48853 8.12389C8.57799 8.38958 8.6111 8.671 8.58575 8.9502L8.5094 9.7902C8.47634 10.1528 8.34566 10.4997 8.13125 10.794L8.93202 11.1603C9.32462 11.3396 9.6575 11.6278 9.89113 11.9907C10.1248 12.3536 10.2493 12.7759 10.25 13.2075V14.625ZM19.625 13.5H12.125C12.0255 13.5 11.9302 13.4605 11.8598 13.3902C11.7895 13.3198 11.75 13.2245 11.75 13.125C11.75 13.0255 11.7895 12.9302 11.8598 12.8598C11.9302 12.7895 12.0255 12.75 12.125 12.75H19.625C19.7245 12.75 19.8198 12.7895 19.8902 12.8598C19.9605 12.9302 20 13.0255 20 13.125C20 13.2245 19.9605 13.3198 19.8902 13.3902C19.8198 13.4605 19.7245 13.5 19.625 13.5ZM19.625 11.25H12.125C12.0255 11.25 11.9302 11.2105 11.8598 11.1402C11.7895 11.0698 11.75 10.9745 11.75 10.875C11.75 10.7755 11.7895 10.6802 11.8598 10.6098C11.9302 10.5395 12.0255 10.5 12.125 10.5H19.625C19.7245 10.5 19.8198 10.5395 19.8902 10.6098C19.9605 10.6802 20 10.7755 20 10.875C20 10.9745 19.9605 11.0698 19.8902 11.1402C19.8198 11.2105 19.7245 11.25 19.625 11.25ZM19.625 9H12.125C12.0255 9 11.9302 8.96049 11.8598 8.89017C11.7895 8.81984 11.75 8.72446 11.75 8.625C11.75 8.52554 11.7895 8.43016 11.8598 8.35983C11.9302 8.28951 12.0255 8.25 12.125 8.25H19.625C19.7245 8.25 19.8198 8.28951 19.8902 8.35983C19.9605 8.43016 20 8.52554 20 8.625C20 8.72446 19.9605 8.81984 19.8902 8.89017C19.8198 8.96049 19.7245 9 19.625 9Z"
          fill="currentColor"/>
    <path d="M12.5 0H9.5C9.40054 0 9.30516 0.0395089 9.23483 0.109835C9.16451 0.180161 9.125 0.275544 9.125 0.375V5.625C9.125 5.72446 9.16451 5.81984 9.23483 5.89017C9.30516 5.96049 9.40054 6 9.5 6H12.5C12.5995 6 12.6948 5.96049 12.7652 5.89017C12.8355 5.81984 12.875 5.72446 12.875 5.625V0.375C12.875 0.275544 12.8355 0.180161 12.7652 0.109835C12.6948 0.0395089 12.5995 0 12.5 0ZM11 2.625C10.8517 2.625 10.7067 2.58101 10.5833 2.4986C10.46 2.41619 10.3639 2.29906 10.3071 2.16201C10.2503 2.02497 10.2355 1.87417 10.2644 1.72868C10.2933 1.5832 10.3648 1.44956 10.4697 1.34467C10.5746 1.23978 10.7082 1.16835 10.8537 1.13941C10.9992 1.11047 11.15 1.12532 11.287 1.18209C11.4241 1.23886 11.5412 1.33499 11.6236 1.45832C11.706 1.58166 11.75 1.72666 11.75 1.875C11.75 2.07391 11.671 2.26468 11.5303 2.40533C11.3897 2.54598 11.1989 2.625 11 2.625Z"
          fill="currentColor"/>
</svg>