<svg viewBox="0 0 20 20" fill="none" xmlns="http://www.w3.org/2000/svg">
<path d="M2.08011 5.33399C1.8391 5.33399 1.60238 5.30782 1.37269 5.25704C1.01996 5.98868 0.774643 6.7711 0.650033 7.57188C0.498861 8.5379 1.24964 9.41329 2.2305 9.41329C3.02347 9.41329 3.68714 8.84806 3.80902 8.06876C3.97738 6.99415 4.47386 6.01798 5.24574 5.24571C6.01761 4.47384 6.99417 3.97735 8.06878 3.80899C8.84808 3.68712 9.41331 3.02345 9.41331 2.23048C9.41331 1.25079 8.53871 0.498837 7.57152 0.650009C6.77074 0.774619 5.98792 1.02032 5.25628 1.37267C5.48832 2.42227 5.1973 3.56602 4.38246 4.38126C3.768 4.99571 2.95042 5.33399 2.08011 5.33399Z" fill="currentColor"/>
<path d="M3.55395 3.5525C4.36505 2.74078 4.36505 1.42 3.55395 0.608594C2.74224 -0.202812 1.42145 -0.202813 0.610048 0.608281C-0.198975 1.41652 -0.207608 2.7352 0.609736 3.5525C1.43188 4.37398 2.74935 4.35711 3.55395 3.5525Z" fill="currentColor"/>
<path d="M11.9312 3.80899C13.0058 3.97735 13.9824 4.47384 14.7542 5.24571C15.5261 6.01798 16.0226 6.99415 16.191 8.06876C16.3128 8.84806 16.9765 9.41329 17.7695 9.41329C18.7503 9.41329 19.5011 8.5379 19.35 7.57188C19.2253 6.7711 18.98 5.98868 18.6273 5.25704C18.3976 5.30782 18.1609 5.33399 17.9199 5.33399C17.0496 5.33399 16.232 4.99571 15.6175 4.38126C14.8027 3.56602 14.5117 2.42227 14.7437 1.37267C14.0121 1.02032 13.2292 0.774619 12.4285 0.650009C11.4613 0.498837 10.5867 1.25079 10.5867 2.23048C10.5867 3.02345 11.1519 3.68712 11.9312 3.80899Z" fill="currentColor"/>
<path d="M19.3902 3.5525C20.2075 2.73516 20.1989 1.41652 19.3899 0.608281C18.5785 -0.202813 17.2577 -0.202812 16.446 0.608594C15.6349 1.42 15.6349 2.74078 16.446 3.5525C17.2506 4.35711 18.568 4.37398 19.3902 3.5525Z" fill="currentColor"/>
<path d="M8.06878 16.191C6.99417 16.0226 6.01761 15.5261 5.24574 14.7542C4.47386 13.982 3.97738 13.0058 3.80902 11.9312C3.68714 11.1519 3.02347 10.5867 2.2305 10.5867C1.24964 10.5867 0.498861 11.4621 0.650033 12.4281C0.774643 13.2289 1.01996 14.0113 1.37269 14.7429C1.60238 14.6921 1.8391 14.666 2.08011 14.666C2.95042 14.666 3.768 15.0042 4.38246 15.6187C5.1973 16.4339 5.48832 17.5777 5.25628 18.6273C5.98792 18.9796 6.77074 19.2253 7.57152 19.3499C8.53871 19.5011 9.41331 18.7492 9.41331 17.7695C9.41331 16.9765 8.84808 16.3128 8.06878 16.191Z" fill="currentColor"/>
<path d="M0.609736 16.4474C-0.207608 17.2648 -0.198975 18.5834 0.610048 19.3917C1.42145 20.2028 2.74224 20.2028 3.55395 19.3914C4.36505 18.5799 4.36505 17.2592 3.55395 16.4474C2.74935 15.6428 1.43188 15.626 0.609736 16.4474Z" fill="currentColor"/>
<path d="M17.9199 14.666C18.1609 14.666 18.3976 14.6921 18.6273 14.7429C18.98 14.0113 19.2253 13.2289 19.35 12.4281C19.5011 11.4621 18.7503 10.5867 17.7695 10.5867C16.9765 10.5867 16.3128 11.1519 16.191 11.9312C16.0226 13.0058 15.5261 13.982 14.7542 14.7542C13.9824 15.5261 13.0058 16.0226 11.9312 16.191C11.1519 16.3128 10.5867 16.9765 10.5867 17.7695C10.5867 18.7492 11.4613 19.5011 12.4285 19.3499C13.2292 19.2253 14.0121 18.9796 14.7437 18.6273C14.5117 17.5777 14.8027 16.4339 15.6175 15.6187C16.232 15.0042 17.0496 14.666 17.9199 14.666Z" fill="currentColor"/>
<path d="M16.446 16.4474C15.6349 17.2592 15.6349 18.5799 16.446 19.3914C17.2577 20.2028 18.5785 20.2028 19.3899 19.3917C20.1989 18.5834 20.2075 17.2648 19.3902 16.4474C18.568 15.626 17.2506 15.6428 16.446 16.4474Z" fill="currentColor"/>
<path d="M13.4606 7.40311C12.5075 6.44999 10.9603 6.44413 10.0001 7.38631C9.03916 6.44323 7.49631 6.44635 6.53955 7.40311C5.58057 8.3617 5.58057 9.92186 6.53955 10.8805L9.58564 13.9269C9.81404 14.1553 10.1856 14.1558 10.4145 13.9269L13.4606 10.8805C14.4196 9.92186 14.4196 8.3617 13.4606 7.40311Z" fill="currentColor"/>
</svg>
