<svg width="18" height="18" viewBox="0 0 18 18" fill="none" xmlns="http://www.w3.org/2000/svg">
<path d="M8.99994 18.0001C13.9148 18.0001 18 13.9236 18 9.00007C18 4.08516 13.9058 0 8.9909 0C4.06771 0 0.000244141 4.08516 0.000244141 9.00007C0.000244141 13.9236 4.07636 18.0001 8.99994 18.0001ZM9.00031 16.5002C4.83497 16.5002 1.50804 13.1647 1.50804 9.00007C1.50804 4.84376 4.82593 1.49989 8.9909 1.49989C13.1468 1.49989 16.4907 4.84413 16.4997 9.00007C16.5084 13.165 13.1555 16.5002 8.99956 16.5002M8.9909 10.5971C9.41406 10.5971 9.65237 10.3588 9.66103 9.90022L9.79355 5.24132C9.80258 4.79105 9.44945 4.45599 8.98186 4.45599C8.50524 4.45599 8.17018 4.78239 8.17884 5.23228L8.29366 9.90022C8.30232 10.3501 8.54967 10.5971 8.9909 10.5971ZM8.9909 13.4647C9.4935 13.4647 9.94339 13.0589 9.94339 12.5472C9.94339 12.0266 9.50253 11.6294 8.9909 11.6294C8.47023 11.6294 8.03766 12.0352 8.03766 12.5472C8.03766 13.0502 8.47889 13.4647 8.9909 13.4647Z" fill="#F04242"/>
</svg>