<svg xmlns="http://www.w3.org/2000/svg" width='24' height='24' viewBox="0 0 24 24">
    <path
      d="M17.5034 0H6.49657C2.9143 0 0 2.9143 0 6.49657V17.5036C0 21.0857 2.9143 24 6.49657 24H17.5036C21.0857 24 24 21.0857 24 17.5036V6.49657C24 2.9143 21.0857 0 17.5034 0ZM22.593 17.5036C22.593 20.3098 20.3098 22.593 17.5034 22.593H6.49657C3.69012 22.593 1.40698 20.3098 1.40698 17.5036V6.49657C1.40698 3.69012 3.69012 1.40698 6.49657 1.40698H17.5036C20.3098 1.40698 22.593 3.69012 22.593 6.49657V17.5036Z"
      fill="currentColor"
    />
    <path
      d="M12 5.43762C8.38153 5.43762 5.43774 8.3814 5.43774 11.9999C5.43774 15.6185 8.38153 18.5622 12 18.5622C15.6186 18.5622 18.5624 15.6185 18.5624 11.9999C18.5624 8.3814 15.6186 5.43762 12 5.43762ZM12 17.1553C9.15752 17.1553 6.84472 14.8426 6.84472 11.9999C6.84472 9.1574 9.15752 6.8446 12 6.8446C14.8428 6.8446 17.1554 9.1574 17.1554 11.9999C17.1554 14.8426 14.8428 17.1553 12 17.1553Z"
      fill="currentColor"
    />
    <path
      d="M18.7191 3.10706C17.6498 3.10706 16.78 3.97699 16.78 5.04614C16.78 6.11547 17.6498 6.98541 18.7191 6.98541C19.7884 6.98541 20.6584 6.11547 20.6584 5.04614C20.6584 3.97681 19.7884 3.10706 18.7191 3.10706ZM18.7191 5.57824C18.4258 5.57824 18.187 5.33947 18.187 5.04614C18.187 4.75262 18.4258 4.51404 18.7191 4.51404C19.0126 4.51404 19.2514 4.75262 19.2514 5.04614C19.2514 5.33947 19.0126 5.57824 18.7191 5.57824Z"
      fill="currentColor"
    />
  </svg>