<svg fill="none" xmlns="http://www.w3.org/2000/svg">
    <path
        d="M159.819 6.78125C152.167 6.78125 145.169 9.20216 139.02 13.9694C135.505 16.6796 129.873 23.6937 126.174 28.5265C122.732 23.9582 117.06 16.77 113.437 13.9649C107.23 9.19764 100.218 6.78125 92.5937 6.78125C82.2388 6.78125 72.7563 10.9043 65.905 18.3885C58.9497 25.9066 55.1205 36.2367 55.1205 47.4733C55.1205 59.2794 59.4289 69.7338 69.0944 81.3614C69.1803 81.4609 69.3182 81.6056 69.4086 81.7095C69.0085 82.6634 60.8914 108.324 58.6558 115.098H27.8192C27.7989 115.098 27.7808 115.098 27.7627 115.098C25.8097 115.098 23.9788 115.851 22.5954 117.225C21.203 118.615 20.4367 120.458 20.439 122.424C20.4638 135.998 20.1858 189.846 19.7156 202.642C19.6456 204.563 20.3621 206.41 21.7342 207.85C23.1605 209.337 25.1429 210.205 27.1773 210.221H51.2778H51.3208C53.979 210.221 56.1535 208.288 56.1784 205.628L56.201 203.189L118.668 203.716H118.876C128.297 203.716 136.057 195.544 138.878 187.4L143.18 151.396C143.227 151.003 143.388 150.673 143.657 150.408C148.69 145.496 154.832 139.676 156.982 138.037C172.707 125.926 176.995 112.456 177.066 106.99C177.081 102.157 174.627 97.7788 170.499 95.272C170.266 95.1319 170.006 95.0754 169.771 94.9488C176.514 88.6626 181.01 84.1757 183.372 81.3637C192.999 69.7768 197.294 59.3269 197.294 47.4755C197.294 36.2028 193.483 25.8727 186.564 18.3907C179.645 10.9042 170.146 6.78125 159.819 6.78125ZM49.257 202.551H27.7582C28.2261 189.048 28.1266 135.894 27.7582 122.77L49.257 122.964V202.551ZM152.316 131.95C149.477 134.106 142.316 141 138.299 144.915C136.762 146.418 135.813 148.351 135.562 150.508L131.495 185.264C129.47 190.686 124.154 195.996 118.749 196.048L56.2666 195.521V122.994L61.0993 122.438C63.1563 122.157 64.8335 120.77 65.4755 118.823C67.3177 113.251 73.5 94.4809 75.6903 86.7774C77.2952 81.1761 81.8794 75.898 88.5227 76.6824C93.9861 77.3108 98.2674 82.1187 98.4346 87.7358C98.3442 87.9754 92.5191 113.792 92.5191 113.792C92.1529 115.41 92.544 117.076 93.5906 118.369C94.6371 119.653 96.2307 120.256 97.8356 120.356L121.034 120.055C124.056 120.015 127.074 119.251 129.759 117.845L160.63 101.64C162.536 100.645 164.678 100.715 166.516 101.825C168.352 102.939 169.403 104.811 169.394 106.922C169.355 110.033 166.127 121.31 152.316 131.95ZM100.926 111.368C101.405 111.791 101.88 112.212 102.354 112.63L100.636 112.652L100.926 111.368ZM177.484 76.445C174.843 79.5893 168.806 85.4776 159.581 93.918C158.729 94.1712 126.197 111.057 126.197 111.057C124.579 111.904 122.761 112.37 120.939 112.39L114.228 112.478C113.367 111.904 105.892 105.537 102.849 102.835C102.849 102.835 106.111 89.2209 106.111 88.1743C106.172 78.5495 98.8325 70.1565 89.4224 69.0693C83.3893 68.3482 77.8106 70.5476 73.7441 74.8718C66.2192 65.3713 62.7901 56.8427 62.7901 47.4778C62.7901 38.1762 65.8959 29.6951 71.547 23.5852C76.9403 17.6945 84.4178 14.4531 92.5937 14.4531C98.4889 14.4531 103.932 16.336 108.751 20.0386C111.608 22.2493 117.596 29.7132 122.268 36.1441C123.179 37.3873 124.633 38.131 126.154 38.131C126.154 38.131 129.129 37.3873 130.026 36.1644C134.484 30.154 140.743 22.3307 143.713 20.0386C148.492 16.3292 153.91 14.4531 159.819 14.4531C167.983 14.4531 175.479 17.6991 180.929 23.5942C186.534 29.6589 189.622 38.1423 189.622 47.4778C189.622 57.4078 185.874 66.35 177.484 76.445Z"
        fill="#B3DAFF" />
</svg>