<svg xmlns="http://www.w3.org/2000/svg" width="129" height="74" viewBox="0 0 129 74" fill="none">
<path fill-rule="evenodd" clip-rule="evenodd" d="M26.6378 69.6206H34.3632L34.2788 40.0697H27.3977L17.266 57.1248L6.88108 40.0697H0V69.6206H7.68317V54.2963L15.2819 66.7077H18.9969L26.5956 53.9586L26.6378 69.6206ZM49.5139 46.3596C56.9437 46.3596 61.2075 49.6524 61.2075 56.9134V69.6203H53.7354V66.6652C52.5956 68.8604 50.316 70.0002 46.9809 70.0002C41.493 70.0002 38.4535 66.9185 38.4535 62.9503C38.4535 58.7287 41.5352 56.1113 48.6273 56.1113H53.1866C53.0599 53.7895 51.498 52.4808 48.3318 52.4808C46.1366 52.4808 43.6882 53.2407 42.1262 54.4649L39.4244 49.0191C42.0418 47.2883 45.9256 46.3596 49.5139 46.3596ZM49.2184 64.9344C50.9914 64.9344 52.5534 64.0901 53.1866 62.2748V60.2907H49.7249C47.1498 60.2907 46.2211 61.2194 46.2211 62.6125C46.2211 63.9634 47.3187 64.9344 49.2184 64.9344ZM76.0378 46.7395H87.5625V69.6203H80.4281V63.4147H76.7976L72.745 69.6203H64.2597L69.3255 62.3171C66.3283 61.0084 64.6396 58.6443 64.6396 55.3515C64.6396 49.8635 69.03 46.7395 76.0378 46.7395ZM76.2066 53.0719C74.0536 53.0719 72.8294 53.8317 72.8294 55.647C72.8294 57.5045 73.9692 58.2644 76.1644 58.2644H80.4281V53.0719H76.2066Z" fill="#003A71"/>
<path fill-rule="evenodd" clip-rule="evenodd" d="M101.998 61.4965L107.317 69.6441H116.773L108.583 57.7394L116.267 46.7634H107.781L102.167 55.2065H100.532V50.8286L95.2855 56.111V50.1278L100.532 44.8454V38.8876L95.2855 44.17V38.1867L100.5 33.5H91.2751V69.6441H93.959V64.4939C93.959 63.4614 94.796 62.6244 95.8285 62.6244C96.861 62.6244 97.698 63.4614 97.698 64.4939V69.6441H100.532V61.4965H101.998Z" fill="#006ED6"/>
<path d="M87.6492 29.2827H104.535V34.1073H87.6492V29.2827Z" fill="#006ED6"/>
<path d="M100.577 24.443C100.078 25.4545 99.2485 26.2598 98.2289 26.7218C97.2094 27.1839 96.063 27.274 94.9851 26.9768C93.9073 26.6796 92.9646 26.0136 92.3178 25.0922C91.6709 24.1707 91.3599 23.0509 91.4378 21.9235C91.5156 20.7961 91.9774 19.7309 92.7446 18.9093C93.5118 18.0878 94.5368 17.5608 95.645 17.418C96.7532 17.2753 97.8761 17.5257 98.8223 18.1266C99.7684 18.7275 100.479 19.6417 100.834 20.7134L96.2548 22.2638L100.577 24.443Z" fill="#006ED6"/>
<path d="M100.834 22.2636L121.821 16.153L121.821 28.3743L100.834 22.2636Z" fill="#EFE60E"/>
<path fill-rule="evenodd" clip-rule="evenodd" d="M96.1527 3L110.287 12.2861H82.0181L96.1527 3ZM89.5867 12.2863H102.719V14.7251H89.5867V12.2863ZM98.7962 10.515H103.793L96.1601 5.51818L98.7962 10.515Z" fill="#006ED6"/>
</svg>