<svg xmlns="http://www.w3.org/2000/svg" width="20" height="14" viewBox="0 0 16 14" fill="none">
  <path d="M0.499919 1.16667V0.75C0.389412 0.75 0.283431 0.793899 0.205291 0.872039C0.127151 0.950179 0.083252 1.05616 0.083252 1.16667H0.499919ZM15.4999 1.16667H15.9166C15.9166 1.05616 15.8727 0.950179 15.7945 0.872039C15.7164 0.793899 15.6104 0.75 15.4999 0.75V1.16667ZM0.499919 1.58333H15.4999V0.75H0.499919V1.58333ZM15.0833 1.16667V11.1667H15.9166V1.16667H15.0833ZM13.8333 12.4167H2.16659V13.25H13.8333V12.4167ZM0.916585 11.1667V1.16667H0.083252V11.1667H0.916585ZM2.16659 12.4167C1.83506 12.4167 1.51712 12.285 1.2827 12.0505C1.04828 11.8161 0.916585 11.4982 0.916585 11.1667H0.083252C0.083252 11.7192 0.302745 12.2491 0.693446 12.6398C1.08415 13.0305 1.61405 13.25 2.16659 13.25V12.4167ZM15.0833 11.1667C15.0833 11.4982 14.9516 11.8161 14.7171 12.0505C14.4827 12.285 14.1648 12.4167 13.8333 12.4167V13.25C14.3858 13.25 14.9157 13.0305 15.3064 12.6398C15.6971 12.2491 15.9166 11.7192 15.9166 11.1667H15.0833Z" fill="#504F53"/>
  <path d="M0.5 1.16669L8 8.66669L15.5 1.16669" stroke="#504F53" stroke-linecap="round" stroke-linejoin="round"/>
</svg>