<svg xmlns="http://www.w3.org/2000/svg"  viewBox="0 0 70 80" fill="none">
  <path d="M65.377 56.1597C64.9059 55.7158 64.1643 55.738 63.7204 56.2087C63.2765 56.6795 63.2985 57.4214 63.7695 57.8653C66.0904 60.0527 67.3685 63.0131 67.3685 66.2017C67.3685 72.5178 62.2299 77.6564 55.9138 77.6564C49.5968 77.6564 44.4576 72.5178 44.4576 66.2017C44.4576 59.8847 49.597 54.7455 55.9138 54.7455C57.1502 54.7455 58.3679 54.9419 59.5332 55.3294C60.1471 55.5331 60.8107 55.2012 61.0149 54.587C61.2191 53.9728 60.8868 53.3095 60.2727 53.1053C58.8685 52.6384 57.4021 52.4017 55.914 52.4017C53.7907 52.4017 51.7782 52.8841 49.9796 53.7444C48.484 52.1967 46.5546 51.0911 44.4568 50.5956L36.4104 48.6945L33.0938 46.9625V43.6491C37.1318 41.4405 39.7735 37.2459 40.018 32.6488H41.3923C44.1271 32.6488 46.3523 30.4237 46.3523 27.6887C46.3523 25.9703 45.4735 24.4536 44.142 23.5633V17.4297C44.142 14.2848 43.2948 11.2028 41.6921 8.51672C41.3604 7.96078 40.6412 7.77906 40.0852 8.11078C39.5295 8.44234 39.3477 9.16187 39.6793 9.7175C41.0655 12.0406 41.7982 14.7075 41.7982 17.4295V22.7466C41.6641 22.7356 41.529 22.7286 41.3923 22.7286H40.0387V22.6627C40.0387 20.5361 38.8034 18.5597 36.8915 17.628L34.6451 16.5333C34.2016 16.3173 33.6709 16.4019 33.3166 16.7448L31.9905 18.0288C29.6651 20.2802 26.3871 21.2208 23.222 20.545L17.4285 19.3083C16.437 19.0969 15.4165 19.3411 14.6282 19.9788C13.8401 20.6164 13.3879 21.5636 13.3879 22.5775V22.7286H12.0343C11.8973 22.7286 11.762 22.7356 11.6277 22.7466V17.4294C11.6277 9.11109 18.3952 2.34344 26.7137 2.34344C30.2548 2.34344 33.6951 3.59437 36.4009 5.86594C36.8965 6.28219 37.6357 6.21766 38.0518 5.72187C38.4679 5.22625 38.4034 4.48703 37.9077 4.07094C34.7807 1.44594 30.8052 0 26.7138 0C17.103 0 9.28414 7.81891 9.28414 17.4297V23.5634C7.95289 24.4538 7.0743 25.9703 7.0743 27.6886C7.0743 30.4236 9.2993 32.6486 12.0343 32.6486H13.4085C13.653 37.2459 16.2948 41.4403 20.3326 43.6489V46.9625L17.0151 48.6952L8.96898 50.5956C3.85711 51.8042 0.287109 56.3159 0.287109 61.5673V65.2548C0.287109 65.9022 0.811797 66.4267 1.45898 66.4267C2.10617 66.4267 2.63086 65.9022 2.63086 65.2548V61.5673C2.63086 57.4078 5.45898 53.8341 9.50805 52.8766L14.8421 51.6166L11.0532 57.4159C10.7362 57.9013 10.8216 58.5455 11.2541 58.9314L15.2412 62.4886L14.0262 68.8214C13.9465 69.2366 14.0966 69.6625 14.419 69.9359L23.5202 77.6562H11.3123V69.0422C11.3123 68.3948 10.7876 67.8703 10.1404 67.8703C9.4932 67.8703 8.96852 68.3948 8.96852 69.0422V77.6562H2.63102V70.7234C2.63102 70.0761 2.10633 69.5516 1.45914 69.5516C0.811953 69.5516 0.287266 70.0761 0.287266 70.7234V78.8281C0.287266 79.4755 0.811953 80 1.45914 80H55.9138C63.5223 80 69.7123 73.8102 69.7123 66.2016C69.7123 62.4164 68.1321 58.7562 65.377 56.1597ZM35.7582 62.2773L36.9696 68.5911L29.0765 75.2867L34.1579 59.4023C34.1579 59.4023 34.1579 59.4022 34.158 59.4022L36.3648 52.5044L39.8598 57.8538L36.1291 61.1822C35.8213 61.4566 35.6805 61.8725 35.7582 62.2773ZM26.7132 45.2758C28.1015 45.2758 29.453 45.0667 30.7499 44.6539V47.2548L26.7132 52.1955L22.6765 47.2548V44.6539C23.9735 45.0667 25.3249 45.2758 26.7132 45.2758ZM32.7205 56.2036L32.441 57.0773L28.3746 53.8662L32.2255 49.1531L34.5823 50.3841L32.7205 56.2036ZM21.201 49.1531L25.052 53.8662L20.9855 57.0773L18.8443 50.3841L21.201 49.1531ZM26.7132 55.5406L31.6782 59.4614L26.7132 74.9819L21.7482 59.4614L26.7132 55.5406ZM44.0084 27.6886C44.0084 29.1311 42.8348 30.3048 41.3921 30.3048H40.0385V25.0725H41.3921C42.8348 25.0725 44.0084 26.2461 44.0084 27.6886ZM9.41805 27.6886C9.41805 26.2461 10.5916 25.0725 12.0343 25.0725H13.3879V30.3048H12.0343C10.5918 30.3048 9.41805 29.1311 9.41805 27.6886ZM15.7316 31.9502V22.5777C15.7316 22.1628 15.9638 21.913 16.1024 21.8009C16.2407 21.6887 16.5337 21.5141 16.9391 21.6006L22.7327 22.8373C26.6632 23.6762 30.7335 22.5083 33.6209 19.7128L34.3568 19.0002L35.8648 19.735C36.9766 20.2769 37.6949 21.4259 37.6949 22.6627V31.95C37.6949 36.1694 35.2316 40.0653 31.4191 41.8755C29.9435 42.5762 28.3602 42.9317 26.7132 42.9317C25.0663 42.9317 23.483 42.5764 22.0071 41.8753C18.1949 40.0655 15.7316 36.1695 15.7316 31.9502ZM17.2976 61.182L13.567 57.8538L17.0618 52.5042L19.2684 59.402L19.2688 59.403L24.3499 75.2866L16.4568 68.5909L17.668 62.2772C17.7459 61.8725 17.6051 61.4566 17.2976 61.182ZM29.9063 77.6562L39.0076 69.9359C39.3299 69.6625 39.4801 69.2366 39.4004 68.8214L38.1852 62.4886L42.1724 58.9314C42.6049 58.5455 42.6904 57.9013 42.3734 57.4159L38.5843 51.6164L43.9179 52.8764C45.4215 53.2316 46.774 53.9512 47.8921 54.9791C44.3962 57.4852 42.1138 61.5817 42.1138 66.2017C42.1138 70.9673 44.5429 75.1763 48.2277 77.6564H29.9063V77.6562Z" fill="#A6A4BC"/>
  <path d="M60.4239 62.0974V65.7893C60.4239 66.5887 59.7736 67.239 58.9743 67.239H57.0857V63.2693H57.4922C58.1394 63.2693 58.6641 62.7448 58.6641 62.0974C58.6641 61.4501 58.1394 60.9255 57.4922 60.9255H54.3355C53.6883 60.9255 53.1636 61.4501 53.1636 62.0974C53.1636 62.7448 53.6883 63.2693 54.3355 63.2693H54.7421V67.239H52.8535C52.0541 67.239 51.4036 66.5887 51.4036 65.7893V62.0974C51.4036 61.4501 50.8789 60.9255 50.2318 60.9255H48.6533C48.0061 60.9255 47.4814 61.4501 47.4814 62.0974C47.4814 62.7448 48.0061 63.2693 48.6533 63.2693H49.0599V65.7893C49.0599 67.881 50.7618 69.5827 52.8535 69.5827H54.7421V71.9741H54.3355C53.6883 71.9741 53.1636 72.4987 53.1636 73.146C53.1636 73.7933 53.6883 74.3179 54.3355 74.3179H57.4922C58.1394 74.3179 58.6641 73.7933 58.6641 73.146C58.6641 72.4987 58.1394 71.9741 57.4922 71.9741H57.0857V69.5827H58.9743C61.066 69.5827 62.7677 67.8808 62.7677 65.7893V63.2693H63.1743C63.8214 63.2693 64.3461 62.7448 64.3461 62.0974C64.3461 61.4501 63.8214 60.9255 63.1743 60.9255H61.5958C60.9486 60.9255 60.4239 61.4501 60.4239 62.0974Z" fill="#A6A4BC"/>
</svg>