<svg width="20" height="20" viewBox="0 0 20 20" fill="none" xmlns="http://www.w3.org/2000/svg">
    <path d="M7.5 5.5325V17.0833M12.5 2.5V14.1667M2.5 7.25833C2.5 6.03 2.5 5.41667 2.8275 5.05833C2.94341 4.93086 3.08441 4.82872 3.24167 4.75833C3.685 4.56167 4.2675 4.75583 5.4325 5.14417C6.32167 5.44083 6.76583 5.58917 7.21583 5.57333C7.38091 5.56791 7.54505 5.54613 7.70583 5.50833C8.14333 5.40417 8.53333 5.14417 9.31333 4.625L10.465 3.85667C11.465 3.19 11.9642 2.85667 12.5375 2.78083C13.1108 2.70333 13.6808 2.89333 14.82 3.27333L15.7908 3.59667C16.6158 3.87167 17.0283 4.00917 17.2642 4.33667C17.5 4.66417 17.5 5.09917 17.5 5.96833V12.7425C17.5 13.97 17.5 14.5842 17.1725 14.9425C17.0564 15.0694 16.9154 15.1709 16.7583 15.2408C16.315 15.4383 15.7325 15.2442 14.5675 14.8558C13.6783 14.5592 13.2342 14.4108 12.7842 14.4267C12.6191 14.4321 12.455 14.4539 12.2942 14.4917C11.8567 14.5958 11.4667 14.8558 10.6867 15.375L9.535 16.1433C8.535 16.81 8.03583 17.1433 7.4625 17.2192C6.88917 17.2967 6.31917 17.1067 5.18 16.7267L4.20917 16.4033C3.38417 16.1283 2.97167 15.9908 2.73583 15.6633C2.5 15.3358 2.5 14.9 2.5 14.0317V7.25833Z"
          stroke="currentColor" stroke-width="1.5"/>
</svg>
