<svg fill="none" viewBox="0 0 20 20"  xmlns="http://www.w3.org/2000/svg">
<path d="M6.12166 5.76621H8.40588C8.48779 5.76621 8.55424 5.83262 8.55424 5.91457V8.16703C8.55424 8.39355 8.73787 8.57723 8.96443 8.57723H10.9922C11.2187 8.57723 11.4024 8.39359 11.4024 8.16703V5.91457C11.4024 5.83266 11.4688 5.76621 11.5508 5.76621H13.8785C14.1051 5.76621 14.2887 5.58258 14.2887 5.35602V3.24855C14.2887 3.02203 14.1051 2.83836 13.8785 2.83836H11.5654C11.4835 2.83836 11.4171 2.77195 11.4171 2.69V0.410195C11.4171 0.183633 11.2334 0 11.0069 0H8.98533C8.75881 0 8.57514 0.183633 8.57514 0.410195V2.69C8.57514 2.77191 8.50873 2.83836 8.42678 2.83836H6.12162C5.8951 2.83836 5.71143 3.02199 5.71143 3.24855V5.35602C5.71146 5.58254 5.8951 5.76621 6.12166 5.76621Z" fill="currentColor"/>
<path d="M3.34586 8.08176C3.12387 7.85977 2.79621 7.78196 2.47629 7.89543C2.46934 7.89825 2.46223 7.90114 2.45531 7.90391C1.89508 8.15907 1.80875 8.84383 2.19629 9.23145L5.20512 12.2406C5.45512 12.4906 5.44832 12.9002 5.18473 13.1415C4.93641 13.3688 4.54797 13.3462 4.30992 13.1081L1.31488 10.1129C0.511992 9.30985 0.511992 8.00325 1.31488 7.20028C1.63414 6.88094 2.03988 6.67969 2.47922 6.6177V2.95969C2.47922 2.26321 1.90805 1.70012 1.20859 1.71336C0.532617 1.72622 0 2.2975 0 2.9736V10.1518C0 10.5196 0.104492 10.8799 0.301328 11.1907L3.95578 16.961C4.26242 17.4451 4.4252 18.0064 4.4252 18.5796V19.46C4.4252 19.7582 4.66695 20 4.9652 20H9.37625V15.0478C9.37625 14.4448 9.14297 13.8795 8.71945 13.4558L3.34586 8.08176Z" fill="currentColor"/>
<path d="M18.7432 1.71334C18.0592 1.72569 17.5198 2.30358 17.5198 2.98776V6.61772C18.2123 6.71123 18.8818 7.20428 19.1648 7.93459C19.4394 8.73705 19.2407 9.55623 18.6841 10.1128L15.6747 13.1242C15.4313 13.3677 15.0367 13.3678 14.7933 13.1245C14.5499 12.8812 14.5498 12.4865 14.793 12.243L17.8026 9.23155C18.0265 9.00764 18.1037 8.67655 17.9864 8.35436C17.9026 8.15311 17.7421 7.99948 17.5492 7.91635C17.2361 7.78135 16.8709 7.86389 16.6298 8.10506L11.2796 13.4558C10.8561 13.8794 10.6228 14.4448 10.6228 15.0478V20H15.0339C15.3321 20 15.5738 19.7583 15.5738 19.46V18.5796C15.5738 18.0064 15.7366 17.4451 16.0433 16.961L19.6851 11.1907C19.8908 10.8658 20 10.4892 20 10.1046V2.95967C20.0001 2.26358 19.4421 1.70073 18.7432 1.71334Z" fill="currentColor"/>
</svg>
