<svg fill="none" viewBox="0 0 20 20" xmlns="http://www.w3.org/2000/svg">
<path d="M9.33034 15.4303V16.8485H10.6319V15.4303C10.6319 15.1065 10.8939 14.844 11.2171 14.844H12.7416V13.4704H11.2298C10.9066 13.4704 10.6447 13.2079 10.6447 12.8841V11.3541H9.34851V12.8841C9.34851 13.2079 9.08651 13.4704 8.76339 13.4704H7.2146V14.844H8.74522C9.06835 14.844 9.33034 15.1065 9.33034 15.4303Z" fill="currentColor"/>
<path d="M0.520898 7.36189H19.4791C19.7668 7.36189 20 7.12818 20 6.83994V5.43943C20 5.15115 19.7668 4.91748 19.4791 4.91748H0.520898C0.233203 4.91744 0 5.15115 0 5.43939V6.8399C0 7.12818 0.233203 7.36189 0.520898 7.36189Z" fill="currentColor"/>
<path d="M1.20044 8.53467V19.146C1.20044 19.4343 1.43364 19.668 1.72134 19.668H18.2788C18.5665 19.668 18.7997 19.4343 18.7997 19.146V8.53467H17.1158V11.3163C17.1158 11.632 16.8736 11.9037 16.5589 11.9185C16.2229 11.9344 15.9455 11.666 15.9455 11.3328V8.53467H4.05462V11.3163C4.05462 11.632 3.81247 11.9037 3.49774 11.9185C3.16173 11.9344 2.88431 11.666 2.88431 11.3328V8.53467H1.20044ZM6.04435 12.8841C6.04435 12.5603 6.30634 12.2978 6.62946 12.2978H8.17825V10.7678C8.17825 10.444 8.44024 10.1815 8.76337 10.1815H11.2298C11.553 10.1815 11.8149 10.444 11.8149 10.7678V12.2978H13.3267C13.6499 12.2978 13.9118 12.5603 13.9118 12.8841V15.4303C13.9118 15.7542 13.6498 16.0167 13.3267 16.0167H11.8022V17.4348C11.8022 17.7587 11.5402 18.0212 11.2171 18.0212H8.74524C8.42208 18.0212 8.16013 17.7587 8.16013 17.4348V16.0167H6.6295C6.30634 16.0167 6.04438 15.7542 6.04438 15.4303V12.8841H6.04435Z" fill="currentColor"/>
<path d="M6.71133 3.74469V2.03105C6.71133 1.74086 6.94695 1.5048 7.23656 1.5048H12.7637C13.0533 1.5048 13.2889 1.74086 13.2889 2.03105V3.74469H14.4593V2.03105C14.4593 1.09422 13.6986 0.332031 12.7637 0.332031H7.23656C6.30164 0.332031 5.54102 1.09418 5.54102 2.03105V3.74469H6.71133Z" fill="currentColor"/>
</svg>
