<svg viewBox="0 0 430 376" fill="none" xmlns="http://www.w3.org/2000/svg">
    <path
        d="M111.479 364.712C111.479 364.712 162.12 391.035 219.997 363.286C277.874 335.537 296.655 281.749 326.69 241.346C342.418 220.188 368.158 208.396 387.789 190.605C450.56 133.717 427.913 38.6033 370.482 12.5033C320.763 -10.0915 263.325 -1.99785 192.155 36.2553C120.984 74.5094 69.7059 99.1894 32.3407 175.42C-5.0245 251.65 48.5185 327.828 111.479 364.712Z"
        fill="#DFF0FF" />
    <path opacity="0.7"
        d="M111.479 364.712C111.479 364.712 162.12 391.035 219.997 363.286C277.874 335.537 296.655 281.749 326.69 241.346C342.418 220.188 368.158 208.396 387.789 190.605C450.56 133.717 427.913 38.6033 370.482 12.5033C320.763 -10.0915 263.325 -1.99785 192.155 36.2553C120.984 74.5094 69.7059 99.1894 32.3407 175.42C-5.0245 251.65 48.5185 327.828 111.479 364.712Z"
        fill="white" />
    <path
        d="M361.409 331.603C361.409 331.603 357.888 316.638 360.529 303.432C363.169 290.226 369.332 299.03 376.375 290.226C383.418 281.423 379.896 264.696 387.82 257.653C395.743 250.61 407.188 251.491 409.829 238.286C412.469 225.081 414.23 214.516 419.512 216.277C424.794 218.038 415.111 233.884 415.111 243.568C415.111 253.252 420.393 259.414 416.872 269.098C413.35 278.782 398.384 275.261 398.384 286.705C398.384 298.15 404.547 309.595 399.264 317.517C393.982 325.441 379.896 327.201 378.136 331.603C376.375 336.005 371.973 343.929 367.572 343.929C363.17 343.929 361.409 331.603 361.409 331.603Z"
        fill="#ADBF4F" />
    <path
        d="M358.545 331.76C359.425 329.118 357.664 306.229 349.742 301.827C341.818 297.426 333.015 299.187 328.613 291.263C324.212 283.34 324.212 279.818 319.81 278.938C315.409 278.057 294.28 274.536 296.921 278.938C299.562 283.339 315.409 276.297 315.409 285.1C315.409 293.903 313.648 307.99 318.93 311.511C324.212 315.032 338.298 314.151 337.417 322.075C336.537 329.999 333.896 332.639 338.298 335.281C342.7 337.921 355.025 349.366 356.786 340.563C358.545 331.76 358.545 331.76 358.545 331.76Z"
        fill="#ADBF4F" />
    <path d="M368.342 351.17C368.342 351.17 364.241 338.354 375.519 314.772C386.797 291.19 395 273.248 400.126 264.021"
        stroke="#808438" stroke-width="1.232" stroke-miterlimit="10" />
    <path
        d="M359.115 353.221C359.115 353.221 357.576 347.069 352.451 330.152C347.325 313.235 341.173 308.621 332.457 302.981C323.742 297.342 323.23 288.115 321.691 285.551"
        stroke="#808438" stroke-width="1.232" stroke-miterlimit="10" />
    <path
        d="M380.646 343.993C380.646 343.993 381.672 334.766 389.874 332.202C398.076 329.639 405.766 330.664 407.304 325.025C408.842 319.386 408.842 313.747 412.431 310.67C416.019 307.595 420.633 306.057 421.145 307.595C421.658 309.133 416.019 310.158 416.019 315.284C416.019 320.41 423.709 333.227 412.431 338.353C401.153 343.48 391.925 338.866 387.824 342.455C383.723 346.043 381.16 348.607 381.16 348.607L380.646 343.993Z"
        fill="#ADBF4F" />
    <path
        d="M379.621 353.221C379.621 353.221 383.21 339.891 391.924 336.816C400.64 333.74 410.379 340.404 414.481 334.252C418.582 328.1 415.506 321.949 414.994 317.848"
        stroke="#808438" stroke-width="1.232" stroke-miterlimit="10" />
    <path
        d="M385.389 351.17H353.604C352.189 351.17 351.041 352.318 351.041 353.734C351.041 355.149 352.189 356.297 353.604 356.297H353.861L356.336 362.788C356.729 363.818 357.718 364.499 358.82 364.499H380.173C381.277 364.499 382.265 363.818 382.657 362.788L385.132 356.297H385.389C386.805 356.297 387.952 355.149 387.952 353.734C387.951 352.318 386.804 351.17 385.389 351.17Z"
        fill="#2A0F03" />
    <path
        d="M257.289 358.785C257.289 355.665 259.819 353.137 262.939 353.137C266.058 353.137 268.587 355.665 268.587 358.785C268.587 361.905 266.057 364.434 262.939 364.434C259.818 364.435 257.289 361.905 257.289 358.785Z"
        fill="#1D1D1E" stroke="#1D1D1E" stroke-width="1.232" stroke-miterlimit="10" stroke-linecap="round"
        stroke-linejoin="round" />
    <path
        d="M260.113 358.785C260.113 357.225 261.378 355.961 262.937 355.961C264.497 355.961 265.762 357.226 265.762 358.785C265.762 360.345 264.497 361.609 262.937 361.609C261.378 361.609 260.113 360.346 260.113 358.785Z"
        fill="white" stroke="#1D1D1E" stroke-width="1.232" stroke-miterlimit="10" stroke-linecap="round"
        stroke-linejoin="round" />
    <path
        d="M196.785 358.785C196.785 355.665 199.314 353.137 202.434 353.137C205.553 353.137 208.083 355.665 208.083 358.785C208.083 361.905 205.553 364.434 202.434 364.434C199.314 364.435 196.785 361.905 196.785 358.785Z"
        fill="#1D1D1E" stroke="#1D1D1E" stroke-width="1.232" stroke-miterlimit="10" stroke-linecap="round"
        stroke-linejoin="round" />
    <path
        d="M199.609 358.785C199.609 357.225 200.874 355.961 202.434 355.961C203.994 355.961 205.258 357.226 205.258 358.785C205.258 360.345 203.993 361.609 202.434 361.609C200.874 361.609 199.609 360.346 199.609 358.785Z"
        fill="white" stroke="#1D1D1E" stroke-width="1.232" stroke-miterlimit="10" stroke-linecap="round"
        stroke-linejoin="round" />
    <path
        d="M177.014 358.785C177.014 355.665 179.542 353.137 182.662 353.137C185.782 353.137 188.312 355.665 188.312 358.785C188.312 361.905 185.782 364.434 182.662 364.434C179.542 364.435 177.014 361.905 177.014 358.785Z"
        fill="#1D1D1E" stroke="#1D1D1E" stroke-width="1.232" stroke-miterlimit="10" stroke-linecap="round"
        stroke-linejoin="round" />
    <path
        d="M179.838 358.785C179.838 357.225 181.103 355.961 182.662 355.961C184.223 355.961 185.486 357.226 185.486 358.785C185.486 360.345 184.222 361.609 182.662 361.609C181.103 361.609 179.838 360.346 179.838 358.785Z"
        fill="white" stroke="#1D1D1E" stroke-width="1.232" stroke-miterlimit="10" stroke-linecap="round"
        stroke-linejoin="round" />
    <path
        d="M211.189 352.327H223.138V291.201C223.138 291.18 223.121 291.163 223.1 291.163H211.227C211.206 291.163 211.189 291.18 211.189 291.201V352.327Z"
        fill="#1D1D1E" stroke="#1D1D1E" stroke-width="1.232" stroke-miterlimit="10" stroke-linecap="round"
        stroke-linejoin="round" />
    <path d="M208.007 352.327H226.318V309.131H208.007V352.327Z" fill="#1D1D1E" stroke="#1D1D1E" stroke-width="1.232"
        stroke-miterlimit="10" stroke-linecap="round" stroke-linejoin="round" />
    <path
        d="M229.399 280.921H244.685C244.706 280.921 244.723 280.904 244.723 280.883V248.011H229.361V280.883C229.361 280.904 229.378 280.921 229.399 280.921Z"
        fill="#1D1D1E" stroke="#1D1D1E" stroke-width="1.232" stroke-miterlimit="10" stroke-linecap="round"
        stroke-linejoin="round" />
    <path
        d="M206.795 248.027H266.606C272.5 248.027 277.235 243.173 277.089 237.281L275.645 178.886C275.504 173.198 270.851 168.659 265.161 168.659H215.772C210.596 168.659 206.194 172.435 205.408 177.552L196.428 235.947C195.454 242.298 200.368 248.027 206.795 248.027Z"
        fill="#FFE5B4" stroke="#F08154" stroke-width="1.232" stroke-miterlimit="10" stroke-linecap="round"
        stroke-linejoin="round" />
    <path d="M226.34 293.296L252.582 310.578" stroke="#1D1D1E" stroke-width="1.232" stroke-miterlimit="10"
        stroke-linecap="round" stroke-linejoin="round" />
    <path
        d="M253.576 307.963L258.046 310.976C259.584 312.013 259.782 314.199 258.457 315.497L258.147 315.8C257.077 316.847 255.391 316.919 254.236 315.967L250.129 312.58C248.831 311.509 248.721 309.557 249.893 308.348C250.865 307.343 252.417 307.182 253.576 307.963Z"
        fill="#1D1D1E" stroke="#1D1D1E" stroke-width="1.232" stroke-miterlimit="10" stroke-linecap="round"
        stroke-linejoin="round" />
    <path
        d="M168.519 296.284H265.809C270.994 296.284 275.197 292.081 275.197 286.896C275.197 281.711 270.994 277.508 265.809 277.508H168.519C163.334 277.508 159.131 281.711 159.131 286.896C159.131 292.081 163.334 296.284 168.519 296.284Z"
        fill="#FFE5B4" stroke="#F08154" stroke-width="1.232" stroke-miterlimit="10" stroke-linecap="round"
        stroke-linejoin="round" />
    <path
        d="M159.198 285.757C159.762 280.969 164.092 277.508 168.912 277.508H219.331C224.152 277.508 228.482 280.969 229.046 285.757C229.716 291.45 225.285 296.284 219.725 296.284H168.52C162.959 296.284 158.528 291.45 159.198 285.757Z"
        fill="#FFE5B4" stroke="#F08154" stroke-width="1.232" stroke-miterlimit="10" stroke-linecap="round"
        stroke-linejoin="round" />
    <path
        d="M175.201 355.74H268.617C268.617 352.916 266.327 350.626 263.503 350.626H180.316C177.491 350.626 175.201 352.916 175.201 355.74Z"
        fill="#1D1D1E" stroke="#1D1D1E" stroke-width="1.232" stroke-miterlimit="10" stroke-linecap="round"
        stroke-linejoin="round" />
    <path d="M191.834 355.74H222.236V350.626H196.948C194.124 350.626 191.834 352.916 191.834 355.74Z" fill="#1D1D1E"
        stroke="#1D1D1E" stroke-width="1.232" stroke-miterlimit="10" stroke-linecap="round" stroke-linejoin="round" />
    <path
        d="M185.303 238.255L178.573 249.36C178.573 249.36 155.016 251.715 141.556 254.744C128.095 257.773 125.403 272.579 124.73 275.608C123.978 278.99 119.803 349.612 121.148 349.949C122.494 350.286 132.589 351.295 132.589 351.295C132.589 351.295 149.632 282.676 154.679 281.667C159.727 280.657 234.435 282.339 245.54 276.282C256.645 270.225 259.337 252.725 252.943 240.611C246.55 228.496 185.303 238.255 185.303 238.255Z"
        fill="#5D61A0" />
    <path
        d="M231.072 251.716C231.072 251.716 199.775 251.716 184.632 253.062C169.489 254.408 160.066 265.85 160.739 275.945C161.411 286.041 173.647 352.305 173.647 352.305L185.425 351.295L191.729 280.304C191.729 280.304 202.241 287.136 243.236 276.625"
        fill="#5D61A0" />
    <path
        d="M231.072 251.716C231.072 251.716 199.775 251.716 184.632 253.062C169.489 254.408 160.066 265.85 160.739 275.945C161.411 286.041 173.647 352.305 173.647 352.305L185.425 351.295L191.729 280.304C191.729 280.304 202.241 287.136 243.236 276.625"
        stroke="#1D1D1E" stroke-width="1.232" stroke-miterlimit="10" stroke-linecap="round" stroke-linejoin="round" />
    <path
        d="M304.768 143.693C303.758 143.02 300.392 151.769 300.392 151.769C300.392 151.769 296.345 151.556 293.999 151.769C290.297 152.106 287.268 157.154 287.268 160.519C287.268 163.884 271.788 190.806 271.788 190.806C271.788 190.806 258.327 168.595 253.616 164.894C248.905 161.192 231.405 157.826 231.405 157.826C223.555 156.794 217.548 156.625 209.843 157.826C209.843 157.826 192.345 161.191 187.633 164.894C182.922 168.595 169.461 190.806 169.461 190.806C169.461 190.806 153.981 163.884 153.981 160.519C153.981 157.154 150.952 152.106 147.25 151.769C144.904 151.556 140.856 151.769 140.856 151.769C140.856 151.769 137.491 143.02 136.481 143.693C135.472 144.366 137.155 155.134 138.164 157.489C139.173 159.845 147.587 161.528 147.587 161.528C147.587 161.528 158.019 201.237 161.384 206.621C164.749 212.006 168.451 218.736 177.537 214.698C186.623 210.66 198.065 197.535 198.065 197.535L217.273 197.831L217.272 197.872L218.718 197.853L219.939 197.872L219.94 197.837L243.184 197.535C243.184 197.535 254.625 210.66 263.711 214.698C272.797 218.736 276.499 212.006 279.865 206.621C283.231 201.237 293.662 161.528 293.662 161.528C293.662 161.528 302.075 159.845 303.085 157.489C304.094 155.134 305.777 144.366 304.768 143.693Z"
        fill="#FFA87D" />
    <path
        d="M277.234 181.121C274.264 186.5 271.789 190.806 271.789 190.806C271.789 190.806 258.328 168.595 253.617 164.894C248.906 161.192 231.407 157.826 231.407 157.826C223.556 156.794 217.55 156.625 209.845 157.826C209.845 157.826 192.346 161.191 187.634 164.894C182.923 168.595 169.462 190.806 169.462 190.806C169.462 190.806 166.781 186.142 163.652 180.458L154.391 186.095C157.099 195.373 159.916 204.27 161.385 206.622C164.75 212.007 168.453 218.738 177.539 214.699C186.625 210.661 198.066 197.536 198.066 197.536L217.274 197.832L217.273 197.873L218.719 197.854L219.94 197.873L219.941 197.838L243.185 197.536C243.185 197.536 254.627 210.661 263.713 214.699C272.799 218.738 276.5 212.007 279.866 206.622C281.34 204.265 284.167 195.328 286.882 186.024L277.234 181.121Z"
        fill="white" />
    <mask id="mask0_1116_21066" style="mask-type:luminance" maskUnits="userSpaceOnUse" x="154" y="156" width="133"
        height="60">
        <path
            d="M277.236 181.121C274.266 186.5 271.791 190.806 271.791 190.806C271.791 190.806 258.33 168.595 253.619 164.894C248.908 161.192 231.409 157.826 231.409 157.826C223.558 156.794 217.552 156.625 209.847 157.826C209.847 157.826 192.348 161.191 187.636 164.894C182.925 168.595 169.464 190.806 169.464 190.806C169.464 190.806 166.783 186.142 163.654 180.458L154.393 186.095C157.101 195.373 159.917 204.27 161.387 206.622C164.752 212.007 168.455 218.738 177.541 214.699C186.627 210.661 198.068 197.536 198.068 197.536L217.276 197.832L217.275 197.873L218.721 197.854L219.942 197.873L219.943 197.838L243.187 197.536C243.187 197.536 254.629 210.661 263.715 214.699C272.801 218.738 276.502 212.007 279.868 206.622C281.342 204.265 284.169 195.328 286.884 186.024L277.236 181.121Z"
            fill="white" />
    </mask>
    <g mask="url(#mask0_1116_21066)">
        <path
            d="M269.132 197.033C268.956 194.824 268.789 192.738 269.686 191.392C270.169 190.668 270.63 190.081 271.051 189.6C270.708 189.043 270.26 188.316 269.722 187.454C269.091 188.106 268.393 188.934 267.657 190.038C266.291 192.089 266.5 194.701 266.702 197.227C266.879 199.436 267.045 201.522 266.148 202.867C265.382 204.017 264.631 203.928 262.573 203.503C260.94 203.166 258.909 202.745 256.59 203.519C254.715 204.144 253.673 205.659 253.109 207.391C253.778 207.972 254.462 208.549 255.157 209.113C255.445 207.602 256.076 206.261 257.363 205.833C259.058 205.268 260.594 205.586 262.081 205.892C264.133 206.314 266.461 206.798 268.18 204.221C269.544 202.171 269.335 199.559 269.132 197.033Z"
            fill="#B3DAFF" />
        <path
            d="M243.185 197.535C243.185 197.535 243.472 197.865 243.989 198.433C244.9 198.027 245.648 197.642 246.042 197.326C246.303 197.117 247.359 197.213 248.29 197.296C250.133 197.463 252.656 197.692 255.8 196.792C259.881 195.627 260.034 191.195 260.168 187.285C260.243 185.105 260.321 182.85 261.063 181.489C262.021 179.733 263.649 179.635 264.89 179.882C264.349 179.054 263.796 178.217 263.235 177.377C261.624 177.538 260.01 178.325 258.921 180.321C257.902 182.19 257.814 184.737 257.729 187.201C257.588 191.288 257.343 193.816 255.128 194.448C252.422 195.221 250.252 195.025 248.508 194.867C246.917 194.724 245.542 194.598 244.512 195.425C243.963 195.865 241.827 196.735 239.514 197.583L243.185 197.535Z"
            fill="#B3DAFF" />
        <path
            d="M185.31 203.52C182.991 202.746 180.96 203.167 179.327 203.504C177.269 203.929 176.518 204.018 175.752 202.868C174.855 201.522 175.021 199.437 175.199 197.228C175.4 194.703 175.609 192.09 174.243 190.039C173.352 188.703 172.507 187.741 171.783 187.049C171.266 187.877 170.818 188.599 170.457 189.184C170.98 189.727 171.573 190.433 172.213 191.393C173.11 192.739 172.943 194.825 172.767 197.034C172.564 199.56 172.355 202.171 173.723 204.222C175.441 206.799 177.769 206.315 179.821 205.893C181.308 205.586 182.846 205.268 184.539 205.834C185.696 206.219 186.316 207.348 186.64 208.669C187.32 208.105 187.988 207.531 188.64 206.957C188.045 205.409 187.026 204.092 185.31 203.52Z"
            fill="#B3DAFF" />
        <path
            d="M193.388 194.867C191.644 195.025 189.474 195.221 186.768 194.448C184.553 193.816 184.308 191.288 184.167 187.201C184.082 184.737 183.993 182.19 182.975 180.321C181.745 178.067 179.844 177.352 178.035 177.345C177.42 178.265 176.812 179.185 176.221 180.091C177.459 179.675 179.654 179.327 180.832 181.489C181.575 182.849 181.653 185.105 181.728 187.285C181.862 191.195 182.015 195.627 186.095 196.792C189.24 197.692 191.763 197.463 193.605 197.296C194.536 197.213 195.592 197.117 195.854 197.326C196.179 197.587 196.746 197.896 197.447 198.225C197.841 197.789 198.063 197.535 198.063 197.535L202.433 197.603C200.098 196.748 197.933 195.868 197.381 195.425C196.354 194.598 194.979 194.724 193.388 194.867Z"
            fill="#B3DAFF" />
    </g>
    <mask id="mask1_1116_21066" style="mask-type:luminance" maskUnits="userSpaceOnUse" x="154" y="156" width="133"
        height="60">
        <path
            d="M277.236 181.121C274.266 186.5 271.791 190.806 271.791 190.806C271.791 190.806 258.33 168.595 253.619 164.894C248.908 161.192 231.409 157.826 231.409 157.826C223.558 156.794 217.552 156.625 209.847 157.826C209.847 157.826 192.348 161.191 187.636 164.894C182.925 168.595 169.464 190.806 169.464 190.806C169.464 190.806 166.783 186.142 163.654 180.458L154.393 186.095C157.101 195.373 159.917 204.27 161.387 206.622C164.752 212.007 168.455 218.738 177.541 214.699C186.627 210.661 198.068 197.536 198.068 197.536L217.276 197.832L217.275 197.873L218.721 197.854L219.942 197.873L219.943 197.838L243.187 197.536C243.187 197.536 254.629 210.661 263.715 214.699C272.801 218.738 276.502 212.007 279.868 206.622C281.342 204.265 284.169 195.328 286.884 186.024L277.236 181.121Z"
            fill="white" />
    </mask>
    <g mask="url(#mask1_1116_21066)">
        <g opacity="0.5">
            <path
                d="M269.132 197.033C268.956 194.824 268.789 192.738 269.686 191.392C270.169 190.668 270.63 190.081 271.051 189.6C270.708 189.043 270.26 188.316 269.722 187.454C269.091 188.106 268.393 188.934 267.657 190.038C266.291 192.089 266.5 194.701 266.702 197.227C266.879 199.436 267.045 201.522 266.148 202.867C265.382 204.017 264.631 203.928 262.573 203.503C260.94 203.166 258.909 202.745 256.59 203.519C254.715 204.144 253.673 205.659 253.109 207.391C253.778 207.972 254.462 208.549 255.157 209.113C255.445 207.602 256.076 206.261 257.363 205.833C259.058 205.268 260.594 205.586 262.081 205.892C264.133 206.314 266.461 206.798 268.18 204.221C269.544 202.171 269.335 199.559 269.132 197.033Z"
                fill="#5D61A0" />
            <path
                d="M243.185 197.535C243.185 197.535 243.472 197.865 243.989 198.433C244.9 198.027 245.648 197.642 246.042 197.326C246.303 197.117 247.359 197.213 248.29 197.296C250.133 197.463 252.656 197.692 255.8 196.792C259.881 195.627 260.034 191.195 260.168 187.285C260.243 185.105 260.321 182.85 261.063 181.489C262.021 179.733 263.649 179.635 264.89 179.882C264.349 179.054 263.796 178.217 263.235 177.377C261.624 177.538 260.01 178.325 258.921 180.321C257.902 182.19 257.814 184.737 257.729 187.201C257.588 191.288 257.343 193.816 255.128 194.448C252.422 195.221 250.252 195.025 248.508 194.867C246.917 194.724 245.542 194.598 244.512 195.425C243.963 195.865 241.827 196.735 239.514 197.583L243.185 197.535Z"
                fill="#5D61A0" />
            <path
                d="M185.31 203.52C182.991 202.746 180.96 203.167 179.327 203.504C177.269 203.929 176.518 204.018 175.752 202.868C174.855 201.522 175.021 199.437 175.199 197.228C175.4 194.703 175.609 192.09 174.243 190.039C173.352 188.703 172.507 187.741 171.783 187.049C171.266 187.877 170.818 188.599 170.457 189.184C170.98 189.727 171.573 190.433 172.213 191.393C173.11 192.739 172.943 194.825 172.767 197.034C172.564 199.56 172.355 202.171 173.723 204.222C175.441 206.799 177.769 206.315 179.821 205.893C181.308 205.586 182.846 205.268 184.539 205.834C185.696 206.219 186.316 207.348 186.64 208.669C187.32 208.105 187.988 207.531 188.64 206.957C188.045 205.409 187.026 204.092 185.31 203.52Z"
                fill="#5D61A0" />
            <path
                d="M193.388 194.867C191.644 195.025 189.474 195.221 186.768 194.448C184.553 193.816 184.308 191.288 184.167 187.201C184.082 184.737 183.993 182.19 182.975 180.321C181.745 178.067 179.844 177.352 178.035 177.345C177.42 178.265 176.812 179.185 176.221 180.091C177.459 179.675 179.654 179.327 180.832 181.489C181.575 182.849 181.653 185.105 181.728 187.285C181.862 191.195 182.015 195.627 186.095 196.792C189.24 197.692 191.763 197.463 193.605 197.296C194.536 197.213 195.592 197.117 195.854 197.326C196.179 197.587 196.746 197.896 197.447 198.225C197.841 197.789 198.063 197.535 198.063 197.535L202.433 197.603C200.098 196.748 197.933 195.868 197.381 195.425C196.354 194.598 194.979 194.724 193.388 194.867Z"
                fill="#5D61A0" />
        </g>
    </g>
    <path
        d="M277.234 181.121C274.264 186.5 271.789 190.806 271.789 190.806C271.789 190.806 258.328 168.595 253.617 164.894C248.906 161.192 231.407 157.826 231.407 157.826C223.556 156.794 217.55 156.625 209.845 157.826C209.845 157.826 192.346 161.191 187.634 164.894C182.923 168.595 169.462 190.806 169.462 190.806C169.462 190.806 166.781 186.142 163.652 180.458L154.391 186.095C157.099 195.373 159.916 204.27 161.385 206.622C164.75 212.007 168.453 218.738 177.539 214.699C186.625 210.661 198.066 197.536 198.066 197.536L217.274 197.832L217.273 197.873L218.719 197.854L219.94 197.873L219.941 197.838L243.185 197.536C243.185 197.536 254.627 210.661 263.713 214.699C272.799 218.738 276.5 212.007 279.866 206.622C281.34 204.265 284.167 195.328 286.882 186.024L277.234 181.121Z"
        stroke="#504F53" stroke-width="1.232" stroke-miterlimit="10" stroke-linecap="round" stroke-linejoin="round" />
    <path
        d="M191.699 181.383C191.699 181.383 187.324 190.806 188.334 196.863C189.344 202.92 189.344 204.266 189.344 204.266C189.344 204.266 182.95 221.766 181.941 228.16C180.931 234.553 183.959 239.601 187.661 242.293C191.362 244.986 241.84 245.658 249.58 243.639C257.32 241.621 256.648 234.217 256.311 227.486C255.974 220.755 253.282 206.285 253.282 206.285C253.282 206.285 254.291 185.757 249.917 180.709"
        fill="white" />
    <mask id="mask2_1116_21066" style="mask-type:luminance" maskUnits="userSpaceOnUse" x="181" y="180" width="76"
        height="65">
        <path
            d="M191.699 181.383C191.699 181.383 187.324 190.806 188.334 196.863C189.344 202.92 189.344 204.266 189.344 204.266C189.344 204.266 182.95 221.766 181.941 228.16C180.931 234.553 183.959 239.601 187.661 242.293C191.362 244.986 241.84 245.658 249.58 243.639C257.32 241.621 256.648 234.217 256.311 227.486C255.974 220.755 253.282 206.285 253.282 206.285C253.282 206.285 254.291 185.757 249.917 180.709"
            fill="white" />
    </mask>
    <g mask="url(#mask2_1116_21066)">
        <path
            d="M230.322 194.903C228.851 194.904 227.301 194.301 225.606 192.746C221.015 188.538 217.956 187.822 214.697 190.192C214.169 190.577 213.665 190.961 213.178 191.332C209.809 193.901 206.627 196.332 201.643 193.263C200.5 192.561 199.469 191.812 198.558 191.151C195.207 188.722 193.752 187.813 191.357 189.772C189.57 191.235 188.148 192.103 186.607 191.914C184.587 191.67 183.175 189.787 180.363 186.036L180.178 185.788C179.055 184.293 177.813 183.486 176.482 183.391C174.202 183.224 172.224 185.144 172.205 185.163C171.729 185.639 170.958 185.639 170.481 185.163C170.005 184.687 170.005 183.915 170.481 183.439C170.592 183.328 173.244 180.721 176.656 180.958C178.723 181.104 180.565 182.237 182.13 184.323L182.317 184.573C184.484 187.463 185.916 189.373 186.903 189.494C187.467 189.557 188.351 189.083 189.815 187.886C193.758 184.659 196.787 186.853 199.992 189.178C200.91 189.844 201.859 190.532 202.922 191.187C206.481 193.377 208.446 191.878 211.7 189.394C212.202 189.012 212.72 188.616 213.264 188.221C218.678 184.284 223.374 187.391 227.256 190.949C230.165 193.615 231.992 192.443 235.853 189.536C236.589 188.981 237.363 188.399 238.189 187.828L238.576 187.559C243.547 184.11 244.098 184.414 250.824 188.119L252.627 189.112C254.96 190.404 256.396 191.187 257.066 191.148C257.573 191.124 258.21 190.426 259.485 188.975C260.012 188.377 260.629 187.674 261.384 186.866C266.836 181.025 268.623 181.414 272.997 183.41L273.346 183.57C273.96 183.848 274.23 184.571 273.951 185.184C273.674 185.795 272.954 186.07 272.336 185.79L271.984 185.63C268.353 183.972 267.698 183.675 263.167 188.531C262.432 189.319 261.829 190.004 261.316 190.586C257.81 194.571 257.074 194.362 251.445 191.246L249.647 190.255C243.696 186.977 243.696 186.976 239.966 189.562L239.577 189.831C238.779 190.384 238.031 190.946 237.32 191.483C235.008 193.224 232.776 194.903 230.322 194.903ZM237.318 203.181C238.029 202.644 238.777 202.082 239.575 201.528L239.963 201.258C243.693 198.669 243.694 198.673 249.644 201.951L251.442 202.942C257.071 206.059 257.808 206.267 261.314 202.283C261.826 201.7 262.428 201.015 263.165 200.226C267.7 195.367 268.353 195.67 271.982 197.325L272.334 197.486C272.954 197.767 273.671 197.493 273.949 196.88C274.228 196.267 273.958 195.544 273.344 195.266L272.995 195.106C268.625 193.114 266.836 192.719 261.382 198.563C260.627 199.371 260.009 200.075 259.483 200.672C258.207 202.123 257.571 202.821 257.064 202.845C256.394 202.885 254.958 202.1 252.623 200.808L250.822 199.815C244.095 196.108 243.545 195.805 238.574 199.255L238.187 199.523C237.361 200.096 236.587 200.677 235.85 201.232C231.99 204.138 230.162 205.311 227.253 202.645C223.371 199.086 218.673 195.977 213.261 199.917C212.717 200.313 212.199 200.708 211.697 201.09C208.443 203.575 206.478 205.073 202.919 202.883C201.856 202.228 200.907 201.54 199.989 200.875C196.784 198.551 193.757 196.356 189.812 199.583C188.349 200.78 187.489 201.269 186.9 201.191C185.913 201.071 184.481 199.161 182.314 196.27L182.127 196.02C180.562 193.934 178.721 192.802 176.652 192.655C173.241 192.419 170.589 195.024 170.478 195.136C170.002 195.612 170.002 196.384 170.478 196.86C170.954 197.336 171.726 197.336 172.202 196.86C172.221 196.841 174.199 194.919 176.479 195.087C177.81 195.182 179.053 195.988 180.175 197.484L180.36 197.732C183.172 201.483 184.585 203.365 186.604 203.61C188.145 203.799 189.568 202.93 191.354 201.469C193.748 199.509 195.205 200.418 198.555 202.848C199.465 203.508 200.497 204.258 201.64 204.96C206.624 208.028 209.806 205.598 213.175 203.029C213.662 202.658 214.165 202.273 214.693 201.889C217.953 199.518 221.012 200.235 225.603 204.445C227.298 205.999 228.849 206.601 230.319 206.601C232.776 206.6 235.007 204.921 237.318 203.181Z"
            fill="#B3DAFF" />
    </g>
    <mask id="mask3_1116_21066" style="mask-type:luminance" maskUnits="userSpaceOnUse" x="181" y="180" width="76"
        height="65">
        <path
            d="M191.699 181.383C191.699 181.383 187.324 190.806 188.334 196.863C189.344 202.92 189.344 204.266 189.344 204.266C189.344 204.266 182.95 221.766 181.941 228.16C180.931 234.553 183.959 239.601 187.661 242.293C191.362 244.986 241.84 245.658 249.58 243.639C257.32 241.621 256.648 234.217 256.311 227.486C255.974 220.755 253.282 206.285 253.282 206.285C253.282 206.285 254.291 185.757 249.917 180.709"
            fill="white" />
    </mask>
    <g mask="url(#mask3_1116_21066)">
        <path opacity="0.5"
            d="M230.322 194.903C228.851 194.905 227.301 194.301 225.606 192.747C221.015 188.538 217.956 187.822 214.697 190.193C214.169 190.577 213.665 190.961 213.178 191.332C209.809 193.902 206.627 196.332 201.643 193.263C200.5 192.561 199.469 191.812 198.558 191.151C195.207 188.722 193.752 187.813 191.357 189.772C189.57 191.235 188.148 192.104 186.607 191.915C184.587 191.67 183.175 189.787 180.363 186.036L180.178 185.788C179.055 184.293 177.813 183.486 176.482 183.391C174.202 183.224 172.224 185.144 172.205 185.163C171.729 185.639 170.958 185.639 170.481 185.163C170.005 184.687 170.005 183.915 170.481 183.439C170.592 183.328 173.244 180.721 176.656 180.958C178.723 181.104 180.565 182.237 182.13 184.324L182.317 184.573C184.484 187.463 185.916 189.373 186.903 189.494C187.467 189.557 188.351 189.083 189.815 187.886C193.758 184.659 196.787 186.853 199.992 189.178C200.91 189.844 201.859 190.533 202.922 191.187C206.481 193.377 208.446 191.878 211.7 189.394C212.202 189.012 212.72 188.616 213.264 188.221C218.678 184.284 223.374 187.392 227.256 190.95C230.165 193.615 231.992 192.444 235.853 189.536C236.589 188.982 237.363 188.399 238.189 187.828L238.576 187.559C243.547 184.11 244.098 184.414 250.824 188.119L252.627 189.113C254.96 190.404 256.396 191.187 257.066 191.148C257.573 191.124 258.21 190.426 259.485 188.975C260.012 188.377 260.629 187.675 261.384 186.866C266.836 181.025 268.623 181.414 272.997 183.41L273.346 183.57C273.96 183.848 274.23 184.572 273.951 185.184C273.674 185.795 272.954 186.07 272.336 185.79L271.984 185.631C268.353 183.972 267.698 183.675 263.167 188.531C262.432 189.319 261.829 190.004 261.316 190.586C257.81 194.571 257.074 194.362 251.445 191.246L249.647 190.255C243.696 186.977 243.696 186.976 239.966 189.562L239.577 189.832C238.779 190.384 238.031 190.946 237.32 191.483C235.008 193.224 232.776 194.903 230.322 194.903ZM237.318 203.181C238.029 202.644 238.777 202.082 239.575 201.529L239.963 201.258C243.693 198.669 243.694 198.673 249.644 201.951L251.442 202.942C257.071 206.059 257.808 206.267 261.314 202.283C261.826 201.701 262.428 201.015 263.165 200.226C267.7 195.367 268.353 195.67 271.982 197.325L272.334 197.486C272.954 197.767 273.671 197.493 273.949 196.88C274.228 196.268 273.958 195.544 273.344 195.266L272.995 195.106C268.625 193.114 266.836 192.719 261.382 198.563C260.627 199.372 260.009 200.075 259.483 200.672C258.207 202.123 257.571 202.821 257.064 202.845C256.394 202.885 254.958 202.1 252.623 200.809L250.822 199.815C244.095 196.108 243.545 195.805 238.574 199.255L238.187 199.524C237.361 200.096 236.587 200.678 235.85 201.232C231.99 204.138 230.162 205.311 227.253 202.646C223.371 199.087 218.673 195.977 213.261 199.917C212.717 200.313 212.199 200.708 211.697 201.09C208.443 203.575 206.478 205.073 202.919 202.883C201.856 202.229 200.907 201.54 199.989 200.875C196.784 198.551 193.757 196.356 189.812 199.583C188.349 200.78 187.489 201.269 186.9 201.191C185.913 201.071 184.481 199.161 182.314 196.27L182.127 196.021C180.562 193.934 178.721 192.803 176.652 192.655C173.241 192.419 170.589 195.024 170.478 195.136C170.002 195.612 170.002 196.384 170.478 196.86C170.954 197.336 171.726 197.336 172.202 196.86C172.221 196.841 174.199 194.919 176.479 195.087C177.81 195.182 179.053 195.988 180.175 197.484L180.36 197.732C183.172 201.483 184.585 203.366 186.604 203.611C188.145 203.8 189.568 202.931 191.354 201.469C193.748 199.509 195.205 200.418 198.555 202.848C199.465 203.508 200.497 204.258 201.64 204.96C206.624 208.028 209.806 205.599 213.175 203.029C213.662 202.658 214.165 202.273 214.693 201.89C217.953 199.518 221.012 200.235 225.603 204.445C227.298 205.999 228.849 206.602 230.319 206.602C232.776 206.601 235.007 204.921 237.318 203.181Z"
            fill="#5D61A0" />
        <path
            d="M191.699 181.383C191.699 181.383 187.324 190.806 188.334 196.863C189.344 202.92 189.344 204.266 189.344 204.266C189.344 204.266 182.95 221.766 181.941 228.16C180.931 234.553 183.959 239.601 187.661 242.293C191.362 244.986 241.84 245.658 249.58 243.639C257.32 241.621 256.648 234.217 256.311 227.486C255.974 220.755 253.282 206.285 253.282 206.285C253.282 206.285 254.291 185.757 249.917 180.709"
            stroke="#504F53" stroke-width="1.232" stroke-miterlimit="10" stroke-linecap="round"
            stroke-linejoin="round" />
    </g>
    <path
        d="M209.845 157.826C209.845 157.826 209.308 157.93 208.409 158.118C208.275 158.736 208.188 159.367 208.188 160.014C208.188 166.426 215.043 171.624 223.5 171.624C231.956 171.624 238.812 166.427 238.812 160.014C238.812 159.83 238.786 159.651 238.776 159.47C234.681 158.457 231.408 157.827 231.408 157.827C223.558 156.794 217.551 156.625 209.845 157.826Z"
        fill="#5D61A0" stroke="#504F53" stroke-width="1.232" stroke-miterlimit="10" stroke-linecap="round"
        stroke-linejoin="round" />
    <path
        d="M213.234 151.433C213.234 151.433 212.224 159.509 213.234 162.201C214.243 164.894 220.637 169.941 227.031 167.923C233.425 165.903 234.434 159.846 234.434 158.164C234.434 156.482 234.434 148.741 234.434 148.741L213.569 149.414L213.234 151.433Z"
        fill="#FFA87D" stroke="#504F53" stroke-width="1.232" stroke-miterlimit="10" stroke-linecap="round"
        stroke-linejoin="round" />
    <path
        d="M224.003 148.067C237.199 148.067 247.896 137.596 247.896 124.679C247.896 111.762 237.199 101.291 224.003 101.291C210.807 101.291 200.109 111.762 200.109 124.679C200.109 137.596 210.807 148.067 224.003 148.067Z"
        fill="#1D1D1E" stroke="#504F53" stroke-width="1.232" stroke-miterlimit="10" stroke-linecap="round"
        stroke-linejoin="round" />
    <path
        d="M208.862 132.587C208.862 132.587 206.842 127.876 205.496 132.25C204.15 136.625 207.179 142.009 209.197 142.346C211.217 142.683 208.862 132.587 208.862 132.587Z"
        fill="#FFA87D" stroke="#1D1D1E" stroke-width="1.232" stroke-miterlimit="10" stroke-linecap="round"
        stroke-linejoin="round" />
    <path
        d="M237.949 132.587C237.949 132.587 239.968 127.876 241.314 132.25C242.66 136.625 239.631 142.009 237.612 142.346C235.594 142.683 237.949 132.587 237.949 132.587Z"
        fill="#FFA87D" stroke="#1D1D1E" stroke-width="1.232" stroke-miterlimit="10" stroke-linecap="round"
        stroke-linejoin="round" />
    <path
        d="M233.944 116.868C232.138 115.462 229.797 114.934 227.54 115.313C225.623 115.635 223.126 115.942 221.313 115.761C217.947 115.424 215.256 114.078 212.564 116.77C209.872 119.462 208.525 131.913 208.525 138.307C208.525 144.701 213.236 153.787 216.602 156.142C219.968 158.498 229.39 158.162 231.745 156.142C234.101 154.124 237.802 146.72 238.476 140.663C239.148 134.606 237.803 122.827 236.457 119.798C235.95 118.662 234.971 117.668 233.944 116.868Z"
        fill="#FFA87D" stroke="#1D1D1E" stroke-width="1.232" stroke-miterlimit="10" stroke-linecap="round"
        stroke-linejoin="round" />
    <path
        d="M218.976 133.585C219.669 133.585 220.231 132.665 220.231 131.53C220.231 130.395 219.669 129.476 218.976 129.476C218.283 129.476 217.721 130.395 217.721 131.53C217.721 132.665 218.283 133.585 218.976 133.585Z"
        fill="#1D1D1E" />
    <path
        d="M230.161 131.53C230.161 132.665 229.599 133.585 228.906 133.585C228.212 133.585 227.65 132.665 227.65 131.53C227.65 130.395 228.213 129.476 228.906 129.476C229.599 129.477 230.161 130.396 230.161 131.53Z"
        fill="#1D1D1E" />
    <path
        d="M225.481 143.172C225.481 144.307 224.919 145.227 224.226 145.227C223.532 145.227 222.971 144.307 222.971 143.172C222.971 142.037 223.532 141.118 224.226 141.118C224.919 141.118 225.481 142.037 225.481 143.172Z"
        fill="#E96C5E" />
    <path
        d="M221.716 134.042C219.63 137.343 223.611 139.468 226.281 137.466C228.108 136.096 226.281 134.042 226.281 134.042"
        fill="#FFA87D" />
    <path
        d="M221.716 134.042C219.63 137.343 223.611 139.468 226.281 137.466C228.108 136.096 226.281 134.042 226.281 134.042"
        stroke="#1D1D1E" stroke-width="1.232" stroke-miterlimit="10" stroke-linecap="round" stroke-linejoin="round" />
    <path d="M214.639 126.965C214.639 126.965 218.063 123.769 221.486 125.367" stroke="#1D1D1E" stroke-width="1.232"
        stroke-miterlimit="10" stroke-linecap="round" stroke-linejoin="round" />
    <path d="M227.193 125.596C227.193 125.596 230.389 123.541 233.357 127.422" stroke="#1D1D1E" stroke-width="1.232"
        stroke-miterlimit="10" stroke-linecap="round" stroke-linejoin="round" />
    <path
        d="M121.148 349.949C121.148 349.949 100.93 353.911 100.93 355.972C100.93 358.033 126.689 363.872 129.437 364.215C132.184 364.558 132.589 351.295 132.589 351.295L121.148 349.949Z"
        fill="white" stroke="#504F53" stroke-width="1.232" stroke-miterlimit="10" stroke-linecap="round"
        stroke-linejoin="round" />
    <path
        d="M131.123 362.236L102.28 354.879C101.434 355.274 100.93 355.647 100.93 355.971C100.93 358.032 126.689 363.871 129.437 364.214C130.143 364.303 130.693 363.489 131.123 362.236Z"
        fill="#006ED6" stroke="#504F53" stroke-width="1.232" stroke-miterlimit="10" stroke-linecap="round"
        stroke-linejoin="round" />
    <path
        d="M173.645 352.305C173.645 352.305 153.136 361.124 154.509 363.185C155.883 365.245 182.673 364.215 185.421 363.872C188.169 363.529 185.424 351.295 185.424 351.295L173.645 352.305Z"
        fill="white" stroke="#504F53" stroke-width="1.232" stroke-miterlimit="10" stroke-linecap="round"
        stroke-linejoin="round" />
    <path
        d="M155.19 361.892C154.587 362.435 154.309 362.884 154.51 363.185C155.883 365.246 182.673 364.215 185.421 363.872C186.082 363.79 186.423 363.015 186.563 361.892H155.19Z"
        fill="#006ED6" stroke="#504F53" stroke-width="1.232" stroke-miterlimit="10" stroke-linecap="round"
        stroke-linejoin="round" />
    <path d="M89.7641 217.07H167.184V213.946H89.7641V217.07Z" fill="white" stroke="#1D1D1E" stroke-width="1.232"
        stroke-miterlimit="10" stroke-linecap="round" stroke-linejoin="round" />
    <path d="M67.934 217.07H145.354V213.946H67.934V217.07Z" fill="white" stroke="#1D1D1E" stroke-width="1.232"
        stroke-miterlimit="10" stroke-linecap="round" stroke-linejoin="round" />
    <path d="M76.5652 208.392H141.124L134.163 159.106H69.6055L76.5652 208.392Z" fill="white" stroke="#1D1D1E"
        stroke-width="1.232" stroke-miterlimit="10" stroke-linecap="round" stroke-linejoin="round" />
    <path d="M73.8944 208.392H138.452L131.492 159.106H66.9336L73.8944 208.392Z" fill="#333337" stroke="#1D1D1E"
        stroke-width="1.232" stroke-miterlimit="10" stroke-linecap="round" stroke-linejoin="round" />
    <path
        d="M93.6734 185.485L87.1973 217.07H103.858L110.334 185.485H93.6734ZM104.978 194.857C104.914 195.123 104.675 195.31 104.401 195.307L94.9636 195.216C94.5867 195.213 94.3101 194.859 94.3988 194.492L95.2497 190.946C95.3141 190.68 95.5527 190.493 95.8262 190.497L105.263 190.587C105.641 190.59 105.916 190.945 105.829 191.312L104.978 194.857Z"
        fill="white" stroke="#1D1D1E" stroke-width="1.232" stroke-miterlimit="10" stroke-linecap="round"
        stroke-linejoin="round" />
    <path
        d="M220.622 235.039L217.274 361.427C217.23 363.1 215.86 364.435 214.186 364.435C212.495 364.435 211.119 363.076 211.097 361.386L209.445 235.039H220.622Z"
        fill="white" stroke="#1D1D1E" stroke-width="1.232" stroke-miterlimit="10" stroke-linecap="round"
        stroke-linejoin="round" />
    <path
        d="M179.788 235.039L176.44 361.427C176.396 363.1 175.026 364.435 173.352 364.435C171.661 364.435 170.285 363.076 170.263 361.386L168.611 235.039H179.788Z"
        fill="white" stroke="#1D1D1E" stroke-width="1.232" stroke-miterlimit="10" stroke-linecap="round"
        stroke-linejoin="round" />
    <path
        d="M78.8328 235.039L75.4849 361.427C75.4405 363.1 74.0712 364.435 72.3967 364.435C70.7064 364.435 69.3297 363.076 69.3075 361.386L67.6562 235.039H78.8328Z"
        fill="white" stroke="#1D1D1E" stroke-width="1.232" stroke-miterlimit="10" stroke-linecap="round"
        stroke-linejoin="round" />
    <path
        d="M38.0018 235.039L34.6539 361.427C34.6096 363.1 33.2402 364.435 31.5657 364.435C29.8754 364.435 28.4987 363.076 28.4765 361.386L26.8242 235.039H38.0018Z"
        fill="white" stroke="#1D1D1E" stroke-width="1.232" stroke-miterlimit="10" stroke-linecap="round"
        stroke-linejoin="round" />
    <path d="M23.0955 236.359L224.594 236.359V221.235L23.0955 221.235V236.359Z" fill="white" stroke="#1D1D1E"
        stroke-width="1.232" stroke-miterlimit="10" stroke-linecap="round" stroke-linejoin="round" />
    <path d="M168.31 236.359H224.594V221.235H168.31V236.359Z" fill="white" stroke="#1D1D1E" stroke-width="1.232"
        stroke-miterlimit="10" stroke-linecap="round" stroke-linejoin="round" />
    <path d="M23.26 229.502L235.869 229.502V221.522L23.26 221.522V229.502Z" fill="#333337" stroke="#1D1D1E"
        stroke-width="1.232" stroke-miterlimit="10" stroke-linecap="round" stroke-linejoin="round" />
    <path d="M19.9734 224.358L227.719 224.358V216.028L19.9734 216.028V224.358Z" fill="#C05A32" stroke="#1D1D1E"
        stroke-width="1.232" stroke-miterlimit="10" stroke-linecap="round" stroke-linejoin="round" />
    <path d="M19.9723 224.358L164.572 224.358V216.028L19.9723 216.028V224.358Z" fill="#ED8353" stroke="#1D1D1E"
        stroke-width="1.232" stroke-miterlimit="10" stroke-linecap="round" stroke-linejoin="round" />
    <path d="M1 364.88H428.431" stroke="#1D1D1E" stroke-width="1.232" stroke-miterlimit="10" stroke-linecap="round"
        stroke-linejoin="round" />
</svg>