<svg fill="none" viewBox="0 0 20 20" xmlns="http://www.w3.org/2000/svg">
<path d="M0 13.5156C0 14.4849 0.788555 15.2734 1.75781 15.2734H18.2422C19.2114 15.2734 20 14.4849 20 13.5156V13.125H0V13.5156Z" fill="currentColor"/>
<path d="M3.75732 11.9531H8.82061C8.72053 10.644 7.62334 9.60938 6.28896 9.60938C4.95459 9.60938 3.8574 10.644 3.75732 11.9531Z" fill="currentColor"/>
<path d="M6.28906 8.4375C6.93627 8.4375 7.46094 7.91283 7.46094 7.26562C7.46094 6.61842 6.93627 6.09375 6.28906 6.09375C5.64185 6.09375 5.11719 6.61842 5.11719 7.26562C5.11719 7.91283 5.64185 8.4375 6.28906 8.4375Z" fill="currentColor"/>
<path d="M13.5848 16.4453H6.41523L5.56968 18.1364C5.37492 18.526 5.6582 18.9844 6.09378 18.9844H13.9063C14.3419 18.9844 14.6251 18.526 14.4303 18.1364L13.5848 16.4453Z" fill="currentColor"/>
<path d="M18.2422 1.01562H1.75781C0.788555 1.01562 0 1.80418 0 2.77344V11.9531H2.5832C2.65324 10.6087 3.44219 9.45141 4.57191 8.85922C4.18328 8.44074 3.94531 7.88043 3.94531 7.26562C3.94531 5.97328 4.99672 4.92188 6.28906 4.92188C7.58141 4.92188 8.63281 5.97328 8.63281 7.26562C8.63281 7.88043 8.39484 8.44074 8.00617 8.85922C9.13594 9.45141 9.92484 10.6087 9.99488 11.9531H20V2.77344C20 1.80418 19.2114 1.01562 18.2422 1.01562ZM17.6172 7.07031C17.6172 7.39391 17.3548 7.65625 17.0312 7.65625H12.7013L10.8874 8.74461C10.7947 8.80023 10.6904 8.82812 10.5859 8.82812C10.4864 8.82812 10.3869 8.80281 10.2972 8.75207C10.1136 8.64809 10 8.45328 10 8.24219V3.94531C10 3.62172 10.2623 3.35938 10.5859 3.35938H17.0312C17.3548 3.35938 17.6172 3.62172 17.6172 3.94531V7.07031Z" fill="currentColor"/>
<path d="M11.1719 7.20734L12.2376 6.56789C12.3287 6.51324 12.4329 6.48437 12.5391 6.48437H16.4453V4.53125H11.1719V7.20734Z" fill="currentColor"/>
</svg>
