<svg xmlns="http://www.w3.org/2000/svg" width="20" height="20" viewBox="0 0 20 20" fill="none">
  <path d="M14.7559 11.4234L16.9625 13.6292C17.0331 13.6998 17.0892 13.7836 17.1274 13.8758C17.1656 13.968 17.1852 14.0669 17.1852 14.1667C17.1852 14.2665 17.1656 14.3654 17.1274 14.4576C17.0892 14.5498 17.0331 14.6336 16.9625 14.7042C16.1865 15.4801 15.1566 15.9501 14.062 16.0279C12.9673 16.1057 11.8813 15.786 11.0034 15.1275L9.69088 14.1425C8.23791 13.0528 6.94722 11.7622 5.85755 10.3092L4.87255 8.99668C4.21409 8.11875 3.8944 7.03277 3.97216 5.9381C4.04992 4.84344 4.51992 3.81355 5.29588 3.03752C5.36646 2.96691 5.45025 2.91091 5.54248 2.8727C5.6347 2.83449 5.73355 2.81482 5.83338 2.81482C5.93321 2.81482 6.03206 2.83449 6.12428 2.8727C6.21651 2.91091 6.3003 2.96691 6.37088 3.03752L8.57755 5.24418C8.73377 5.40046 8.82154 5.61238 8.82154 5.83335C8.82154 6.05432 8.73377 6.26624 8.57755 6.42252L7.72671 7.27335C7.66064 7.3393 7.61702 7.4244 7.60206 7.51655C7.5871 7.6087 7.60156 7.70322 7.64338 7.78668C8.63216 9.76433 10.2357 11.3679 12.2134 12.3567C12.2968 12.3985 12.3914 12.413 12.4835 12.398C12.5757 12.383 12.6608 12.3394 12.7267 12.2734L13.5767 11.4234C13.6541 11.3459 13.746 11.2844 13.8472 11.2425C13.9483 11.2005 14.0568 11.1789 14.1663 11.1789C14.2758 11.1789 14.3842 11.2005 14.4854 11.2425C14.5866 11.2844 14.6785 11.3459 14.7559 11.4234Z" stroke="currentColor" stroke-width="0.833333"/>
</svg>