<svg width="24" height="24" viewBox="0 0 24 24" fill="none" xmlns="http://www.w3.org/2000/svg">
  <g clip-path="url(#clip0_1493_13211)">
    <path fill-rule="evenodd" clip-rule="evenodd" d="M13 4C13.2449 4.00003 13.4813 4.08996 13.6644 4.25272C13.8474 4.41547 13.9643 4.63975 13.993 4.883L14 5C14.0003 5.25488 14.0979 5.50003 14.2728 5.68537C14.4478 5.8707 14.687 5.98223 14.9414 5.99717C15.1958 6.01211 15.4464 5.92933 15.6418 5.76574C15.8373 5.60214 15.9629 5.3701 15.993 5.117L16 5C16 4.73478 16.1054 4.48043 16.2929 4.29289C16.4804 4.10536 16.7348 4 17 4H19C19.7956 4 20.5587 4.31607 21.1213 4.87868C21.6839 5.44129 22 6.20435 22 7V17C22 17.7956 21.6839 18.5587 21.1213 19.1213C20.5587 19.6839 19.7956 20 19 20H17C16.7551 20 16.5187 19.91 16.3356 19.7473C16.1526 19.5845 16.0357 19.3603 16.007 19.117L16 19C15.9997 18.7451 15.9021 18.5 15.7272 18.3146C15.5522 18.1293 15.313 18.0178 15.0586 18.0028C14.8042 17.9879 14.5536 18.0707 14.3582 18.2343C14.1627 18.3979 14.0371 18.6299 14.007 18.883L14 19C14 19.2652 13.8946 19.5196 13.7071 19.7071C13.5196 19.8946 13.2652 20 13 20H5C4.20435 20 3.44129 19.6839 2.87868 19.1213C2.31607 18.5587 2 17.7956 2 17V7C2 6.20435 2.31607 5.44129 2.87868 4.87868C3.44129 4.31607 4.20435 4 5 4H13ZM15 13C14.7348 13 14.4804 13.1054 14.2929 13.2929C14.1054 13.4804 14 13.7348 14 14V15C14 15.2652 14.1054 15.5196 14.2929 15.7071C14.4804 15.8946 14.7348 16 15 16C15.2652 16 15.5196 15.8946 15.7071 15.7071C15.8946 15.5196 16 15.2652 16 15V14C16 13.7348 15.8946 13.4804 15.7071 13.2929C15.5196 13.1054 15.2652 13 15 13ZM15 8C14.7551 8.00003 14.5187 8.08996 14.3356 8.25272C14.1526 8.41547 14.0357 8.63975 14.007 8.883L14 9V10C14.0003 10.2549 14.0979 10.5 14.2728 10.6854C14.4478 10.8707 14.687 10.9822 14.9414 10.9972C15.1958 11.0121 15.4464 10.9293 15.6418 10.7657C15.8373 10.6021 15.9629 10.3701 15.993 10.117L16 10V9C16 8.73478 15.8946 8.48043 15.7071 8.29289C15.5196 8.10536 15.2652 8 15 8Z" fill="#A6A4BC"/>
  </g>
  <defs>
    <clipPath id="clip0_1493_13211">
      <rect width="24" height="24" fill="white"/>
    </clipPath>
  </defs>
</svg>