<svg fill="none" width="24" height="24" viewBox="1 1 23 23" xmlns="http://www.w3.org/2000/svg">
<path d="M22.4741 5.23835L18.7618 1.52604C18.7176 1.48137 18.6627 1.44865 18.6024 1.43094C18.542 1.41323 18.4782 1.41112 18.4168 1.42479L12.318 2.75068C12.2478 2.76596 12.1834 2.80111 12.1326 2.85193L1.52605 13.4585C1.45575 13.5288 1.41626 13.6242 1.41626 13.7236C1.41626 13.8231 1.45575 13.9184 1.52605 13.9888L10.0112 22.4741C10.0815 22.5444 10.1769 22.5839 10.2763 22.5839C10.3758 22.5839 10.4711 22.5444 10.5415 22.4741L21.1484 11.8675C21.1992 11.8166 21.2343 11.7523 21.2496 11.682L22.5753 5.58313C22.5886 5.52178 22.5863 5.45807 22.5686 5.39784C22.5509 5.33761 22.5184 5.28278 22.4741 5.23835ZM5.76862 11.3372C5.83894 11.2669 5.93432 11.2274 6.03376 11.2274C6.13321 11.2274 6.22858 11.2669 6.2989 11.3372L7.35982 12.3977C7.39536 12.4324 7.42368 12.4738 7.44311 12.5195C7.46254 12.5651 7.47271 12.6142 7.47303 12.6639C7.47334 12.7135 7.4638 12.7627 7.44494 12.8087C7.42609 12.8546 7.3983 12.8963 7.3632 12.9314C7.32809 12.9665 7.28637 12.9943 7.24044 13.0132C7.19452 13.032 7.1453 13.0416 7.09566 13.0412C7.04601 13.0409 6.99692 13.0308 6.95124 13.0113C6.90556 12.9919 6.86419 12.9636 6.82953 12.928L5.76862 11.8675C5.6983 11.7972 5.6588 11.7018 5.6588 11.6023C5.6588 11.5029 5.6983 11.4075 5.76862 11.3372ZM11.0721 19.8223C11.0018 19.8926 10.9064 19.9321 10.8069 19.9321C10.7075 19.9321 10.6121 19.8926 10.5418 19.8223L4.17779 13.4586C4.10894 13.388 4.07068 13.293 4.0713 13.1944C4.07193 13.0958 4.11139 13.0014 4.18113 12.9316C4.25088 12.8619 4.34529 12.8224 4.44392 12.8218C4.54255 12.8212 4.63746 12.8594 4.70808 12.9283L11.0721 19.292C11.1424 19.3624 11.1819 19.4577 11.1819 19.5572C11.1819 19.6566 11.1424 19.752 11.0721 19.8223ZM12.6629 18.2313C12.5926 18.3016 12.4972 18.3411 12.3978 18.3411C12.2983 18.3411 12.203 18.3016 12.1326 18.2313L7.89007 13.9888C7.85438 13.9541 7.82593 13.9128 7.80638 13.867C7.78683 13.8213 7.77657 13.7722 7.77619 13.7224C7.77581 13.6727 7.78533 13.6234 7.80419 13.5774C7.82304 13.5314 7.85086 13.4896 7.88602 13.4544C7.92119 13.4193 7.96299 13.3914 8.009 13.3726C8.05502 13.3537 8.10432 13.3442 8.15404 13.3446C8.20377 13.345 8.25292 13.3553 8.29864 13.3748C8.34436 13.3944 8.38573 13.4228 8.42035 13.4585L12.6629 17.701C12.7332 17.7714 12.7727 17.8667 12.7727 17.9662C12.7727 18.0656 12.7332 18.161 12.6629 18.2313ZM16.3942 9.48088C16.3948 9.72723 16.3466 9.97126 16.2523 10.1989C16.158 10.4264 16.0195 10.6331 15.8448 10.8068C15.7742 10.8753 15.6793 10.9133 15.5809 10.9126C15.4824 10.9118 15.3882 10.8724 15.3186 10.8027C15.2489 10.7331 15.2095 10.6389 15.2088 10.5404C15.208 10.442 15.246 10.3472 15.3146 10.2765C15.4719 10.1191 15.579 9.91868 15.6224 9.70045C15.6658 9.48223 15.6435 9.25605 15.5583 9.0505C15.4732 8.84495 15.329 8.66927 15.144 8.54566C14.959 8.42206 14.7415 8.35609 14.519 8.35609C14.2965 8.35609 14.079 8.42206 13.894 8.54566C13.709 8.66927 13.5648 8.84495 13.4796 9.0505C13.3945 9.25605 13.3722 9.48223 13.4156 9.70045C13.459 9.91868 13.5661 10.1191 13.7234 10.2765C14.0514 10.6051 14.2458 11.0438 14.269 11.5075C14.2921 11.9713 14.1424 12.4271 13.8487 12.7868C13.555 13.1465 13.1384 13.3844 12.6794 13.4545C12.2204 13.5246 11.7517 13.4219 11.364 13.1663L11.0721 13.4584C11.0015 13.5272 10.9066 13.5655 10.8079 13.5648C10.7093 13.5642 10.6149 13.5248 10.5451 13.455C10.4754 13.3853 10.4359 13.2909 10.4353 13.1922C10.4347 13.0936 10.4729 12.9987 10.5418 12.9281L10.8338 12.636C10.5953 12.2755 10.4888 11.8437 10.5322 11.4137C10.5757 10.9836 10.7664 10.5819 11.0721 10.2763C11.1069 10.2415 11.1483 10.2139 11.1938 10.195C11.2393 10.1762 11.2881 10.1665 11.3373 10.1665C11.3866 10.1665 11.4354 10.1762 11.4809 10.195C11.5264 10.2139 11.5677 10.2415 11.6025 10.2763C11.6374 10.3111 11.665 10.3525 11.6839 10.398C11.7027 10.4435 11.7124 10.4923 11.7124 10.5415C11.7124 10.5908 11.7027 10.6396 11.6839 10.6851C11.665 10.7306 11.6374 10.7719 11.6026 10.8068C11.4981 10.9112 11.4152 11.0352 11.3586 11.1717C11.3021 11.3082 11.2729 11.4545 11.2729 11.6023C11.2729 11.75 11.3021 11.8963 11.3586 12.0328C11.4152 12.1693 11.4981 12.2933 11.6026 12.3977C11.8168 12.6025 12.1017 12.7167 12.398 12.7167C12.6943 12.7167 12.9791 12.6025 13.1934 12.3977C13.2978 12.2933 13.3807 12.1693 13.4373 12.0328C13.4938 11.8963 13.5229 11.75 13.5229 11.6023C13.5229 11.4545 13.4938 11.3082 13.4373 11.1717C13.3807 11.0352 13.2978 10.9112 13.1934 10.8068C12.8648 10.4782 12.67 10.0393 12.6467 9.57527C12.6233 9.11121 12.7731 8.65502 13.067 8.29512C13.3609 7.93522 13.7779 7.69726 14.2373 7.62738C14.6966 7.55749 15.1656 7.66065 15.5532 7.91687L15.8451 7.62493C15.9157 7.55607 16.0106 7.51781 16.1093 7.51844C16.2079 7.51906 16.3023 7.55852 16.372 7.62827C16.4418 7.69801 16.4812 7.79242 16.4819 7.89106C16.4825 7.98969 16.4442 8.08459 16.3754 8.15522L16.0834 8.44715C16.2869 8.75345 16.395 9.11316 16.3942 9.48088ZM19.0269 6.5642C18.8158 6.77516 18.5297 6.89365 18.2313 6.89362C17.9329 6.89358 17.6468 6.77502 17.4358 6.56402C17.2249 6.35301 17.1064 6.06684 17.1064 5.76847C17.1065 5.4701 17.225 5.18396 17.436 4.973C17.6503 4.76842 17.9352 4.65427 18.2314 4.65427C18.5277 4.65427 18.8126 4.76842 19.0269 4.973C19.2376 5.18413 19.356 5.47026 19.356 5.76859C19.356 6.06691 19.2376 6.35306 19.0269 6.5642Z" fill="currentColor"/>
</svg>
