<svg xmlns="http://www.w3.org/2000/svg" viewBox="0 0 121 121" fill="none">
  <path d="M103.153 97.7831C111.887 87.8006 117.219 74.7931 117.219 60.5C117.219 29.2291 91.7709 3.78125 60.5 3.78125C29.2291 3.78125 3.78125 29.2291 3.78125 60.5C3.78125 91.7709 29.2291 117.219 60.5 117.219C74.7931 117.219 87.8006 111.887 97.7831 103.153L110.753 116.122C111.509 116.841 112.454 117.219 113.438 117.219C114.421 117.219 115.366 116.841 116.122 116.122C117.597 114.647 117.597 112.265 116.122 110.791L103.153 97.7831ZM11.3438 60.5C11.3438 33.3884 33.3884 11.3438 60.5 11.3438C87.6116 11.3438 109.656 33.3884 109.656 60.5C109.656 87.6116 87.6116 109.656 60.5 109.656C33.3884 109.656 11.3438 87.6116 11.3438 60.5ZM37.8125 49.1562C37.8125 44.9969 41.2156 41.5938 45.375 41.5938C49.5344 41.5938 52.9375 44.9969 52.9375 49.1562C52.9375 53.3156 49.5344 56.7188 45.375 56.7188C41.2156 56.7188 37.8125 53.3156 37.8125 49.1562ZM83.1875 49.1562C83.1875 53.3156 79.7844 56.7188 75.625 56.7188C71.4656 56.7188 68.0625 53.3156 68.0625 49.1562C68.0625 44.9969 71.4656 41.5938 75.625 41.5938C79.7844 41.5938 83.1875 44.9969 83.1875 49.1562ZM81.2969 74.0747C82.1288 75.9653 81.2969 78.2341 79.3684 79.0659C78.8769 79.2928 78.3475 79.4062 77.8559 79.4062C76.4191 79.4062 75.02 78.5744 74.3772 77.1375C71.9572 71.6169 66.4744 68.0625 60.5 68.0625C54.5256 68.0625 49.0428 71.6169 46.585 77.1753C45.7531 79.0659 43.5222 79.9734 41.5938 79.1038C39.7031 78.2719 38.8334 76.0409 39.6653 74.1125C43.3331 65.8316 51.5384 60.5 60.5 60.5C69.4616 60.5 77.6669 65.8316 81.2969 74.0747Z" fill="currentColor"/>
</svg>