<svg xmlns="http://www.w3.org/2000/svg" width="16" height="16" viewBox="0 0 16 16" fill="none">
  <path d="M13.9999 14L11.1046 11.1047M11.1046 11.1047C11.5998 10.6094 11.9927 10.0215 12.2607 9.37438C12.5287 8.72729 12.6667 8.03375 12.6667 7.33335C12.6667 6.63295 12.5287 5.9394 12.2607 5.29232C11.9927 4.64523 11.5998 4.05727 11.1046 3.56202C10.6093 3.06676 10.0213 2.6739 9.37426 2.40586C8.72717 2.13783 8.03363 1.99988 7.33323 1.99988C6.63283 1.99988 5.93928 2.13783 5.2922 2.40586C4.64511 2.6739 4.05715 3.06676 3.56189 3.56202C2.56167 4.56224 1.99976 5.91882 1.99976 7.33335C1.99976 8.74787 2.56167 10.1045 3.56189 11.1047C4.56211 12.1049 5.9187 12.6668 7.33323 12.6668C8.74775 12.6668 10.1043 12.1049 11.1046 11.1047Z" stroke="#504F53" stroke-linecap="round" stroke-linejoin="round"/>
</svg>