<svg xmlns="http://www.w3.org/2000/svg"  viewBox="0 0 24 24"  fill="none">
<g transform="scale(1.07)  lg:translate(-1,0)">
  <path d="M12.3767 1.45312C6.55015 1.45312 1.82983 6.17344 1.82983 12C1.82983 17.8266 6.55015 22.5469 12.3767 22.5469C18.2033 22.5469 22.9236 17.8266 22.9236 12C22.9236 6.17344 18.2033 1.45312 12.3767 1.45312ZM9.39077 17.8594H6.58765V10.0219H9.39077V17.8594ZM7.98921 8.94375C7.21577 8.94375 6.58765 8.31562 6.58765 7.54219C6.58765 6.76875 7.21577 6.14062 7.98921 6.14062C8.76265 6.14062 9.39077 6.76875 9.39077 7.54219C9.39077 8.31562 8.76265 8.94375 7.98921 8.94375ZM18.1705 17.8594H15.8595C15.8595 17.8594 15.8736 13.2891 15.883 13.1484C15.897 13.0078 15.7564 11.8547 14.5751 11.8547C13.3939 11.8547 13.0236 12.6984 13.0236 13.3406V17.8594H10.8345V10.0219H13.0001V11.1094C13.0001 11.1094 13.333 10.0125 15.3345 10.0125C16.9845 10.0125 18.1658 10.6547 18.1658 12.4219C18.1705 13.4016 18.1705 17.8594 18.1705 17.8594Z" fill="currentColor"  />
  </g>
</svg>