<svg xmlns="http://www.w3.org/2000/svg"  viewBox="0 0 24 24"  fill="none">
<g transform="scale(1.06) translate(-1, 0) md:translate(1, 0)">
  <path d="M12.1265 1.45312C6.2999 1.45312 1.57959 6.17344 1.57959 12C1.57959 17.8266 6.2999 22.5469 12.1265 22.5469C17.953 22.5469 22.6733 17.8266 22.6733 12C22.6733 6.17344 17.953 1.45312 12.1265 1.45312ZM17.2593 10.9828C17.0905 10.9828 15.6187 10.9547 14.2593 9.975V14.2266C14.2593 16.2328 12.628 17.8641 10.6218 17.8641C8.61553 17.8641 6.98428 16.2328 6.98428 14.2266C6.98428 12.2203 8.61553 10.5891 10.6218 10.5891H11.2124V12.4641H10.6218C9.65146 12.4641 8.85928 13.2563 8.85928 14.2266C8.85928 15.1969 9.65146 15.9891 10.6218 15.9891C11.5921 15.9891 12.3843 15.1969 12.3843 14.2266V6.14062H14.2593V6.20156C14.3015 6.65625 14.5687 7.87969 15.3374 8.44219C16.2187 9.08906 17.2546 9.10781 17.264 9.10781H17.2593V10.9828Z" fill="currentColor"  />
  </g>
</svg>