<svg xmlns="http://www.w3.org/2000/svg" viewBox="0 0 24 24" fill="none">
<g transform="scale(1.12)">
  <path d="M13.1406 9.93528C13.1893 9.93998 13.2378 9.92549 13.276 9.89489C13.3141 9.86429 13.3387 9.82 13.3447 9.77148C13.3539 9.70336 13.359 9.63476 13.3599 9.56603C13.3592 9.07477 13.1634 8.60391 12.8157 8.25693C12.4679 7.90995 11.9966 7.71524 11.5054 7.71561C11.4367 7.71516 11.3681 7.71887 11.2999 7.72672C11.2758 7.72936 11.2524 7.73674 11.2311 7.74842C11.2098 7.76011 11.191 7.77588 11.1757 7.79482C11.1605 7.81377 11.1492 7.83553 11.1424 7.85886C11.1356 7.88219 11.1335 7.90662 11.1361 7.93078C11.1388 7.95493 11.1461 7.97833 11.1578 7.99963C11.1695 8.02094 11.1853 8.03973 11.2042 8.05494C11.2232 8.07015 11.2449 8.08148 11.2682 8.08828C11.2916 8.09508 11.316 8.09722 11.3402 8.09458C11.395 8.08785 11.4501 8.0846 11.5054 8.08486C11.898 8.0856 12.2743 8.24188 12.5519 8.5195C12.8295 8.79711 12.9858 9.17342 12.9865 9.56603C12.9861 9.62122 12.9828 9.67636 12.9768 9.73122C12.9721 9.77988 12.9866 9.82845 13.0172 9.86657C13.0478 9.90469 13.0921 9.92935 13.1406 9.93528Z" fill="currentColor"/>
  <path d="M11.5053 8.45553C11.4796 8.4533 11.4537 8.45644 11.4293 8.46474C11.4049 8.47305 11.3825 8.48633 11.3635 8.50376C11.3445 8.52118 11.3293 8.54237 11.319 8.56597C11.3086 8.58957 11.3032 8.61507 11.3032 8.64085C11.3032 8.66663 11.3086 8.69213 11.319 8.71573C11.3293 8.73933 11.3445 8.76051 11.3635 8.77794C11.3825 8.79536 11.4049 8.80865 11.4293 8.81695C11.4537 8.82525 11.4796 8.82839 11.5053 8.82617C11.6028 8.82562 11.6995 8.84435 11.7897 8.88129C11.88 8.91822 11.962 8.97264 12.0312 9.0414C12.1003 9.11016 12.1552 9.19191 12.1926 9.28195C12.2301 9.37199 12.2493 9.46854 12.2493 9.56605C12.2534 9.61244 12.2746 9.65562 12.3089 9.68709C12.3432 9.71856 12.3881 9.73601 12.4347 9.73601C12.4812 9.73601 12.5261 9.71856 12.5604 9.68709C12.5947 9.65562 12.616 9.61244 12.62 9.56605C12.62 9.41987 12.5911 9.27512 12.5351 9.14011C12.479 9.0051 12.3968 8.88249 12.2932 8.77932C12.1897 8.67614 12.0668 8.59443 11.9315 8.53886C11.7963 8.4833 11.6515 8.45498 11.5053 8.45553Z" fill="currentColor"/>
  <path d="M12.7644 11.1152C12.7002 11.0473 12.6197 10.997 12.5305 10.9693C12.4413 10.9416 12.3465 10.9372 12.2551 10.9568C12.1638 10.9763 12.079 11.019 12.0089 11.0808C11.9389 11.1425 11.8859 11.2213 11.8551 11.3095C11.8075 11.4359 11.7153 11.5406 11.596 11.604C11.4766 11.6674 11.3383 11.6851 11.2069 11.6538C10.6238 11.5011 9.84229 10.7306 9.70209 10.1143C9.66745 9.98184 9.68538 9.84111 9.75213 9.72158C9.81889 9.60204 9.92929 9.51295 10.0602 9.47297C10.1489 9.44392 10.2287 9.39261 10.2919 9.32392C10.3551 9.25524 10.3997 9.17149 10.4212 9.08068C10.4428 8.98986 10.4408 8.89503 10.4152 8.80525C10.3897 8.71547 10.3415 8.63374 10.2754 8.56789L9.46471 7.73499C9.35797 7.63503 9.21763 7.57872 9.0714 7.57718C8.92517 7.57564 8.78368 7.62898 8.67485 7.72666L8.11959 8.28193C7.55738 8.86079 8.15429 10.4183 9.50775 11.8092C10.8612 13.2002 12.4118 13.8595 13.0031 13.2807L13.5584 12.7254C13.6586 12.6188 13.7152 12.4784 13.7167 12.3321C13.7182 12.1858 13.6647 12.0442 13.5667 11.9356L12.7644 11.1152Z" fill="currentColor"/>
  <path d="M11 0.449951C8.91336 0.449951 6.87363 1.0687 5.13869 2.22795C3.40375 3.3872 2.05153 5.03488 1.25303 6.96264C0.454522 8.8904 0.245597 11.0117 0.652671 13.0582C1.05975 15.1047 2.06454 16.9845 3.53998 18.4599C5.01542 19.9354 6.89525 20.9402 8.94175 21.3472C10.9882 21.7543 13.1095 21.5454 15.0373 20.7469C16.965 19.9484 18.6127 18.5962 19.772 16.8612C20.9312 15.1263 21.55 13.0865 21.55 10.9999C21.55 8.20192 20.4384 5.51848 18.4599 3.53997C16.4814 1.56147 13.798 0.449951 11 0.449951ZM15.9973 10.9999C15.9973 12.0308 15.5878 13.0194 14.8589 13.7484C14.13 14.4773 13.1413 14.8868 12.1105 14.8868H10.1518L8.53875 16.4998C8.51268 16.525 8.47985 16.542 8.44427 16.5487C8.40869 16.5554 8.37191 16.5517 8.33845 16.5378C8.305 16.5239 8.27631 16.5006 8.25591 16.4707C8.23552 16.4408 8.2243 16.4056 8.22364 16.3693V14.5134C7.55883 14.198 6.99719 13.7005 6.60401 13.0785C6.21083 12.4565 6.00228 11.7358 6.00259 10.9999V9.33416C6.00259 8.30331 6.41209 7.31467 7.14102 6.58575C7.86994 5.85682 8.85857 5.44732 9.88943 5.44732H12.1105C13.1413 5.44732 14.13 5.85682 14.8589 6.58575C15.5878 7.31467 15.9973 8.30331 15.9973 9.33416V10.9999Z" fill="currentColor"/>
  <path d="M11.5052 6.97437C11.4386 6.97437 11.3719 6.97714 11.3053 6.98269C11.2563 6.98638 11.2108 7.00936 11.1788 7.04659C11.1468 7.08381 11.1309 7.13224 11.1346 7.1812C11.1382 7.23017 11.1612 7.27566 11.1984 7.30768C11.2357 7.3397 11.2841 7.35563 11.3331 7.35194H11.5052C12.0943 7.35194 12.6592 7.58595 13.0757 8.00248C13.4922 8.419 13.7262 8.98394 13.7262 9.573C13.7267 9.7455 13.7066 9.91745 13.6666 10.0852C13.6588 10.1096 13.6562 10.1353 13.6589 10.1607C13.6615 10.1862 13.6694 10.2108 13.682 10.233C13.6946 10.2553 13.7116 10.2747 13.732 10.2901C13.7525 10.3054 13.7759 10.3164 13.8007 10.3224C13.8256 10.3283 13.8514 10.329 13.8766 10.3245C13.9018 10.32 13.9257 10.3104 13.947 10.2962C13.9683 10.282 13.9864 10.2636 14.0003 10.2421C14.0141 10.2206 14.0234 10.1965 14.0275 10.1713C14.0735 9.97518 14.0967 9.77443 14.0969 9.573C14.0976 8.88477 13.825 8.22442 13.339 7.73713C12.853 7.24983 12.1934 6.97547 11.5052 6.97437Z" fill="currentColor"/>
  </g>
</svg>