<svg xmlns="http://www.w3.org/2000/svg" width="22" height="22" viewBox="0 0 22 22" fill="none">
  <path d="M13.2407 6.44843H8.76411C7.48911 6.44843 6.44849 7.48436 6.44849 8.76405V13.2406C6.44849 14.5156 7.48442 15.5562 8.76411 15.5562H13.2407C14.5157 15.5562 15.5563 14.5203 15.5563 13.2406V8.76405C15.5516 7.48436 14.5157 6.44843 13.2407 6.44843ZM11 13.9953C9.35005 13.9953 8.00474 12.65 8.00474 11C8.00474 9.34999 9.35005 8.00468 11 8.00468C12.65 8.00468 13.9954 9.34999 13.9954 11C13.9954 12.65 12.65 13.9953 11 13.9953ZM14.1454 8.33749C13.8641 8.33749 13.6391 8.11249 13.6391 7.83124C13.6391 7.54999 13.8641 7.32499 14.1454 7.32499C14.4266 7.32499 14.6516 7.54999 14.6516 7.83124C14.6516 8.11249 14.4266 8.33749 14.1454 8.33749Z" fill="#003A71"/>
  <path d="M12.8207 11.0221C12.8328 10.0177 12.0282 9.19362 11.0238 9.18157C10.0193 9.16951 9.19526 9.97402 9.1832 10.9785C9.17115 11.983 9.97566 12.807 10.9801 12.8191C11.9846 12.8311 12.8086 12.0266 12.8207 11.0221Z" fill="#003A71"/>
  <path d="M11 0.453125C5.17344 0.453125 0.453125 5.17344 0.453125 11C0.453125 16.8266 5.17344 21.5469 11 21.5469C16.8266 21.5469 21.5469 16.8266 21.5469 11C21.5469 5.17344 16.8266 0.453125 11 0.453125ZM16.8594 13.2406C16.8594 15.2375 15.2375 16.8594 13.2406 16.8594H8.76406C6.76719 16.8594 5.14531 15.2375 5.14531 13.2406V8.76406C5.14531 6.76719 6.76719 5.14531 8.76406 5.14531H13.2406C15.2375 5.14531 16.8594 6.76719 16.8594 8.76406V13.2406Z" fill="#003A71"/>
</svg>