<svg xmlns="http://www.w3.org/2000/svg"  viewBox="0 0 24 24"  fill="none">
<g transform="scale(1.1)">
  <path d="M13.2407 6.44849H8.76411C7.48911 6.44849 6.44849 7.48442 6.44849 8.76411V13.2407C6.44849 14.5157 7.48442 15.5563 8.76411 15.5563H13.2407C14.5157 15.5563 15.5563 14.5204 15.5563 13.2407V8.76411C15.5516 7.48442 14.5157 6.44849 13.2407 6.44849ZM11 13.9954C9.35005 13.9954 8.00474 12.65 8.00474 11C8.00474 9.35005 9.35005 8.00474 11 8.00474C12.65 8.00474 13.9954 9.35005 13.9954 11C13.9954 12.65 12.65 13.9954 11 13.9954ZM14.1454 8.33755C13.8641 8.33755 13.6391 8.11255 13.6391 7.8313C13.6391 7.55005 13.8641 7.32505 14.1454 7.32505C14.4266 7.32505 14.6516 7.55005 14.6516 7.8313C14.6516 8.11255 14.4266 8.33755 14.1454 8.33755Z" fill="currentColor"/>
  <path d="M12.8207 11.0221C12.8328 10.0177 12.0282 9.19362 11.0238 9.18157C10.0193 9.16951 9.19526 9.97402 9.1832 10.9785C9.17115 11.983 9.97566 12.807 10.9801 12.8191C11.9846 12.8311 12.8086 12.0266 12.8207 11.0221Z" fill="currentColor"/>
  <path d="M11 0.453125C5.17344 0.453125 0.453125 5.17344 0.453125 11C0.453125 16.8266 5.17344 21.5469 11 21.5469C16.8266 21.5469 21.5469 16.8266 21.5469 11C21.5469 5.17344 16.8266 0.453125 11 0.453125ZM16.8594 13.2406C16.8594 15.2375 15.2375 16.8594 13.2406 16.8594H8.76406C6.76719 16.8594 5.14531 15.2375 5.14531 13.2406V8.76406C5.14531 6.76719 6.76719 5.14531 8.76406 5.14531H13.2406C15.2375 5.14531 16.8594 6.76719 16.8594 8.76406V13.2406Z" fill="currentColor"  />
  </g>
</svg>