<svg xmlns="http://www.w3.org/2000/svg" viewBox="0 0 24 24" fill="none">
  <path d="M12 1.45312C6.17344 1.45312 1.45312 6.17344 1.45312 12C1.45312 17.8266 6.17344 22.5469 12 22.5469C17.8266 22.5469 22.5469 17.8266 22.5469 12C22.5469 6.17344 17.8266 1.45312 12 1.45312ZM17.1328 10.9828C16.9641 10.9828 15.4922 10.9547 14.1328 9.975V14.2266C14.1328 16.2328 12.5016 17.8641 10.4953 17.8641C8.48906 17.8641 6.85781 16.2328 6.85781 14.2266C6.85781 12.2203 8.48906 10.5891 10.4953 10.5891H11.0859V12.4641H10.4953C9.525 12.4641 8.73281 13.2563 8.73281 14.2266C8.73281 15.1969 9.525 15.9891 10.4953 15.9891C11.4656 15.9891 12.2578 15.1969 12.2578 14.2266V6.14062H14.1328V6.20156C14.175 6.65625 14.4422 7.87969 15.2109 8.44219C16.0922 9.08906 17.1281 9.10781 17.1375 9.10781H17.1328V10.9828Z" fill="currentColor"/>
</svg>