<svg xmlns="http://www.w3.org/2000/svg" viewBox="0 0 24 24" fill="none">
<g transform="scale(1.06) translate(-1, 0) md:translate(1,0)" >
  <path d="M12 1.44995C6.17334 1.44995 1.44995 6.17334 1.44995 12C1.44995 17.8266 6.17334 22.55 12 22.55C17.8266 22.55 22.55 17.8266 22.55 12C22.55 6.17334 17.8266 1.44995 12 1.44995ZM17.4834 8.12349L15.6097 17.0689C15.587 17.1771 15.5375 17.2779 15.4657 17.3619C15.3939 17.446 15.3022 17.5107 15.1989 17.5501C15.0956 17.5894 14.9841 17.6022 14.8745 17.5872C14.765 17.5722 14.661 17.5299 14.5721 17.4642L11.8466 15.4506L10.1953 17.0084C10.1737 17.0288 10.1482 17.0447 10.1204 17.0551C10.0926 17.0656 10.063 17.0704 10.0333 17.0692C10.0036 17.0681 9.97443 17.0611 9.94748 17.0485C9.92054 17.036 9.89636 17.0183 9.87635 16.9963L9.84087 16.9573L10.1278 14.1807L15.2991 9.45584C15.3247 9.43251 15.3406 9.40044 15.3437 9.36597C15.3468 9.33149 15.3368 9.29711 15.3158 9.2696C15.2948 9.24209 15.2642 9.22345 15.2302 9.21736C15.1961 9.21128 15.161 9.21818 15.1317 9.23672L8.51824 13.4225L5.66995 12.4659C5.59422 12.4405 5.52821 12.3922 5.48099 12.3278C5.43376 12.2633 5.40764 12.1859 5.40619 12.106C5.40475 12.0261 5.42805 11.9477 5.47292 11.8816C5.51778 11.8155 5.582 11.7649 5.65676 11.7367L16.801 7.53862C16.887 7.50627 16.9801 7.49761 17.0705 7.51354C17.161 7.52947 17.2455 7.56941 17.3152 7.62918C17.385 7.68895 17.4374 7.76636 17.467 7.85332C17.4966 7.94027 17.5023 8.03358 17.4834 8.12349Z" fill="currentColor"/>
  </g>
</svg>