<svg xmlns="http://www.w3.org/2000/svg" viewBox="0 0 24 24"  fill="none">
<g transform="scale(1.07) translate(-2, 0) md:translate(1,0)">
  <path d="M12.875 1.45312C7.04844 1.45312 2.32812 6.17344 2.32812 12C2.32812 17.8266 7.04844 22.5469 12.875 22.5469C18.7016 22.5469 23.4219 17.8266 23.4219 12C23.4219 6.17344 18.7016 1.45312 12.875 1.45312ZM15.9031 8.06719C15.9031 8.06719 14.7875 8.05781 14.5062 8.05781C14.0844 8.05781 13.8031 8.42344 13.8031 8.79375V10.3453H15.9031L15.6641 12.4594H13.7797V17.8594H11.6469V12.4875H9.84687V10.3219H11.675C11.675 10.3219 11.675 9.5625 11.675 8.27813C11.675 7.13906 12.9406 6.13594 13.8219 6.13594C13.9531 6.13594 15.9031 6.15469 15.9031 6.15469V8.06719Z" fill="currentColor"  />
  </g>
</svg>
