<svg xmlns="http://www.w3.org/2000/svg" viewBox="0 0 24 24"  fill="none">
<g transform="scale(1.11) md:translate(-0.1,0)">
  <path d="M9.13501 8.78284V11.0282V13.2782L10.9538 12.1532L12.7725 11.0282L10.9538 9.90784L9.13501 8.78284Z" fill="currentColor"/>
  <path d="M10.6257 0.453125C4.79917 0.453125 0.0788574 5.17344 0.0788574 11C0.0788574 16.8266 4.79917 21.5469 10.6257 21.5469C16.4523 21.5469 21.1726 16.8266 21.1726 11C21.1726 5.17344 16.4523 0.453125 10.6257 0.453125ZM16.4851 12.9547C16.4851 14.1266 15.5289 15.0828 14.357 15.0828H6.89448C5.72261 15.0828 4.76636 14.1266 4.76636 12.9547V9.05C4.76636 7.87812 5.72261 6.92188 6.89448 6.92188H14.357C15.5289 6.92188 16.4851 7.87812 16.4851 9.05V12.9547Z" fill="currentColor" />
  </g>
</svg>