<svg xmlns="http://www.w3.org/2000/svg" width="24" height="24" viewBox="0 0 24 24" fill="none">
  <path d="M12 1.45312C6.17344 1.45312 1.45312 6.17344 1.45312 12C1.45312 17.8266 6.17344 22.5469 12 22.5469C17.8266 22.5469 22.5469 17.8266 22.5469 12C22.5469 6.17344 17.8266 1.45312 12 1.45312ZM15.0281 8.06719C15.0281 8.06719 13.9125 8.05781 13.6312 8.05781C13.2094 8.05781 12.9281 8.42344 12.9281 8.79375V10.3453H15.0281L14.7891 12.4594H12.9047V17.8594H10.7719V12.4875H8.97187V10.3219H10.8C10.8 10.3219 10.8 9.5625 10.8 8.27813C10.8 7.13906 12.0656 6.13594 12.9469 6.13594C13.0781 6.13594 15.0281 6.15469 15.0281 6.15469V8.06719Z" fill="#003A71"/>
</svg>